<?xml version="1.0" encoding="UTF-8"?>
<svg width="20px" height="20px" viewBox="0 0 20 20" version="1.1" xmlns="http://www.w3.org/2000/svg" xmlns:xlink="http://www.w3.org/1999/xlink">
    <title>attention</title>
    <g id="light" stroke="none" stroke-width="1" fill="none" fill-rule="evenodd">
        <g id="attention" fill="#727171" fill-rule="nonzero">
            <path d="M19.3516056,16.4851117 L10.8465995,2.48380078 C10.4482,1.82906681 9.47273754,1.83006641 9.07639172,2.48679956 L0.63915451,16.4881105 C0.236647879,17.1548396 0.730539944,17.9934989 1.52425838,17.9934989 L18.4675286,17.9934989 C19.2622738,17.9934989 19.7561659,17.1518408 19.3516056,16.4851117 Z M11,15.008 C11,15.556 10.556,16 10.008,16 L9.992,16 C9.444,16 9,15.556 9,15.008 L9,14.992 C9,14.444 9.444,14 9.992,14 L10.008,14 C10.556,14 11,14.444 11,14.992 L11,15.008 Z M11,12.076 C11,12.586 10.584,13 10.072,13 L9.928,13 C9.416,13 9,12.586 9,12.076 L9,7.949 C9,7.438 9.416,7 9.928,7 L10.072,7 C10.584,7 11,7.438 11,7.949 L11,12.076 Z" id="Shape"></path>
        </g>
    </g>
</svg>