<?xml version="1.0" encoding="UTF-8"?>
<svg width="12px" height="12px" viewBox="0 0 12 12" version="1.1" xmlns="http://www.w3.org/2000/svg" xmlns:xlink="http://www.w3.org/1999/xlink">
    <title>ICON /ai/internet</title>
    <g id="ICON-/ai/internet" stroke="none" stroke-width="1" fill="none" fill-rule="evenodd">
        <path d="M6,0 C9.3137085,0 12,2.6862915 12,6 C12,9.3137085 9.3137085,12 6,12 C2.6862915,12 0,9.3137085 0,6 C0,2.6862915 2.6862915,0 6,0 Z M7.1349207,9.00146189 L4.8650793,9.00146189 C5.18382822,10.2239241 5.64904882,11 6,11 C6.35095118,11 6.81617178,10.2239241 7.1349207,9.00146189 Z M3.83460339,9.00061356 L2.00053506,9.00119948 C2.61723154,9.82171449 3.48054708,10.446306 4.48040848,10.7649009 C4.21970093,10.2849489 3.99974863,9.68559514 3.83460339,9.00061356 Z M8.16539661,9.00061356 C8.00025137,9.68559514 7.78029907,10.2849489 7.51993205,10.7641333 C8.51945292,10.446306 9.38276846,9.82171449 9.99946494,9.00119948 L8.16539661,9.00061356 Z M3.53455263,5.00019152 L1.1,5 L1.05674214,5.24425939 C1.01937453,5.49072679 1,5.74310081 1,6 C1,6.71092875 1.14837405,7.38720289 1.41584506,7.99954534 L3.642,7.999 L3.59219966,7.62010209 C3.53212356,7.10474853 3.5,6.5613777 3.5,6 C3.5,5.65935467 3.51182819,5.32533963 3.53455263,5.00019152 Z M7.46148392,5.00000988 L4.53851608,5.00000988 C4.51358729,5.32208862 4.5,5.65636521 4.5,6 C4.5,6.71564941 4.55893038,7.39071073 4.65650596,7.99953468 L7.343,7.999 L7.39713497,7.62731367 C7.46224408,7.11964909 7.5,6.57282668 7.5,6 C7.5,5.65636521 7.48641271,5.32208862 7.46148392,5.00000988 Z M10.9001445,5.00080135 L8.46544737,5.00019152 C8.48817181,5.32533963 8.5,5.65935467 8.5,6 C8.5,6.70098541 8.44991228,7.37389414 8.35785772,7.99923611 L10.583,7.999 L10.6910866,7.73415451 C10.8908733,7.19390198 11,6.60969494 11,6 C11,5.65781727 10.9656266,5.32366287 10.9001445,5.00080135 Z M4.48006795,1.23586669 L4.34147192,1.2816409 C3.02990699,1.74264813 1.96857348,2.73504514 1.41584227,4.00046106 L3.64228574,3.99978962 C3.80521087,2.89362334 4.09945785,1.9363487 4.48006795,1.23586669 Z M6,1 C5.56077398,1 4.94256456,2.21558946 4.65650435,4.0004754 L7.34349565,4.0004754 C7.06981076,2.29280583 6.49209339,1.10624125 6.05796791,1.00677272 L6,1 Z M7.51959152,1.23509909 L7.52767548,1.25017537 C7.90453318,1.94935933 8.19589573,2.9011365 8.35771426,3.99978962 L10.5841577,4.00046106 C10.0120374,2.690656 8.89500677,1.67336009 7.51959152,1.23509909 Z" id="形状结合" fill="#000000"></path>
    </g>
</svg>