<?xml version="1.0" encoding="UTF-8"?>
<svg width="16px" height="16px" viewBox="0 0 16 16" version="1.1" xmlns="http://www.w3.org/2000/svg" xmlns:xlink="http://www.w3.org/1999/xlink">
    <title>ICON / action /history</title>
    <g id="ICON-/-action-/history" stroke="none" stroke-width="1" fill="none" fill-rule="evenodd" fill-opacity="0.7">
        <path d="M8,1.25 C11.7279221,1.25 14.75,4.27207794 14.75,8 C14.75,11.7279221 11.7279221,14.75 8,14.75 C4.35139543,14.75 1.37891859,11.855153 1.25408192,8.23697157 L1.25,8 L2.75,8 C2.75,10.8994949 5.10050506,13.25 8,13.25 C10.8994949,13.25 13.25,10.8994949 13.25,8 C13.25,5.10050506 10.8994949,2.75 8,2.75 C6.43894348,2.75 4.99466275,3.4357282 4.00950245,4.5879903 L5.4379158,5.99121284 L1.35318375,5.99121284 L1.35318375,1.97525311 L2.93824724,3.53395058 C4.20220001,2.10112061 6.02968147,1.25 8,1.25 Z M7.7,5 C8.08480167,5 8.39674507,5.31194339 8.39674507,5.69674507 L8.386,7.863 L10.9363839,8.69134243 C11.3040617,8.81080819 11.5052774,9.20571608 11.3858116,9.57339389 C11.2663458,9.9410717 10.8714379,10.1422873 10.5037601,10.0228216 L7.36527363,9.00306547 C7.33289496,8.99254501 7.30232357,8.97903405 7.2737659,8.96293775 C7.11098367,8.88075543 7,8.71166427 7,8.5174048 L7,5.7 C7,5.31340068 7.31340068,5 7.7,5 Z" id="形状结合" fill="#000000"></path>
    </g>
</svg>