<?xml version="1.0" encoding="UTF-8"?>
<svg width="16px" height="16px" viewBox="0 0 16 16" version="1.1" xmlns="http://www.w3.org/2000/svg" xmlns:xlink="http://www.w3.org/1999/xlink">
    <title>ICON / action /insert_code</title>
    <g id="ICON-/-action-/insert_code" stroke="none" stroke-width="1" fill="none" fill-rule="evenodd" fill-opacity="0.7">
        <path d="M4.5,8 C6.43299662,8 8,9.56700338 8,11.5 C8,13.4329966 6.43299662,15 4.5,15 C2.56700338,15 1,13.4329966 1,11.5 C1,9.56700338 2.56700338,8 4.5,8 Z M4.501,9 C4.22485763,9 4.001,9.22385763 4.001,9.5 L4,11 L2.501,11 C2.25554011,11 2.05139163,11.1768752 2.00905567,11.4101244 L2.001,11.5 C2.001,11.7761424 2.22485763,12 2.501,12 L4,12 L4.001,13.5 C4.001,13.7454599 4.17787516,13.9496084 4.41112437,13.9919443 L4.501,14 C4.77714237,14 5.001,13.7761424 5.001,13.5 L5,12 L6.501,12 C6.74645989,12 6.95060837,11.8231248 6.99294433,11.5898756 L7.001,11.5 C7.001,11.2238576 6.77714237,11 6.501,11 L5,11 L5.001,9.5 C5.001,9.25454011 4.82412484,9.05039163 4.59087563,9.00805567 L4.501,9 Z M13,1 C14.1045695,1 15,1.8954305 15,3 L15,12 C15,13.1045695 14.1045695,14 13,14 L8.24187962,14.0005166 C8.44833248,13.6921841 8.61768659,13.3569136 8.74355535,13.0010919 L13,13 C13.5522847,13 14,12.5522847 14,12 L14,3 C14,2.44771525 13.5522847,2 13,2 L4,2 C3.44771525,2 3,2.44771525 3,3 L2.99932081,7.25629868 C2.64334561,7.38218246 2.30793513,7.5515877 1.99948339,7.75812038 L2,3 C2,1.8954305 2.8954305,1 4,1 L13,1 Z M10.0380087,3.1394691 C10.2929925,3.24547788 10.4137606,3.53812021 10.3077518,3.79310403 C10.2774222,3.86605617 10.2507689,3.93016562 10.2251182,3.99186343 L10.1679681,4.12932696 C10.0717781,4.36069375 9.96148846,4.62597425 9.69610411,5.26430543 L9.58134444,5.54033782 C9.39579473,5.98664211 9.14764313,6.58352322 8.80643468,7.40423474 C8.7004259,7.65921856 8.40778357,7.77998669 8.15279975,7.6739779 C7.89781593,7.56796912 7.7770478,7.27532679 7.88305659,7.02034297 C8.86876988,4.64939856 9.07786058,4.14647096 9.24459004,3.74543518 L9.30174011,3.60797165 C9.32739079,3.54627384 9.35404411,3.48216439 9.38437375,3.40921225 C9.49038254,3.15422843 9.78302487,3.03346031 10.0380087,3.1394691 Z M10.8385237,4.17256281 C11.0018208,3.94987767 11.3147212,3.90173415 11.5374064,4.06503124 C11.7681638,4.2342478 11.7681638,4.2342478 12.9219507,5.08033056 C13.1956047,5.28100356 13.1941268,5.69017921 12.9190303,5.88887016 L11.534486,6.88887016 C11.310627,7.05055436 10.9980825,7.00015177 10.8363983,6.77629282 L10.7903057,6.69871711 C10.6880562,6.48484201 10.74999,6.22192448 10.9489757,6.07820519 L11.7762752,5.48023835 L11.7657056,5.47250266 C11.1675824,5.03389336 11.1306612,5.00681871 10.9460553,4.87144547 C10.7233702,4.70814837 10.6752266,4.39524795 10.8385237,4.17256281 Z M7.27637334,4.17256281 C7.43967043,4.39524795 7.3915269,4.70814837 7.16884177,4.87144547 C7.14044086,4.89227212 7.11553544,4.91053549 7.09154424,4.92812847 L7.01973195,4.98078909 C6.90838357,5.06244189 6.76327677,5.16885007 6.3491915,5.47250266 L6.33862185,5.48023835 L7.16592137,6.07820519 C7.3649071,6.22192448 7.4268409,6.48484201 7.32459137,6.69871711 L7.27849871,6.77629282 C7.11681451,7.00015177 6.80427003,7.05055436 6.58041108,6.88887016 L5.19586671,5.88887016 C4.92077027,5.69017921 4.91929236,5.28100356 5.19294631,5.08033056 C6.34673329,4.2342478 6.34673329,4.2342478 6.57749068,4.06503124 C6.80017582,3.90173415 7.11307624,3.94987767 7.27637334,4.17256281 Z" id="形状结合" fill="#000000"></path>
    </g>
</svg>