<?xml version="1.0" encoding="UTF-8"?>
<svg width="16px" height="16px" viewBox="0 0 16 16" version="1.1" xmlns="http://www.w3.org/2000/svg" xmlns:xlink="http://www.w3.org/1999/xlink">
    <title>ICON / action / clear_history</title>
    <g id="ICON-/-action-/-clear_history" stroke="none" stroke-width="1" fill="none" fill-rule="evenodd" fill-opacity="0.7">
        <path d="M6.82507836,9.41135474 L11.9356078,12.5030722 L11.9809541,12.6495346 C11.3345869,14.2103572 10.4645495,15.2468809 9.38845213,15.7418171 C9.10599073,15.9501745 8.89989014,16 8.42557667,16 C8.13045765,16 7.84785044,15.9150767 7.59105982,15.7525573 C6.85862969,15.4108323 6.28857157,15.061529 5.88039714,14.7032922 L5.91140026,14.5067417 C6.63490816,14.22134 7.01410216,13.9266559 7.05722032,13.6626997 C7.06091536,13.5970474 7.06062646,13.5441405 7.06097845,13.5138761 L7.06113398,13.4996779 L7.05054101,13.5030554 L7.0345586,13.5095988 L7.02454545,13.5146353 L6.90563081,13.5952574 C6.33266858,13.9531811 5.47869896,14.1089367 4.29649195,14.0516785 L2,12.3440141 L2.04495907,12.1361866 C4.03242151,11.8074114 5.50508958,11.0149296 6.46077508,9.77165621 C6.54337826,9.63367711 6.62013005,9.52165346 6.69154272,9.43526874 L6.82507836,9.41135474 Z M14.4729192,1.10395529 C14.5359026,1.145037 14.5359026,1.145037 14.8588604,1.36036748 C14.9894198,1.50536682 15.0329746,1.68058562 14.9745008,1.89819326 L11.6205228,8.17701289 L11.7201605,8.24682503 C12.7233136,8.99392271 13.0776316,9.84286063 12.9683469,10.8568414 L12.9442866,11.0375053 C12.886096,11.2730031 12.7163924,11.5731445 12.4354074,11.944436 L12.300345,11.9730579 L7.09614014,8.94048277 L7.05851326,8.77533187 C7.06286084,8.76845183 7.06286084,8.76845183 7.06653956,8.76263026 C7.07590358,8.74781171 7.07590358,8.74781171 7.09061847,8.72452543 C7.12807456,8.66525125 7.12807456,8.66525125 7.18693411,8.57210611 C7.33675844,8.33500939 7.33675844,8.33500939 7.57493633,7.95829303 C8.09722232,7.20561151 9.06798215,7.0846637 10.4657074,7.57226182 L10.3814511,7.54399029 L10.5227532,7.28025573 C12.5168969,3.54558206 13.5998373,1.54830133 13.7906061,1.25335101 L13.8054915,1.23122598 C13.952786,0.972258669 14.1921545,0.932272095 14.4729192,1.10395529 Z M4.11226463,4.19978436 L4.15855122,4.37637009 C4.42278801,5.34736821 4.65459674,5.5785596 5.65189573,5.87858664 L5.65281714,6.09947104 L5.49078049,6.14988215 C4.60046859,6.43744523 4.38814943,6.69012087 4.11251093,7.7775999 L3.90522131,7.77855526 L3.85893473,7.60196953 C3.59469793,6.63097141 3.3628892,6.39978002 2.36559022,6.09975298 L2.36466881,5.87886858 L2.52670546,5.82845747 C3.41701736,5.54089439 3.62933652,5.28821875 3.90497502,4.20073972 L4.11226463,4.19978436 Z M8.52279626,2.44138824 L8.55743846,2.57355524 C8.75293513,3.29195216 8.91960115,3.45817433 9.65892255,3.68059149 L9.65984397,3.90147589 L9.53857895,3.939201 C8.88012788,4.15187503 8.7274435,4.33358083 8.52304255,5.14000572 L8.31575294,5.14096108 L8.28111074,5.00879408 C8.08561407,4.29039716 7.91894805,4.124175 7.17962664,3.90175783 L7.17870523,3.68087343 L7.29997025,3.64314832 C7.95842132,3.43047429 8.1111057,3.24876849 8.31550665,2.4423436 L8.52279626,2.44138824 Z" id="形状结合" fill="#000000"></path>
    </g>
</svg>