<?xml version="1.0" encoding="UTF-8"?>
<svg width="12px" height="12px" viewBox="0 0 12 12" version="1.1" xmlns="http://www.w3.org/2000/svg" xmlns:xlink="http://www.w3.org/1999/xlink">
    <title>ICON /ai/at</title>
    <g id="ICON-/ai/at" stroke="none" stroke-width="1" fill="none" fill-rule="evenodd">
        <path d="M6,0 C9.00269966,0 11.4902283,2.20570956 11.9307131,5.08525605 C11.9391279,5.11600898 11.945523,5.1480814 11.9487514,5.18122626 L11.9566807,5.27530549 C11.9852819,5.51287608 12,5.75471924 12,6 C12,9.3137085 9.3137085,12 6,12 C2.6862915,12 0,9.3137085 0,6 C0,2.6862915 2.6862915,0 6,0 Z M6,1 C3.23857625,1 1,3.23857625 1,6 C1,8.76142375 3.23857625,11 6,11 C7.6388901,11 9.09361457,10.2114932 10.0055002,8.99315282 C9.89724792,9.00945423 9.78815356,9.01779834 9.67771117,9.01779834 C8.78759224,9.01779834 8.02220309,8.48376667 7.6844609,7.71861886 C7.25615673,8.48290235 6.43846568,9 5.5,9 C4.11928813,9 3,7.88071187 3,6.5 L3,5.5 C3,4.11928813 4.11928813,3 5.5,3 C6.27319865,3 6.96441481,3.35100876 7.42299378,3.90237156 L7.49997711,4 C7.49997711,3.7238536 7.72386165,3.5 8.00000403,3.5 C8.2761464,3.5 8.50000223,3.72386165 8.5,4 L8.49997711,6.84006429 C8.49997711,7.49050885 9.02726661,8.01779834 9.67771117,8.01779834 C10.1491032,8.01779834 10.5750852,7.73671795 10.760507,7.30332529 C10.9592162,6.83887548 11.0308837,6.20278178 10.9640979,5.39613228 C10.6647783,2.91857038 8.55644219,1 6,1 Z M5.5,4 C4.67157288,4 4,4.67157288 4,5.5 L4,6.5 C4,7.32842712 4.67157288,8 5.5,8 C6.32842712,8 7,7.32842712 7,6.5 L7,5.5 C7,4.67157288 6.32842712,4 5.5,4 Z" id="形状结合" fill="#000000"></path>
    </g>
</svg>