<?xml version="1.0" encoding="UTF-8"?>
<svg width="16px" height="16px" viewBox="0 0 16 16" version="1.1" xmlns="http://www.w3.org/2000/svg" xmlns:xlink="http://www.w3.org/1999/xlink">
    <title>ICON /ai/history</title>
    <g id="ICON-/ai/history" stroke="none" stroke-width="1" fill="none" fill-rule="evenodd">
        <path d="M8,1 C11.8659932,1 15,4.13400675 15,8 C15,11.8659932 11.8659932,15 8,15 C4.4738781,15 1.55669765,12.3928118 1.07103341,9.00101007 L2.08309386,9.00080686 C2.55950437,11.8381232 5.02728549,14 8,14 C11.3137085,14 14,11.3137085 14,8 C14,4.6862915 11.3137085,2 8,2 C6.08700625,2 4.38311286,2.89526506 3.28444061,4.28967441 L5,6.00692558 L1,6.00692558 L1,2.00692558 L2.57293767,3.57845628 C3.85653516,2.00484949 5.81091999,1 8,1 Z M7.5,5 C7.77521338,5 7.99831791,5.22310453 7.99831791,5.49831791 L7.989,8.229 L10.8065702,9.20136543 C11.0630657,9.28984069 11.2034086,9.56556867 11.1240018,9.82501498 C11.0481071,10.0729863 10.7855619,10.2124819 10.5375906,10.1365872 C10.5323299,10.1349771 10.5270978,10.1332746 10.5218969,10.1314806 L7.49882912,9.08870715 C7.39488976,9.05285443 7.31002386,8.98625287 7.25112506,8.90244622 C7.10067356,8.81196996 7,8.64616857 7,8.45779575 L7,5.5 C7,5.22385763 7.22385763,5 7.5,5 Z" id="形状结合" fill="#000000"></path>
    </g>
</svg>