<?xml version="1.0" encoding="UTF-8"?>
<svg width="16px" height="16px" viewBox="0 0 16 16" version="1.1" xmlns="http://www.w3.org/2000/svg" xmlns:xlink="http://www.w3.org/1999/xlink">
    <title>ICON / action / send</title>
    <g id="ICON-/-action-/-send" stroke="none" stroke-width="1" fill="none" fill-rule="evenodd">
        <path d="M14.8512951,8.59808433 C14.730207,8.85581429 14.5239402,9.06011426 14.2768522,9.18302424 L4.93478372,13.8625735 C4.27203359,14.1842184 3.47226594,13.9219135 3.13590347,13.2776336 C2.98785321,12.9664886 2.957823,12.6153237 3.06032167,12.2877237 L4.08201359,8.98667427 C4.17556515,8.68440932 4.45686972,8.47809935 4.77547402,8.47809935 L8.3511388,8.47809935 C8.61395976,8.47704935 8.82887144,8.26629939 8.83487143,7.99814443 C8.84087143,7.72998947 8.62094212,7.52075451 8.3511388,7.51818951 L4.77810374,7.51818951 C4.45824504,7.51818951 4.17613946,7.31027454 4.08364583,7.00637459 L3.07543501,3.69355012 C2.86449814,3.00262024 3.26268927,2.26568536 3.96731846,2.05870039 C4.29346431,1.95694041 4.6462852,1.9878254 4.94989706,2.14870037 L14.2768522,6.82824962 C14.9283882,7.15853457 15.1906046,7.95326444 14.8512951,8.59808433 L14.8512951,8.59808433 Z" id="路径" fill="#FFFFFF" fill-rule="nonzero"></path>
    </g>
</svg>