<?xml version="1.0" encoding="UTF-8"?>
<svg width="22px" height="22px" viewBox="0 0 22 22" version="1.1" xmlns="http://www.w3.org/2000/svg" xmlns:xlink="http://www.w3.org/1999/xlink">
    <title>ICON / sidebar /codegee_22px</title>
    <g id="ICON-/-sidebar-/codegee_22px" stroke="none" stroke-width="1" fill="none" fill-rule="evenodd">
        <path d="M7.46118858,3.67755259 C7.91372836,4.13924962 7.91372836,4.909126 7.46118858,5.37082303 L3.57165617,9.35642548 C3.23677785,9.69807797 3.23677785,10.246335 3.57165617,10.5879874 L6.87406426,13.9572083 C7.20892004,14.2988608 7.74630047,14.2988608 8.08121259,13.9572083 L8.51673918,13.5128256 C8.6842234,13.3419707 8.76793735,13.1365674 8.76793735,12.896444 L8.76793735,12.023866 C8.76793735,11.9038042 8.76793735,11.7849437 8.78489421,11.664882 C8.81880793,11.2031678 9.18763377,10.8603714 9.64017356,10.8603714 L12.389326,10.8603714 L12.389326,10.8430971 C13.1450612,10.8442411 13.5138871,11.7676123 12.9946465,12.3147253 L8.06532609,17.3437606 C7.73047031,17.6854131 7.19308988,17.6854131 6.8582341,17.3437606 L0.251158313,10.570656 C-0.0837194377,10.2290035 -0.0837194377,9.68074652 0.251158313,9.33909404 L5.8015568,3.67755259 C6.25409659,3.21585671 7.00870513,3.21585671 7.46118858,3.67755259 Z M15.123775,3.55624108 L21.7466973,10.313144 C22.081553,10.6721279 22.081553,11.2192409 21.7636541,11.5620374 L16.1962824,17.24206 C15.7437426,17.7037742 14.9891904,17.7037742 14.5366507,17.24206 C14.0841109,16.7803458 14.0841109,16.010498 14.5366507,15.5487838 L18.4431512,11.5631814 C18.7780633,11.2215289 18.7780633,10.6732719 18.4431512,10.3316194 L15.123775,6.96239851 C14.7889192,6.62074603 14.2515388,6.62074603 13.9166266,6.96239851 L13.4811001,7.40678126 C13.330629,7.56029894 13.2299019,7.78306231 13.2299019,8.02314568 L13.2299019,8.89575232 C13.2299019,9.01579115 13.2299019,9.1346631 13.212945,9.25472481 C13.1790313,9.716439 12.8102055,10.0592355 12.3576657,10.0592355 L9.60851324,10.0592355 C8.8539047,10.0592355 8.48507886,9.13580709 9.00437572,8.58872268 L12.7423217,4.77165277 L13.2287752,4.25801862 L13.9166266,3.55624108 C14.2515388,3.21458631 14.7889192,3.21458631 15.123775,3.55624108 Z" id="形状结合" fill="#000000"></path>
    </g>
</svg>