<?xml version="1.0" encoding="UTF-8"?>
<svg width="16px" height="16px" viewBox="0 0 16 16" version="1.1" xmlns="http://www.w3.org/2000/svg" xmlns:xlink="http://www.w3.org/1999/xlink">
    <title>ICON /ai/project_chat</title>
    <g id="ICON-/ai/project_chat" stroke="none" stroke-width="1" fill="none" fill-rule="evenodd">
        <path d="M7.38196601,2 C8.01446302,2 8.59685039,2.3298656 8.92372374,2.86264991 L9,3 C9.30643303,3.61286606 9.9328289,4 10.618034,4 L14,4 C14.5522847,4 15,4.44771525 15,5 L15,13 C15,13.5522847 14.5522847,14 14,14 L2,14 C1.44771525,14 1,13.5522847 1,13 L1,3 C1,2.44771525 1.44771525,2 2,2 L7.38196601,2 Z M14,5 L2,5 L2,13 L14,13 L14,5 Z M8.35475175,6.82836643 L8.43329645,6.83628573 C8.67050127,6.88135025 8.82550068,7.10625042 8.77949732,7.33861433 L8.07949732,10.8743286 C8.03349396,11.1066925 7.80390837,11.2585287 7.56670355,11.2134642 C7.32949873,11.1683996 7.17449932,10.9434995 7.22050268,10.7111356 L7.92050268,7.17542128 C7.95628307,6.9946938 8.10311938,6.86268063 8.27821968,6.83413612 L8.35475175,6.82836643 Z M10.7193443,6.91929307 L12.8193443,8.52643593 C13.0308926,8.68833519 13.0450715,8.99695974 12.8492242,9.17681946 L10.7492242,11.1053909 C10.5729501,11.2672753 10.2960845,11.2585264 10.1308275,11.0858497 C9.96557049,10.913173 9.97450164,10.6419577 10.1507758,10.4800733 L11.878,8.89416066 L10.1806557,7.59474254 C10.0114059,7.46521461 9.96592179,7.23801626 10.0623789,7.05812774 L10.1052393,6.99317036 C10.2539941,6.80665014 10.5289382,6.77357415 10.7193443,6.91929307 Z M5.89476066,6.99313822 C6.0435154,7.17965843 6.00975033,7.44899147 5.81934427,7.59471039 L4.121125,8.89412852 L5.84922424,10.4800411 C6.00591235,10.6239384 6.03037885,10.8542206 5.91781617,11.0248942 L5.86917253,11.0858176 C5.70391554,11.2584943 5.42704988,11.2672431 5.25077576,11.1053587 L3.15077576,9.17678732 C2.9549285,8.9969276 2.96910736,8.68830305 3.18065573,8.52640379 L5.28065573,6.91926093 C5.47106179,6.77354201 5.74600593,6.806618 5.89476066,6.99313822 Z" id="形状结合" fill="#000000"></path>
    </g>
</svg>