<?xml version="1.0" encoding="UTF-8"?>
<svg width="16px" height="16px" viewBox="0 0 16 16" version="1.1" xmlns="http://www.w3.org/2000/svg" xmlns:xlink="http://www.w3.org/1999/xlink">
    <title>ICON / list/executable</title>
    <defs>
        <linearGradient x1="50%" y1="-4.6890937%" x2="50%" y2="88.300292%" id="linearGradient-1">
            <stop stop-color="#A1BAC2" offset="0%"></stop>
            <stop stop-color="#657F8B" offset="100%"></stop>
        </linearGradient>
        <path d="M9.0879921,1.34329149 C9.43655793,0.955907331 9.97180338,0.791124516 10.4793386,0.916879823 C11.3237721,1.12502654 12.2367521,1.64828425 12.8390855,2.268388 C13.2022357,2.64131753 13.3262026,3.1819208 13.1613995,3.67482378 C12.8230427,4.68664808 13.196402,5.32843378 14.2508501,5.54380781 C14.764219,5.64788117 15.1754975,6.02514709 15.3198825,6.52383193 C15.5605242,7.35208239 15.5605242,8.39859781 15.3227994,9.22684828 C15.1784144,9.72553311 14.7671359,10.102799 14.2537669,10.2068724 C13.1978604,10.420801 12.8245012,11.0625867 13.1643164,12.0758564 C13.3291195,12.5673139 13.2051526,13.1093627 12.8420024,13.4822922 C12.2382105,14.102396 11.3237721,14.6256537 10.480797,14.8338004 C9.97180338,14.9595557 9.43655793,14.7947729 9.08945054,14.4073887 C8.37481765,13.609493 7.62664078,13.609493 6.9120079,14.4073887 C6.56344207,14.7947729 6.02819662,14.9595557 5.52066143,14.8338004 C4.67768632,14.6242082 3.76324792,14.102396 3.15945606,13.4822922 C2.79630588,13.1093627 2.67233895,12.5673139 2.83714204,12.0758564 C3.17549883,11.0640321 2.80213962,10.4222464 1.74769151,10.2068724 C1.23578101,10.1013536 0.824502499,9.72553311 0.680117488,9.22684828 C0.440934238,8.39715235 0.440934238,7.35208239 0.680117488,6.52383193 C0.824502499,6.02514709 1.23578101,5.64932663 1.74769151,5.54380781 C2.80359805,5.32987925 3.17695727,4.68809355 2.83714204,3.67482378 C2.67233895,3.18336626 2.79630588,2.64131753 3.15945606,2.268388 C3.76324792,1.64828425 4.67622789,1.12502654 5.519203,0.916879823 C6.02819662,0.791124516 6.56344207,0.955907331 6.91054946,1.34329149 C7.62518235,2.14118723 8.37335922,2.14118723 9.0879921,1.34329149 Z M8,4.63750233 C6.19591658,4.63750233 4.73310683,6.08730201 4.73310683,7.8753401 C4.73310683,9.66337819 6.19591658,11.1131779 8,11.1131779 C9.80408342,11.1131779 11.2668932,9.66337819 11.2668932,7.8753401 C11.2668932,6.08730201 9.80408342,4.63750233 8,4.63750233 Z M8.00448227,5.8753401 C8.53823227,5.8753401 9.04073227,6.0828401 9.41823227,6.4615901 C9.79698227,6.8390901 10.0044823,7.3415901 10.0044823,7.8753401 C10.0044823,8.4090901 9.79698227,8.9115901 9.41823227,9.2890901 C9.04073227,9.6678401 8.53823227,9.8753401 8.00448227,9.8753401 C7.47073227,9.8753401 6.96823227,9.6678401 6.59073227,9.2890901 C6.21198227,8.9115901 6.00448227,8.4090901 6.00448227,7.8753401 C6.00448227,7.3415901 6.21198227,6.8390901 6.59073227,6.4615901 C6.96823227,6.0828401 7.47073227,5.8753401 8.00448227,5.8753401 Z" id="path-2"></path>
        <filter x="-5.0%" y="-5.4%" width="110.0%" height="110.7%" filterUnits="objectBoundingBox" id="filter-3">
            <feOffset dx="0" dy="0" in="SourceAlpha" result="shadowOffsetOuter1"></feOffset>
            <feGaussianBlur stdDeviation="0.25" in="shadowOffsetOuter1" result="shadowBlurOuter1"></feGaussianBlur>
            <feColorMatrix values="0 0 0 0 0   0 0 0 0 0   0 0 0 0 0  0 0 0 0.129153805 0" type="matrix" in="shadowBlurOuter1"></feColorMatrix>
        </filter>
        <filter x="-5.0%" y="-5.4%" width="110.0%" height="110.7%" filterUnits="objectBoundingBox" id="filter-4">
            <feOffset dx="0" dy="-0.5" in="SourceAlpha" result="shadowOffsetInner1"></feOffset>
            <feComposite in="shadowOffsetInner1" in2="SourceAlpha" operator="arithmetic" k2="-1" k3="1" result="shadowInnerInner1"></feComposite>
            <feColorMatrix values="0 0 0 0 0.658936453   0 0 0 0 0.717730241   0 0 0 0 0.757957569  0 0 0 1 0" type="matrix" in="shadowInnerInner1" result="shadowMatrixInner1"></feColorMatrix>
            <feOffset dx="0" dy="-0.3" in="SourceAlpha" result="shadowOffsetInner2"></feOffset>
            <feComposite in="shadowOffsetInner2" in2="SourceAlpha" operator="arithmetic" k2="-1" k3="1" result="shadowInnerInner2"></feComposite>
            <feColorMatrix values="0 0 0 0 0.199376983   0 0 0 0 0.256246027   0 0 0 0 0.326039853  0 0 0 0.694361547 0" type="matrix" in="shadowInnerInner2" result="shadowMatrixInner2"></feColorMatrix>
            <feMerge>
                <feMergeNode in="shadowMatrixInner1"></feMergeNode>
                <feMergeNode in="shadowMatrixInner2"></feMergeNode>
            </feMerge>
        </filter>
    </defs>
    <g id="ICON-/-list/executable" stroke="none" stroke-width="1" fill="none" fill-rule="evenodd">
        <path d="M15.3198825,6.52383193 C15.1754975,6.02514709 14.764219,5.64788117 14.2508501,5.54380781 C13.196402,5.32843378 12.8230427,4.68664808 13.1613995,3.67482378 C13.3262026,3.1819208 13.2022357,2.64131753 12.8390855,2.268388 C12.2367521,1.64828425 11.3237721,1.12502654 10.4793386,0.916879823 C9.97180338,0.791124516 9.43655793,0.955907331 9.0879921,1.34329149 C8.37335922,2.14118723 7.62518235,2.14118723 6.91054946,1.34329149 C6.56344207,0.955907331 6.02819662,0.791124516 5.519203,0.916879823 C4.67622789,1.12502654 3.76324792,1.64828425 3.15945606,2.268388 C2.79630588,2.64131753 2.67233895,3.18336626 2.83714204,3.67482378 C3.17695727,4.68809355 2.80359805,5.32987925 1.74769151,5.54380781 C1.23578101,5.64932663 0.824502499,6.02514709 0.680117488,6.52383193 C0.440934238,7.35208239 0.440934238,8.39715235 0.680117488,9.22684828 C0.824502499,9.72553311 1.23578101,10.1013536 1.74769151,10.2068724 C2.80213962,10.4222464 3.17549883,11.0640321 2.83714204,12.0758564 C2.67233895,12.5673139 2.79630588,13.1093627 3.15945606,13.4822922 C3.76324792,14.102396 4.67768632,14.6242082 5.52066143,14.8338004 C6.02819662,14.9595557 6.56344207,14.7947729 6.9120079,14.4073887 C7.62664078,13.609493 8.37481765,13.609493 9.08945054,14.4073887 C9.43655793,14.7947729 9.97180338,14.9595557 10.480797,14.8338004 C11.3237721,14.6256537 12.2382105,14.102396 12.8420024,13.4822922 C13.2051526,13.1093627 13.3291195,12.5673139 13.1643164,12.0758564 C12.8245012,11.0625867 13.1978604,10.420801 14.2537669,10.2068724 C14.7671359,10.102799 15.1784144,9.72553311 15.3227994,9.22684828 C15.5605242,8.39859781 15.5605242,7.35208239 15.3198825,6.52383193 Z" id="路径" fill="#FFFFFF" fill-rule="nonzero"></path>
        <g id="形状结合" fill-rule="nonzero">
            <use fill="black" fill-opacity="1" filter="url(#filter-3)" xlink:href="#path-2"></use>
            <use fill="url(#linearGradient-1)" xlink:href="#path-2"></use>
            <use fill="black" fill-opacity="1" filter="url(#filter-4)" xlink:href="#path-2"></use>
        </g>
    </g>
</svg>