<?xml version="1.0" encoding="UTF-8"?>
<svg width="16px" height="16px" viewBox="0 0 16 16" version="1.1" xmlns="http://www.w3.org/2000/svg" xmlns:xlink="http://www.w3.org/1999/xlink">
    <title>ICON /binary /signature</title>
    <g id="ICON-/binary-/signature" stroke="none" stroke-width="1" fill="none" fill-rule="evenodd">
        <path d="M8.73494339,11.7777004 C9.75459146,11.7777004 10.0892242,12.5227089 9.64351271,13.4964235 C9.52859045,13.7473539 9.63905245,14.0440399 9.89017374,14.1588995 C9.99537198,14.2070157 10.1139996,14.2171666 10.2257155,14.1876562 L11.9822311,13.7231654 C12.9515326,13.4668792 13.9804201,13.5641189 14.8845452,13.9974617 C15.1335623,14.1168144 15.2386761,14.4154371 15.1193234,14.6644543 C14.9999707,14.9134714 14.7013479,15.0185852 14.4523308,14.8992325 C13.7624786,14.5685897 12.9774321,14.4943954 12.2378661,14.6899387 L10.481239,15.154459 C10.1457083,15.2430915 9.78982538,15.2126389 9.47423066,15.0682901 C8.72086678,14.7237116 8.38948078,13.8336534 8.7340593,13.0802895 L8.77406537,12.9957412 C8.90904498,12.7178193 8.92048017,12.7777004 8.73494339,12.7777004 C8.23471503,12.7777004 7.43707383,13.0768829 6.20955874,13.6883637 C6.07189773,13.7569388 5.92758032,13.8298737 5.75846515,13.9161554 C3.57035709,15.0325164 3.28240291,15.1638451 2.71238708,15.1638451 C2.07077493,15.1638451 1.61049171,14.9332595 1.35944915,14.5317171 C1.21103453,14.294328 1.16505653,14.0567388 1.17131271,13.8575614 C1.17170011,13.8470206 1.17170011,13.8470206 1.17212868,13.8393848 C1.18874473,13.5637428 1.4256667,13.3537608 1.70130871,13.3703768 C1.97695072,13.3869929 2.18693275,13.6239149 2.1703167,13.8995569 C2.17023988,13.9074183 2.17998954,13.9577992 2.2073729,14.0015989 C2.26672987,14.0965403 2.40108023,14.1638451 2.71238708,14.1638451 C3.02853184,14.1638451 3.4438604,13.9744241 5.30400148,13.0253901 C5.47575356,12.9377631 5.62280647,12.8634458 5.76367379,12.7932734 C7.13731884,12.1089987 8.02058293,11.7777004 8.73494339,11.7777004 Z M8.64244126,3.32555959 L10.6750748,5.35852646 C10.9121693,5.59565986 10.9131599,5.97978123 10.6772917,6.21813437 L4.94492531,12.010891 L2.30045206,12.010891 C2.13215419,12.010891 1.99572182,11.8744586 1.99572182,11.7061607 L1.99572182,9.04710674 L7.78287148,3.32316442 C8.02126911,3.08737057 8.40536138,3.08844083 8.64244126,3.32555959 Z M12.4999558,10.1339796 C12.8093793,9.95534013 13.1906207,9.95534013 13.5000442,10.1339796 C13.8094677,10.3126191 14.0000547,10.6427526 14,11 C14.0000547,11.3572474 13.8094677,11.6873809 13.5000442,11.8660204 C13.1906207,12.0446599 12.8093793,12.0446599 12.4999558,11.8660204 C12.1905323,11.6873809 11.9999453,11.3572474 12,11 C11.9999453,10.6427526 12.1905323,10.3126191 12.4999558,10.1339796 Z M9.93132031,1.17858876 C10.1692869,0.940540466 10.5551726,0.940472305 10.7932233,1.17843651 L12.8215301,3.20599807 C13.0593759,3.44405456 13.0595124,3.82982901 12.8216866,4.06790533 L12.2528803,4.63820807 L12.1681607,4.70901502 C11.9306039,4.87352419 11.6022008,4.84996134 11.3906731,4.63836175 L9.36302274,2.60912816 C9.1251115,2.3711361 9.12511115,1.98536056 9.36302196,1.74736807 Z" id="形状结合" fill="#000000"></path>
    </g>
</svg>