<?xml version="1.0" encoding="UTF-8"?>
<svg width="16px" height="16px" viewBox="0 0 16 16" version="1.1" xmlns="http://www.w3.org/2000/svg" xmlns:xlink="http://www.w3.org/1999/xlink">
    <title>ICON /binary /light</title>
    <g id="ICON-/binary-/light" stroke="none" stroke-width="1" fill="none" fill-rule="evenodd">
        <path d="M8,0 C11.3137085,0 14,2.6862915 14,6 C14,8.22044953 12.793836,10.1591844 11.000963,11.1967496 L11,13 C11,13.5522847 10.5522847,14 10,14 L6,14 C5.44771525,14 5,13.5522847 5,13 L5.00003939,11.1973296 C3.20661355,10.159907 2,8.22086333 2,6 C2,2.6862915 4.6862915,0 8,0 Z M8,1 C5.23857625,1 3,3.23857625 3,6 C3,7.80627425 3.96499933,9.44334663 5.50075877,10.3317199 L6.00005199,10.6205404 L6,13 L10,13 L10.0009632,11.1962156 L10.001271,10.6199037 L10.5000764,10.3312367 C12.0353708,9.44273649 13,7.80593077 13,6 C13,3.23857625 10.7614237,1 8,1 Z M9.50226447,5.11896555 L10.2093713,5.82607233 L8.49240145,7.54196555 L8.4930172,10 L7.4930172,10 L7.49240145,7.52296555 L5.79540145,5.82607233 L6.50250823,5.11896555 L8.00240145,6.61896555 L9.50226447,5.11896555 Z M6,15 L10,15 L10,16 L6,16 Z" id="形状结合" fill="#000000"></path>
    </g>
</svg>