<?xml version="1.0" encoding="UTF-8"?>
<svg width="16px" height="16px" viewBox="0 0 16 16" version="1.1" xmlns="http://www.w3.org/2000/svg" xmlns:xlink="http://www.w3.org/1999/xlink">
    <title>ICON /binary /combo</title>
    <g id="ICON-/binary-/combo" stroke="none" stroke-width="1" fill="none" fill-rule="evenodd">
        <path d="M14.9677433,11.0112575 C15.0703221,11.2676405 14.9456392,11.5586364 14.6892563,11.6612152 C12.0878459,12.7020393 10.7351126,13.2432679 9.91181821,13.5726679 L9.62649552,13.6868255 C9.1583804,13.8741183 8.88561385,13.9832522 8.59508835,14.0994915 L8.4848926,14.1435808 C8.3916754,14.180877 8.29412251,14.2199079 8.18573041,14.2632755 C8.06592465,14.3112098 7.93222579,14.3109696 7.81259303,14.2626052 C7.64019007,14.1929072 7.50473059,14.1381444 7.37454876,14.0855153 L7.24495334,14.0331232 C6.8110139,13.8576928 6.318434,13.6585555 4.59440434,12.961575 C2.18076283,11.9858024 2.18076283,11.9858024 1.37621566,11.6605449 C1.12020295,11.5570456 0.996566396,11.2656035 1.10006569,11.0095908 C1.20356498,10.7535781 1.49500705,10.6299416 1.75101976,10.7334409 C1.92342272,10.8031389 2.05888219,10.8579017 2.18906402,10.9105308 L2.31865945,10.9629229 C2.75259889,11.1383533 3.24517879,11.3374906 4.96920844,12.034471 C6.7098153,12.7381532 7.19517683,12.9343723 7.6322597,13.1110735 L7.75686943,13.16145 C7.81956007,13.1867942 7.88361133,13.2126885 7.95254207,13.2405554 L7.99961771,13.2599929 L8.05691931,13.2377428 C8.1330886,13.2072674 8.20565061,13.1782354 8.27793513,13.1493144 L8.38657003,13.1058495 C8.58384364,13.0269204 8.79129408,12.9439195 9.07507061,12.8303805 L9.54034755,12.6442232 C10.3636419,12.3148232 11.7163753,11.7735947 14.3177856,10.7327705 C14.5741686,10.6301917 14.8651645,10.7548746 14.9677433,11.0112575 Z M14.9677433,8.01125754 C15.0703221,8.26764046 14.9456392,8.55863643 14.6892563,8.66121522 C12.0878459,9.70203935 10.7351126,10.2432679 9.91181821,10.5726679 L9.62649552,10.6868255 C9.1583804,10.8741183 8.88561385,10.9832522 8.59508835,11.0994915 L8.4848926,11.1435808 C8.3916754,11.180877 8.29412251,11.2199079 8.18573041,11.2632755 C8.06592465,11.3112098 7.93222579,11.3109696 7.81259303,11.2626052 C7.64019007,11.1929072 7.50473059,11.1381444 7.37454876,11.0855153 L7.24495334,11.0331232 C6.8110139,10.8576928 6.318434,10.6585555 4.59440434,9.96157505 C2.18076283,8.98580243 2.18076283,8.98580243 1.37621566,8.66054489 C1.12020295,8.5570456 0.996566396,8.26560353 1.10006569,8.00959083 C1.20356498,7.75357812 1.49500705,7.62994156 1.75101976,7.73344086 C1.92342272,7.8031389 2.05888219,7.85790165 2.18906402,7.91053079 L2.31865945,7.96292285 C2.75259889,8.13835331 3.24517879,8.33749057 4.96920844,9.03447102 C6.7098153,9.73815319 7.19517683,9.93437226 7.6322597,10.1110735 L7.75686943,10.16145 C7.81956007,10.1867942 7.88361133,10.2126885 7.95254207,10.2405554 L7.99961771,10.2599929 L8.05691931,10.2377428 C8.1330886,10.2072674 8.20565061,10.1782354 8.27793513,10.1493144 L8.38657003,10.1058495 C8.58384364,10.0269204 8.79129408,9.94391947 9.07507061,9.8303805 L9.54034755,9.64422322 C10.3636419,9.3148232 11.7163753,8.77359466 14.3177856,7.73277053 C14.5741686,7.63019174 14.8651645,7.75487462 14.9677433,8.01125754 Z M8.49806375,2.09603116 L8.50933984,2.10058569 L14.6658333,4.63052572 C14.7992501,4.68535069 14.90515,4.79165221 14.9597679,4.92557491 C15.0711676,5.19871174 14.9432991,5.51039339 14.6740509,5.62619652 L8.50935665,8.15956089 C8.18683125,8.29209242 7.82563785,8.29372537 7.50193625,8.16411542 L7.49066016,8.15956089 L1.33416671,5.62962085 C1.20075315,5.57479981 1.0948537,5.46850487 1.04023213,5.33458854 C0.928832417,5.06143484 1.05670093,4.74975319 1.32594911,4.63396692 L7.49064335,2.10060256 C7.81316657,1.9680656 8.17435998,1.96642661 8.49806375,2.09603116 Z" id="形状结合" fill="#000000"></path>
    </g>
</svg>