<?xml version="1.0" encoding="UTF-8"?>
<svg width="16px" height="16px" viewBox="0 0 16 16" version="1.1" xmlns="http://www.w3.org/2000/svg" xmlns:xlink="http://www.w3.org/1999/xlink">
    <title>ICON / action /combine</title>
    <g id="ICON-/-action-/combine" stroke="none" stroke-width="1" fill="none" fill-rule="evenodd" fill-opacity="1">
        <path d="M8.38739211,1.08391156 L14.5510666,4.14115422 C14.8259902,4.27733362 15,4.55805776 15,4.86540319 C15,5.17274862 14.8259902,5.45347276 14.5510666,5.58965216 L8.38739211,8.64689482 C8.1619653,8.7587769 7.89734635,8.7587769 7.67191954,8.64689482 L1.50824501,5.58965216 C1.23332147,5.45347276 1.05931165,5.17274862 1.05931165,4.86540319 C1.05931165,4.55805776 1.23332147,4.27733362 1.50824501,4.14115422 L7.67191954,1.08391156 C7.89734635,0.972029482 8.1619653,0.972029482 8.38739211,1.08391156 Z M13.5076999,6.69956417 L14.4913825,7.18695068 C14.7663061,7.32313009 14.9403159,7.60385422 14.9403159,7.91119965 C14.9403159,8.21854508 14.7663061,8.49926922 14.4913825,8.63544863 L8.32770799,11.6926913 C8.10228118,11.8045734 7.83766224,11.8045734 7.61223543,11.6926913 L1.4485609,8.63544863 C1.17384167,8.49919379 1,8.21857959 1,7.91138427 C1,7.60418895 1.17384167,7.32357475 1.4485609,7.18731992 L2.43224356,6.69956417 L7.61223543,9.26868186 C7.83770876,9.38055922 8.10223466,9.38055922 8.32770799,9.26868186 L13.5076999,6.69956417 L13.5076999,6.69956417 Z M13.5076999,9.92296133 L14.4913825,10.4103478 C14.7663061,10.5465272 14.9403159,10.8272514 14.9403159,11.1345968 C14.9403159,11.4419422 14.7663061,11.7226664 14.4913825,11.8588458 L8.32770799,14.9160884 C8.10228118,15.0279705 7.83766224,15.0279705 7.61223543,14.9160884 L1.4485609,11.8588458 C1.17384167,11.7225909 1,11.4419767 1,11.1347814 C1,10.8275861 1.17384167,10.5469719 1.4485609,10.4107171 L2.43224356,9.92296133 L7.61223543,12.492079 C7.83770876,12.6039564 8.10223466,12.6039564 8.32770799,12.492079 L13.5076999,9.92296133 L13.5076999,9.92296133 Z" id="形状" fill="#000000"></path>
    </g>
</svg>