<?xml version="1.0" encoding="UTF-8"?>
<svg width="16px" height="16px" viewBox="0 0 16 16" version="1.1" xmlns="http://www.w3.org/2000/svg" xmlns:xlink="http://www.w3.org/1999/xlink">
    <title>ICON /binary /translate</title>
    <g id="ICON-/binary-/translate" stroke="none" stroke-width="1" fill="none" fill-rule="evenodd">
        <path d="M13,8 C14.1045695,8 15,8.8954305 15,10 L15,13 C15,14.1045695 14.1045695,15 13,15 L10,15 C8.8954305,15 8,14.1045695 8,13 L8,10 C8,8.8954305 8.8954305,8 10,8 L13,8 Z M2,10 L2,12 C2,13.1045695 2.8954305,14 4,14 L6,14 L6,15 L4,15 C2.34314575,15 1,13.6568542 1,12 L1,10 L2,10 Z M6,1 C7.1045695,1 8,1.8954305 8,3 L8,6 C8,7.1045695 7.1045695,8 6,8 L3,8 C1.8954305,8 1,7.1045695 1,6 L1,3 C1,1.8954305 1.8954305,1 3,1 L6,1 Z M6,2 L3,2 C2.44771525,2 2,2.44771525 2,3 L2,6 C2,6.55228475 2.44771525,7 3,7 L6,7 C6.55228475,7 7,6.55228475 7,6 L7,3 C7,2.44771525 6.55228475,2 6,2 Z M12,1 C13.6568542,1 15,2.34314575 15,4 L15,6 L14,6 L14,4 C14,2.8954305 13.1045695,2 12,2 L10,2 L10,1 L12,1 Z" id="形状结合" fill="#000000"></path>
    </g>
</svg>