<?xml version="1.0" encoding="UTF-8"?>
<svg width="16px" height="16px" viewBox="0 0 16 16" version="1.1" xmlns="http://www.w3.org/2000/svg" xmlns:xlink="http://www.w3.org/1999/xlink">
    <title>ICON /binary /file</title>
    <g id="ICON-/binary-/file" stroke="none" stroke-width="1" fill="none" fill-rule="evenodd">
        <path d="M10,14 L10,15 L9,15 L9,14 L10,14 Z M15,14 L15,15 L11,15 L11,14 L15,14 Z M2.49711775,1.00390967 L5.54768602,1.01582556 C5.93551551,1.01733899 6.30768485,1.1690089 6.58609818,1.43900895 L8.24126434,3.04389808 L12.5512314,3.04425621 C13.9319433,3.04425621 15.0512314,4.16354434 15.0512314,5.54425621 L15.0502643,7.99989808 L14.0502643,7.99989808 L14.0512314,5.54425621 C14.0512314,4.71582909 13.3796585,4.04425621 12.5512314,4.04425621 L1.99126434,4.04425621 L1.99126434,11.5052071 C1.99126434,12.3336342 2.66283722,13.0052071 3.49126434,13.0052071 L7.99926434,13.0048981 L7.99926434,14.0048981 L3.49126434,14.0052071 C2.11055247,14.0052071 0.991264343,12.8859189 0.991264343,11.5052071 L0.991264343,2.50390967 C0.99450851,1.66963569 1.66869693,1.00068859 2.49711775,1.00390967 Z M10,12 L10,13 L9,13 L9,12 L10,12 Z M15,12 L15,13 L11,13 L11,12 L15,12 Z M10,10 L10,11 L9,11 L9,10 L10,10 Z M15,10 L15,11 L11,11 L11,10 L15,10 Z" id="形状结合" fill="#000000"></path>
    </g>
</svg>