<?xml version="1.0" encoding="UTF-8"?>
<svg width="16px" height="16px" viewBox="0 0 16 16" version="1.1" xmlns="http://www.w3.org/2000/svg" xmlns:xlink="http://www.w3.org/1999/xlink">
    <title>ICON /binary /packing</title>
    <g id="ICON-/binary-/packing" stroke="none" stroke-width="1" fill="none" fill-rule="evenodd">
        <path d="M8.41478433,1.14019002 L14.6274841,3.56685352 C14.8786814,3.66497049 15.02644,3.91369334 15.0077654,4.16927496 L15.0085993,8 L14.0085993,8 L14.0076581,4.96465612 L8.4998689,7.44921959 L8.5,14.0346278 C8.5,14.5869125 8.05228475,15.0346278 7.5,15.0346278 C7.34777071,15.0346278 7.19755065,14.9998729 7.06079022,14.9330123 L1.55444828,12.2410256 C1.2112739,12.0732516 0.993658066,11.7246316 0.993658066,11.342641 L0.993658066,4.26238849 C0.993658066,4.22556951 0.99863268,4.18991241 1.00794645,4.15605265 C1.01693852,4.12352017 1.02783551,4.08988086 1.04193191,4.05680192 C1.1037247,3.91179754 1.22009559,3.79693254 1.36589247,3.73703355 L7.67093894,1.14667675 C7.9088282,1.04894264 8.1752268,1.04661951 8.41478433,1.14019002 Z M12.8535534,8.31801948 L13.5345729,8.99957288 L14.5,9 C14.7761424,9 15,9.22385763 15,9.5 L14.9995729,10.4635729 L15.6819805,11.1464466 C15.8772427,11.3417088 15.8772427,11.6582912 15.6819805,11.8535534 L14.9995729,12.5345729 L15,13.5 C15,13.7761424 14.7761424,14 14.5,14 L13.5345729,13.9995729 L12.8535534,14.6819805 C12.6582912,14.8772427 12.3417088,14.8772427 12.1464466,14.6819805 L11.4635729,13.9995729 L10.5,14 C10.2238576,14 10,13.7761424 10,13.5 L9.99957288,12.5345729 L9.31801948,11.8535534 C9.12275734,11.6582912 9.12275734,11.3417088 9.31801948,11.1464466 L9.99957288,10.4635729 L10,9.5 C10,9.22385763 10.2238576,9 10.5,9 L11.4635729,8.99957288 L12.1464466,8.31801948 C12.3417088,8.12275734 12.6582912,8.12275734 12.8535534,8.31801948 Z M1.99365807,5.16362205 L1.99365807,11.342641 L7.5,14.0346278 L7.5,7.46546421 L1.99365807,5.16362205 Z M12.5190773,10.4788589 C11.9667926,10.4788589 11.5190773,10.9265742 11.5190773,11.4788589 C11.5190773,12.0311437 11.9667926,12.4788589 12.5190773,12.4788589 C13.0713621,12.4788589 13.5190773,12.0311437 13.5190773,11.4788589 C13.5190773,10.9265742 13.0713621,10.4788589 12.5190773,10.4788589 Z M8.05095623,2.07165613 L2.62966403,4.29841043 L7.98864137,6.58229721 L13.376664,4.15141043 L8.05095623,2.07165613 Z" id="形状结合" fill="#000000"></path>
    </g>
</svg>