<?xml version="1.0" encoding="UTF-8"?>
<svg width="16px" height="16px" viewBox="0 0 16 16" version="1.1" xmlns="http://www.w3.org/2000/svg" xmlns:xlink="http://www.w3.org/1999/xlink">
    <title>ICON /binary /flag</title>
    <g id="ICON-/binary-/flag" stroke="none" stroke-width="1" fill="none" fill-rule="evenodd">
        <path d="M4.98945236,2 L13.5872671,2 C13.8634095,2 14.0872671,2.22385763 14.0872671,2.5 C14.0872671,2.58243309 14.0668861,2.66358742 14.0279383,2.73623919 L12.2782702,6 L12.2782702,6 L14.0279383,9.26376081 C14.1584096,9.50713676 14.0668823,9.81019983 13.8235063,9.94067113 C13.7508546,9.97961898 13.6697002,10 13.5872671,10 L4.98945236,10 L4.98945236,10 L4.98945236,2 Z M3.5,2 C3.77614237,2 4,2.22385763 4,2.5 L4,14.5 C4,14.7761424 3.77614237,15 3.5,15 C3.22385763,15 3,14.7761424 3,14.5 L3,2.5 C3,2.22385763 3.22385763,2 3.5,2 Z" id="形状结合" fill="#000000"></path>
    </g>
</svg>