<?xml version="1.0" encoding="UTF-8"?>
<svg width="16px" height="16px" viewBox="0 0 16 16" version="1.1" xmlns="http://www.w3.org/2000/svg" xmlns:xlink="http://www.w3.org/1999/xlink">
    <title>ICON /binary /star</title>
    <g id="ICON-/binary-/star" stroke="none" stroke-width="1" fill="none" fill-rule="evenodd">
        <path d="M13,1 C13.5522847,1 14,1.44771525 14,2 L14,14.1949269 C14,14.4710693 13.7761424,14.6949269 13.5,14.6949269 C13.4231165,14.6949269 13.3472687,14.6771968 13.2783522,14.6431147 L8.46617681,12.2632908 C8.18782343,12.1256333 7.8613145,12.1251005 7.58251336,12.2618489 L2.72018396,14.646759 C2.47225852,14.7683633 2.17269554,14.6659597 2.05109129,14.4180343 C2.01747697,14.3495017 2,14.2741827 2,14.1978503 L2,2 C2,1.44771525 2.44771525,1 3,1 L13,1 Z M13,2 L3,2 L3,13.395 L7.14214545,11.3640315 C7.64398751,11.1178844 8.22311617,11.0941328 8.73976272,11.2925486 L8.90947236,11.3669153 L13,13.389 L13,2 Z M8.1465104,3.3023477 C8.24979738,3.34300465 8.33154556,3.42475283 8.37220251,3.52803981 L9.017798,5.16814353 C9.07362851,5.3099782 9.20521707,5.40775384 9.35712892,5.42028016 L11.0748564,5.5619203 C11.2950231,5.58007477 11.4587863,5.77327224 11.4406319,5.99343892 C11.4322359,6.09525981 11.3851971,6.19000872 11.309164,6.25825058 L9.96962529,7.4605245 C9.86147425,7.55759312 9.81447748,7.70568235 9.84686412,7.84735122 L10.2532137,9.6248459 C10.3024463,9.84020398 10.1677749,10.0546971 9.95241685,10.1039297 C9.84737369,10.1279434 9.73708485,10.1085615 9.64652289,10.0501727 L8.21675047,9.12834285 C8.08477629,9.04325396 7.91522371,9.04325396 7.78324953,9.12834285 L6.35347711,10.0501727 C6.16780818,10.1698807 5.92025128,10.1164088 5.8005433,9.93073985 C5.74215448,9.84017789 5.72277262,9.72988906 5.74678633,9.6248459 L6.15313588,7.84735122 C6.18552252,7.70568235 6.13852575,7.55759312 6.03037471,7.4605245 L4.69083603,6.25825058 C4.52643012,6.11069161 4.51277297,5.85779411 4.66033194,5.6933882 C4.7285738,5.6173551 4.82332271,5.57031623 4.92514359,5.5619203 L6.64287108,5.42028016 C6.79478293,5.40775384 6.92637149,5.3099782 6.982202,5.16814353 L7.62779749,3.52803981 C7.70871296,3.32247804 7.94094864,3.22143224 8.1465104,3.3023477 Z" id="形状结合" fill="#000000"></path>
    </g>
</svg>