<?xml version="1.0" encoding="UTF-8"?>
<svg width="16px" height="16px" viewBox="0 0 16 16" version="1.1" xmlns="http://www.w3.org/2000/svg" xmlns:xlink="http://www.w3.org/1999/xlink">
    <title>ICON / action /edit</title>
    <g id="ICON-/-action-/edit" stroke="none" stroke-width="1" fill="none" fill-rule="evenodd" fill-opacity="1">
        <path d="M4.53498122,14.3543282 L1.36500066,14.9939211 C1.20002728,15.027207 1.03930634,14.9204533 1.00602039,14.7554799 C0.997994845,14.7157033 0.997994381,14.6747244 1.00601903,14.6349476 L1.64563068,11.4645037 L1.64563068,11.4645037 L9.78285852,3.32781384 C10.0208761,3.08981317 10.4067651,3.08982688 10.6447658,3.32784445 C10.6447725,3.32785113 10.6447791,3.3278578 10.6447858,3.32786448 L12.6727931,5.35623338 C12.9107827,5.59426201 12.9107511,5.98015104 12.6727225,6.21814065 C12.6727206,6.21814249 12.6727188,6.21814433 12.6727169,6.21814617 L4.53498122,14.3543282 L4.53498122,14.3543282 Z M14.8215301,3.20599807 L12.7932233,1.17843651 C12.5551726,0.940472305 12.1692869,0.940540466 11.9313203,1.17858876 L11.363022,1.74736807 C11.1251112,1.98536056 11.1251115,2.3711361 11.3630227,2.60912816 L13.3906731,4.63836175 C13.6286418,4.87641129 14.0145308,4.87647683 14.2525804,4.63850813 C14.2526804,4.63840814 14.2527804,4.63830812 14.2528803,4.63820807 L14.8216866,4.06790533 C15.0595124,3.82982901 15.0593759,3.44405456 14.8213815,3.20614667 Z" id="形状" fill="#000000"></path>
    </g>
</svg>