<?xml version="1.0" encoding="UTF-8"?>
<svg width="16px" height="16px" viewBox="0 0 16 16" version="1.1" xmlns="http://www.w3.org/2000/svg" xmlns:xlink="http://www.w3.org/1999/xlink">
    <title>ICON / action /delete</title>
    <g id="ICON-/-action-/delete" stroke="none" stroke-width="1" fill="none" fill-rule="evenodd" fill-opacity="1">
        <path d="M8,1 C11.3137085,1 14,1.92751761 14,3.33333333 C14,3.44654068 13.2297954,6.81831394 11.6893862,13.4486531 C11.6310849,13.7046134 11.4735615,13.9267379 11.2518658,14.0673244 C10.2685928,14.6894956 9.1843919,15 8,15 C6.8156081,15 5.73140715,14.6894956 4.74739717,14.0684867 C4.52645875,13.9267554 4.36894287,13.7046617 4.30957836,13.4489753 C2.77020459,6.8197926 2,3.44799206 2,3.33333333 C2,1.92751761 4.6862915,1 8,1 Z M8,2.16666667 C5.3490332,2.16666667 3.2,2.68900113 3.2,3.33333333 C3.2,3.97766554 5.3490332,4.5 8,4.5 C10.6509668,4.5 12.8,3.97766554 12.8,3.33333333 C12.8,2.68900113 10.6509668,2.16666667 8,2.16666667 Z" id="形状结合" fill="#000000"></path>
    </g>
</svg>