<?xml version="1.0" encoding="UTF-8"?>
<svg width="16px" height="16px" viewBox="0 0 16 16" version="1.1" xmlns="http://www.w3.org/2000/svg" xmlns:xlink="http://www.w3.org/1999/xlink">
    <title>ICON /binary /default</title>
    <g id="ICON-/binary-/default" stroke="none" stroke-width="1" fill="none" fill-rule="evenodd">
        <path d="M12,1 C13.6568542,1 15,2.34314575 15,4 L15,12 C15,13.6568542 13.6568542,15 12,15 L4,15 C2.34314575,15 1,13.6568542 1,12 L1,4 C1,2.34314575 2.34314575,1 4,1 L12,1 Z M12,2 L4,2 C2.8954305,2 2,2.8954305 2,4 L2,12 C2,13.1045695 2.8954305,14 4,14 L12,14 C13.1045695,14 14,13.1045695 14,12 L14,4 C14,2.8954305 13.1045695,2 12,2 Z M5.38533333,8.64528421 C5.91733333,8.64528421 6.348,8.87328939 6.64533333,9.31863284 C6.90866666,9.71264179 7.03666667,10.2273202 7.03666667,10.8573345 C7.03666667,11.4873488 6.90866667,12.0013605 6.644,12.4000362 C6.34533333,12.8387129 5.91466667,13.0693848 5.38533333,13.0693848 C4.87607563,13.0824421 4.39748536,12.8266817 4.12533333,12.3960361 C3.862,12.0013605 3.73533333,11.4873488 3.73533333,10.8573345 C3.73533333,10.2273202 3.862,9.71264179 4.12333333,9.31929952 C4.39435966,8.88634654 4.87479057,8.62975558 5.38533333,8.64528421 Z M11.4573333,8.71661915 L11.4573333,12.9973831 L10.222,12.9973831 L10.222,10.3453228 L10.124,10.3899905 C10.0538214,10.4200483 9.98242674,10.4471833 9.91,10.4713257 L9.79733333,10.5059932 L9.39066667,10.6226625 L9.39066667,9.35796707 L9.632,9.29796571 C9.94533333,9.21329711 10.2306667,9.04662667 10.4586667,8.81528807 L10.5526667,8.71661915 L11.4573333,8.71661915 Z M5.32866667,9.92197989 C5.13297734,9.91633497 4.95015105,10.0191611 4.85333333,10.1893193 C4.74533333,10.3593232 4.69133333,10.5893284 4.69133333,10.8780016 C4.69133333,11.1666749 4.74533333,11.3960134 4.85333333,11.5673506 C4.94424997,11.7264413 5.11089036,11.827285 5.294,11.8340233 L5.366,11.8340233 C5.54841918,11.8255702 5.71409627,11.7251576 5.806,11.5673506 C5.91333333,11.3960134 5.96733333,11.1666748 5.96733333,10.8780016 C5.96733333,10.5886617 5.914,10.3593232 5.806,10.1893193 C5.70798151,10.0193829 5.52477274,9.9167734 5.32866667,9.92197989 Z M10.4873333,2.90648711 C11.0193333,2.90648711 11.4486667,3.13449229 11.7473333,3.57983575 C12.0106667,3.97384471 12.1373333,4.48852308 12.1373333,5.11853738 C12.1373333,5.7485517 12.0106667,6.26256338 11.7453333,6.66057243 C11.446,7.09991574 11.016,7.33058765 10.4873333,7.33058765 C9.97807563,7.34364498 9.49948536,7.08788458 9.22733333,6.65723902 C8.964,6.26256338 8.83733333,5.7485517 8.83733333,5.11853738 C8.83733333,4.48852306 8.964,3.97384469 9.226,3.58050242 C9.49690493,3.14775897 9.97702546,2.89119825 10.4873333,2.90648711 Z M6.03533333,2.97715538 L6.03533333,7.25858602 L4.802,7.25858602 L4.802,4.60585907 L4.702,4.64986007 C4.63226837,4.67990608 4.56131827,4.70704122 4.48933333,4.73119525 L4.37733333,4.76586271 L3.97066667,4.8831987 L3.97066667,3.61850329 L4.21066667,3.55850192 C4.52466667,3.47383333 4.81066667,3.30716288 5.03866667,3.07515761 L5.13266667,2.97715538 L6.03533333,2.97715538 Z M10.4313333,4.18184943 C10.2352668,4.17608856 10.0520891,4.27922457 9.95533333,4.44985553 C9.84733333,4.61985939 9.794,4.84986462 9.794,5.13853783 C9.794,5.42654438 9.84733333,5.65654961 9.95533333,5.82722016 C10.0458409,5.98639203 10.2123502,6.08730906 10.3953333,6.09389289 L10.4686667,6.09389289 C10.6510858,6.08543979 10.8167629,5.98502714 10.9086667,5.82722016 C11.0153333,5.65654961 11.0686667,5.42721107 11.0686667,5.13853783 C11.0686667,4.84919793 11.0146667,4.61985937 10.9086667,4.44985553 C10.810928,4.27955465 10.6276155,4.17663108 10.4313333,4.18184943 Z" id="形状结合" fill="#000000"></path>
    </g>
</svg>