<?xml version="1.0" encoding="UTF-8"?>
<svg width="16px" height="16px" viewBox="0 0 16 16" version="1.1" xmlns="http://www.w3.org/2000/svg" xmlns:xlink="http://www.w3.org/1999/xlink">
    <title>ICON /binary /command</title>
    <g id="ICON-/binary-/command" stroke="none" stroke-width="1" fill="none" fill-rule="evenodd">
        <path d="M8,0.5 C12.1421356,0.5 15.5,3.85786438 15.5,8 C15.5,12.1421356 12.1421356,15.5 8,15.5 C3.85786438,15.5 0.5,12.1421356 0.5,8 C0.5,3.85786438 3.85786438,0.5 8,0.5 Z M8,1.5 C4.41014913,1.5 1.5,4.41014913 1.5,8 C1.5,11.5898509 4.41014913,14.5 8,14.5 C11.5898509,14.5 14.5,11.5898509 14.5,8 C14.5,4.41014913 11.5898509,1.5 8,1.5 Z M10,10 L10,11 L7,11 L7,10 L10,10 Z M4.25398089,4.60059637 L7.27699551,6.61222084 L7.90254172,7.02848216 L7.27699551,7.44474349 L4.25398089,9.45636796 L3.69998988,8.62384531 L6.09798539,7.02785769 L3.69998988,5.43311902 L4.25398089,4.60059637 Z" id="形状结合" fill="#000000"></path>
    </g>
</svg>