<?xml version="1.0" encoding="UTF-8"?>
<svg width="16px" height="16px" viewBox="0 0 16 16" version="1.1" xmlns="http://www.w3.org/2000/svg" xmlns:xlink="http://www.w3.org/1999/xlink">
    <title>ICON / toolbar / find</title>
    <g id="ICON-/-toolbar-/-find" stroke="none" stroke-width="1" fill="none" fill-rule="evenodd">
        <path d="M0.5,1 L15.5,1 C15.7761424,1 16,1.22385763 16,1.5 C16,1.77614237 15.7761424,2 15.5,2 L0.5,2 C0.223857625,2 3.38176876e-17,1.77614237 0,1.5 C-3.38176876e-17,1.22385763 0.223857625,1 0.5,1 Z M0.5,7 L4.07142857,7 C4.34757095,7 4.57142857,7.22385763 4.57142857,7.5 C4.57142857,7.77614237 4.34757095,8 4.07142857,8 L0.5,8 C0.223857625,8 3.38176876e-17,7.77614237 0,7.5 C-3.38176876e-17,7.22385763 0.223857625,7 0.5,7 Z M0.5,13 L6.35714286,13 C6.63328523,13 6.85714286,13.2238576 6.85714286,13.5 C6.85714286,13.7761424 6.63328523,14 6.35714286,14 L0.5,14 C0.223857625,14 3.38176876e-17,13.7761424 0,13.5 C-3.38176876e-17,13.2238576 0.223857625,13 0.5,13 Z M11.5,4 C13.9852814,4 16,6.01471863 16,8.5 C16,9.89523743 15.3650208,11.1421675 14.36828,11.9675726 L15.8807547,14.0417409 C16.0759639,14.3095095 16.017143,14.6848271 15.7493744,14.8800364 C15.4816058,15.0752456 15.1062882,15.0164246 14.911079,14.748656 L13.3818015,12.6509455 L13.3521821,12.6023637 C12.7873023,12.8578033 12.1602571,13 11.5,13 C9.01471863,13 7,10.9852814 7,8.5 C7,6.01471863 9.01471863,4 11.5,4 Z M11.5,5 C9.56700338,5 8,6.56700338 8,8.5 C8,10.4329966 9.56700338,12 11.5,12 C13.4329966,12 15,10.4329966 15,8.5 C15,6.56700338 13.4329966,5 11.5,5 Z" id="形状结合" fill="#000000"></path>
    </g>
</svg>