<?xml version="1.0" encoding="UTF-8"?>
<svg width="16px" height="16px" viewBox="0 0 16 16" version="1.1" xmlns="http://www.w3.org/2000/svg" xmlns:xlink="http://www.w3.org/1999/xlink">
    <title>ICON / toolbar / find</title>
    <g id="ICON-/-toolbar-/-find" stroke="none" stroke-width="1" fill="none" fill-rule="evenodd">
        <path d="M10.1693878,3.51317787 C12.5994326,3.51317787 14.5693878,5.48313312 14.5693878,7.91317787 C14.5693878,8.96097432 14.2031344,9.92323108 13.5916669,10.6789089 L15.7016206,12.8049573 C15.9934592,13.0989013 15.9917524,13.573772 15.6978084,13.8656106 C15.4038644,14.1574492 14.9289937,14.1557425 14.6371551,13.8617984 L12.460616,11.6702794 C11.7932518,12.0781365 11.0087672,12.3131779 10.1693878,12.3131779 C7.73934307,12.3131779 5.76938782,10.3432226 5.76938782,7.91317787 C5.76938782,5.48313312 7.73934307,3.51317787 10.1693878,3.51317787 Z M6.21938782,12.5 C6.63360138,12.5 6.96938782,12.8357864 6.96938782,13.25 C6.96938782,13.6642136 6.63360138,14 6.21938782,14 L1,14 C0.585786438,14 0.25,13.6642136 0.25,13.25 C0.25,12.8357864 0.585786438,12.5 1,12.5 L6.21938782,12.5 Z M10.1693878,4.71317787 C8.40208477,4.71317787 6.96938782,6.14587482 6.96938782,7.91317787 C6.96938782,9.68048092 8.40208477,11.1131779 10.1693878,11.1131779 C11.9366909,11.1131779 13.3693878,9.68048092 13.3693878,7.91317787 C13.3693878,6.14587482 11.9366909,4.71317787 10.1693878,4.71317787 Z M4.02081299,7.01304436 C4.43502655,7.01304436 4.77081299,7.34883079 4.77081299,7.76304436 C4.77081299,8.17725792 4.43502655,8.51304436 4.02081299,8.51304436 L1.02081299,8.51304436 C0.606599426,8.51304436 0.270812988,8.17725792 0.270812988,7.76304436 C0.270812988,7.34883079 0.606599426,7.01304436 1.02081299,7.01304436 L4.02081299,7.01304436 Z M15,1.01383591 C15.4142136,1.01383591 15.75,1.34962234 15.75,1.76383591 C15.75,2.17804947 15.4142136,2.51383591 15,2.51383591 L1,2.51383591 C0.585786438,2.51383591 0.25,2.17804947 0.25,1.76383591 C0.25,1.34962234 0.585786438,1.01383591 1,1.01383591 L15,1.01383591 Z" id="形状结合" fill="#626E88" fill-rule="nonzero"></path>
    </g>
</svg>