<?xml version="1.0" encoding="UTF-8"?>
<svg width="16px" height="16px" viewBox="0 0 16 16" version="1.1" xmlns="http://www.w3.org/2000/svg" xmlns:xlink="http://www.w3.org/1999/xlink">
    <title>ICON / action /edit</title>
    <g id="ICON-/-action-/edit" stroke="none" stroke-width="1" fill="none" fill-rule="evenodd">
        <g id="图标/单色图标/动作/Edit" transform="translate(1, 1)" fill="#000000" fill-rule="nonzero">
            <path d="M9.56035971,2.25731229 L9.64478493,2.32785654 L11.6727922,4.35622544 C11.8843386,4.56780645 11.9078187,4.89621542 11.7432497,5.13373079 L11.6727161,5.21813823 L3.53498033,13.3543203 L0.364999774,13.9939131 C0.200026392,14.0271991 0.0393054522,13.9204453 0.00601950669,13.7554719 C-0.00200604284,13.7156953 -0.00200650674,13.6747164 0.0060181422,13.6349396 L0.645629789,10.4644958 L8.78285764,2.3278059 C8.99442881,2.11624975 9.3228367,2.09275434 9.56035971,2.25731229 Z M9.21329299,3.3108876 L1.56529299,10.9578876 L1.19229299,12.8058876 L3.04029299,12.4338876 L10.689293,4.7868876 L9.21329299,3.3108876 Z M10.9313194,0.178580819 C11.169286,-0.0594674724 11.5551717,-0.0595356337 11.7932224,0.178428576 L13.8215292,2.20599014 C14.059375,2.44404663 14.0595115,2.82982108 13.8216857,3.06789739 L13.2528794,3.63820013 L13.1681598,3.70900708 C12.930603,3.87351625 12.6022,3.8499534 12.3906722,3.63835381 L10.3630218,1.60912022 C10.1251106,1.37112816 10.1251103,0.985352622 10.3630211,0.74736013 Z" id="形状结合"></path>
        </g>
    </g>
</svg>