<?xml version="1.0" encoding="UTF-8"?>
<svg width="16px" height="16px" viewBox="0 0 16 16" version="1.1" xmlns="http://www.w3.org/2000/svg" xmlns:xlink="http://www.w3.org/1999/xlink">
    <title>ICON / list /focus_auto</title>
    <g id="ICON-/-list-/focus_auto" stroke="none" stroke-width="1" fill="none" fill-rule="evenodd">
        <path d="M3,7 C2.44771525,7 2,7.44771525 2,8 L2,13 C2,13.5522847 2.44771525,14 3,14 L8,14 C8.55228475,14 9,13.5522847 9,13 L9,12 L10,12 L10,13 C10,14.1045695 9.1045695,15 8,15 L3,15 C1.8954305,15 1,14.1045695 1,13 L1,8 C1,6.8954305 1.8954305,6 3,6 L8,6 C9.1045695,6 10,6.8954305 10,8 L10,9 L9,9 L9,8 C9,7.44771525 8.55228475,7 8,7 L3,7 Z M7,11 C5.8954305,11 5,10.1045695 5,9 L5,8 L6,8 L6,9 C6,9.55228475 6.44771525,10 7,10 L12,10 C12.5522847,10 13,9.55228475 13,9 L13,4 C13,3.44771525 12.5522847,3 12,3 L7,3 C6.44771525,3 6,3.44771525 6,4 L6,5 L5,5 L5,4 C5,2.8954305 5.8954305,2 7,2 L12,2 C13.1045695,2 14,2.8954305 14,4 L14,9 C14,10.1045695 13.1045695,11 12,11 L7,11 Z" id="形状结合备份" fill="#000000" transform="translate(7.5, 8.5) rotate(-90) translate(-7.5, -8.5)"></path>
    </g>
</svg>