<?xml version="1.0" encoding="UTF-8"?>
<svg width="16px" height="16px" viewBox="0 0 16 16" version="1.1" xmlns="http://www.w3.org/2000/svg" xmlns:xlink="http://www.w3.org/1999/xlink">
    <title>ICON / list /focus</title>
    <g id="ICON-/-list-/focus" stroke="none" stroke-width="1" fill="none" fill-rule="evenodd">
        <path d="M8,1 C11.8272264,1 14.9370729,4.07146836 14.999057,7.88392261 C15.0112254,7.92587159 15.017395,7.97027385 15.017395,8.0161171 C15.017395,8.06304325 15.0109305,8.10845954 14.9988435,8.15152399 L15,8 C15,11.8240445 11.9336366,14.9319015 8.12558452,14.9988961 C8.08516208,15.01033 8.04211436,15.0161171 7.997715,15.0161171 C7.95351761,15.0161171 7.91065959,15.0103825 7.86984441,14.9996169 L8,15 C4.13400675,15 1,11.8659932 1,8 C1,4.13400675 4.13400675,1 8,1 Z M8.49790054,2.02036405 L8.497715,3.5161171 C8.497715,3.79225947 8.27385737,4.0161171 7.997715,4.0161171 C7.72157262,4.0161171 7.497715,3.79225947 7.497715,3.5161171 L7.49709447,2.0207773 C4.57818666,2.26300136 2.25237069,4.59464287 2.01922878,7.51611962 L3.51739502,7.5161171 C3.79353739,7.5161171 4.01739502,7.73997472 4.01739502,8.0161171 C4.01739502,8.29225947 3.79353739,8.5161171 3.51739502,8.5161171 L2.02195615,8.51691333 C2.26992443,11.4229167 4.58919637,13.7379123 7.49709447,13.9792227 L7.497715,12.5161171 C7.497715,12.2399747 7.72157262,12.0161171 7.997715,12.0161171 C8.27385737,12.0161171 8.497715,12.2399747 8.497715,12.5161171 L8.49790054,13.9796359 C11.408142,13.7405681 13.7299333,11.4245837 13.9780439,8.51691333 L12.517395,8.5161171 C12.2412526,8.5161171 12.017395,8.29225947 12.017395,8.0161171 C12.017395,7.73997472 12.2412526,7.5161171 12.517395,7.5161171 L13.9807712,7.51611962 C13.7474961,4.59297326 11.4191543,2.26033652 8.49790054,2.02036405 Z M8,6.52047348 C8.82842712,6.52047348 9.5,7.19204636 9.5,8.02047348 C9.5,8.8489006 8.82842712,9.52047348 8,9.52047348 C7.17157288,9.52047348 6.5,8.8489006 6.5,8.02047348 C6.5,7.19204636 7.17157288,6.52047348 8,6.52047348 Z" id="形状结合" fill="#000000"></path>
    </g>
</svg>