<?xml version="1.0" encoding="UTF-8"?>
<svg width="22px" height="22px" viewBox="0 0 22 22" version="1.1" xmlns="http://www.w3.org/2000/svg" xmlns:xlink="http://www.w3.org/1999/xlink">
    <title>ICON / sidebar /opened_file</title>
    <g id="ICON-/-sidebar-/opened_file" stroke="none" stroke-width="1" fill="none" fill-rule="evenodd">
        <path d="M3.92740815,2.00003219 L7.4814116,2.01651331 C8.03309069,2.01860861 8.56249356,2.22859196 8.95853051,2.60240054 L11.3113642,4.82401604 L16.6836346,4.82482682 C18.6476675,4.82482682 20.2398307,6.37445435 20.2398307,8.28601677 L20.2414322,9.4456445 C20.6936928,9.81232385 20.9827652,10.3724037 20.9827652,11 C20.9827652,11.0734204 20.9787222,11.1467852 20.9706548,11.2197611 L20.2952079,17.3296416 C20.1271695,18.8496645 18.8426565,20 17.3133735,20 L4.68426619,20 C3.15598432,20 1.87197618,18.8511268 1.70272088,17.3322462 L1.02177422,11.2214975 C0.941824103,10.504033 1.2518925,9.83299246 1.78278734,9.4200045 L1.78536415,4.07673035 C1.78997891,2.92169773 2.7489974,1.99555653 3.92740815,2.00003219 Z M18.9827652,10.2 L3.00947109,10.2 C2.97986979,10.2 2.9502913,10.2016429 2.92087209,10.2049213 C2.48176223,10.2538531 2.16546047,10.6494891 2.21439234,11.088599 L2.895339,17.1993477 C2.99689219,18.1106761 3.76729707,18.8 4.68426619,18.8 L17.3133735,18.8 C18.2309433,18.8 19.0016511,18.1097987 19.1024742,17.1977849 L19.777921,11.0879044 C19.781148,11.0587141 19.7827652,11.0293682 19.7827652,11 C19.7827652,10.5581722 19.424593,10.2 18.9827652,10.2 Z M16.8636635,6.01923466 L2.993245,6.01923466 L2.9924715,9.00007225 C2.99813759,9.00002409 3.00380418,9 3.00947109,9 L18.9827652,9 L18.9982939,9.00001604 L18.9973812,8.09594863 C18.9973812,6.94901117 18.0420833,6.01923466 16.8636635,6.01923466 Z" id="形状结合" fill="#000000"></path>
    </g>
</svg>