<?xml version="1.0" encoding="UTF-8"?>
<svg width="16px" height="16px" viewBox="0 0 16 16" version="1.1" xmlns="http://www.w3.org/2000/svg" xmlns:xlink="http://www.w3.org/1999/xlink">
    <title>ICON / tab / project</title>
    <g id="ICON-/-tab-/-project" stroke="none" stroke-width="1" fill="none" fill-rule="evenodd">
        <path d="M9.18308487,1.06884307 L13.6886156,3.49335118 C14.4987165,3.92928123 15.003952,4.77489952 15.003952,5.69484436 L15.003952,10.3156157 C15.003952,11.2285193 14.5063505,12.0688395 13.7058731,12.5077347 L9.20031939,14.9780934 C8.4527099,15.3880016 7.54774296,15.3886373 6.79955829,14.9797799 L2.27547564,12.5075228 C1.47327785,12.069149 0.974315643,11.2278797 0.974315643,10.3137173 L0.974315643,5.69673231 C0.974315643,4.77554015 1.48090927,3.92898628 2.29271487,3.49359373 L6.81682053,1.06719767 C7.55591861,0.670800063 8.44453879,0.671417971 9.18308487,1.06884307 Z M7.28946084,1.9484531 L2.76535518,4.37484916 C2.27827182,4.63608469 1.97431564,5.14401701 1.97431564,5.69673231 L1.97431564,10.3137173 C1.97431564,10.8622147 2.27369297,11.3669763 2.75501164,11.6300006 L7.27909429,14.1022577 C7.35044017,14.1412458 7.42416216,14.1740278 7.49950359,14.2006043 L7.49931564,7.97933625 L3.28437159,5.71708874 C3.18705165,5.66484347 3.15051142,5.54359691 3.20275669,5.44627698 C3.2216011,5.41117453 3.25049994,5.38250012 3.28574823,5.36392994 L7.89585827,2.93514375 C7.95423485,2.90438869 8.02402407,2.90440529 8.08238601,2.93518812 L12.6879028,5.364354 C12.7856026,5.41588545 12.8230294,5.53686127 12.771498,5.63456105 C12.7529987,5.6696342 12.7244913,5.69841676 12.6895974,5.71725197 L8.49931564,7.97833625 L8.50027956,14.1995474 C8.57523602,14.1729285 8.64857537,14.1401611 8.71955095,14.1012458 L13.2251047,11.6308871 C13.7053911,11.36755 14.003952,10.8633579 14.003952,10.3156157 L14.003952,5.69484436 C14.003952,5.14287745 13.7008107,4.63550648 13.2147502,4.37394845 L8.70921945,1.94944034 C8.26609179,1.71098528 7.73291969,1.71061454 7.28946084,1.9484531 Z" id="形状结合" fill="#000000"></path>
    </g>
</svg>