<?xml version="1.0" encoding="UTF-8"?>
<svg width="26px" height="12px" viewBox="0 0 26 12" version="1.1" xmlns="http://www.w3.org/2000/svg" xmlns:xlink="http://www.w3.org/1999/xlink">
    <title>shift+enter</title>
    <g id="shift+enter" stroke="none" stroke-width="1" fill="none" fill-rule="evenodd">
        <g id="编组-9" fill="#000000">
            <g id="ICON-/ai/enter" transform="translate(15, 3)">
                <path d="M9.52426987,0 C9.80041224,-5.07265313e-17 10.0242699,0.223857625 10.0242699,0.5 L10.0242699,5.5 C10.0242699,5.74545989 9.84739471,5.94960837 9.6141455,5.99194433 L9.52426987,6 L1.763,5.99902225 L2.97487373,7.21110954 C3.14844009,7.38467589 3.16772524,7.6541003 3.03272918,7.84896844 L2.97487373,7.91821632 C2.77961159,8.11347847 2.4630291,8.11347847 2.26776695,7.91821632 L0.500707107,6.14974226 L0.146446609,5.79689598 C-0.0488155365,5.60163383 -0.0488155365,5.28505135 0.146446609,5.0897892 L2.26776695,2.96846886 C2.4630291,2.77320671 2.77961159,2.77320671 2.97487373,2.96846886 C3.17013588,3.163731 3.17013588,3.48031349 2.97487373,3.67557564 L1.65,4.99902225 L9.024,5 L9.024,1 L6.52426987,1 C6.24812749,1 6.02426987,0.776142375 6.02426987,0.5 C6.02426987,0.223857625 6.24812749,5.07265313e-17 6.52426987,0 L9.52426987,0 Z" id="形状结合"></path>
            </g>
            <g id="ICON-/ai/enter备份" transform="translate(0.5335, 1.0356)">
                <path d="M5.46921528,0.000191416503 C5.7882499,0.000191416503 6.07247287,0.126908947 6.32239785,0.379248519 L10.786603,5.23692984 C10.9476961,5.43743019 11.0406126,5.61040528 11.0406126,5.92991233 C11.0406126,6.58949285 10.5150884,6.97466065 9.97919991,6.97466065 L8.455,6.97419142 L8.45560767,9.62161137 C8.45560767,10.3334654 7.92254732,10.9023776 7.23015617,10.9668453 L7.09855692,10.9729333 L3.8346369,10.9729333 C3.07363333,10.9729333 2.47758618,10.3834133 2.47758613,9.62161137 L2.477,6.97419142 L1.06141273,6.97466065 C0.561270499,6.97466065 0.0701186767,6.63947097 0.00685462134,6.05839715 L0,5.93015034 C0,5.62357313 0.122438546,5.35992913 0.289426025,5.19497351 L4.56301371,0.441569377 C4.78469313,0.157032475 5.12742551,-0.006389447 5.46921528,0.000191416503 Z M5.46921528,1.00016583 C5.4234699,0.99933413 5.37998345,1.02006202 5.35186459,1.05615402 L1.03332474,5.86326589 C1.00547477,5.89111457 1,5.90777618 1,5.93015034 C1,5.95799904 1.02213714,5.97466065 1.06141273,5.97466065 L3.29334794,5.97466065 C3.42736099,5.97466065 3.47758613,6.02488349 3.47758613,6.16436496 L3.47758613,9.62161137 C3.47758614,9.82773928 3.62254875,9.97293331 3.8346369,9.97293331 L7.09855692,9.97293331 C7.30493225,9.97293331 7.45560767,9.82226474 7.45560767,9.62161137 L7.45560767,6.16436496 C7.45560767,6.0248835 7.50559478,5.97466065 7.63960783,5.97466065 L9.97919991,5.97466065 C10.0182375,5.97466065 10.0406126,5.95799904 10.0406126,5.92991233 C10.0406126,5.90777619 10.029425,5.89111459 10.0070499,5.86326589 L5.58632793,1.05615402 C5.54181561,1.0114057 5.50825283,1.00016583 5.46921528,1.00016583 Z" id="路径备份"></path>
            </g>
        </g>
    </g>
</svg>