<?xml version="1.0" encoding="UTF-8"?>
<svg width="42px" height="12px" viewBox="0 0 42 12" version="1.1" xmlns="http://www.w3.org/2000/svg" xmlns:xlink="http://www.w3.org/1999/xlink">
    <title>ctrl+enter</title>
    <g id="ctrl+enter" stroke="none" stroke-width="1" fill="none" fill-rule="evenodd">
        <g id="编组-10" transform="translate(0.77, 0)" fill="#000000">
            <g id="Ctrl+" transform="translate(0, 1.436)" fill-rule="nonzero">
                <path d="M3.924,9.72 C5.064,9.72 5.964,9.264 6.672,8.448 L5.928,7.572 C5.4,8.148 4.788,8.508 3.972,8.508 C2.412,8.508 1.428,7.224 1.428,5.124 C1.428,3.048 2.484,1.776 4.008,1.776 C4.728,1.776 5.28,2.1 5.736,2.568 L6.492,1.68 C5.952,1.092 5.088,0.564 3.984,0.564 C1.752,0.564 0,2.292 0,5.172 C0,8.064 1.704,9.72 3.924,9.72 Z" id="路径"></path>
                <path d="M10.332,9.72 C10.812,9.72 11.256,9.6 11.628,9.48 L11.376,8.46 C11.184,8.544 10.896,8.616 10.668,8.616 C9.984,8.616 9.708,8.208 9.708,7.416 L9.708,4.068 L11.424,4.068 L11.424,2.964 L9.708,2.964 L9.708,1.14 L8.556,1.14 L8.4,2.964 L7.368,3.036 L7.368,4.068 L8.328,4.068 L8.328,7.404 C8.328,8.796 8.844,9.72 10.332,9.72 Z" id="路径"></path>
                <path d="M12.864,9.564 L14.244,9.564 L14.244,5.448 C14.652,4.404 15.3,4.032 15.84,4.032 C16.104,4.032 16.272,4.068 16.5,4.14 L16.752,2.94 C16.548,2.844 16.332,2.796 16.008,2.796 C15.3,2.796 14.604,3.3 14.136,4.152 L14.1,4.152 L13.992,2.964 L12.864,2.964 L12.864,9.564 Z" id="路径"></path>
                <path d="M19.14,9.72 C19.488,9.72 19.716,9.672 19.884,9.612 L19.704,8.568 C19.584,8.592 19.536,8.592 19.476,8.592 C19.308,8.592 19.152,8.46 19.152,8.088 L19.152,0 L17.772,0 L17.772,8.016 C17.772,9.084 18.144,9.72 19.14,9.72 Z" id="路径"></path>
                <polygon id="路径" points="23.196 8.196 24.252 8.196 24.252 5.604 26.688 5.604 26.688 4.608 24.252 4.608 24.252 2.016 23.196 2.016 23.196 4.608 20.76 4.608 20.76 5.604 23.196 5.604"></polygon>
            </g>
            <g id="ICON-/ai/enter" transform="translate(30.23, 3)">
                <path d="M9.52426987,0 C9.80041224,-5.07265313e-17 10.0242699,0.223857625 10.0242699,0.5 L10.0242699,5.5 C10.0242699,5.74545989 9.84739471,5.94960837 9.6141455,5.99194433 L9.52426987,6 L1.763,5.99902225 L2.97487373,7.21110954 C3.14844009,7.38467589 3.16772524,7.6541003 3.03272918,7.84896844 L2.97487373,7.91821632 C2.77961159,8.11347847 2.4630291,8.11347847 2.26776695,7.91821632 L0.500707107,6.14974226 L0.146446609,5.79689598 C-0.0488155365,5.60163383 -0.0488155365,5.28505135 0.146446609,5.0897892 L2.26776695,2.96846886 C2.4630291,2.77320671 2.77961159,2.77320671 2.97487373,2.96846886 C3.17013588,3.163731 3.17013588,3.48031349 2.97487373,3.67557564 L1.65,4.99902225 L9.024,5 L9.024,1 L6.52426987,1 C6.24812749,1 6.02426987,0.776142375 6.02426987,0.5 C6.02426987,0.223857625 6.24812749,5.07265313e-17 6.52426987,0 L9.52426987,0 Z" id="形状结合"></path>
            </g>
        </g>
    </g>
</svg>