<?xml version="1.0" encoding="UTF-8"?>
<svg width="16px" height="16px" viewBox="0 0 16 16" version="1.1" xmlns="http://www.w3.org/2000/svg" xmlns:xlink="http://www.w3.org/1999/xlink">
    <title>ICON /ai/at</title>
    <g id="ICON-/ai/at" stroke="none" stroke-width="1" fill="none" fill-rule="evenodd">
        <path d="M8,1 C11.2852274,1 14.0418736,3.26312546 14.7959649,6.31540273 C14.8019889,6.33029122 14.8060152,6.34639151 14.8092691,6.3628411 L14.8203492,6.41739929 C14.9378821,6.92595597 15,7.45572378 15,8 C15,11.8659932 11.8659932,15 8,15 C4.13400675,15 1,11.8659932 1,8 C1,4.13400675 4.13400675,1 8,1 Z M8,2 C4.6862915,2 2,4.6862915 2,8 C2,11.3137085 4.6862915,14 8,14 C9.9404068,14 11.6656775,13.0788929 12.762417,11.6500739 C12.6482575,11.6666804 12.5319278,11.6752817 12.4141039,11.6752817 C11.5430759,11.6752817 10.7804034,11.2112809 10.3598014,10.5169727 C9.727152,11.4140728 8.68200131,12 7.5,12 C5.56700338,12 4,10.4329966 4,8.5 L4,7.5 C4,5.56700338 5.56700338,4 7.5,4 C8.65842706,4 9.68540784,4.56278838 10.322443,5.4298658 C10.3810763,5.40407901 10.4459539,5.39048331 10.5140076,5.39048331 C10.7901439,5.39048331 11.0140076,5.61433492 11.0140076,5.89048331 L11.0140483,9.27522614 C11.0140483,10.0484555 11.6408746,10.6752817 12.4141039,10.6752817 C13.0118318,10.6752817 13.5436373,10.2958086 13.7282496,9.76246923 C14.050291,8.5735896 14.0710244,7.81707398 13.8420355,6.62738138 C13.2202846,3.97410034 10.8406802,2 8,2 Z M7.5,5 C6.11928813,5 5,6.11928813 5,7.5 L5,8.5 C5,9.88071187 6.11928813,11 7.5,11 C8.88071187,11 10,9.88071187 10,8.5 L10,7.5 C10,6.11928813 8.88071187,5 7.5,5 Z" id="形状结合" fill="#000000"></path>
    </g>
</svg>