<?xml version="1.0" encoding="UTF-8"?>
<svg width="16px" height="16px" viewBox="0 0 16 16" version="1.1" xmlns="http://www.w3.org/2000/svg" xmlns:xlink="http://www.w3.org/1999/xlink">
    <title>ICON /ai/advice</title>
    <g id="ICON-/ai/advice" stroke="none" stroke-width="1" fill="none" fill-rule="evenodd">
        <path d="M8,1.45 C12.1446262,1.45 15.55,4.12565087 15.55,7.5 C15.55,10.8743491 12.1446262,13.55 8,13.55 C7.49481509,13.55 6.99592481,13.5103455 6.50855038,13.4323461 L6.272,13.389 L3.76083851,14.0144715 C3.34029731,14.1189749 2.91505623,13.890522 2.76307862,13.496426 L2.73093807,13.394548 C2.69945148,13.2678401 2.69757692,13.1355819 2.72541429,13.0082408 L2.945,11.997 L2.82131455,11.9070318 C1.40035261,10.8357188 0.535132642,9.3543007 0.455952876,7.74268401 L0.45,7.5 C0.45,4.12565087 3.85537383,1.45 8,1.45 Z M8,2.55 C4.41263967,2.55 1.55,4.79921689 1.55,7.5 C1.55,8.96999302 2.39863892,10.3489128 3.86017995,11.2913842 C4.05300265,11.4157255 4.1483813,11.6467009 4.09946935,11.8708637 L3.886,12.849 L6.12125472,12.2938027 C6.17399667,12.2806832 6.22824325,12.2754897 6.28222562,12.2782616 L6.36277993,12.2883985 C6.89272014,12.3953026 7.44149857,12.45 8,12.45 C11.5873603,12.45 14.45,10.2007831 14.45,7.5 C14.45,4.79921689 11.5873603,2.55 8,2.55 Z M8,6.75 C8.49705627,6.75 8.9,7.15294373 8.9,7.65 C8.9,8.14705627 8.49705627,8.55 8,8.55 C7.50294373,8.55 7.1,8.14705627 7.1,7.65 C7.1,7.15294373 7.50294373,6.75 8,6.75 Z M11.0269333,6.75 C11.5239896,6.75 11.9269333,7.15294373 11.9269333,7.65 C11.9269333,8.14705627 11.5239896,8.55 11.0269333,8.55 C10.529877,8.55 10.1269333,8.14705627 10.1269333,7.65 C10.1269333,7.15294373 10.529877,6.75 11.0269333,6.75 Z M5.00421295,6.75 C5.50126923,6.75 5.90421295,7.15294373 5.90421295,7.65 C5.90421295,8.14705627 5.50126923,8.55 5.00421295,8.55 C4.50715668,8.55 4.10421295,8.14705627 4.10421295,7.65 C4.10421295,7.15294373 4.50715668,6.75 5.00421295,6.75 Z" id="形状结合" fill="#000000"></path>
    </g>
</svg>