<?xml version="1.0" encoding="UTF-8"?>
<svg width="16px" height="16px" viewBox="0 0 16 16" version="1.1" xmlns="http://www.w3.org/2000/svg" xmlns:xlink="http://www.w3.org/1999/xlink">
    <title>ICON /ai/new_dia</title>
    <g id="ICON-/ai/new_dia" stroke="none" stroke-width="1" fill="none" fill-rule="evenodd">
        <path d="M8.5,1 C12.5279028,1 15.8461538,3.87581759 15.8461538,7.5 C15.8461538,11.1241824 12.5279028,14 8.5,14 C7.90410184,14 7.31718981,13.9371944 6.74876428,13.8143855 L6.68384615,13.799 L6.53433023,13.92837 C6.40896225,14.0305837 6.27351175,14.1309926 6.12802738,14.2299583 L5.90228151,14.3773696 C5.11336262,14.872583 4.22030673,15.0259065 3.26625054,14.8335088 C3.06382357,14.7901576 2.87773836,14.6905639 2.72938651,14.5461765 C2.29403216,14.1224562 2.28460092,13.4260385 2.71574102,12.983141 C2.88097489,12.8169257 3.06607862,12.5968346 3.27030204,12.3220334 C3.28879504,12.2971494 3.30709558,12.2694992 3.32512979,12.2390755 L3.36984615,12.155 L3.3449267,12.134584 C2.03042744,10.9897518 1.23236165,9.43672475 1.15933611,7.7534356 L1.15384615,7.5 C1.15384615,3.87581759 4.47209722,1 8.5,1 Z M8.5,2 C4.99511601,2 2.15384615,4.46243388 2.15384615,7.5 C2.15384615,9.23937956 3.08548958,10.7901751 4.54060219,11.7996196 C4.4306397,12.273983 4.27474781,12.6469491 4.07292652,12.9185181 C3.84471588,13.2255963 3.62923447,13.4826415 3.42493831,13.688151 C3.38641828,13.7277287 3.38727567,13.7910394 3.42685334,13.8295594 C3.44033987,13.8426855 3.4572567,13.8517395 3.47565916,13.8556805 C4.17048943,13.9957481 4.80216523,13.8872382 5.37063217,13.530405 C5.82085028,13.247798 6.15494279,12.9651858 6.37098182,12.682848 C7.03647855,12.8881963 7.75317399,13 8.5,13 C12.004884,13 14.8461538,10.5375661 14.8461538,7.5 C14.8461538,4.46243388 12.004884,2 8.5,2 Z M8.5,5 C8.77614237,5 9,5.22385763 9,5.5 L9,7 L10.5,7 C10.7761424,7 11,7.22385763 11,7.5 C11,7.77614237 10.7761424,8 10.5,8 L9,8 L9,9.5 C9,9.77614237 8.77614237,10 8.5,10 C8.22385763,10 8,9.77614237 8,9.5 L8,8 L6.5,8 C6.22385763,8 6,7.77614237 6,7.5 C6,7.22385763 6.22385763,7 6.5,7 L8,7 L8,5.5 C8,5.22385763 8.22385763,5 8.5,5 Z" id="形状结合" fill="#000000"></path>
    </g>
</svg>