<?xml version="1.0" encoding="UTF-8"?>
<svg width="16px" height="16px" viewBox="0 0 16 16" version="1.1" xmlns="http://www.w3.org/2000/svg" xmlns:xlink="http://www.w3.org/1999/xlink">
    <title>ICON /ai / fx</title>
    <g id="ICON-/ai-/-fx" stroke="none" stroke-width="1" fill="none" fill-rule="evenodd">
        <g id="函数" transform="translate(1, 2)" fill="#000000" fill-rule="nonzero">
            <path d="M9.33333334,0.931034771 C9.33970083,1.10913255 9.27115204,1.28175172 9.14433334,1.40697355 C9.02123321,1.54298975 8.84336686,1.61626983 8.66016666,1.60644789 C8.49890169,1.62343911 8.33973817,1.5591698 8.2355,1.43496995 C8.11883334,1.26232549 8.02783334,1.0733498 7.9695,0.873875461 C7.94501969,0.789245743 7.90197539,0.711138342 7.8435,0.645238196 C7.7870786,0.59703236 7.71467465,0.571652631 7.6405,0.574080687 C7.53531379,0.571135137 7.43622559,0.623326669 7.37916666,0.711729643 C7.31086586,0.824462404 7.25863959,0.946177155 7.224,1.0733498 L6.42833334,3.59069266 L7.5355,3.59069266 L7.3465,4.17628399 L6.23816666,4.17628399 L5.06916666,7.78781943 C4.83740751,8.54608682 4.56120758,9.29005583 4.242,10.0158662 C4.00250577,10.5518948 3.64942154,11.0295121 3.20716666,11.4156861 C2.74283332,11.8064692 2.1455,12.0141091 1.53416666,11.9954449 C1.13273825,12.0243226 0.733483568,11.9152618 0.4025,11.686318 C0.162945595,11.5335413 0.0127777655,11.2737191 0,10.9899075 C0.00587701182,10.7947169 0.0894523453,10.609951 0.232166662,10.4766402 C0.376217857,10.3286236 0.576450695,10.2488801 0.782833338,10.2573351 C0.982346473,10.2273636 1.18285529,10.3049842 1.31016666,10.4614755 C1.4035,10.6282874 1.45833332,10.8137635 1.47,11.0039057 C1.47,11.2955349 1.62516666,11.4378499 1.8515,11.4378499 C2.0882772,11.4294128 2.30161816,11.2925702 2.408,11.0808958 C2.597,10.7274413 2.74633334,10.356489 2.8525,9.97153854 L4.69583334,4.16578534 L3.50583334,4.16578534 L3.69016666,3.58019401 L4.8545,3.58019401 L4.9805,3.17191319 C5.13206889,2.65333225 5.32318467,2.14713557 5.55216666,1.65777463 C5.76683332,1.21099876 6.08066666,0.817882664 6.47033334,0.506422727 C6.902,0.16230033 7.44333334,-0.0173432376 7.99866666,0.00132102374 C8.22033332,-0.00451156389 8.44433332,0.0281509105 8.6555,0.0969753954 C8.84216666,0.161133805 9.009,0.270786376 9.13966666,0.415434431 C9.25743328,0.546005684 9.32268251,0.715548761 9.32283334,0.891373211 L9.33333334,0.931034771 Z M14,4.16345232 C14,4.41658642 13.9626667,4.6673875 13.888,4.91002295 L13.2731667,4.91002295 C13.3525,4.66388795 13.3945,4.40842081 13.3991667,4.14945412 C13.3979251,4.08933113 13.3818979,4.03043855 13.3525,3.97797618 C13.3098721,3.91539376 13.2365532,3.88097408 13.1611667,3.88815439 C13.1007971,3.8871391 13.0417676,3.90599334 12.9931667,3.94181415 C12.869851,4.04747749 12.7518717,4.15921249 12.6396667,4.27660443 L11.4566667,5.46645137 L11.9921667,7.07041172 C12.0411667,7.22439191 12.1006667,7.37487255 12.1695,7.52185365 C12.2301667,7.63500575 12.3036667,7.69333159 12.3923333,7.69333159 C12.481,7.69333159 12.677,7.58484554 12.7936667,7.36787345 C12.8963333,7.1812308 12.9815,6.98642252 13.0503333,6.78461515 L13.6185,6.78461515 C13.5192291,7.17161065 13.3517169,7.53779905 13.1238333,7.86597606 C12.9523333,8.11094455 12.7271667,8.31741799 12.467,8.47139818 C12.2675,8.58804984 12.04,8.65570781 11.8055,8.66620645 C11.5013377,8.68234339 11.2080822,8.55072118 11.018,8.31275191 C10.8103492,8.03159452 10.6528643,7.71666539 10.5525,7.38187165 L10.3051667,6.62363586 L8.9075,8.03278792 C8.65446066,8.35489124 8.29132387,8.57216368 7.88783334,8.64287612 C7.51916668,8.64287612 7.3336534,8.40840628 7.3336534,7.93363402 C7.3325,7.58601207 7.40833332,7.24188966 7.5565,6.92576366 L8.24133334,6.92576366 C8.12926856,7.18413162 8.05084949,7.45581873 8.008,7.73415967 C8.008,7.85664392 8.0465,7.92080233 8.1305,7.92080233 C8.21333334,7.92080233 8.31133334,7.84264572 8.47933334,7.68516598 L10.1103333,6.04037755 L9.79766666,5.09549909 C9.75121772,4.9503171 9.69985483,4.80675295 9.64366666,4.66505446 C9.60910104,4.58338636 9.56053837,4.5083805 9.50016666,4.44341631 C9.44294322,4.38774992 9.3652583,4.35819968 9.2855,4.36176013 C9.04283334,4.36176013 8.81883334,4.66038838 8.67533334,5.26697703 L8.11533334,5.26697703 C8.22652529,4.8963591 8.38327825,4.54096747 8.582,4.20894647 C8.73133334,3.95697888 8.9355,3.73767375 9.17816666,3.56736232 C9.3835,3.42038122 9.632,3.34222462 9.88633334,3.3410581 C10.1889812,3.33005691 10.4808912,3.45398519 10.6831667,3.67934791 C10.9118333,3.9523128 11.0798333,4.2684388 11.1766667,4.60672862 L11.2793333,4.9135225 L12.2628333,3.9103182 C12.5136667,3.59535872 12.8835,3.39005179 13.2918333,3.3410581 C13.5251667,3.30606261 13.7561667,3.41571516 13.8693333,3.61635602 C13.9533333,3.79133351 13.9976667,3.9803092 14,4.17278444 L14,4.16345232 Z" id="形状"></path>
        </g>
    </g>
</svg>