<?xml version="1.0" encoding="UTF-8"?>
<svg width="16px" height="16px" viewBox="0 0 16 16" version="1.1" xmlns="http://www.w3.org/2000/svg" xmlns:xlink="http://www.w3.org/1999/xlink">
    <title>ICON / action /copy</title>
    <g id="ICON-/-action-/copy" stroke="none" stroke-width="1" fill="none" fill-rule="evenodd" fill-opacity="0.7">
        <path d="M13,6 C14.1045695,6 15,6.8954305 15,8 L15,13 C15,14.1045695 14.1045695,15 13,15 L8,15 C6.8954305,15 6,14.1045695 6,13 L6,8 C6,6.8954305 6.8954305,6 8,6 L13,6 Z M8,1 C9.1045695,1 10,1.8954305 10,3 L10,5 L9,5 L9,3 C9,2.48716416 8.61395981,2.06449284 8.11662113,2.00672773 L8,2 L3,2 C2.48716416,2 2.06449284,2.38604019 2.00672773,2.88337887 L2,3 L2,8 C2,8.51283584 2.38604019,8.93550716 2.88337887,8.99327227 L3,9 L5,9 L5,10 L3,10 C1.8954305,10 1,9.1045695 1,8 L1,3 C1,1.8954305 1.8954305,1 3,1 L8,1 Z" id="形状结合" fill="#000000"></path>
    </g>
</svg>