<?xml version="1.0" encoding="UTF-8"?>
<svg width="16px" height="16px" viewBox="0 0 16 16" version="1.1" xmlns="http://www.w3.org/2000/svg" xmlns:xlink="http://www.w3.org/1999/xlink">
    <title>ICON /ai/ indicate</title>
    <g id="ICON-/ai/-indicate" stroke="none" stroke-width="1" fill="none" fill-rule="evenodd">
        <path d="M9.14396004,4.24520119 L12.1793337,7.28057489 C12.569858,7.67109919 12.569858,8.30426416 12.1793337,8.69478846 L9.14378038,11.7303418 C8.89534152,11.9787807 8.50797855,12.0036246 8.23175486,11.8048735 L8.14413959,11.7303418 C7.86790948,11.4539347 7.8679785,11.0062163 8.14413369,10.7300544 L10.8864405,7.98768168 L8.14336876,5.24515178 C7.8948406,4.99667271 7.86995196,4.60921124 8.06872756,4.33289592 L8.1434795,4.24504099 C8.41982471,3.96887272 8.86770328,3.96894443 9.14396004,4.24520119 Z M8,7 C8.55228475,7 9,7.44771525 9,8 C9,8.55228475 8.55228475,9 8,9 L5,9 C4.44771525,9 4,8.55228475 4,8 C4,7.44771525 4.44771525,7 5,7 L8,7 Z" id="形状结合" fill="#000000"></path>
    </g>
</svg>