<?xml version="1.0" encoding="UTF-8"?>
<svg width="12px" height="12px" viewBox="0 0 12 12" version="1.1" xmlns="http://www.w3.org/2000/svg" xmlns:xlink="http://www.w3.org/1999/xlink">
    <title>ICON /ai/enter</title>
    <g id="ICON-/ai/enter" stroke="none" stroke-width="1" fill="none" fill-rule="evenodd">
        <path d="M10.5242699,3 C10.8004122,3 11.0242699,3.22385763 11.0242699,3.5 L11.0242699,8.5 C11.0242699,8.74545989 10.8473947,8.94960837 10.6141455,8.99194433 L10.5242699,9 L2.763,8.99902225 L3.97487373,10.2111095 C4.14844009,10.3846759 4.16772524,10.6541003 4.03272918,10.8489684 L3.97487373,10.9182163 C3.77961159,11.1134785 3.4630291,11.1134785 3.26776695,10.9182163 L1.50070711,9.14974226 L1.14644661,8.79689598 C0.951184464,8.60163383 0.951184464,8.28505135 1.14644661,8.0897892 L3.26776695,5.96846886 C3.4630291,5.77320671 3.77961159,5.77320671 3.97487373,5.96846886 C4.17013588,6.163731 4.17013588,6.48031349 3.97487373,6.67557564 L2.65,7.99902225 L10.024,8 L10.024,4 L7.52426987,4 C7.24812749,4 7.02426987,3.77614237 7.02426987,3.5 C7.02426987,3.22385763 7.24812749,3 7.52426987,3 L10.5242699,3 Z" id="形状结合" fill="#000000"></path>
    </g>
</svg>