<?xml version="1.0" encoding="UTF-8"?>
<svg width="16px" height="16px" viewBox="0 0 16 16" version="1.1" xmlns="http://www.w3.org/2000/svg" xmlns:xlink="http://www.w3.org/1999/xlink">
    <title>ICON / action / clear_history</title>
    <g id="ICON-/-action-/-clear_history" stroke="none" stroke-width="1" fill="none" fill-rule="evenodd">
        <path d="M14.7372663,0.342437045 L14.8336764,0.407234683 C14.8758278,0.435564813 14.9430907,0.480772467 15.0641639,0.562146244 L15.1727526,0.635129204 L15.2589101,0.733591971 C15.5686509,1.08757077 15.6795427,1.54662629 15.5677142,2.00305451 L15.5392106,2.1193917 L15.4840383,2.22570636 L12.7782486,7.43859621 L12.7875128,7.44794142 C13.5819284,8.25618761 13.8755116,9.20992339 13.7530434,10.3116142 L13.7252257,10.5199157 C13.6391202,10.8784956 13.4352571,11.249513 13.1171425,11.682063 L12.597193,12.3882699 L12.5339007,12.5304933 C11.8709148,13.9551824 11.0268118,14.9702877 9.98274518,15.5429483 L9.77124857,15.6508441 L9.83424857,15.6188441 L9.7837293,15.6539161 C9.37600403,15.9086916 8.85609877,16.0364157 8.40336512,15.9757482 L8.23708897,15.9440472 C6.88321218,15.5740996 6.18232242,15.2488433 5.50281852,14.6362199 C5.34152966,14.490806 5.24135801,14.3104955 5.1977151,14.1213398 L5.18824857,14.0688441 L4.95502923,14.0691648 L4.65218752,14.0617724 C4.46578452,14.0552901 4.28490934,13.9968056 4.12999867,13.8929269 L2.26043221,12.6389861 C1.74890249,12.311252 1.59990673,11.6308942 1.92764087,11.1193645 C2.07597377,10.8878455 2.30563564,10.7202739 2.5896651,10.6449912 C4.48223017,10.1801954 5.68863813,9.46426627 6.26182484,8.54552646 L6.30819299,8.47826994 L6.75810032,7.74729036 L6.76535101,7.73548326 C6.77381014,7.72170832 6.77381014,7.72170832 6.78710306,7.70006197 C6.8209396,7.64496219 6.8209396,7.64496219 6.87411129,7.55837682 C7.00945742,7.33797769 7.00945742,7.33797769 7.24518852,6.95584212 C7.83228614,6.08521131 8.76298781,5.79298543 9.91107394,5.98390775 L10.0632486,6.01159621 L10.1777495,5.79351561 C11.8351,2.60243503 12.6712527,1.01864132 12.8205508,0.787444406 L12.8325393,0.769724609 C13.2334118,0.0444781818 14.0433265,-0.0947436051 14.7372663,0.342437045 Z M7.08019299,9.11826994 L7.11024857,9.07484412 C6.37843653,10.2478386 4.95103456,11.0947774 2.8281682,11.616133 C2.80400993,11.6225519 2.78313158,11.6377856 2.76964677,11.6588328 C2.73985276,11.7053355 2.75339783,11.7671862 2.79990053,11.7969802 L4.6869421,13.0623765 C5.78145068,13.1004387 6.58921951,13.0008967 7.11024857,12.7637505 C7.11024857,12.7637505 7.2211404,12.6956411 7.27115127,12.7637505 C7.28893868,12.787975 7.29410826,12.8680595 7.28666002,13.0040038 C7.23784105,13.3157833 6.86643074,13.6122845 6.17242908,13.8935075 C6.72166691,14.3886863 7.29848221,14.6509115 8.50067616,14.9794116 C8.69355679,15.0277448 9.06907355,14.9510128 9.32707072,14.755515 C10.2879655,14.2993226 11.085777,13.3482434 11.7205054,11.9022772 L7.08019299,9.11826994 Z M13.7077408,1.2534832 C13.5753898,1.44549465 12.5319977,3.42566795 10.5775644,7.19400311 C9.35011954,6.75338428 8.51569554,6.86036213 8.07429244,7.51493666 C7.86869333,7.84973651 7.73141372,8.07328414 7.66245361,8.18557954 L7.63719299,8.22526994 L7.75585352,8.29494706 C7.84216504,8.34604314 7.9209998,8.39271301 8.00121915,8.44020255 L8.09251734,8.49425072 C8.6030103,8.79646055 9.29373393,9.20536624 12.2638456,10.9636607 L12.356193,11.0262699 L12.4108985,10.9503611 C12.5974984,10.6800562 12.7114879,10.4587438 12.7528669,10.2864239 C12.880562,9.45205309 12.7222226,8.5283239 11.5227127,7.68802276 L14.5964416,1.765085 C14.6308972,1.62445443 14.6008644,1.5001287 14.5063433,1.39210781 C14.2884116,1.24563501 14.1794457,1.17239861 14.1794457,1.17239861 C13.9682932,1.03953611 13.8110583,1.06656431 13.7077408,1.2534832 Z M4.00548091,3.42962972 L4.20220577,4.18005735 L4.24830255,4.35593259 C4.50484604,5.29865988 4.71352171,5.50677982 5.68037926,5.79764887 L6.30629296,5.9859485 L5.68218184,6.18013919 L5.52114699,6.23023267 C4.66346283,6.50725727 4.47155552,6.73564128 4.20261236,7.79670514 L4.01200504,8.5487099 L3.81528018,7.79828227 L3.76918339,7.62240703 C3.51263991,6.67967974 3.30396423,6.4715598 2.33710669,6.18069075 L1.71119299,5.99239112 L2.33530411,5.79820043 L2.49633896,5.74810695 C3.35402312,5.47108235 3.54593043,5.24269834 3.81487359,4.18163448 L4.00548091,3.42962972 Z M8.41601253,0.671233603 L8.61273739,1.42166123 L8.64718979,1.55311774 C8.83499315,2.24324383 8.97852612,2.38639454 9.68740608,2.59965372 L10.3133198,2.78795336 L9.68920866,2.98214404 L9.56894545,3.01955152 C8.94312212,3.22168707 8.8108496,3.37910124 8.61314398,4.15911096 L8.42253666,4.91111572 L8.2258118,4.16068809 L8.1913594,4.02923158 C8.00355605,3.3391055 7.86002308,3.19595478 7.15114311,2.9826956 L6.52522942,2.79439597 L7.14934054,2.60020528 L7.26960375,2.5627978 C7.89542708,2.36066225 8.0276996,2.20324808 8.22540522,1.42323836 L8.41601253,0.671233603 Z" id="形状结合" fill="#000000"></path>
    </g>
</svg>