<?xml version="1.0" encoding="UTF-8"?>
<svg width="16px" height="16px" viewBox="0 0 16 16" version="1.1" xmlns="http://www.w3.org/2000/svg" xmlns:xlink="http://www.w3.org/1999/xlink">
    <title>ICON /ai/ instruction</title>
    <g id="ICON-/ai/-instruction" stroke="none" stroke-width="1" fill="none" fill-rule="evenodd">
        <path d="M13.25,2 C14.2164983,2 15,2.76751186 15,3.71428571 L15,12.2857143 C15,13.2324881 14.2164983,14 13.25,14 L2.75,14 C1.78350169,14 1,13.2324881 1,12.2857143 L1,3.71428571 C1,2.76751186 1.78350169,2 2.75,2 L13.25,2 Z M14.029,5.428 L2.004,5.428 L2.00457382,12.1633726 C2.00457382,12.6367595 2.39632467,13.0205154 2.87957382,13.0205154 L13.154089,13.0205154 C13.6373381,13.0205154 14.029089,12.6367595 14.029089,12.1633726 L14.029,5.428 Z M8.35475175,7.24992006 L8.43329645,7.25783936 C8.67050127,7.30290387 8.82550068,7.52780404 8.77949732,7.76016795 L8.07949732,11.2958822 C8.03349396,11.5282461 7.80390837,11.6800823 7.56670355,11.6350178 C7.32949873,11.5899533 7.17449932,11.3650531 7.22050268,11.1326892 L7.92050268,7.59697491 C7.95628307,7.41624742 8.10311938,7.28423426 8.27821968,7.25568975 L8.35475175,7.24992006 Z M10.7193443,7.3408467 L12.8193443,8.94798955 C13.0308926,9.10988882 13.0450715,9.41851337 12.8492242,9.59837309 L10.7492242,11.5269445 C10.5729501,11.6888289 10.2960845,11.68008 10.1308275,11.5074033 C9.96557049,11.3347267 9.97450164,11.0635113 10.1507758,10.9016269 L11.878,9.31571429 L10.1806557,8.01629616 C10.0114059,7.88676823 9.96592179,7.65956989 10.0623789,7.47968137 L10.1052393,7.41472398 C10.2539941,7.22820376 10.5289382,7.19512778 10.7193443,7.3408467 Z M5.89476066,7.41469184 C6.0435154,7.60121206 6.00975033,7.8705451 5.81934427,8.01626402 L4.121125,9.31568214 L5.84922424,10.9015948 C6.00591235,11.045492 6.03037885,11.2757742 5.91781617,11.4464479 L5.86917253,11.5073712 C5.70391554,11.6800479 5.42704988,11.6887968 5.25077576,11.5269124 L3.15077576,9.59834094 C2.9549285,9.41848122 2.96910736,9.10985668 3.18065573,8.94795741 L5.28065573,7.34081455 C5.47106179,7.19509563 5.74600593,7.22817162 5.89476066,7.41469184 Z" id="形状结合" fill="#000000"></path>
    </g>
</svg>