<?xml version="1.0" encoding="UTF-8"?>
<svg width="16px" height="16px" viewBox="0 0 16 16" version="1.1" xmlns="http://www.w3.org/2000/svg" xmlns:xlink="http://www.w3.org/1999/xlink">
    <title>ICON /ai/ send</title>
    <g id="ICON-/ai/-send" stroke="none" stroke-width="1" fill="none" fill-rule="evenodd">
        <path d="M14.8265109,8.69776506 C14.6852415,8.99845001 14.4445968,9.23679997 14.1563275,9.38019495 L3.25724767,14.8396691 C2.48403919,15.2149215 1.55097693,14.9088991 1.15855405,14.1572392 C0.985828742,13.7942367 0.950793505,13.3845443 1.07037528,13.0023444 L2.26234918,9.15111998 C2.37149268,8.79847754 2.69968134,8.55778258 3.07138635,8.55778258 L7.24299527,8.55778258 C7.54961972,8.55655758 7.80035001,8.31068262 7.80735001,7.99783517 C7.81435,7.68498772 7.55776581,7.44088026 7.24299527,7.43788776 L3.07445436,7.43788776 C2.70128588,7.43788776 2.3721627,7.1953203 2.26425346,6.84077036 L1.08800751,2.97580848 C0.841914494,2.16972361 1.30647082,1.30996625 2.1285382,1.06848379 C2.50904169,0.949763806 2.92066606,0.9857963 3.2748799,1.17348377 L14.1563275,6.63295789 C14.9164529,7.01829033 15.2223721,7.94547518 14.8265109,8.69776506 L14.8265109,8.69776506 Z" id="路径" fill="#000000"></path>
    </g>
</svg>