<?xml version="1.0" encoding="UTF-8"?>
<svg width="42px" height="12px" viewBox="0 0 42 12" version="1.1" xmlns="http://www.w3.org/2000/svg" xmlns:xlink="http://www.w3.org/1999/xlink">
    <title>ctrl+del</title>
    <g id="ctrl+del" stroke="none" stroke-width="1" fill="none" fill-rule="evenodd">
        <g id="编组-10" transform="translate(0.77, 1.436)" fill="#000000" fill-rule="nonzero">
            <g id="Ctrl+">
                <path d="M3.924,9.72 C5.064,9.72 5.964,9.264 6.672,8.448 L5.928,7.572 C5.4,8.148 4.788,8.508 3.972,8.508 C2.412,8.508 1.428,7.224 1.428,5.124 C1.428,3.048 2.484,1.776 4.008,1.776 C4.728,1.776 5.28,2.1 5.736,2.568 L6.492,1.68 C5.952,1.092 5.088,0.564 3.984,0.564 C1.752,0.564 0,2.292 0,5.172 C0,8.064 1.704,9.72 3.924,9.72 Z" id="路径"></path>
                <path d="M10.332,9.72 C10.812,9.72 11.256,9.6 11.628,9.48 L11.376,8.46 C11.184,8.544 10.896,8.616 10.668,8.616 C9.984,8.616 9.708,8.208 9.708,7.416 L9.708,4.068 L11.424,4.068 L11.424,2.964 L9.708,2.964 L9.708,1.14 L8.556,1.14 L8.4,2.964 L7.368,3.036 L7.368,4.068 L8.328,4.068 L8.328,7.404 C8.328,8.796 8.844,9.72 10.332,9.72 Z" id="路径"></path>
                <path d="M12.864,9.564 L14.244,9.564 L14.244,5.448 C14.652,4.404 15.3,4.032 15.84,4.032 C16.104,4.032 16.272,4.068 16.5,4.14 L16.752,2.94 C16.548,2.844 16.332,2.796 16.008,2.796 C15.3,2.796 14.604,3.3 14.136,4.152 L14.1,4.152 L13.992,2.964 L12.864,2.964 L12.864,9.564 Z" id="路径"></path>
                <path d="M19.14,9.72 C19.488,9.72 19.716,9.672 19.884,9.612 L19.704,8.568 C19.584,8.592 19.536,8.592 19.476,8.592 C19.308,8.592 19.152,8.46 19.152,8.088 L19.152,0 L17.772,0 L17.772,8.016 C17.772,9.084 18.144,9.72 19.14,9.72 Z" id="路径"></path>
                <polygon id="路径" points="23.196 8.196 24.252 8.196 24.252 5.604 26.688 5.604 26.688 4.608 24.252 4.608 24.252 2.016 23.196 2.016 23.196 4.608 20.76 4.608 20.76 5.604 23.196 5.604"></polygon>
            </g>
        </g>
        <g id="ICON-/ai/enter备份" transform="translate(30.6145, 2)" fill="#000000">
            <path d="M9.8855482,0 C10.7139753,0 11.3855482,0.671572875 11.3855482,1.5 L11.3855482,7.5 C11.3855482,8.32842712 10.7139753,9 9.8855482,9 L3.64285714,9 C3.15843049,9 2.70382421,8.76605147 2.42225694,8.37185729 L0.279399793,5.37185729 C-0.0931332644,4.85031101 -0.0931332644,4.14968899 0.279399793,3.62814271 L2.42225694,0.628142709 C2.70382421,0.233948526 3.15843049,0 3.64285714,0 L9.8855482,0 Z M9.8855482,1 L3.64285714,1 C3.48138159,1 3.32984617,1.07798284 3.23599041,1.2093809 L1.09313326,4.2093809 C0.968955579,4.38322966 0.968955579,4.61677034 1.09313326,4.7906191 L3.23599041,7.7906191 C3.32984617,7.92201716 3.48138159,8 3.64285714,8 L9.8855482,8 C10.1616906,8 10.3855482,7.77614237 10.3855482,7.5 L10.3855482,1.5 C10.3855482,1.22385763 10.1616906,1 9.8855482,1 Z M5.03388613,1.98241348 L6.80236019,3.75088754 L8.56942004,1.98241348 C8.76468218,1.78715134 9.08126467,1.78715134 9.27652682,1.98241348 C9.47178896,2.17767563 9.47178896,2.49425812 9.27652682,2.68952026 L7.50946697,4.45799432 L9.27652682,6.22505417 C9.47178896,6.42031632 9.47178896,6.7368988 9.27652682,6.93216095 C9.08126467,7.1274231 8.76468218,7.1274231 8.56942004,6.93216095 L6.80236019,5.1651011 L5.03388613,6.93216095 C4.83862398,7.1274231 4.5220415,7.1274231 4.32677935,6.93216095 C4.1315172,6.7368988 4.1315172,6.42031632 4.32677935,6.22505417 L6.09525341,4.45799432 L4.32677935,2.68952026 C4.1315172,2.49425812 4.1315172,2.17767563 4.32677935,1.98241348 C4.5220415,1.78715134 4.83862398,1.78715134 5.03388613,1.98241348 Z" id="形状结合"></path>
        </g>
    </g>
</svg>