<?xml version="1.0" encoding="UTF-8"?>
<svg width="16px" height="16px" viewBox="0 0 16 16" version="1.1" xmlns="http://www.w3.org/2000/svg" xmlns:xlink="http://www.w3.org/1999/xlink">
    <title>ICON /ai/internet</title>
    <g id="ICON-/ai/internet" stroke="none" stroke-width="1" fill="none" fill-rule="evenodd">
        <path d="M8,1 C11.8659932,1 15,4.13400675 15,8 C15,11.8659932 11.8659932,15 8,15 C4.13400675,15 1,11.8659932 1,8 C1,4.13400675 4.13400675,1 8,1 Z M9.68882692,11.0015849 L6.31117308,11.0015849 C6.43871031,11.5758018 6.60266821,12.1004631 6.79782469,12.5558282 C7.21659494,13.5329588 7.68982759,14 8,14 C8.31017241,14 8.78340506,13.5329588 9.20217531,12.5558282 C9.39733179,12.1004631 9.56128969,11.5758018 9.68882692,11.0015849 Z M5.2888603,11.0007918 L2.80325037,11.000963 C3.56319485,12.314118 4.80657578,13.3125302 6.28999965,13.7528062 C5.86211248,13.0588951 5.51479455,12.1101716 5.2888603,11.0007918 Z M13.1967496,11.000963 L10.7111397,11.0007918 C10.4852054,12.1101716 10.1378875,13.0588951 9.70923696,13.7535099 C11.1934242,13.3125302 12.4368052,12.314118 13.1967496,11.000963 Z M5.12420938,6.00019087 L2.34129768,6.00032181 C2.12026719,6.62578872 2,7.29884941 2,8 C2,8.70152715 2.1203964,9.37493422 2.34165389,10.0006859 L5.12433741,10.0008128 C5.04344178,9.36686461 5,8.69526974 5,8 C5,7.30509716 5.04339594,6.63384421 5.12420938,6.00019087 Z M9.86702554,5.99980213 L6.13297446,5.99980213 C6.04615506,6.63357307 6,7.30722439 6,8 C6,8.69313965 6.04620358,9.36713492 6.13311136,10.0011969 L9.86688864,10.0011969 C9.95379642,9.36713492 10,8.69313965 10,8 C10,7.30722439 9.95384494,6.63357307 9.86702554,5.99980213 Z M13.6587023,6.00032181 L10.8757906,6.00019087 C10.9566041,6.63384421 11,7.30509716 11,8 C11,8.69526974 10.9565582,9.36686461 10.8756626,10.0008128 L13.6583461,10.0006859 C13.8796036,9.37493422 14,8.70152715 14,8 C14,7.29884941 13.8797328,6.62578872 13.6587023,6.00032181 Z M6.29076304,2.24649006 L6.26712071,2.25403417 C4.7934166,2.69786591 3.55865325,3.69314756 2.80267039,5.00003939 L5.28865619,5.00021061 C5.51458536,3.8903999 5.86198338,2.9413141 6.29076304,2.24649006 Z M8,2 C7.68982759,2 7.21659494,2.46704125 6.79782469,3.44417183 C6.6025554,3.89980016 6.43852077,4.42480481 6.31095195,4.99941087 L9.68904805,4.99941087 C9.56147923,4.42480481 9.3974446,3.89980016 9.20217531,3.44417183 C8.81132308,2.53218328 8.37302804,2.06453923 8.06414417,2.00623997 L8,2 Z M9.71000035,2.2471938 L9.73522769,2.28908358 C10.1520596,2.97988187 10.4899973,3.91291079 10.7113438,5.00021061 L13.1973296,5.00003939 C12.4374379,3.68639014 11.1938017,2.68758183 9.71000035,2.2471938 Z" id="形状结合" fill="#000000"></path>
    </g>
</svg>