<?xml version="1.0" encoding="UTF-8"?>
<svg width="96px" height="96px" viewBox="0 0 96 96" version="1.1" xmlns="http://www.w3.org/2000/svg" xmlns:xlink="http://www.w3.org/1999/xlink">
    <title>plugin/git</title>
    <defs>
        <linearGradient x1="50%" y1="-6.22551441%" x2="47.9677836%" y2="98.0607986%" id="linearGradient-1">
            <stop stop-color="#AD44D9" offset="0%"></stop>
            <stop stop-color="#2905A4" offset="100%"></stop>
        </linearGradient>
        <path d="M18,0 L78,0 C87.9411255,-1.82615513e-15 96,8.0588745 96,18 L96,78 C96,87.9411255 87.9411255,96 78,96 L18,96 C8.0588745,96 1.21743675e-15,87.9411255 0,78 L0,18 C-1.21743675e-15,8.0588745 8.0588745,1.82615513e-15 18,0 Z" id="path-2"></path>
        <filter x="-1.0%" y="-1.0%" width="102.1%" height="102.1%" filterUnits="objectBoundingBox" id="filter-3">
            <feGaussianBlur stdDeviation="0.5" in="SourceAlpha" result="shadowBlurInner1"></feGaussianBlur>
            <feOffset dx="0" dy="-1" in="shadowBlurInner1" result="shadowOffsetInner1"></feOffset>
            <feComposite in="shadowOffsetInner1" in2="SourceAlpha" operator="arithmetic" k2="-1" k3="1" result="shadowInnerInner1"></feComposite>
            <feColorMatrix values="0 0 0 0 0   0 0 0 0 0   0 0 0 0 0  0 0 0 0.5 0" type="matrix" in="shadowInnerInner1"></feColorMatrix>
        </filter>
        <linearGradient x1="50%" y1="0%" x2="50%" y2="100%" id="linearGradient-4">
            <stop stop-color="#FF8EE5" offset="0%"></stop>
            <stop stop-color="#00A0FF" offset="100%"></stop>
        </linearGradient>
        <filter x="-27.3%" y="-20.7%" width="154.7%" height="141.4%" filterUnits="objectBoundingBox" id="filter-5">
            <feGaussianBlur stdDeviation="4" in="SourceGraphic"></feGaussianBlur>
        </filter>
        <filter x="-13.7%" y="-10.3%" width="127.3%" height="120.7%" filterUnits="objectBoundingBox" id="filter-6">
            <feGaussianBlur stdDeviation="2" in="SourceGraphic"></feGaussianBlur>
        </filter>
        <radialGradient cx="41.0006899%" cy="62.438727%" fx="41.0006899%" fy="62.438727%" r="36.3529352%" gradientTransform="translate(0.41, 0.6244), scale(1, 0.9925), rotate(90), translate(-0.41, -0.6244)" id="radialGradient-7">
            <stop stop-color="#DCBAF0" stop-opacity="0.357044567" offset="0%"></stop>
            <stop stop-color="#FFFFFF" offset="100%"></stop>
        </radialGradient>
        <ellipse id="path-8" cx="6.94736842" cy="7" rx="6.94736842" ry="7"></ellipse>
        <ellipse id="path-9" cx="36.9473684" cy="17" rx="6.94736842" ry="7"></ellipse>
        <ellipse id="path-10" cx="6.94736842" cy="51" rx="6.94736842" ry="7"></ellipse>
    </defs>
    <g id="plugin/git" stroke="none" stroke-width="1" fill="none" fill-rule="evenodd">
        <g id="矩形" fill-rule="nonzero">
            <use fill="url(#linearGradient-1)" xlink:href="#path-2"></use>
            <use fill="black" fill-opacity="1" filter="url(#filter-3)" xlink:href="#path-2"></use>
        </g>
        <g id="编组-2" transform="translate(26.8947, 18.9091)">
            <path d="M6.94736842,0 C10.7842941,0 13.8947368,3.13400675 13.8947368,7 C13.8947368,10.4313529 11.4443718,13.2860566 8.21055032,13.8845743 L8.21,35.124 L22.5321672,35.1248056 C29.1148032,35.1248056 34.5602965,30.2192346 35.4640809,23.8384508 C32.3392843,23.1548422 30,20.3526753 30,17 C30,13.1340068 33.1104428,10 36.9473684,10 C40.7842941,10 43.8947368,13.1340068 43.8947368,17 C43.8947368,20.2062147 41.7553701,22.9089681 38.8364944,23.7381005 C37.9578234,32.0280262 30.9933567,38.4848056 22.5321672,38.4848056 L8.21,38.484 L8.21055032,44.1154257 C11.3684667,44.6998949 13.7792741,47.4358776 13.8907083,50.7593502 L13.8947368,51 C13.8947368,54.8659932 10.7842941,58 6.94736842,58 C3.11044279,58 0,54.8659932 0,51 C0,47.7500406 2.19814284,45.0173744 5.17814731,44.2290119 L5.17894737,13.8727273 L5.62608871,13.8735627 C2.42106201,13.2517947 0,10.410774 0,7 C0,3.13400675 3.11044279,0 6.94736842,0 Z" id="形状结合" fill="url(#linearGradient-4)" filter="url(#filter-5)"></path>
            <path d="M6.94736842,0 C10.7842941,0 13.8947368,3.13400675 13.8947368,7 C13.8947368,10.4313529 11.4443718,13.2860566 8.21055032,13.8845743 L8.21,35.124 L22.5321672,35.1248056 C29.1148032,35.1248056 34.5602965,30.2192346 35.4640809,23.8384508 C32.3392843,23.1548422 30,20.3526753 30,17 C30,13.1340068 33.1104428,10 36.9473684,10 C40.7842941,10 43.8947368,13.1340068 43.8947368,17 C43.8947368,20.2062147 41.7553701,22.9089681 38.8364944,23.7381005 C37.9578234,32.0280262 30.9933567,38.4848056 22.5321672,38.4848056 L8.21,38.484 L8.21055032,44.1154257 C11.3684667,44.6998949 13.7792741,47.4358776 13.8907083,50.7593502 L13.8947368,51 C13.8947368,54.8659932 10.7842941,58 6.94736842,58 C3.11044279,58 0,54.8659932 0,51 C0,47.7500406 2.19814284,45.0173744 5.17814731,44.2290119 L5.17894737,13.8727273 L5.62608871,13.8735627 C2.42106201,13.2517947 0,10.410774 0,7 C0,3.13400675 3.11044279,0 6.94736842,0 Z" id="形状结合" fill="url(#linearGradient-4)" filter="url(#filter-6)"></path>
            <g id="编组">
                <g id="椭圆形">
                    <use fill="#FFFFFF" xlink:href="#path-8"></use>
                    <use fill="url(#radialGradient-7)" xlink:href="#path-8"></use>
                </g>
                <rect id="矩形" fill="#FFFFFF" x="5.17894737" y="13.8727273" width="3.03157895" height="35"></rect>
                <path d="M38.9305263,21.9622165 C38.9305263,31.0873905 31.5887309,38.4848056 22.5321672,38.4848056 L6.94736842,38.4848056 L6.94736842,35.1248056 L22.5321672,35.1248056 C29.7470066,35.1248056 35.5957895,29.2317137 35.5957895,21.9622165 L38.9305263,21.9622165 Z" id="路径-5" fill="#FFFFFF" fill-rule="nonzero" opacity="0.7"></path>
                <g id="椭圆形备份-3">
                    <use fill="#FFFFFF" xlink:href="#path-9"></use>
                    <use fill="url(#radialGradient-7)" xlink:href="#path-9"></use>
                </g>
                <g id="椭圆形备份">
                    <use fill="#FFFFFF" xlink:href="#path-10"></use>
                    <use fill="url(#radialGradient-7)" xlink:href="#path-10"></use>
                </g>
            </g>
        </g>
    </g>
</svg>