<?xml version="1.0" encoding="UTF-8"?>
<svg width="24px" height="24px" viewBox="0 0 24 24" version="1.1" xmlns="http://www.w3.org/2000/svg" xmlns:xlink="http://www.w3.org/1999/xlink">
    <title>ICON / status / error</title>
    <defs>
        <circle id="path-1" cx="6.36396103" cy="6.36396103" r="6"></circle>
        <filter x="-91.7%" y="-58.3%" width="283.3%" height="283.3%" filterUnits="objectBoundingBox" id="filter-2">
            <feOffset dx="0" dy="4" in="SourceAlpha" result="shadowOffsetOuter1"></feOffset>
            <feGaussianBlur stdDeviation="3" in="shadowOffsetOuter1" result="shadowBlurOuter1"></feGaussianBlur>
            <feColorMatrix values="0 0 0 0 0.97254902   0 0 0 0 0.17254902   0 0 0 0 0.535354964  0 0 0 0.4 0" type="matrix" in="shadowBlurOuter1"></feColorMatrix>
        </filter>
    </defs>
    <g id="ICON-/-status-/-error" stroke="none" stroke-width="1" fill="none" fill-rule="evenodd" transform="translate(4, 0)">
        <g id="错误2" transform="translate(1.636, 1.636)">
            <g id="椭圆形">
                <use fill="black" fill-opacity="1" filter="url(#filter-2)" xlink:href="#path-1"></use>
                <use fill="#DF4187" fill-rule="evenodd" xlink:href="#path-1"></use>
            </g>
            <path d="M6.36396103,1.86396103 C6.91624578,1.86396103 7.36396103,2.31167628 7.36396103,2.86396103 L7.36296103,5.36296103 L9.86396103,5.36396103 C10.4162458,5.36396103 10.863961,5.81167628 10.863961,6.36396103 C10.863961,6.91624578 10.4162458,7.36396103 9.86396103,7.36396103 L7.36296103,7.36296103 L7.36396103,9.86396103 C7.36396103,10.4162458 6.91624578,10.863961 6.36396103,10.863961 C5.81167628,10.863961 5.36396103,10.4162458 5.36396103,9.86396103 L5.36296103,7.36296103 L2.86396103,7.36396103 C2.31167628,7.36396103 1.86396103,6.91624578 1.86396103,6.36396103 C1.86396103,5.81167628 2.31167628,5.36396103 2.86396103,5.36396103 L5.36296103,5.36296103 L5.36396103,2.86396103 C5.36396103,2.31167628 5.81167628,1.86396103 6.36396103,1.86396103 Z" id="形状结合" fill="#FFFFFF" transform="translate(6.364, 6.364) rotate(-225) translate(-6.364, -6.364)"></path>
        </g>
    </g>
</svg>