<?xml version="1.0" encoding="UTF-8"?>
<svg width="16px" height="16px" viewBox="0 0 16 16" version="1.1" xmlns="http://www.w3.org/2000/svg" xmlns:xlink="http://www.w3.org/1999/xlink">
    <title>ICON / status / warning</title>
    <g id="ICON-/-status-/-warning" stroke="none" stroke-width="1" fill="none" fill-rule="evenodd">
        <path d="M8.43188945,2.74038192 L14.561371,13.2480645 C14.7005111,13.4865904 14.619943,13.7927493 14.381417,13.9318895 C14.304949,13.9764958 14.2180088,14 14.1294815,14 L1.8705185,14 C1.59437612,14 1.3705185,13.7761424 1.3705185,13.5 C1.3705185,13.4114727 1.3940227,13.3245325 1.43862905,13.2480645 L7.56811055,2.74038192 C7.70725069,2.50185596 8.01340956,2.42128784 8.25193551,2.56042798 C8.32643733,2.60388737 8.38843006,2.6658801 8.43188945,2.74038192 Z" id="三角形" fill="#F3B517"></path>
        <path d="M8,5 C8.55228475,5 9,5.44771525 9,6 L9,9 C9,9.55228475 8.55228475,10 8,10 C7.44771525,10 7,9.55228475 7,9 L7,6 C7,5.44771525 7.44771525,5 8,5 Z M8,13 C8.55228475,13 9,12.5522847 9,12 C9,11.4477153 8.55228475,11 8,11 C7.44771525,11 7,11.4477153 7,12 C7,12.5522847 7.44771525,13 8,13 Z" id="形状结合" fill="#FFFFFF"></path>
    </g>
</svg>