<?xml version="1.0" encoding="UTF-8"?>
<svg width="22px" height="22px" viewBox="0 0 22 22" version="1.1" xmlns="http://www.w3.org/2000/svg" xmlns:xlink="http://www.w3.org/1999/xlink">
    <title>ICON / sidebar /linglong_22px</title>
    <g id="ICON-/-sidebar-/linglong_22px" stroke="none" stroke-width="1" fill="none" fill-rule="evenodd">
        <path d="M10.3359723,1.03477519 L14.5928327,2.51314134 C14.7076933,2.5530313 14.8063507,2.62632852 14.8773758,2.72178145 C14.9194837,2.76826892 14.9544165,2.82385891 14.9779385,2.88702214 C14.9987286,2.94284936 15.0093746,3.00194265 15.0093746,3.06151534 L15.0087716,4.96256743 L15.1842778,5.02433543 L19.5813346,6.56475661 C19.7600779,6.587415 19.9204543,6.70620365 19.9875541,6.88679855 C20.0082587,6.94252354 20.0188599,7.00149424 20.0188599,7.0609413 L20.0188599,17.9920478 C20.0188599,18.2020594 19.8876236,18.3896885 19.690351,18.4617187 L10.6713805,21.7548182 C10.5459889,21.8006025 10.4141323,21.7930581 10.3006639,21.7437432 C10.2731745,21.7367001 10.2448643,21.7284067 10.2168456,21.7178819 L6.39641121,20.2827804 C6.16239313,20.1948742 6.00739956,19.9710848 6.00739956,19.7211008 L6.00677164,17.6805674 L5.31910799,17.9225022 L5.28896829,17.928283 C5.19779507,17.9556465 5.10114574,17.9703493 5.00106239,17.9703493 C4.84565804,17.9703493 4.69239234,17.93413 4.55342724,17.8645656 L1.55813649,16.3651549 C1.21958418,16.1956792 1.00577164,15.8495409 1.00577164,15.4709386 L1.00577164,4.84355644 C1.00577164,4.37747487 1.32463135,3.98586697 1.75610966,3.87497388 C1.79333972,3.85064017 1.83465792,3.83072212 1.87890682,3.81546271 L9.94352311,1.03434825 C10.0706889,0.990494633 10.2089022,0.990644993 10.3359723,1.03477519 Z M9.99977164,16.2795674 L7.00677164,17.3295674 L7.00639956,19.4428954 L9.99977164,20.5675674 L9.99977164,16.2795674 Z M2.00577164,5.00856743 L2.00577164,15.4709386 L5.00106239,16.9703493 L5.00106239,6.34296709 L4.95977164,6.32256743 L2.00577164,5.00856743 Z M10.0097716,11.9715674 L10.0097716,16.2695674 L15.0087433,14.3731267 L15.0077716,13.7205674 L10.0097716,11.9715674 Z M15.0087433,8.20327258 L10.010006,9.9686435 L10.0097716,10.9115674 L15.0077716,12.6595674 L15.0087433,8.20327258 Z M15.0321378,6.03017958 L15.0087716,6.03856743 L15.0093746,8.20327258 L18.0287716,7.08056743 L15.0321378,6.03017958 Z M10.137857,2.02374852 L3.31177164,4.37856743 L5.37077164,5.41056743 L6.00877164,5.69356743 L13.0997716,3.05256743 L10.137857,2.02374852 Z" id="形状结合" fill="#000000"></path>
    </g>
</svg>