<?xml version="1.0" encoding="UTF-8"?>
<svg width="24px" height="24px" viewBox="0 0 24 24" version="1.1" xmlns="http://www.w3.org/2000/svg" xmlns:xlink="http://www.w3.org/1999/xlink">
    <title>ICON / list/session</title>
    <defs>
        <linearGradient x1="35.451785%" y1="87.4059441%" x2="52.230835%" y2="45.8084674%" id="linearGradient-1">
            <stop stop-color="#005FFF" offset="0%"></stop>
            <stop stop-color="#24A0FF" offset="100%"></stop>
        </linearGradient>
        <linearGradient x1="50%" y1="1.9326376%" x2="50%" y2="99.29496%" id="linearGradient-2">
            <stop stop-color="#F5F7FF" offset="0%"></stop>
            <stop stop-color="#EDF6FF" offset="100%"></stop>
        </linearGradient>
        <linearGradient x1="50%" y1="2.37536127%" x2="50%" y2="94.5953062%" id="linearGradient-3">
            <stop stop-color="#FFFFFF" offset="0%"></stop>
            <stop stop-color="#EDF5FF" offset="100%"></stop>
        </linearGradient>
    </defs>
    <g id="ICON-/-list/session" stroke="none" stroke-width="1" fill="none" fill-rule="evenodd">
        <g id="Group-4" transform="translate(1, 2)">
            <path d="M3.8458278,-1.55376046e-16 L18.1541722,1.55376046e-16 C19.4914503,-9.02779573e-17 19.9763797,0.139238417 20.4652686,0.400699056 C20.9541574,0.662159695 21.3378403,1.04584256 21.5993009,1.53473144 C21.8607616,2.02362033 22,2.50854969 22,3.8458278 L22,16.1541722 C22,17.4914503 21.8607616,17.9763797 21.5993009,18.4652686 C21.3378403,18.9541574 20.9541574,19.3378403 20.4652686,19.5993009 C19.9763797,19.8607616 19.4914503,20 18.1541722,20 L3.8458278,20 C2.50854969,20 2.02362033,19.8607616 1.53473144,19.5993009 C1.04584256,19.3378403 0.662159695,18.9541574 0.400699056,18.4652686 C0.139238417,17.9763797 6.01853049e-17,17.4914503 -1.03584031e-16,16.1541722 L1.03584031e-16,3.8458278 C-6.01853049e-17,2.50854969 0.139238417,2.02362033 0.400699056,1.53473144 C0.662159695,1.04584256 1.04584256,0.662159695 1.53473144,0.400699056 C2.02362033,0.139238417 2.50854969,9.02779573e-17 3.8458278,-1.55376046e-16 Z" id="Rectangle-12" fill="url(#linearGradient-1)"></path>
            <path d="M3.8458278,-1.55376046e-16 L18.1541722,1.55376046e-16 C19.4914503,-9.02779573e-17 19.9763797,0.139238417 20.4652686,0.400699056 C20.9541574,0.662159695 21.3378403,1.04584256 21.5993009,1.53473144 C21.8607616,2.02362033 22,2.50854969 22,3.8458278 L22,5 L22,5 L0,5 L1.03584031e-16,3.8458278 C-6.01853049e-17,2.50854969 0.139238417,2.02362033 0.400699056,1.53473144 C0.662159695,1.04584256 1.04584256,0.662159695 1.53473144,0.400699056 C2.02362033,0.139238417 2.50854969,9.02779573e-17 3.8458278,-1.55376046e-16 Z" id="Rectangle-12" fill="url(#linearGradient-2)"></path>
            <rect id="矩形" fill-opacity="0.13" fill="#000000" x="1" y="5" width="20" height="1"></rect>
            <path d="M3.8458278,0.5 L18.1541722,0.5 C19.3498517,0.5 19.7904612,0.606821649 20.2294691,0.841605655 C20.629935,1.05577712 20.9442229,1.37006505 21.1583943,1.77053087 C21.3931784,2.2095388 21.5,2.6501483 21.5,3.8458278 L21.5,16.1541722 C21.5,17.3498517 21.3931784,17.7904612 21.1583943,18.2294691 C20.9442229,18.629935 20.629935,18.9442229 20.2294691,19.1583943 C19.7904612,19.3931784 19.3498517,19.5 18.1541722,19.5 L3.8458278,19.5 C2.6501483,19.5 2.2095388,19.3931784 1.77053087,19.1583943 C1.37006505,18.9442229 1.05577712,18.629935 0.841605655,18.2294691 C0.606821649,17.7904612 0.5,17.3498517 0.5,16.1541722 L0.5,3.8458278 C0.5,2.6501483 0.606821649,2.2095388 0.841605655,1.77053087 C1.05577712,1.37006505 1.37006505,1.05577712 1.77053087,0.841605655 C2.2095388,0.606821649 2.6501483,0.5 3.8458278,0.5 Z" id="Rectangle-12" stroke-opacity="0.126760203" stroke="#000000"></path>
        </g>
        <circle id="椭圆形" fill="#A6B0C5" cx="17" cy="5" r="1"></circle>
        <circle id="椭圆形备份-2" fill="#A6B0C5" cx="14" cy="5" r="1"></circle>
        <circle id="椭圆形备份" fill="#A6B0C5" cx="20" cy="5" r="1"></circle>
        <path d="M10.8291047,10.3556246 L15.3648978,13.1480308 C15.9292635,13.4954757 16.1051125,14.2346442 15.7576676,14.7990099 C15.6621256,14.9542018 15.5324909,15.0855938 15.3785995,15.1832167 L10.8428064,18.0605519 C10.28317,18.4155641 9.54170076,18.2496833 9.1866886,17.6900468 C9.06474883,17.4978226 9,17.2748794 9,17.0472405 L9,11.3774991 C9,10.7147574 9.53725832,10.1774991 10.2,10.1774991 C10.4221467,10.1774991 10.6399331,10.2391634 10.8291047,10.3556246 Z" id="矩形备份-2" fill="url(#linearGradient-3)"></path>
    </g>
</svg>