<?xml version="1.0" encoding="UTF-8"?>
<svg width="96px" height="96px" viewBox="0 0 96 96" version="1.1" xmlns="http://www.w3.org/2000/svg" xmlns:xlink="http://www.w3.org/1999/xlink">
    <title>plugin/action_analyse</title>
    <defs>
        <linearGradient x1="50%" y1="-6.22551441%" x2="47.9677836%" y2="98.0607986%" id="linearGradient-1">
            <stop stop-color="#D05EE0" offset="0%"></stop>
            <stop stop-color="#4018C7" offset="100%"></stop>
        </linearGradient>
        <path d="M18,0 L78,0 C87.9411255,-1.82615513e-15 96,8.0588745 96,18 L96,78 C96,87.9411255 87.9411255,96 78,96 L18,96 C8.0588745,96 1.21743675e-15,87.9411255 0,78 L0,18 C-1.21743675e-15,8.0588745 8.0588745,1.82615513e-15 18,0 Z" id="path-2"></path>
        <filter x="-1.0%" y="-1.0%" width="102.1%" height="102.1%" filterUnits="objectBoundingBox" id="filter-3">
            <feGaussianBlur stdDeviation="0.5" in="SourceAlpha" result="shadowBlurInner1"></feGaussianBlur>
            <feOffset dx="0" dy="-1" in="shadowBlurInner1" result="shadowOffsetInner1"></feOffset>
            <feComposite in="shadowOffsetInner1" in2="SourceAlpha" operator="arithmetic" k2="-1" k3="1" result="shadowInnerInner1"></feComposite>
            <feColorMatrix values="0 0 0 0 0   0 0 0 0 0   0 0 0 0 0  0 0 0 0.5 0" type="matrix" in="shadowInnerInner1"></feColorMatrix>
        </filter>
        <linearGradient x1="50%" y1="0%" x2="50%" y2="100%" id="linearGradient-4">
            <stop stop-color="#9036CD" offset="0%"></stop>
            <stop stop-color="#1025C5" offset="100%"></stop>
        </linearGradient>
        <linearGradient x1="50%" y1="100%" x2="50%" y2="0%" id="linearGradient-5">
            <stop stop-color="#FFFFFF" stop-opacity="0.511139983" offset="0%"></stop>
            <stop stop-color="#FFFFFF" stop-opacity="0.847948194" offset="100%"></stop>
        </linearGradient>
        <path d="M25.8001488,0 C40.0491776,0 51.6002977,11.562733 51.6002977,25.826087 L51.6002977,30.6086957 L55.6347479,36.1861823 C56.2533548,37.0413848 56.0615562,38.2361433 55.2063537,38.8547501 C54.8804554,39.0904872 54.4884879,39.2173913 54.0862669,39.2173913 L51.6,39.217 L51.6002977,45.9207289 C51.6002977,50.1426633 48.1777436,53.5652174 43.9558091,53.5652174 L39.778,53.565 L39.7780144,66 L11.4667328,66 L13.8691454,48.7307812 C5.62619887,44.4195912 0,35.7805342 0,25.826087 C0,11.562733 11.5511201,0 25.8001488,0 Z" id="path-6"></path>
        <linearGradient x1="50%" y1="0.869886972%" x2="50%" y2="96.0085089%" id="linearGradient-8">
            <stop stop-color="#FEFFFF" offset="0%"></stop>
            <stop stop-color="#ECE2F2" offset="100%"></stop>
        </linearGradient>
        <path d="M17.9796783,14.4224844 C6.00677391,21.3250231 6.00677391,38.6751386 17.9796783,45.5774747 C29.9526051,52.4800359 45,43.8051469 45,30.0000246 C45,16.1949698 29.9526051,7.51996827 17.9796783,14.4224844 Z" id="path-9"></path>
        <filter x="-2.8%" y="-2.8%" width="105.6%" height="105.6%" filterUnits="objectBoundingBox" id="filter-10">
            <feGaussianBlur stdDeviation="0.5" in="SourceAlpha" result="shadowBlurInner1"></feGaussianBlur>
            <feOffset dx="0" dy="-1" in="shadowBlurInner1" result="shadowOffsetInner1"></feOffset>
            <feComposite in="shadowOffsetInner1" in2="SourceAlpha" operator="arithmetic" k2="-1" k3="1" result="shadowInnerInner1"></feComposite>
            <feColorMatrix values="0 0 0 0 0.560784314   0 0 0 0 0.207843137   0 0 0 0 0.803921569  0 0 0 0.278253729 0" type="matrix" in="shadowInnerInner1"></feColorMatrix>
        </filter>
        <path d="M21.344757,20.0579528 L21.344757,22.0136463 C16.6430071,22.122296 21.3169188,27.9893104 17.0881255,30.4474837 C21.344757,33.1772701 16.865555,39.3974564 21.3864918,38.7184237 L21.3864918,41 C12.7758851,41 19.9815187,31.5475475 14,31.710511 L14,29.1844344 C19.6425646,29.8679382 12.914986,19.1208745 21.344757,20.0579528 Z M23.2768968,30.5826515 C23.2768968,31.676306 22.0558951,32.3635761 21.0843546,31.8167378 C20.1128141,31.2698996 20.1128141,29.8953814 21.0843546,29.3485431 C22.0558951,28.8017049 23.2768968,29.4889749 23.2768968,30.5826515 Z M26.2680171,31.8167378 C25.2964766,31.2698996 25.2964766,29.8953814 26.2680171,29.3485431 C27.2395351,28.8017049 28.4605593,29.4889749 28.4605593,30.5826515 C28.4605593,31.676306 27.2395351,32.3635761 26.2680171,31.8167378 Z M37.3727675,24.5261031 L37.3821618,24.8986087 C37.4305579,27.2547412 37.3197925,29.5090987 40,29.1844344 L40,31.710511 C37.2810868,31.6364367 37.2868199,33.5490186 37.2933411,35.6575102 L37.29332,36.202884 C37.2784379,38.5751087 36.9746461,41 32.6133954,41 L32.6133954,38.7184237 C37.1342871,39.3974564 32.6551302,33.1772701 36.911852,30.4474837 C32.6828782,27.9893104 37.3569478,22.122296 32.6551302,22.0136463 L32.6551302,20.0579528 C36.8700044,19.5894137 37.2955864,22.04191 37.3727675,24.5261031 Z M33.6441316,30.5826515 C33.6441316,31.676306 32.4232202,32.3635761 31.4516571,31.8167378 C30.4801165,31.2698996 30.4801165,29.8953814 31.4516571,29.3485431 C32.4232202,28.8017049 33.6441316,29.4889749 33.6441316,30.5826515 Z" id="path-11"></path>
        <filter x="-19.2%" y="-19.0%" width="138.5%" height="147.6%" filterUnits="objectBoundingBox" id="filter-12">
            <feOffset dx="0" dy="1" in="SourceAlpha" result="shadowOffsetOuter1"></feOffset>
            <feGaussianBlur stdDeviation="1.5" in="shadowOffsetOuter1" result="shadowBlurOuter1"></feGaussianBlur>
            <feColorMatrix values="0 0 0 0 0.500364987   0 0 0 0 0.169691844   0 0 0 0 0.712427112  0 0 0 0.57979301 0" type="matrix" in="shadowBlurOuter1"></feColorMatrix>
        </filter>
        <filter x="-15.4%" y="-14.3%" width="130.8%" height="138.1%" filterUnits="objectBoundingBox" id="filter-13">
            <feGaussianBlur stdDeviation="0.5" in="SourceAlpha" result="shadowBlurInner1"></feGaussianBlur>
            <feOffset dx="0" dy="-1" in="shadowBlurInner1" result="shadowOffsetInner1"></feOffset>
            <feComposite in="shadowOffsetInner1" in2="SourceAlpha" operator="arithmetic" k2="-1" k3="1" result="shadowInnerInner1"></feComposite>
            <feColorMatrix values="0 0 0 0 0.588235294   0 0 0 0 0.223529412   0 0 0 0 0.815686275  0 0 0 0.46097506 0" type="matrix" in="shadowInnerInner1"></feColorMatrix>
        </filter>
    </defs>
    <g id="plugin/action_analyse" stroke="none" stroke-width="1" fill="none" fill-rule="evenodd">
        <g id="矩形" fill-rule="nonzero">
            <use fill="url(#linearGradient-1)" xlink:href="#path-2"></use>
            <use fill="black" fill-opacity="1" filter="url(#filter-3)" xlink:href="#path-2"></use>
        </g>
        <g id="路径-+-路径蒙版" transform="translate(30, 17)">
            <path d="M25.8001488,-1 C33.2009204,-1 39.9011071,2.00269449 44.751071,6.85753431 C49.6006714,11.7120103 52.6002977,18.4183826 52.6002977,25.826087 L52.6002977,30.284934 L56.4449949,35.6000938 C56.9161422,36.2514385 57.0786764,37.0320907 56.9605876,37.7676935 C56.8424989,38.5032963 56.4437871,39.1938498 55.7924423,39.6649971 C55.2960168,40.0240843 54.6989511,40.2173913 54.0861095,40.2173913 L52.6000444,40.2171574 L52.6002977,45.9207289 C52.6002977,48.3078384 51.6327303,50.4689606 50.0683856,52.0333053 C48.5040408,53.5976501 46.3429187,54.5652174 43.9557571,54.5652174 L40.7780012,54.565052 L40.7780155,67 L10.3179873,67 L12.7830187,49.2806597 C8.70432694,47.0079329 5.2801813,43.700088 2.86518974,39.7117641 C0.412434179,35.6610735 -1,30.9087234 -1,25.826087 C-1,18.4183826 1.99962626,11.7120103 6.84922668,6.85753431 C11.6991906,2.00269449 18.3993772,-1 25.8001488,-1 Z" id="蒙版" stroke="url(#linearGradient-4)" stroke-width="2" stroke-linejoin="round" fill-rule="nonzero"></path>
            <mask id="mask-7" fill="white">
                <use xlink:href="#path-6"></use>
            </mask>
            <path stroke="url(#linearGradient-5)" d="M25.8001488,0.5 C32.7865346,0.5 39.1114971,3.33467762 43.689878,7.91766145 C48.2684407,12.5008272 51.1002977,18.8324236 51.1002977,25.826087 L51.1002977,30.7705765 L55.2296244,36.4792266 C55.4580059,36.7949561 55.5367919,37.1733653 55.4795501,37.5299376 C55.4223084,37.8865099 55.2290389,38.2212451 54.9133095,38.4496266 C54.6726747,38.6236887 54.3832563,38.7173913 54.0863456,38.7173913 L51.0999778,38.7169213 L51.1002977,45.9207289 C51.1002977,47.8936249 50.3006235,49.679747 49.0077254,50.9726451 C47.7148273,52.2655433 45.9287051,53.0652174 43.9558351,53.0652174 L39.2779994,53.064974 L39.2780138,65.5 L12.0411055,65.5 L14.4132525,48.4483391 C10.1651416,46.3013558 6.60415996,42.9906465 4.14829646,38.9348232 C1.83277915,35.1107797 0.5,30.6242176 0.5,25.826087 C0.5,18.8324236 3.3318569,12.5008272 7.91041961,7.91766145 C12.4888006,3.33467762 18.8137631,0.5 25.8001488,0.5 Z"></path>
            <path d="M-21.5553202,-23.4054591 C-54.1482266,-4.61521498 -54.1482266,42.6156551 -21.5553202,61.4053479 C11.0376473,80.1956533 52,56.5806776 52,19.0000669 C52,-18.58036 11.0376473,-42.1956419 -21.5553202,-23.4054591 Z" id="路径" fill-opacity="0.2" fill="#FFFFFF" fill-rule="nonzero" mask="url(#mask-7)"></path>
            <path d="M-15.0406434,-15.1550312 C-38.9864522,-1.34995386 -38.9864522,33.3502772 -15.0406434,47.1549495 C8.9052103,60.9600718 39,43.6102938 39,16.0000492 C39,-11.6100604 8.9052103,-28.9600635 -15.0406434,-15.1550312 Z" id="路径" fill-opacity="0.3" fill="#FFFFFF" fill-rule="nonzero" mask="url(#mask-7)"></path>
            <path d="M-7.02257969,-1.30835064 C-20.3258068,6.36113674 -20.3258068,25.6390429 -7.02257969,33.3083053 C6.28067239,40.9778177 23,31.3390521 23,16.0000273 C23,0.661077536 6.28067239,-8.97781303 -7.02257969,-1.30835064 Z" id="路径" fill-opacity="0.3" fill="#FFFFFF" fill-rule="nonzero" mask="url(#mask-7)"></path>
        </g>
        <g id="路径">
            <use fill="url(#linearGradient-8)" fill-rule="evenodd" xlink:href="#path-9"></use>
            <use fill="black" fill-opacity="1" filter="url(#filter-10)" xlink:href="#path-9"></use>
        </g>
        <g id="形状结合" fill-rule="nonzero">
            <use fill="black" fill-opacity="1" filter="url(#filter-12)" xlink:href="#path-11"></use>
            <use fill="#BF7EEC" xlink:href="#path-11"></use>
            <use fill="black" fill-opacity="1" filter="url(#filter-13)" xlink:href="#path-11"></use>
        </g>
    </g>
</svg>