<?xml version="1.0" encoding="UTF-8"?>
<svg width="32px" height="32px" viewBox="0 0 32 32" version="1.1" xmlns="http://www.w3.org/2000/svg" xmlns:xlink="http://www.w3.org/1999/xlink">
    <title>app/ide/32px</title>
    <defs>
        <filter x="-7.1%" y="-3.6%" width="114.3%" height="114.3%" filterUnits="objectBoundingBox" id="filter-1">
            <feOffset dx="0" dy="1" in="SourceAlpha" result="shadowOffsetOuter1"></feOffset>
            <feGaussianBlur stdDeviation="0.5" in="shadowOffsetOuter1" result="shadowBlurOuter1"></feGaussianBlur>
            <feColorMatrix values="0 0 0 0 0   0 0 0 0 0   0 0 0 0 0  0 0 0 0.15 0" type="matrix" in="shadowBlurOuter1" result="shadowMatrixOuter1"></feColorMatrix>
            <feMerge>
                <feMergeNode in="shadowMatrixOuter1"></feMergeNode>
                <feMergeNode in="SourceGraphic"></feMergeNode>
            </feMerge>
        </filter>
        <linearGradient x1="50%" y1="0%" x2="50%" y2="98.1385523%" id="linearGradient-2">
            <stop stop-color="#FFFFFF" offset="0%"></stop>
            <stop stop-color="#EDEDED" offset="100%"></stop>
        </linearGradient>
        <path d="M5.5,0 L22.5,0 C25.5375661,0 28,2.46243388 28,5.5 L28,22.5 C28,25.5375661 25.5375661,28 22.5,28 L5.5,28 C2.46243388,28 0,25.5375661 0,22.5 L0,5.5 C0,2.46243388 2.46243388,0 5.5,0 Z" id="path-3"></path>
        <linearGradient x1="50%" y1="0%" x2="50%" y2="100%" id="linearGradient-5">
            <stop stop-color="#000000" stop-opacity="0.08" offset="0%"></stop>
            <stop stop-color="#000000" stop-opacity="0.1" offset="100%"></stop>
        </linearGradient>
        <linearGradient x1="50%" y1="0%" x2="50%" y2="100%" id="linearGradient-6">
            <stop stop-color="#00D479" offset="0%"></stop>
            <stop stop-color="#02A5CB" offset="100%"></stop>
        </linearGradient>
        <linearGradient x1="75.5102041%" y1="-23.1433506%" x2="24.4897959%" y2="100%" id="linearGradient-7">
            <stop stop-color="#2B86FF" offset="0%"></stop>
            <stop stop-color="#26F9B9" offset="100%"></stop>
        </linearGradient>
        <linearGradient x1="50%" y1="0%" x2="50%" y2="96.1709307%" id="linearGradient-8">
            <stop stop-color="#595959" offset="0%"></stop>
            <stop stop-color="#181818" offset="100%"></stop>
        </linearGradient>
        <path d="M23.0625,18 L17.9375,18 C17.419733,18 17,17.580267 17,17.0625 L17,8.07296347 C17,7.7277855 17.279822,7.44796347 17.625,7.44796347 C17.7330777,7.44796347 17.8393083,7.47598967 17.9333199,7.52930566 L23.5249799,10.7004554 C23.8185714,10.8669574 24,11.1784233 24,11.5159421 L24,17.0625 C24,17.580267 23.580267,18 23.0625,18 Z" id="path-9"></path>
        <filter x="-14.3%" y="-5.0%" width="128.6%" height="114.1%" filterUnits="objectBoundingBox" id="filter-10">
            <feGaussianBlur stdDeviation="0.5" in="SourceAlpha" result="shadowBlurInner1"></feGaussianBlur>
            <feOffset dx="-1" dy="-1" in="shadowBlurInner1" result="shadowOffsetInner1"></feOffset>
            <feComposite in="shadowOffsetInner1" in2="SourceAlpha" operator="arithmetic" k2="-1" k3="1" result="shadowInnerInner1"></feComposite>
            <feColorMatrix values="0 0 0 0 0   0 0 0 0 0   0 0 0 0 0  0 0 0 0.2 0" type="matrix" in="shadowInnerInner1"></feColorMatrix>
        </filter>
        <linearGradient x1="87.1628352%" y1="-26.7797003%" x2="34.2073869%" y2="86.9539742%" id="linearGradient-11">
            <stop stop-color="#7A7A7A" offset="0%"></stop>
            <stop stop-color="#2C2C2C" offset="100%"></stop>
        </linearGradient>
    </defs>
    <g id="app/ide/32px" stroke="none" stroke-width="1" fill="none" fill-rule="evenodd">
        <g id="编组" filter="url(#filter-1)" transform="translate(2, 2)">
            <mask id="mask-4" fill="white">
                <use xlink:href="#path-3"></use>
            </mask>
            <use id="矩形" fill="url(#linearGradient-2)" xlink:href="#path-3"></use>
            <path d="M22.5,0 C25.5375661,0 28,2.46243388 28,5.5 L28,22.5 C28,25.5375661 25.5375661,28 22.5,28 L5.5,28 C2.46243388,28 0,25.5375661 0,22.5 L0,5.5 C0,2.46243388 2.46243388,0 5.5,0 L22.5,0 Z M22.5,1 L5.5,1 C3.01471863,1 1,3.01471863 1,5.5 L1,22.5 C1,24.9852814 3.01471863,27 5.5,27 L22.5,27 C24.9852814,27 27,24.9852814 27,22.5 L27,5.5 C27,3.01471863 24.9852814,1 22.5,1 Z" id="矩形" fill="url(#linearGradient-5)" fill-rule="nonzero" mask="url(#mask-4)"></path>
            <path d="M4.9375,10 L10.0625,10 C10.580267,10 11,10.419733 11,10.9375 L11,19.9270124 C11,20.2721904 10.720178,20.5520124 10.375,20.5520124 C10.2669182,20.5520124 10.1606836,20.5239841 10.0666694,20.4706642 L4.47500416,17.2993672 C4.18142159,17.1328627 4,16.8214017 4,16.4838895 L4,10.9375 C4,10.419733 4.41973305,10 4.9375,10 Z" id="路径" fill="url(#linearGradient-6)" mask="url(#mask-4)"></path>
            <path d="M4.48623747,8.22448366 L13.0741583,3.50842606 C13.3767173,3.34227578 13.7566812,3.45285686 13.9228314,3.7554158 C13.9734576,3.84760593 14,3.95108129 14,4.05625749 L14,10.9751947 C14,11.2003902 13.8788525,11.4081735 13.6828749,11.5191047 L4.37314994,16.7887822 C4.25299267,16.856796 4.10044984,16.8145254 4.03243601,16.6943681 C4.01117456,16.6568064 4,16.6143799 4,16.5712182 L4,9.04623081 C4,8.70411353 4.18636131,8.38916068 4.48623747,8.22448366 Z" id="路径" fill="url(#linearGradient-7)" mask="url(#mask-4)"></path>
            <g id="路径" mask="url(#mask-4)">
                <use fill="url(#linearGradient-8)" fill-rule="evenodd" xlink:href="#path-9"></use>
                <use fill="black" fill-opacity="1" filter="url(#filter-10)" xlink:href="#path-9"></use>
            </g>
            <path d="M23.5137585,19.7755792 L14.925839,24.4915813 C14.6232792,24.6577301 14.2433159,24.5471472 14.0771671,24.2445874 C14.0265418,24.152398 14,24.0489236 14,23.9437484 L14,17.0248464 C14,16.7996516 14.1211467,16.5918689 14.3171234,16.4809374 L23.6268494,11.2112198 C23.7470064,11.1432056 23.8995494,11.1854757 23.9675636,11.3056328 C23.9888253,11.3431947 24,11.3856214 24,11.4287834 L24,18.9538299 C24,19.2959488 23.8136369,19.6109029 23.5137585,19.7755792 Z" id="路径" fill="url(#linearGradient-11)" fill-rule="nonzero" mask="url(#mask-4)"></path>
        </g>
    </g>
</svg>