<?xml version="1.0" encoding="UTF-8"?>
<svg width="16px" height="16px" viewBox="0 0 16 16" version="1.1" xmlns="http://www.w3.org/2000/svg" xmlns:xlink="http://www.w3.org/1999/xlink">
    <title>ICON / tab /tree</title>
    <g id="ICON-/-tab-/tree" stroke="none" stroke-width="1" fill="none" fill-rule="evenodd">
        <path d="M2.5,14 C2.22385763,14 2,13.7761424 2,13.5 L2,5 C1.44771525,5 1,4.55228475 1,4 L1,3 C1,2.44771525 1.44771525,2 2,2 L14,2 C14.5522847,2 15,2.44771525 15,3 L15,4 C15,4.55228475 14.5522847,5 14,5 L3,5 L3,8 L6,8 C6,7.44771525 6.44771525,7 7,7 L13,7 C13.5522847,7 14,7.44771525 14,8 L14,9 C14,9.55228475 13.5522847,10 13,10 L7,10 C6.44805242,10 6.0005467,9.55283124 6.0000005,9.00101139 L3,9 L3,12.999 L6,13 C6,12.4477153 6.44771525,12 7,12 L13,12 C13.5522847,12 14,12.4477153 14,13 L14,14 C14,14.5522847 13.5522847,15 13,15 L7,15 C6.44771525,15 6,14.5522847 6,14 L2.51031763,13.9998957 C2.50688679,13.9999651 2.50344747,14 2.5,14 Z" id="形状结合" fill="#000000"></path>
    </g>
</svg>