<?xml version="1.0" encoding="UTF-8"?>
<svg width="96px" height="96px" viewBox="0 0 96 96" version="1.1" xmlns="http://www.w3.org/2000/svg" xmlns:xlink="http://www.w3.org/1999/xlink">
    <title>plugin/javascript</title>
    <defs>
        <linearGradient x1="50%" y1="0%" x2="50%" y2="100%" id="linearGradient-1">
            <stop stop-color="#FFE94B" offset="0%"></stop>
            <stop stop-color="#FFB31B" offset="100%"></stop>
        </linearGradient>
        <path d="M18,0 L78,0 C87.9411255,-1.82615513e-15 96,8.0588745 96,18 L96,78 C96,87.9411255 87.9411255,96 78,96 L18,96 C8.0588745,96 1.21743675e-15,87.9411255 0,78 L0,18 C-1.21743675e-15,8.0588745 8.0588745,1.82615513e-15 18,0 Z" id="path-2"></path>
        <filter x="-1.0%" y="-1.0%" width="102.1%" height="102.1%" filterUnits="objectBoundingBox" id="filter-3">
            <feGaussianBlur stdDeviation="0.5" in="SourceAlpha" result="shadowBlurInner1"></feGaussianBlur>
            <feOffset dx="0" dy="-1" in="shadowBlurInner1" result="shadowOffsetInner1"></feOffset>
            <feComposite in="shadowOffsetInner1" in2="SourceAlpha" operator="arithmetic" k2="-1" k3="1" result="shadowInnerInner1"></feComposite>
            <feColorMatrix values="0 0 0 0 0.802429199   0 0 0 0 0.549937888   0 0 0 0 0.0278950414  0 0 0 1 0" type="matrix" in="shadowInnerInner1"></feColorMatrix>
        </filter>
        <linearGradient x1="58.0886523%" y1="4.56779798%" x2="15.2250926%" y2="110.505199%" id="linearGradient-4">
            <stop stop-color="#FFFFFF" offset="0%"></stop>
            <stop stop-color="#FFF7DC" offset="100%"></stop>
        </linearGradient>
        <linearGradient x1="50%" y1="-14.5753193%" x2="50%" y2="87.9192857%" id="linearGradient-5">
            <stop stop-color="#7F7F7F" offset="0%"></stop>
            <stop stop-color="#484848" offset="100%"></stop>
        </linearGradient>
        <path d="M46.779392,79.801984 C45.362432,82.681216 42.657536,84.5728 39.523328,85.485952 C34.7072,86.591872 30.100736,85.961344 26.67392,83.90464 C24.380672,82.497664 22.589696,80.331904 21.373952,77.836672 L28.685312,73.359232 C28.749056,73.386112 28.941056,73.733248 29.197568,74.18176 C30.12992,75.743872 30.934016,76.849792 32.51456,77.62624 C34.067456,78.15616 37.476608,78.494848 38.79296,75.762304 C39.597056,74.372224 39.341312,69.904 39.341312,64.960384 C39.340544,57.192064 39.37664,49.456 39.37664,41.776 L48.369152,41.776 C48.369152,50.224 48.415232,58.225024 48.369152,66.468736 C48.388352,71.522176 48.82688,76.027264 46.779392,79.801984 Z M84.084224,77.26144 C80.958464,87.953536 63.531008,88.300672 56.566784,81.236608 C55.095296,79.573888 54.172928,78.70528 53.295104,76.786048 C56.996096,74.657152 56.996096,74.657152 60.597248,72.573568 C62.553344,75.580288 64.361984,77.233792 67.616,77.9104 C72.030464,78.449536 76.471808,76.932736 75.475712,72.244096 C74.451968,68.414848 66.436352,67.483264 60.981248,63.388288 C55.4432,59.668864 54.14528,50.63104 58.696448,45.467008 C60.213248,43.556992 62.799872,42.131584 65.513984,41.446528 L68.346368,41.080192 C73.784576,40.970368 77.183744,42.406528 79.678976,45.192832 C80.373248,45.89632 80.940032,46.655104 81.999872,48.299392 C79.102976,50.145664 79.112192,50.128 74.962688,52.814464 C74.076416,50.905216 72.605696,49.707136 71.051264,49.186432 C68.638208,48.455296 65.595392,49.250176 64.964096,51.799936 C64.745216,52.5856 64.790528,53.316736 65.138432,54.614656 C66.116096,56.84416 69.396992,57.813376 72.339968,59.165824 C80.811776,62.601856 83.672576,66.285952 84.376064,70.671232 C85.05344,74.44672 84.21248,76.895872 84.084224,77.26144 Z" id="path-6"></path>
        <filter x="-6.3%" y="-4.4%" width="112.6%" height="117.8%" filterUnits="objectBoundingBox" id="filter-7">
            <feOffset dx="0" dy="2" in="SourceAlpha" result="shadowOffsetOuter1"></feOffset>
            <feGaussianBlur stdDeviation="1" in="shadowOffsetOuter1" result="shadowBlurOuter1"></feGaussianBlur>
            <feColorMatrix values="0 0 0 0 0.743929213   0 0 0 0 0.674374371   0 0 0 0 0.419339948  0 0 0 0.678168023 0" type="matrix" in="shadowBlurOuter1"></feColorMatrix>
        </filter>
    </defs>
    <g id="plugin/javascript" stroke="none" stroke-width="1" fill="none" fill-rule="evenodd">
        <g id="矩形" fill-rule="nonzero">
            <use fill="url(#linearGradient-1)" xlink:href="#path-2"></use>
            <use fill="black" fill-opacity="1" filter="url(#filter-3)" xlink:href="#path-2"></use>
        </g>
        <path d="M20,5 L76,5 C84.2842712,5 91,11.7157288 91,20 L91,76 C91,84.2842712 84.2842712,91 76,91 L20,91 C11.7157288,91 5,84.2842712 5,76 L5,20 C5,11.7157288 11.7157288,5 20,5 Z" id="矩形" fill="url(#linearGradient-4)"></path>
        <g id="形状结合" fill-rule="nonzero">
            <use fill="black" fill-opacity="1" filter="url(#filter-7)" xlink:href="#path-6"></use>
            <use fill="url(#linearGradient-5)" xlink:href="#path-6"></use>
        </g>
    </g>
</svg>