<?xml version="1.0" encoding="UTF-8"?>
<svg width="16px" height="16px" viewBox="0 0 16 16" version="1.1" xmlns="http://www.w3.org/2000/svg" xmlns:xlink="http://www.w3.org/1999/xlink">
    <title>ICON / action /insert_code备份 3</title>
    <g id="ICON-/-action-/insert_code备份-3" stroke="none" stroke-width="1" fill="none" fill-rule="evenodd">
        <path d="M13,2 C14.1045695,2 15,2.8954305 15,4 L15.0009468,8.94384629 C14.691223,8.7656107 14.3553806,8.62765751 14.0005721,8.53713934 L14,7 L2,7 L2,13 C2,13.5522847 2.44771525,14 3,14 L9.33629138,14.0010609 C9.49416742,14.3657086 9.70476327,14.7022155 9.95846703,15.0009696 L3,15 C1.8954305,15 1,14.1045695 1,13 L1,4 C1,2.8954305 1.8954305,2 3,2 L13,2 Z M11.6531508,9.87378856 L13.2794964,11.5001342 L14.905842,9.87378856 C15.1401566,9.63947398 15.5200555,9.63947398 15.7543701,9.87378856 C15.9886847,10.1081031 15.9886847,10.4880021 15.7543701,10.7223167 L14.1280245,12.3486623 L15.7543701,13.9750079 C15.9886847,14.2093225 15.9886847,14.5892214 15.7543701,14.823536 C15.5200555,15.0578506 15.1401566,15.0578506 14.905842,14.823536 L13.2794964,13.1971904 L11.6531508,14.823536 C11.4188362,15.0578506 11.0389372,15.0578506 10.8046226,14.823536 C10.5703081,14.5892214 10.5703081,14.2093225 10.8046226,13.9750079 L12.4309682,12.3486623 L10.8046226,10.7223167 C10.5703081,10.4880021 10.5703081,10.1081031 10.8046226,9.87378856 C11.0389372,9.63947398 11.4188362,9.63947398 11.6531508,9.87378856 Z M13,3 L3,3 C2.44771525,3 2,3.44771525 2,4 L2,6 L14,6 L14,4 C14,3.44771525 13.5522847,3 13,3 Z" id="形状结合" fill="#000000" fill-rule="nonzero"></path>
    </g>
</svg>