<?xml version="1.0" encoding="UTF-8"?>
<svg width="16px" height="16px" viewBox="0 0 16 16" version="1.1" xmlns="http://www.w3.org/2000/svg" xmlns:xlink="http://www.w3.org/1999/xlink">
    <title>ICON / tab /tree</title>
    <g id="ICON-/-tab-/tree" stroke="none" stroke-width="1" fill="none" fill-rule="evenodd">
        <path d="M3,15.5 C3,15.7761424 2.77614237,16 2.5,16 C2.22385763,16 2,15.7761424 2,15.5 L2,4 C1.44771525,4 1,3.55228475 1,3 L1,1 C1,0.44771525 1.44771525,1.01453063e-16 2,0 L10,0 C10.5522847,-1.01453063e-16 11,0.44771525 11,1 L11,3 C11,3.55228475 10.5522847,4 10,4 L3,4 L3,7 L5,7 C5,6.44771525 5.44771525,6 6,6 L14,6 C14.5522847,6 15,6.44771525 15,7 L15,8 C15,8.55228475 14.5522847,9 14,9 L6,9 C5.44771525,9 5,8.55228475 5,8 L3,8 L3,12 L5,12 C5,11.4477153 5.44771525,11 6,11 L14,11 C14.5522847,11 15,11.4477153 15,12 L15,13 C15,13.5522847 14.5522847,14 14,14 L6,14 C5.44771525,14 5,13.5522847 5,13 L3,13 L3,15.5 Z" id="形状结合" fill="#000000"></path>
    </g>
</svg>