<?xml version="1.0" encoding="UTF-8"?>
<svg width="22px" height="22px" viewBox="0 0 22 22" version="1.1" xmlns="http://www.w3.org/2000/svg" xmlns:xlink="http://www.w3.org/1999/xlink">
    <title>ICON / sidebar / edit_22px</title>
    <g id="ICON-/-sidebar-/-edit_22px" stroke="none" stroke-width="1" fill="none" fill-rule="evenodd">
        <path d="M19.1173,11.292875 L20.7031,12.878675 C21.0937,13.269175 21.0937,13.902375 20.7031,14.292875 L14,20.995975 L11,20.995975 L11,17.995975 L17.7031,11.292875 C18.0937,10.902375 18.7268,10.902375 19.1173,11.292875 Z M19,1.93333333 C20.1045695,1.93333333 21,2.82876383 21,3.93333333 L21,11.7613333 L19.8244068,10.5857682 C19.784272,10.5456335 19.742856,10.5075612 19.7002904,10.4715513 L19.7,7.31033333 L2.3,7.31033333 L2.3,18 C2.3,18.3865993 2.61340068,18.7 3,18.7 L10,18.6993333 L10,19.9993333 L3,20 C1.8954305,20 1,19.1045695 1,18 L1,3.93333333 C1,2.82876383 1.8954305,1.93333333 3,1.93333333 L19,1.93333333 Z M21,15.4093333 L21,18 C21,19.1045695 20.1045695,20 19,20 L16.41,19.9993333 L17.71,18.6993333 L19,18.7 C19.3865993,18.7 19.7,18.3865993 19.7,18 L19.7,16.7093333 L21,15.4093333 Z M6.02616242,9.22356789 C6.09788608,9.28571313 6.15840292,9.33814818 6.21821933,9.38997634 L6.29033523,9.45246144 C6.5950207,9.71645735 6.98725947,10.0563141 8.78035096,11.6099452 C9.09608675,11.8835157 9.07547358,12.3796257 8.73813176,12.6260611 L5.98394322,14.6380545 C5.69406762,14.8498148 5.28741137,14.7864898 5.07565106,14.4966142 C4.86389076,14.2067386 4.92721572,13.8000824 5.21709132,13.5883221 L7.31151727,12.0568175 L7.17058296,11.9352585 C5.95755656,10.8842271 5.66662746,10.6321505 5.40281888,10.4035725 L5.33087108,10.3412331 C5.28245761,10.299285 5.23225105,10.2557834 5.17487212,10.2060672 C4.90356244,9.97098983 4.87419031,9.56048205 5.10926764,9.28917237 C5.34434496,9.01786269 5.75485274,8.98849056 6.02616242,9.22356789 Z M19,3.23333333 L3,3.23333333 C2.61340068,3.23333333 2.3,3.54673401 2.3,3.93333333 L2.3,6.01033333 L19.7,6.01033333 L19.7,3.93333333 C19.7,3.54673401 19.3865993,3.23333333 19,3.23333333 Z" id="形状结合" fill="#000000"></path>
    </g>
</svg>