<?xml version="1.0" encoding="UTF-8"?>
<svg width="16px" height="16px" viewBox="0 0 16 16" version="1.1" xmlns="http://www.w3.org/2000/svg" xmlns:xlink="http://www.w3.org/1999/xlink">
    <title>ICON / action /export</title>
    <g id="ICON-/-action-/export" stroke="none" stroke-width="1" fill="none" fill-rule="evenodd">
        <path d="M12,2 C13.1045695,2 14,2.8954305 14,4 L14,5 L13,5 L13,4 C13,3.44771525 12.5522847,3 12,3 L3,3 C2.44771525,3 2,3.44771525 2,4 L2,13 C2,13.5522847 2.44771525,14 3,14 L12,14 C12.5522847,14 13,13.5522847 13,13 L13,12 L14,12 L14,13 C14,14.1045695 13.1045695,15 12,15 L3,15 C1.8954305,15 1,14.1045695 1,13 L1,4 C1,2.8954305 1.8954305,2 3,2 L12,2 Z M11.4644661,4.96446609 L15,8.5 L11.4644661,12.0355339 L10.7573593,11.3284271 L13.0852136,8.99946609 L6,9 L6,8 L13.0852136,7.99946609 L10.7573593,5.67157288 L11.4644661,4.96446609 Z" id="形状结合" fill="#000000" fill-rule="nonzero"></path>
    </g>
</svg>