<?xml version="1.0" encoding="UTF-8"?>
<svg width="16px" height="16px" viewBox="0 0 16 16" version="1.1" xmlns="http://www.w3.org/2000/svg" xmlns:xlink="http://www.w3.org/1999/xlink">
    <title>ICON / action /export</title>
    <g id="ICON-/-action-/export" stroke="none" stroke-width="1" fill="none" fill-rule="evenodd">
        <path d="M10.267767,9.96846886 C10.4630291,9.77320671 10.7796116,9.77320671 10.9748737,9.96846886 C11.1701359,10.163731 11.1701359,10.4803135 10.9748737,10.6755756 L9.65126987,11.9990222 L14.5242699,12 C14.8004122,12 15.0242699,12.2238576 15.0242699,12.5 C15.0242699,12.7761424 14.8004122,13 14.5242699,13 L9.76426987,12.9990222 L10.9748737,14.2111095 C11.1701359,14.4063717 11.1701359,14.7229542 10.9748737,14.9182163 C10.7796116,15.1134785 10.4630291,15.1134785 10.267767,14.9182163 L8.5,13.1504494 L8.14644661,12.796896 C7.95118446,12.6016338 7.95118446,12.2850513 8.14644661,12.0897892 Z M13,1 C14.1045695,1 15,1.8954305 15,3 L15,9 L14,9 L14,3 C14,2.44771525 13.5522847,2 13,2 L3,2 C2.44771525,2 2,2.44771525 2,3 L2,13 C2,13.5522847 2.44771525,14 3,14 L7,14 L7,15 L3,15 C1.8954305,15 1,14.1045695 1,13 L1,3 C1,1.8954305 1.8954305,1 3,1 L13,1 Z M8.5,7 C8.77614237,7 9,7.22385763 9,7.5 C9,7.77614237 8.77614237,8 8.5,8 L4.5,8 C4.22385763,8 4,7.77614237 4,7.5 C4,7.22385763 4.22385763,7 4.5,7 L8.5,7 Z M11.5,4 C11.7761424,4 12,4.22385763 12,4.5 C12,4.77614237 11.7761424,5 11.5,5 L4.5,5 C4.22385763,5 4,4.77614237 4,4.5 C4,4.22385763 4.22385763,4 4.5,4 L11.5,4 Z" id="形状结合" fill="#000000" fill-rule="nonzero"></path>
    </g>
</svg>