<?xml version="1.0" encoding="UTF-8"?>
<svg width="16px" height="16px" viewBox="0 0 16 16" version="1.1" xmlns="http://www.w3.org/2000/svg" xmlns:xlink="http://www.w3.org/1999/xlink">
    <title>ICON / action /import</title>
    <g id="ICON-/-action-/import" stroke="none" stroke-width="1" fill="none" fill-rule="evenodd">
        <path d="M5.75650291,9.96846886 L7.87782326,12.0897892 C8.0730854,12.2850513 8.0730854,12.6016338 7.87782326,12.796896 L7.52426987,13.1504494 L5.75650291,14.9182163 C5.56124077,15.1134785 5.24465828,15.1134785 5.04939613,14.9182163 C4.85413399,14.7229542 4.85413399,14.4063717 5.04939613,14.2111095 L6.26,12.9990222 L1.5,13 C1.22385763,13 1,12.7761424 1,12.5 C1,12.2238576 1.22385763,12 1.5,12 L6.373,11.9990222 L5.04939613,10.6755756 C4.85413399,10.4803135 4.85413399,10.163731 5.04939613,9.96846886 C5.24465828,9.77320671 5.56124077,9.77320671 5.75650291,9.96846886 Z M13,1 C14.1045695,1 15,1.8954305 15,3 L15,13 C15,14.1045695 14.1045695,15 13,15 L9,15 L9,14 L13,14 C13.5522847,14 14,13.5522847 14,13 L14,3 C14,2.44771525 13.5522847,2 13,2 L3,2 C2.44771525,2 2,2.44771525 2,3 L2,9 L1,9 L1,3 C1,1.8954305 1.8954305,1 3,1 L13,1 Z M8.5,7 C8.77614237,7 9,7.22385763 9,7.5 C9,7.77614237 8.77614237,8 8.5,8 L4.5,8 C4.22385763,8 4,7.77614237 4,7.5 C4,7.22385763 4.22385763,7 4.5,7 L8.5,7 Z M11.5,4 C11.7761424,4 12,4.22385763 12,4.5 C12,4.77614237 11.7761424,5 11.5,5 L4.5,5 C4.22385763,5 4,4.77614237 4,4.5 C4,4.22385763 4.22385763,4 4.5,4 L11.5,4 Z" id="形状结合" fill="#000000" fill-rule="nonzero"></path>
    </g>
</svg>