<?xml version="1.0" encoding="UTF-8"?>
<svg width="16px" height="16px" viewBox="0 0 16 16" version="1.1" xmlns="http://www.w3.org/2000/svg" xmlns:xlink="http://www.w3.org/1999/xlink">
    <title>ICON / action /shortcut_search</title>
    <g id="ICON-/-action-/shortcut_search" stroke="none" stroke-width="1" fill="none" fill-rule="evenodd">
        <path d="M11.5,4 C13.9852814,4 16,6.01471863 16,8.5 C16,9.89523743 15.3650208,11.1421675 14.36828,11.9675726 L15.8807547,14.0417409 C16.0759639,14.3095095 16.017143,14.6848271 15.7493744,14.8800364 C15.4816058,15.0752456 15.1062882,15.0164246 14.911079,14.748656 L13.3818015,12.6509455 L13.3521821,12.6023637 C12.7873023,12.8578033 12.1602571,13 11.5,13 C9.01471863,13 7,10.9852814 7,8.5 C7,6.01471863 9.01471863,4 11.5,4 Z M11.5,5 C9.56700338,5 8,6.56700338 8,8.5 C8,10.4329966 9.56700338,12 11.5,12 C13.4329966,12 15,10.4329966 15,8.5 C15,6.56700338 13.4329966,5 11.5,5 Z M13,1 C14.1045695,1 15,1.8954305 15,3 L15.0005473,4.25761415 C14.693402,4.00388859 14.3582378,3.78287508 14.0003901,3.59990903 L14,3 C14,2.44771525 13.5522847,2 13,2 L2,2 C1.44771525,2 1,2.44771525 1,3 L1,10 C1,10.5522847 1.44771525,11 2,11 L6.59990903,11.0003901 C6.78287508,11.3582378 7.00388859,11.693402 7.25761415,12.0005473 L2,12 C0.8954305,12 0,11.1045695 0,10 L0,3 C0,1.8954305 0.8954305,1 2,1 L13,1 Z M3.5,7 C3.77614237,7 4,7.22385763 4,7.5 L4,8.5 C4,8.77614237 3.77614237,9 3.5,9 L2.5,9 C2.22385763,9 2,8.77614237 2,8.5 L2,7.5 C2,7.22385763 2.22385763,7 2.5,7 L3.5,7 Z M6.20679702,7.00083278 C6.07208316,7.47741762 6,7.98029085 6,8.5 C6,8.66875367 6.0076001,8.83573225 6.0224767,9.00061211 L5.5,9 C5.22385763,9 5,8.77614237 5,8.5 L5,7.5 C5,7.22385763 5.22385763,7 5.5,7 L6.20679702,7.00083278 Z M3.5,4 C3.77614237,4 4,4.22385763 4,4.5 L4,5.5 C4,5.77614237 3.77614237,6 3.5,6 L2.5,6 C2.22385763,6 2,5.77614237 2,5.5 L2,4.5 C2,4.22385763 2.22385763,4 2.5,4 L3.5,4 Z M6.5,4 C6.77614237,4 7,4.22385763 7,4.5 L7.00029647,5.3364999 C6.85475732,5.54313193 6.7230911,5.76023851 6.60665217,5.98646529 C6.57341209,5.99594189 6.53717995,6 6.5,6 L5.5,6 C5.22385763,6 5,5.77614237 5,5.5 L5,4.5 C5,4.22385763 5.22385763,4 5.5,4 L6.5,4 Z" id="形状结合" fill="#000000"></path>
    </g>
</svg>