<svg xmlns="http://www.w3.org/2000/svg" width="16" height="16" viewBox="0 0 16 16">
  <path fill="#DDD" fill-rule="evenodd" d="M2.92065556,2 L7,7.82763491 L7,12.381966 L9,13.381966 L9,7.82763491 L13.0793444,2 L2.92065556,2 Z M6,8.14285714 L2.10142364,2.57346234 C1.78470913,2.12101305 1.89474392,1.49748259 2.34719322,1.18076808 C2.51527675,1.0631096 2.71548346,1 2.92065556,1 L13.0793444,1 C13.6316292,1 14.0793444,1.44771525 14.0793444,2 C14.0793444,2.2051721 14.0162348,2.40537881 13.8985764,2.57346234 L10,8.14285714 L10,13.381966 C10,13.9342508 9.55228475,14.381966 9,14.381966 C8.8447549,14.381966 8.69164184,14.3458209 8.5527864,14.2763932 L6.5527864,13.2763932 C6.21400238,13.1070012 6,12.7607381 6,12.381966 L6,8.14285714 Z"/>
</svg>
