<?xml version="1.0" encoding="UTF-8"?>
<svg width="16px" height="16px" viewBox="0 0 16 16" version="1.1" xmlns="http://www.w3.org/2000/svg" xmlns:xlink="http://www.w3.org/1999/xlink">
    <title>ICON / list / collapse all</title>
    <g id="ICON-/-list-/-collapse-all" stroke="none" stroke-width="1" fill="none" fill-rule="evenodd">
        <path d="M11.557707,6.53987581 C11.7773199,6.83699173 12.2215875,6.83738055 12.4417201,6.54064949 L14.4136725,3.88252647 C14.5946529,3.63857121 14.5436017,3.29409278 14.2996465,3.11311237 C14.0556912,2.93213197 13.7112128,2.98318318 13.5302324,3.22713845 L12.0002516,5.28895547 L10.4775446,3.22791213 C10.317053,3.01078175 10.0271111,2.94584303 9.79310114,3.06090105 L9.70833129,3.11253946 C9.46405961,3.29309257 9.4124055,3.63748111 9.59295862,3.88175279 L11.557707,6.53987581 Z M11.557707,10.5149567 C11.7773199,10.2178407 12.2215875,10.2174519 12.4417201,10.514183 L14.4136725,13.172306 C14.5946529,13.4162613 14.5436017,13.7607397 14.2996465,13.9417201 C14.0556912,14.1227005 13.7112128,14.0716493 13.5302324,13.827694 L12.0002516,11.765877 L10.4775446,13.8269203 C10.317053,14.0440507 10.0271111,14.1089894 9.79310114,13.9939314 L9.70833129,13.942293 C9.46405961,13.7617399 9.4124055,13.4173513 9.59295862,13.1730797 L11.557707,10.5149567 Z M1.5,3 L6.5,3 C6.77614237,3 7,3.22385763 7,3.5 C7,3.77614237 6.77614237,4 6.5,4 L1.5,4 C1.22385763,4 1,3.77614237 1,3.5 C1,3.22385763 1.22385763,3 1.5,3 Z M1.5,8 L8.5,8 C8.77614237,8 9,8.22385763 9,8.5 C9,8.77614237 8.77614237,9 8.5,9 L1.5,9 C1.22385763,9 1,8.77614237 1,8.5 C1,8.22385763 1.22385763,8 1.5,8 Z M1.5,13 L6.5,13 C6.77614237,13 7,13.2238576 7,13.5 C7,13.7761424 6.77614237,14 6.5,14 L1.5,14 C1.22385763,14 1,13.7761424 1,13.5 C1,13.2238576 1.22385763,13 1.5,13 Z" id="形状结合" fill="#000000"></path>
    </g>
</svg>