<?xml version="1.0" encoding="UTF-8"?>
<svg width="22px" height="22px" viewBox="0 0 22 22" version="1.1" xmlns="http://www.w3.org/2000/svg" xmlns:xlink="http://www.w3.org/1999/xlink">
    <title>ICON / sidebar /default</title>
    <g id="ICON-/-sidebar-/default" stroke="none" stroke-width="1" fill="none" fill-rule="evenodd">
        <path d="M19,1.93333333 C20.1045695,1.93333333 21,2.82876383 21,3.93333333 L21,18 C21,19.1045695 20.1045695,20 19,20 L3,20 C1.8954305,20 1,19.1045695 1,18 L1,3.93333333 C1,2.82876383 1.8954305,1.93333333 3,1.93333333 L19,1.93333333 Z M19,3.23333333 L3,3.23333333 C2.61340068,3.23333333 2.3,3.54673401 2.3,3.93333333 L2.3,18 C2.3,18.3865993 2.61340068,18.7 3,18.7 L19,18.7 C19.3865993,18.7 19.7,18.3865993 19.7,18 L19.7,3.93333333 C19.7,3.54673401 19.3865993,3.23333333 19,3.23333333 Z M17.9969311,13.9979715 L17.9969311,15.4059954 L7.99693108,15.4059954 L7.99693108,13.9979715 L17.9969311,13.9979715 Z M5.70401192,13.9979715 L5.70401192,15.4059954 L4.00278902,15.4059954 L4.00278902,13.9979715 L5.70401192,13.9979715 Z M17.9969311,9.99797153 L17.9969311,11.4059954 L7.99693108,11.4059954 L7.99693108,9.99797153 L17.9969311,9.99797153 Z M5.70401192,9.99797153 L5.70401192,11.4059954 L4.00278902,11.4059954 L4.00278902,9.99797153 L5.70401192,9.99797153 Z M17.9969311,5.99797153 L17.9969311,7.40599537 L7.99693108,7.40599537 L7.99693108,5.99797153 L17.9969311,5.99797153 Z M5.70401192,5.99797153 L5.70401192,7.40599537 L4.00278902,7.40599537 L4.00278902,5.99797153 L5.70401192,5.99797153 Z" id="形状结合" fill="#000000"></path>
    </g>
</svg>