<?xml version="1.0" encoding="UTF-8"?>
<svg width="22px" height="22px" viewBox="0 0 22 22" version="1.1" xmlns="http://www.w3.org/2000/svg" xmlns:xlink="http://www.w3.org/1999/xlink">
    <title>ICON / sidebar /more</title>
    <g id="ICON-/-sidebar-/more" stroke="none" stroke-width="1" fill="none" fill-rule="evenodd">
        <path d="M4.01853561,12 C4.84696274,12 5.51853561,11.3284271 5.51853561,10.5 C5.51853561,9.67157288 4.84696274,9 4.01853561,9 C3.19010849,9 2.51853561,9.67157288 2.51853561,10.5 C2.51853561,11.3284271 3.19010849,12 4.01853561,12 Z M11,12 C11.8284271,12 12.5,11.3284271 12.5,10.5 C12.5,9.67157288 11.8284271,9 11,9 C10.1715729,9 9.5,9.67157288 9.5,10.5 C9.5,11.3284271 10.1715729,12 11,12 Z M18.0175095,12 C18.8459366,12 19.5175095,11.3284271 19.5175095,10.5 C19.5175095,9.67157288 18.8459366,9 18.0175095,9 C17.1890823,9 16.5175095,9.67157288 16.5175095,10.5 C16.5175095,11.3284271 17.1890823,12 18.0175095,12 Z" id="形状结合" fill="#000000"></path>
    </g>
</svg>