<?xml version="1.0" encoding="UTF-8"?>
<svg width="16px" height="16px" viewBox="0 0 16 16" version="1.1" xmlns="http://www.w3.org/2000/svg" xmlns:xlink="http://www.w3.org/1999/xlink">
    <title>ICON / list / expand all</title>
    <g id="ICON-/-list-/-expand-all" stroke="none" stroke-width="1" fill="none" fill-rule="evenodd">
        <path d="M11.557707,3.21489829 C11.7773199,2.91778237 12.2215875,2.91739355 12.4417201,3.21412461 L14.4136725,5.87224762 C14.5946529,6.11620289 14.5436017,6.46068131 14.2996465,6.64166172 C14.0556912,6.82264213 13.7112128,6.77159092 13.5302324,6.52763565 L12.0002516,4.46581862 L10.4775446,6.52686197 C10.317053,6.74399235 10.0271111,6.80893106 9.79310114,6.69387305 L9.70833129,6.64223463 C9.46405961,6.46168152 9.4124055,6.11729298 9.59295862,5.8730213 L11.557707,3.21489829 Z M11.557707,13.8269203 C11.7773199,14.1240363 12.2215875,14.1244251 12.4417201,13.827694 L14.4136725,11.169571 C14.5946529,10.9256157 14.5436017,10.5811373 14.2996465,10.4001569 C14.0556912,10.2191765 13.7112128,10.2702277 13.5302324,10.514183 L12.0002516,12.576 L10.4775446,10.5149567 C10.317053,10.2978263 10.0271111,10.2328876 9.79310114,10.3479456 L9.70833129,10.399584 C9.46405961,10.5801371 9.4124055,10.9245256 9.59295862,11.1687973 L11.557707,13.8269203 Z M1.5,3 L8.5,3 C8.77614237,3 9,3.22385763 9,3.5 C9,3.77614237 8.77614237,4 8.5,4 L1.5,4 C1.22385763,4 1,3.77614237 1,3.5 C1,3.22385763 1.22385763,3 1.5,3 Z M1.5,8 L6.5,8 C6.77614237,8 7,8.22385763 7,8.5 C7,8.77614237 6.77614237,9 6.5,9 L1.5,9 C1.22385763,9 1,8.77614237 1,8.5 C1,8.22385763 1.22385763,8 1.5,8 Z M1.5,13 L8.5,13 C8.77614237,13 9,13.2238576 9,13.5 C9,13.7761424 8.77614237,14 8.5,14 L1.5,14 C1.22385763,14 1,13.7761424 1,13.5 C1,13.2238576 1.22385763,13 1.5,13 Z" id="形状结合" fill="#000000"></path>
    </g>
</svg>