<?xml version="1.0" encoding="UTF-8"?>
<svg width="16px" height="16px" viewBox="0 0 16 16" version="1.1" xmlns="http://www.w3.org/2000/svg" xmlns:xlink="http://www.w3.org/1999/xlink">
    <title>ICON / view / hide</title>
    <g id="ICON-/-view-/-hide" stroke="none" stroke-width="1" fill="none" fill-rule="evenodd">
        <path d="M13,1 C14.1045695,1 15,1.96430977 15,3.15384615 L15,12.8461538 C15,14.0356902 14.1045695,15 13,15 L3,15 C1.8954305,15 1,14.0356902 1,12.8461538 L1,3.15384615 C1,1.96430977 1.8954305,1 3,1 L13,1 Z M13,2 L3,2 C2.44771525,2 2,2.44771525 2,3 L2,13 C2,13.5522847 2.44771525,14 3,14 L13,14 C13.5522847,14 14,13.5522847 14,13 L14,3 C14,2.44771525 13.5522847,2 13,2 Z M11.5,7.52501769 C11.7761424,7.52501769 12,7.74887531 12,8.02501769 C12,8.30116006 11.7761424,8.52501769 11.5,8.52501769 L4.5,8.52501769 C4.22385763,8.52501769 4,8.30116006 4,8.02501769 C4,7.74887531 4.22385763,7.52501769 4.5,7.52501769 L11.5,7.52501769 Z" id="形状结合" fill="#000000"></path>
    </g>
</svg>