<?xml version="1.0" encoding="UTF-8"?>
<svg width="16px" height="16px" viewBox="0 0 16 16" version="1.1" xmlns="http://www.w3.org/2000/svg" xmlns:xlink="http://www.w3.org/1999/xlink">
    <title>ICON / status bar /notification</title>
    <g id="ICON-/-status-bar-/notification" stroke="none" stroke-width="1" fill="none" fill-rule="evenodd">
        <g id="ICON-/-TrayICON-/-notification" transform="translate(2, 1)" fill="#000000">
            <path d="M6.26029906,0 C8.2575323,0 9.9621364,1.63963942 10.0828956,3.66709055 L10.0986609,3.93177688 C10.190272,5.46985535 10.6295167,6.97848512 11.3961304,8.37029574 C11.5002744,8.55937233 11.6103487,8.74609504 11.7253768,8.92895794 L11.9131384,9.21711301 C12.1407954,9.54890083 11.9032397,10 11.5008582,10 L0.500858212,10 C0.127218275,10 -0.104301465,9.61104204 0.0468055216,9.28982872 L0.0971866764,9.20461782 C0.282106039,8.92880606 0.453629178,8.64691507 0.61146771,8.35960329 C1.37445912,6.97073823 1.81168065,5.46588938 1.90305557,3.93177688 L1.91882083,3.66709055 C2.03958002,1.63963942 3.74418412,0 5.74141736,0 L6.26029906,0 Z M6.26029906,1 L5.74141736,1 C4.27795491,1 3.00661268,2.22288973 2.91705172,3.72654725 L2.90128645,3.99123358 C2.8010609,5.67394125 2.32198125,7.3228593 1.48791917,8.84109351 L1.39685821,9 L10.6038582,9 L10.5202118,8.85275454 C9.74666844,7.448363 9.27706989,5.93181997 9.13036758,4.37990484 L9.10042997,3.99123358 L9.08466471,3.72654725 C8.99510375,2.22288973 7.72376152,1 6.26029906,1 Z M8.60552827,10.9937841 C8.61894614,11.1030372 8.62585821,11.214343 8.62585821,11.3272889 C8.62585821,12.8000482 7.45060568,13.9939556 6.00085821,13.9939556 C4.55111074,13.9939556 3.37585821,12.8000482 3.37585821,11.3272889 C3.37585821,11.214343 3.38277029,11.1030372 3.39618816,10.9937841 L8.60552827,10.9937841 Z" id="形状"></path>
        </g>
    </g>
</svg>