<?xml version="1.0" encoding="UTF-8"?>
<svg width="20px" height="20px" viewBox="0 0 20 20" version="1.1" xmlns="http://www.w3.org/2000/svg" xmlns:xlink="http://www.w3.org/1999/xlink">
    <title>ICON / sidebar /setting</title>
    <g id="ICON-/-sidebar-/setting" stroke="none" stroke-width="1" fill="none" fill-rule="evenodd">
        <path d="M12.4023062,10.0322495 C12.4023062,11.3647578 11.326073,12.4410146 9.99359385,12.4410146 C8.66111467,12.4410146 7.58488149,11.3647578 7.58488149,10.0322495 C7.58488149,8.69974114 8.66111467,7.6234844 9.99359385,7.6234844 C11.326073,7.6234844 12.4023062,8.69974114 12.4023062,10.0322495 Z M20,9.76318529 L20,10.0834998 C20,10.7753791 19.5515695,11.3775704 18.8853299,11.5697591 L18.7443946,11.6081968 C18.2447149,11.7491352 17.8603459,12.1335126 17.7065983,12.6203907 C17.6040999,12.91508 17.4887892,13.2097694 17.3606662,13.4916461 C17.1556694,13.9400865 17.1684817,14.4525897 17.4119154,14.8754048 L17.5144138,15.0547809 C17.8475336,15.6569722 17.7322229,16.4001019 17.2453555,16.8869799 L17.0147341,17.1176063 C16.5278668,17.6044844 15.7847534,17.706985 15.1825753,17.3866705 C14.7213325,17.1304189 14.1575913,17.1304189 13.6963485,17.373858 C13.3888533,17.5404215 13.0557335,17.6813599 12.7226137,17.7966731 C12.2613709,17.9632366 11.9026265,18.347614 11.7745035,18.8088669 L11.7488789,18.8857424 C11.5566944,19.539184 10.9545163,20.0004369 10.2626521,20.0004369 L9.94234465,20.0004369 C9.25048046,20.0004369 8.64830237,19.5519966 8.45611787,18.8857424 C8.31518258,18.3988644 7.94362588,18.014487 7.45675849,17.860736 C7.11082639,17.7454228 6.7777066,17.6044844 6.4573991,17.4507334 C6.00896861,17.2329196 5.47085202,17.2329196 5.03523382,17.4763586 L4.94554773,17.5276089 C4.34336963,17.860736 3.60025625,17.7454228 3.11338885,17.2585447 L2.88276746,17.0279183 C2.39590006,16.5410402 2.29340167,15.7979106 2.61370916,15.1957193 L2.67777066,15.0932187 C2.92120436,14.6447784 2.92120436,14.1194626 2.70339526,13.6710223 C2.56245996,13.3891455 2.44714926,13.0944562 2.34465086,12.7997668 C2.17809097,12.3257013 1.79372197,11.9669491 1.31966688,11.8260107 L1.11467008,11.7619478 C0.461242793,11.5697591 1.77635684e-15,10.9675678 1.77635684e-15,10.2756885 L1.77635684e-15,9.955374 C1.77635684e-15,9.26349467 0.448430493,8.66130339 1.11467008,8.46911469 L1.25560538,8.43067695 C1.75528507,8.28973857 2.13965407,7.90536116 2.29340167,7.41848311 C2.39590006,7.12379377 2.51121076,6.82910442 2.63933376,6.54722766 C2.81870596,6.11159993 2.80589366,5.59909672 2.56245996,5.16346899 L2.45996156,4.98409287 C2.12684177,4.3819016 2.24215247,3.63877194 2.72901986,3.1518939 L2.95964126,2.92126745 C3.44650865,2.4343894 4.18962204,2.33188876 4.79180013,2.65220327 C5.25304292,2.90845487 5.81678411,2.90845487 6.27802691,2.66501585 C6.5855221,2.4984523 6.9186419,2.35751392 7.25176169,2.2422007 C7.71300448,2.07563716 8.07174888,1.69125975 8.19987188,1.23000686 L8.22549648,1.15313138 C8.41768097,0.499689788 9.01985906,0.0384368994 9.71172325,0.0384368994 L10.0320307,0.0384368994 C10.7238949,0.0384368994 11.326073,0.486877208 11.5182575,1.15313138 C11.6591928,1.64000943 12.0307495,2.02438684 12.5176169,2.1781378 C12.863549,2.29345102 13.1966688,2.4343894 13.5169763,2.58814037 C13.9654068,2.80595423 14.5035234,2.80595423 14.9391416,2.5625152 L15.0288277,2.51126488 C15.6310058,2.1781378 16.3741192,2.29345102 16.8609865,2.78032907 L17.0916079,3.01095551 C17.5784753,3.49783356 17.6809737,4.24096322 17.3606662,4.84315449 L17.2966047,4.94565513 C17.053171,5.39409544 17.053171,5.91941123 17.2709801,6.36785153 C17.4119154,6.6497283 17.5272261,6.94441764 17.6297245,7.23910699 C17.7962844,7.71317246 18.1806534,8.0719247 18.6547085,8.21286309 L18.8597053,8.27692599 C19.5515695,8.48192727 20,9.08411854 20,9.76318529 Z M14.0550929,10.0322495 C14.0550929,7.79004794 12.2357463,5.97066155 9.99359385,5.97066155 C7.75144138,5.97066155 5.93209481,7.79004794 5.93209481,10.0322495 C5.93209481,12.274451 7.75144138,14.0938374 9.99359385,14.0938374 C12.2357463,14.0938374 14.0550929,12.274451 14.0550929,10.0322495 Z" id="形状" fill="#000000"></path>
    </g>
</svg>