<?xml version="1.0" encoding="UTF-8"?>
<svg width="16px" height="16px" viewBox="0 0 16 16" version="1.1" xmlns="http://www.w3.org/2000/svg" xmlns:xlink="http://www.w3.org/1999/xlink">
    <title>ICON / action /clone</title>
    <g id="ICON-/-action-/clone" stroke="none" stroke-width="1" fill="none" fill-rule="evenodd">
        <path d="M13,4 C14.1045695,4 15,4.8954305 15,6 L15,13 C15,14.1045695 14.1045695,15 13,15 L6,15 C4.8954305,15 4,14.1045695 4,13 L4,6 C4,4.8954305 4.8954305,4 6,4 L13,4 Z M9.5,6 C9.22385763,6 9,6.22385763 9,6.5 L9,9 L6.5,9 C6.22385763,9 6,9.22385763 6,9.5 C6,9.77614237 6.22385763,10 6.5,10 L9,10 L9,12.5 C9,12.7761424 9.22385763,13 9.5,13 C9.77614237,13 10,12.7761424 10,12.5 L10,10 L12.5,10 C12.7761424,10 13,9.77614237 13,9.5 C13,9.22385763 12.7761424,9 12.5,9 L10,9 L10,6.5 C10,6.22385763 9.77614237,6 9.5,6 Z M10.3333333,1 C11.5758832,1 12.6199435,1.84983524 12.9159814,2.99997304 L11.9346302,3.0000973 C11.7686569,2.47152465 11.3037457,2.07531802 10.7380302,2.00961104 L10.5714286,2 L3.42857143,2 C2.6959488,2 2.09213263,2.55148599 2.00961104,3.26196982 L2,3.42857143 L2,10.5714286 C2,11.2113474 2.42074951,11.7529949 3.00069521,11.9348178 L2.99997304,12.9159814 C1.84983524,12.6199435 1,11.5758832 1,10.3333333 L1,3.66666667 C1,2.19390733 2.19390733,1 3.66666667,1 L10.3333333,1 Z" id="形状结合" fill="#000000"></path>
    </g>
</svg>