<?xml version="1.0" encoding="UTF-8"?>
<svg width="16px" height="16px" viewBox="0 0 16 16" version="1.1" xmlns="http://www.w3.org/2000/svg" xmlns:xlink="http://www.w3.org/1999/xlink">
    <title>ICON / action /help</title>
    <g id="ICON-/-action-/help" stroke="none" stroke-width="1" fill="none" fill-rule="evenodd">
        <path d="M8,1 C11.8659932,1 15,4.13400675 15,8 C15,11.8659932 11.8659932,15 8,15 C4.13400675,15 1,11.8659932 1,8 C1,4.13400675 4.13400675,1 8,1 Z M8,2 C4.6862915,2 2,4.6862915 2,8 C2,11.3137085 4.6862915,14 8,14 C11.3137085,14 14,11.3137085 14,8 C14,4.6862915 11.3137085,2 8,2 Z M7.77889616,10.9122889 C8.05507832,10.9122889 8.29402602,11.0139711 8.49573108,11.2173355 C8.70054105,11.4207 8.80294604,11.6654051 8.80294604,11.9513837 C8.80294604,12.145168 8.75484628,12.3215872 8.65865332,12.4804735 C8.56555489,12.6393599 8.44143186,12.7664522 8.28626782,12.8617504 C8.13421689,12.9539448 7.96509301,13 7.77889616,13 C7.49960909,13 7.25911302,12.8983262 7.05740796,12.6948946 C6.85570291,12.4915469 6.75484628,12.2437379 6.75484628,11.9513837 C6.75484628,11.6654051 6.85570291,11.4207 7.05740796,11.2173355 C7.25911302,11.0139711 7.49960909,10.9122889 7.77889616,10.9122889 Z M7.99767418,3 C8.59037786,3 9.11171756,3.10645049 9.56167689,3.31935148 C10.0147411,3.53225246 10.3669487,3.83571446 10.6183079,4.22974252 C10.872772,4.62059117 11,5.08452418 11,5.62154155 C11,5.98379234 10.9425959,6.30790704 10.8277794,6.59389407 C10.7160596,6.87988109 10.5562505,7.13409084 10.3483356,7.35652333 C10.1404207,7.57895581 9.89371482,7.77755535 9.6082261,7.95233032 C9.35686691,8.11120827 9.15050857,8.27644503 8.98914289,8.4480406 C8.83088212,8.61962778 8.71296073,8.82140672 8.63537871,9.05337742 C8.56090161,9.28216872 8.5221106,9.56497633 8.51900568,9.90180027 L8.51900568,10.0257299 L6.96897102,10.0257299 L6.96897102,9.90180027 C6.97207593,9.32665521 7.02482679,8.86907262 7.12723178,8.52906928 C7.23274169,8.18906594 7.38169589,7.91578814 7.57408619,7.70924429 C7.76648468,7.49952103 8.0007791,7.30727192 8.27696125,7.13250533 C8.46625483,7.01175507 8.63537871,6.87988109 8.78433291,6.73688338 C8.93638384,6.59071466 9.05586178,6.42865731 9.14275037,6.25071132 C9.22963895,6.06958592 9.27308324,5.86780699 9.27308324,5.6453745 C9.27308324,5.39434415 9.21567091,5.17667658 9.10085444,4.99237178 C8.98603797,4.80806698 8.83088212,4.66507766 8.63537871,4.56339544 C8.44298022,4.46170483 8.22730712,4.41086791 7.98836761,4.41086791 C7.76804123,4.41086791 7.55856978,4.46011932 7.35996964,4.55862214 C7.16446623,4.65395394 7.00155219,4.80012266 6.87121931,4.99713669 C6.74399135,5.19097131 6.67261098,5.43723675 6.65710277,5.735933 L5,5.735933 C5.0155164,5.13219008 5.1582624,4.62694159 5.42823882,4.2202043 C5.70132015,3.81347541 6.06128597,3.50841951 6.50814857,3.3050517 C6.95810789,3.1016839 7.45461643,3 7.99767418,3 Z" id="形状结合" fill="#000000" fill-rule="nonzero"></path>
    </g>
</svg>