<?xml version="1.0" encoding="UTF-8"?>
<svg width="16px" height="16px" viewBox="0 0 16 16" version="1.1" xmlns="http://www.w3.org/2000/svg" xmlns:xlink="http://www.w3.org/1999/xlink">
    <title>ICON / view / right_show</title>
    <g id="ICON-/-view-/-right_show" stroke="none" stroke-width="1" fill="none" fill-rule="evenodd">
        <g id="ICON-/-View-/-Sidebar" transform="translate(1, 1)" fill="#000000" fill-rule="nonzero">
            <path d="M2,13 C0.8954305,13 0,12.1045695 0,11 L0,2 C0,0.8954305 0.8954305,0 2,0 L12,0 C13.1045695,0 14,0.8954305 14,2 L14,11 C14,12.1045695 13.1045695,13 12,13 L2,13 Z M12,1 L5,1 L5,12 L12,12 C12.5128358,12 12.9355072,11.6139598 12.9932723,11.1166211 L13,11 L13,2 C13,1.48716416 12.6139598,1.06449284 12.1166211,1.00672773 L12,1 Z" id="形状结合"></path>
        </g>
    </g>
</svg>