<?xml version="1.0" encoding="UTF-8"?>
<svg width="16px" height="16px" viewBox="0 0 16 16" version="1.1" xmlns="http://www.w3.org/2000/svg" xmlns:xlink="http://www.w3.org/1999/xlink">
    <title>ICON / action /open</title>
    <g id="ICON-/-action-/open" stroke="none" stroke-width="1" fill="none" fill-rule="evenodd">
        <path d="M8.01146774,6.79581079 L12.2541084,11.0384515 L11.5470016,11.7455583 L8.50382705,8.70281079 L8.50383568,15.018529 L7.50383568,15.018529 L7.50382705,8.71681079 L4.47593384,11.7455583 L3.76882705,11.0384515 L8.01146774,6.79581079 Z M13,1 C14.1045695,1 15,1.8954305 15,3 L15,12 C15,13.1045695 14.1045695,14 13,14 L12,14 L12,13 L13,13 C13.5522847,13 14,12.5522847 14,12 L14,5 L2,5 L2,12 C2,12.5522847 2.44771525,13 3,13 L4,13 L4,14 L3,14 C1.8954305,14 1,13.1045695 1,12 L1,3 C1,1.8954305 1.8954305,1 3,1 L13,1 Z" id="形状结合" fill="#000000"></path>
    </g>
</svg>