<?xml version="1.0" encoding="UTF-8"?>
<svg width="16px" height="16px" viewBox="0 0 16 16" version="1.1" xmlns="http://www.w3.org/2000/svg" xmlns:xlink="http://www.w3.org/1999/xlink">
    <title>ICON / tab / file</title>
    <g id="ICON-/-tab-/-file" stroke="none" stroke-width="1" fill="none" fill-rule="evenodd">
        <path d="M0.991264343,3.50390967 C0.99450851,2.66963569 1.66869693,2.00068859 2.49711775,2.00390967 L5.54768602,2.01582556 C5.93551551,2.01733899 6.30768485,2.1690089 6.58609818,2.43900895 L8.24126434,4.04389808 L12.5512314,4.04425621 C13.9319433,4.04425621 15.0512314,5.16354434 15.0512314,6.54425621 L15.0512314,12.5052071 C15.0512314,13.8859189 13.9319433,15.0052071 12.5512314,15.0052071 L3.49126434,15.0052071 C2.11055247,15.0052071 0.991264343,13.8859189 0.991264343,12.5052071 L0.991264343,3.50390967 Z M12.5512314,5.04425621 L1.99126434,5.04425621 L1.99126434,12.5052071 C1.99126434,13.3336342 2.66283722,14.0052071 3.49126434,14.0052071 L12.5512314,14.0052071 C13.3796585,14.0052071 14.0512314,13.3336342 14.0512314,12.5052071 L14.0512314,6.54425621 C14.0512314,5.71582909 13.3796585,5.04425621 12.5512314,5.04425621 Z" id="形状结合" fill="#000000"></path>
    </g>
</svg>