<?xml version="1.0" encoding="UTF-8"?>
<svg width="22px" height="22px" viewBox="0 0 22 22" version="1.1" xmlns="http://www.w3.org/2000/svg" xmlns:xlink="http://www.w3.org/1999/xlink">
    <title>ICON / sidebar /setting_22px</title>
    <g id="ICON-/-sidebar-/setting_22px" stroke="none" stroke-width="1" fill="none" fill-rule="evenodd">
        <path d="M11.0288277,1.40909091 C11.9158304,1.40909091 12.6886958,1.98866849 12.9341222,2.84111917 C13.0066856,3.0922753 13.1963382,3.28762071 13.4530408,3.36891909 C13.7714675,3.47526571 14.0902268,3.60731418 14.4238512,3.76776931 C14.6628033,3.88405526 14.9422323,3.88039556 15.1516292,3.76318534 L15.2394872,3.71294956 C16.0111528,3.28524872 16.967647,3.42828392 17.5931254,4.05496678 L17.8006847,4.2629257 C18.4205524,4.88398696 18.5575479,5.83533601 18.12596,6.64522556 L18.0864939,6.70640289 C17.9622491,6.93571543 17.9586689,7.20833479 18.0726104,7.44346103 C18.2012645,7.70126474 18.3130411,7.9767042 18.4243689,8.29739677 C18.5102365,8.54225969 18.7089661,8.7305113 18.9658002,8.80707424 L19.1419022,8.8622804 C20.0078353,9.1193472 20.5909091,9.88728298 20.5909091,10.7689345 L20.5909091,11.0577664 C20.5909091,11.9454274 20.012713,12.7194228 19.152554,12.9679577 L19.0306495,13.0012454 C18.7784587,13.0725131 18.5799181,13.2678518 18.4941659,13.5391074 C18.3920698,13.833199 18.2814513,14.1133564 18.1621948,14.3762226 C18.0537857,14.6138241 18.062579,14.8746076 18.1840193,15.0859427 L18.2802708,15.2548214 C18.7065918,16.0269624 18.5640568,16.9837856 17.9390575,17.6099883 L17.7314983,17.8179472 C17.111152,18.439488 16.1601403,18.5769628 15.376925,18.1594451 C15.140315,18.027742 14.8451091,18.0258934 14.6085724,18.1509335 C14.3133723,18.3111415 13.9875297,18.4519717 13.6513931,18.5684953 C13.4160145,18.6536568 13.2305895,18.8521885 13.1577464,19.1120841 L13.1409755,19.1613049 C12.8932986,20.0050277 12.1183789,20.5909091 11.2363869,20.5909091 L10.9481102,20.5909091 C10.0611075,20.5909091 9.28824204,20.0113315 9.04281565,19.1588808 C8.97025228,18.9077247 8.78059967,18.7123793 8.52389704,18.6310809 C8.20547034,18.5247343 7.88671107,18.3926858 7.55308666,18.2322307 C7.31413453,18.1159447 7.03470553,18.1196044 6.82530871,18.2368147 L6.73745066,18.2870504 C5.96578502,18.7147513 5.00929091,18.5717161 4.38381244,17.9450332 L4.17625319,17.7370743 C3.55638551,17.116013 3.41938998,16.164664 3.85097787,15.3547744 L3.89044401,15.2935971 C4.01468872,15.0642846 4.01826892,14.7916652 3.9043275,14.556539 C3.77567338,14.2987353 3.66389674,14.0232958 3.55256895,13.7026032 C3.46670137,13.4577403 3.26797175,13.2694887 3.01113768,13.1929258 L2.836173,13.138056 C1.99358195,12.8897579 1.40909091,12.113697 1.40909091,11.2310655 L1.40909091,10.9422336 C1.40909091,10.0545726 1.98728699,9.28057718 2.84744601,9.03204226 L2.96935051,8.99875459 C3.22154127,8.9274869 3.42008185,8.73214821 3.50583407,8.46089259 C3.60793019,8.16680103 3.71854871,7.88664358 3.82884754,7.64444424 C3.92743723,7.4045511 3.91458272,7.13224663 3.79291855,6.91405734 L3.69666706,6.74517862 C3.2703461,5.97303757 3.41288107,5.01621445 4.03788035,4.3900117 L4.2454396,4.18205278 C4.86578585,3.56051203 5.81679758,3.42303718 6.6000129,3.84055495 C6.83662282,3.97225801 7.13182872,3.9741066 7.36836546,3.84906646 C7.66356557,3.68885851 7.98940818,3.54802829 8.32554476,3.43150471 C8.56092335,3.34634322 8.74634832,3.14781147 8.81919144,2.88791587 L8.83596235,2.83869514 C9.08363922,1.9949723 9.85855899,1.40909091 10.7405509,1.40909091 L11.0288277,1.40909091 Z M11.0288277,2.59090909 L10.7405509,2.59090909 C10.3853434,2.59090909 10.0705131,2.82893793 9.96364008,3.19167335 L9.9493145,3.23232539 C9.78244239,3.83422175 9.32120645,4.32806022 8.72021039,4.54544877 C8.4349624,4.64437858 8.16782457,4.7598364 7.92645125,4.89079274 C7.33244471,5.20489986 6.61308162,5.20039518 6.03470531,4.87834349 C5.7182439,4.70968882 5.33296867,4.76538283 5.08191466,5.01692026 L4.8743554,5.22487918 C4.61834048,5.48138706 4.56108643,5.86572787 4.72726082,6.16681558 L4.82228005,6.33347374 C5.12479047,6.87585053 5.15545835,7.52550575 4.91352116,8.11319317 C4.81042554,8.34044026 4.71299229,8.5872041 4.6276403,8.83231571 C4.42844242,9.4643236 3.92906668,9.95564583 3.28580191,10.1374058 L3.16727089,10.1697293 C2.82250434,10.2693727 2.59090909,10.5793949 2.59090909,10.9422336 L2.59090909,11.2310655 C2.59090909,11.5880156 2.82874485,11.9038032 3.17976559,12.007331 L3.35638956,12.0626923 C3.96719709,12.2446334 4.45606846,12.7077291 4.66841321,13.3132674 C4.76497156,13.5914072 4.85846009,13.8217812 4.96477819,14.0349141 C5.24595556,14.6149233 5.23710389,15.2889453 4.91135397,15.8878443 L4.87425661,15.9446051 C4.70539355,16.2626789 4.76119565,16.6501899 5.01272824,16.9022068 L5.22028749,17.1101657 C5.47582322,17.3661935 5.85791554,17.423332 6.15739469,17.2574087 L6.24302969,17.2084113 C6.80122798,16.8958763 7.48931659,16.8868644 8.06776387,17.1683726 C8.35648563,17.3072259 8.62999411,17.4205289 8.88933538,17.5072211 C9.51490081,17.7051485 9.9961881,18.2008825 10.1783492,18.8313791 C10.2779475,19.1773179 10.5870163,19.4090909 10.9481102,19.4090909 L11.2363869,19.4090909 C11.5915944,19.4090909 11.9064248,19.1710621 12.0132978,18.8083267 L12.0276234,18.7676746 C12.1944955,18.1657783 12.6557314,17.6719398 13.2567275,17.4545512 C13.5419755,17.3556214 13.8091133,17.2401636 14.0504866,17.1092073 C14.6444932,16.7951001 15.3638562,16.7996048 15.9422326,17.1216565 C16.258694,17.2903112 16.6439692,17.2346172 16.8950232,16.9830797 L17.1025825,16.7751208 C17.3585974,16.5186129 17.4158514,16.1342721 17.249677,15.8331844 L17.1583838,15.6731074 C16.8449921,15.1277473 16.8226466,14.4650478 17.0864788,13.8868068 C17.1895745,13.6595597 17.2870077,13.4127959 17.3723597,13.1676843 C17.5715576,12.5356764 18.0709333,12.0443542 18.7141981,11.8625942 L18.8327291,11.8302707 C19.1774957,11.7306273 19.4090909,11.4206051 19.4090909,11.0577664 L19.4090909,10.7689345 C19.4090909,10.414479 19.1737564,10.1045324 18.7971723,9.99266902 L18.6205483,9.93730766 C18.0097408,9.75536657 17.5208694,9.29227091 17.3085247,8.68673257 C17.2119663,8.40859277 17.1184778,8.17821877 17.0121597,7.96508592 C16.7309823,7.38507666 16.739834,6.7110547 17.0655839,6.1121557 L17.1026813,6.05539492 C17.2715443,5.73732109 17.2157422,5.3498101 16.9642096,5.09779317 L16.7566504,4.88983425 C16.5011146,4.63380648 16.1190223,4.57666796 15.8195432,4.7425913 L15.7339082,4.79158868 C15.1757099,5.10412366 14.4876213,5.1131356 13.909174,4.83162742 C13.6204522,4.69277412 13.3469438,4.57947113 13.0876025,4.49277887 C12.4620371,4.29485151 11.9807498,3.79911745 11.7985886,3.1686209 C11.6989904,2.82268213 11.3899215,2.59090909 11.0288277,2.59090909 Z M11,7.35 C13.0151365,7.35 14.65,8.98486349 14.65,11 C14.65,13.0151365 13.0151365,14.65 11,14.65 C8.98486349,14.65 7.35,13.0151365 7.35,11 C7.35,8.98486349 8.98486349,7.35 11,7.35 Z M11,8.65 C9.70283367,8.65 8.65,9.70283367 8.65,11 C8.65,12.2971663 9.70283367,13.35 11,13.35 C12.2971663,13.35 13.35,12.2971663 13.35,11 C13.35,9.70283367 12.2971663,8.65 11,8.65 Z" id="形状结合" fill="#000000"></path>
    </g>
</svg>