<?xml version="1.0" encoding="UTF-8"?>
<svg width="22px" height="22px" viewBox="0 0 22 22" version="1.1" xmlns="http://www.w3.org/2000/svg" xmlns:xlink="http://www.w3.org/1999/xlink">
    <title>ICON / sidebar /plugin_22px</title>
    <g id="ICON-/-sidebar-/plugin_22px" stroke="none" stroke-width="1" fill="none" fill-rule="evenodd">
        <path d="M8.35000002,2 C9.26126985,2 10,2.73873015 10,3.64999998 L10,8.35000002 C10,9.26126985 9.26126985,10 8.35000002,10 L3.64999998,10 C2.73873015,10 2,9.26126985 2,8.35000002 L2,3.64999998 C2,2.73873015 2.73873015,2 3.64999998,2 L8.35000002,2 Z M8.35000002,3.3 L3.64999998,3.3 C3.45670033,3.3 3.3,3.45670033 3.3,3.64999998 L3.3,8.35000002 C3.3,8.54329967 3.45670033,8.7 3.64999998,8.7 L8.35000002,8.7 C8.54329967,8.7 8.7,8.54329967 8.7,8.35000002 L8.7,3.64999998 C8.7,3.45670033 8.54329967,3.3 8.35000002,3.3 Z M8.35000002,12 C9.26126985,12 10,12.7387302 10,13.65 L10,18.35 C10,19.2612698 9.26126985,20 8.35000002,20 L3.64999998,20 C2.73873015,20 2,19.2612698 2,18.35 L2,13.65 C2,12.7387302 2.73873015,12 3.64999998,12 L8.35000002,12 Z M8.35000002,13.3 L3.64999998,13.3 C3.45670033,13.3 3.3,13.4567003 3.3,13.65 L3.3,18.35 C3.3,18.5432997 3.45670033,18.7 3.64999998,18.7 L8.35000002,18.7 C8.54329967,18.7 8.7,18.5432997 8.7,18.35 L8.7,13.65 C8.7,13.4567003 8.54329967,13.3 8.35000002,13.3 Z M18.35,12 C19.2612698,12 20,12.7387302 20,13.65 L20,18.35 C20,19.2612698 19.2612698,20 18.35,20 L13.65,20 C12.7387302,20 12,19.2612698 12,18.35 L12,13.65 C12,12.7387302 12.7387302,12 13.65,12 L18.35,12 Z M18.35,13.3 L13.65,13.3 C13.4567003,13.3 13.3,13.4567003 13.3,13.65 L13.3,18.35 C13.3,18.5432997 13.4567003,18.7 13.65,18.7 L18.35,18.7 C18.5432997,18.7 18.7,18.5432997 18.7,18.35 L18.7,13.65 C18.7,13.4567003 18.5432997,13.3 18.35,13.3 Z M14.6572484,3.88216837 L15.1943219,2.26932191 C15.3332982,1.85197243 15.7842893,1.62630634 16.2016388,1.76528259 C16.4396548,1.8445413 16.6264194,2.03130585 16.7056781,2.26932191 L17.2427516,3.88216837 C17.3803554,4.29539626 17.7046037,4.61964461 18.1178316,4.75724838 L19.7306781,5.29432191 C20.1480276,5.43329817 20.3736937,5.88428929 20.2347174,6.30163877 C20.1554587,6.53965483 19.9686942,6.72641938 19.7306781,6.80567809 L18.1178316,7.34275162 C17.7046037,7.48035539 17.3803554,7.80460374 17.2427516,8.21783163 L16.7056781,9.83067809 C16.5667018,10.2480276 16.1157107,10.4736937 15.6983612,10.3347174 C15.4603452,10.2554587 15.2735806,10.0686942 15.1943219,9.83067809 L14.6572484,8.21783163 C14.5196446,7.80460374 14.1953963,7.48035539 13.7821684,7.34275162 L12.1693219,6.80567809 C11.7519724,6.66670183 11.5263063,6.21571071 11.6652826,5.79836123 C11.7445413,5.56034517 11.9313058,5.37358062 12.1693219,5.29432191 L13.7821684,4.75724838 C14.1953963,4.61964461 14.5196446,4.29539626 14.6572484,3.88216837 Z" id="形状结合" fill="#000000"></path>
    </g>
</svg>