<?xml version="1.0" encoding="UTF-8"?>
<svg width="20px" height="20px" viewBox="0 0 20 20" version="1.1" xmlns="http://www.w3.org/2000/svg" xmlns:xlink="http://www.w3.org/1999/xlink">
    <title>ICON / sidebar /plugin</title>
    <g id="ICON-/-sidebar-/plugin" stroke="none" stroke-width="1" fill="none" fill-rule="evenodd">
        <path d="M3.5,2 L7.5,2 C8.32842712,2 9,2.67157288 9,3.5 L9,7.5 C9,8.32842712 8.32842712,9 7.5,9 L3.5,9 C2.67157288,9 2,8.32842712 2,7.5 L2,3.5 C2,2.67157288 2.67157288,2 3.5,2 Z M3.5,11 L7.5,11 C8.32842712,11 9,11.6715729 9,12.5 L9,16.5 C9,17.3284271 8.32842712,18 7.5,18 L3.5,18 C2.67157288,18 2,17.3284271 2,16.5 L2,12.5 C2,11.6715729 2.67157288,11 3.5,11 Z M12.5,11 L16.5,11 C17.3284271,11 18,11.6715729 18,12.5 L18,16.5 C18,17.3284271 17.3284271,18 16.5,18 L12.5,18 C11.6715729,18 11,17.3284271 11,16.5 L11,12.5 C11,11.6715729 11.6715729,11 12.5,11 Z M13.3247713,3.52924397 L13.8130199,2.06301992 C13.939362,1.6836113 14.3493539,1.47846031 14.7287625,1.60480236 C14.9451408,1.67685573 15.1149267,1.84664168 15.1869801,2.06301992 L15.6752287,3.52924397 C15.8003231,3.90490569 16.0950943,4.19967692 16.470756,4.32477126 L17.9369801,4.81301992 C18.3163887,4.93936197 18.5215397,5.3493539 18.3951976,5.72876252 C18.3231443,5.94514076 18.1533583,6.11492671 17.9369801,6.18698008 L16.470756,6.67522874 C16.0950943,6.80032308 15.8003231,7.09509431 15.6752287,7.47075603 L15.1869801,8.93698008 C15.060638,9.3163887 14.6506461,9.52153969 14.2712375,9.39519764 C14.0548592,9.32314427 13.8850733,9.15335832 13.8130199,8.93698008 L13.3247713,7.47075603 C13.1996769,7.09509431 12.9049057,6.80032308 12.529244,6.67522874 L11.0630199,6.18698008 C10.6836113,6.06063803 10.4784603,5.6506461 10.6048024,5.27123748 C10.6768557,5.05485924 10.8466417,4.88507329 11.0630199,4.81301992 L12.529244,4.32477126 C12.9049057,4.19967692 13.1996769,3.90490569 13.3247713,3.52924397 Z" id="形状结合" fill="#000000"></path>
    </g>
</svg>