<?xml version="1.0" encoding="UTF-8"?>
<svg width="16px" height="16px" viewBox="0 0 16 16" version="1.1" xmlns="http://www.w3.org/2000/svg" xmlns:xlink="http://www.w3.org/1999/xlink">
    <title>ICON / tab / project</title>
    <g id="ICON-/-tab-/-project" stroke="none" stroke-width="1" fill="none" fill-rule="evenodd">
        <path d="M6.78598235,0.596463077 C7.41186921,0.228305377 8.18813079,0.228305377 8.81401765,0.596463077 L13.6140177,3.41990778 C14.2249078,3.77924416 14.6,4.43505159 14.6,5.14378951 L14.6,10.8560395 C14.6,11.5647618 14.2249242,12.2205572 13.6140553,12.5798991 L8.81405532,15.4034849 C8.18814952,15.7716722 7.41185048,15.7716722 6.78594468,15.4034849 L1.98594468,12.5798991 C1.37507581,12.2205572 1,11.5647618 1,10.8560395 L1,5.14378951 C1,4.43505159 1.37509218,3.77924416 1.98598235,3.41990778 Z M4.91831273,5.49043701 C4.63741906,5.31463774 4.26719627,5.39983359 4.09139701,5.68072727 C3.91559774,5.96162094 4.00079359,6.33184373 4.28168727,6.50764299 L7.199,8.3333448 L7.2,11.6 C7.2,11.8982338 7.41758961,12.1456468 7.70267688,12.192147 L7.8,12.2 C8.13137085,12.2 8.4,11.9313708 8.4,11.6 L8.399,8.3303448 L11.3161039,6.50779862 C11.5689856,6.34970294 11.6634291,6.03404671 11.5517314,5.76766227 L11.5067986,5.68097606 L11.4485482,5.60261569 C11.2579926,5.38553144 10.9328577,5.33218571 10.6799761,5.49028138 L7.797,7.29204 Z" id="形状结合" fill="#000000"></path>
    </g>
</svg>