<?xml version="1.0" encoding="UTF-8"?>
<svg width="22px" height="22px" viewBox="0 0 22 22" version="1.1" xmlns="http://www.w3.org/2000/svg" xmlns:xlink="http://www.w3.org/1999/xlink">
    <title>ICON / sidebar / history_22px</title>
    <g id="ICON-/-sidebar-/-history_22px" stroke="none" stroke-width="1" fill="none" fill-rule="evenodd">
        <path d="M11,1.1 C16.467619,1.1 20.9,5.53238098 20.9,11 C20.9,16.467619 16.467619,20.9 11,20.9 C5.53238098,20.9 1.1,16.467619 1.1,11 C1.1,5.53238098 5.53238098,1.1 11,1.1 Z M11,2.4 C6.25035115,2.4 2.4,6.25035115 2.4,11 C2.4,15.7496488 6.25035115,19.6 11,19.6 C15.7496488,19.6 19.6,15.7496488 19.6,11 C19.6,6.25035115 15.7496488,2.4 11,2.4 Z M10.678912,4.51279883 C11.0378958,4.51376552 11.3281279,4.8055611 11.3271636,5.1645449 C11.3271032,5.18705275 11.327044,5.20908171 11.326986,5.23069292 L11.3260267,5.58778221 L11.325259,5.87358813 L11.3250971,5.9338672 L11.3241914,6.27102649 C11.3241241,6.29610201 11.324055,6.32179907 11.3239842,6.34817881 L11.3230353,6.70141659 L11.3221702,7.02347555 C11.3220656,7.06240833 11.3219581,7.10245173 11.3218474,7.14366688 L11.321144,7.4055079 C11.3192846,8.09770846 11.3166431,9.08106425 11.3126653,10.5619058 L11.3111162,10.8597989 L16.1784649,10.8600136 C16.504815,10.8600136 16.7749914,11.1005218 16.8214172,11.4139613 L16.8284649,11.5100136 C16.8284649,11.8689987 16.53745,12.1600136 16.1784649,12.1600136 L10.6601162,12.1600136 C10.3004491,12.1600136 10.0091524,11.8679334 10.0101161,11.5082676 C10.01556,9.48256075 10.0189174,8.23265654 10.0211487,7.40201587 L10.021852,7.14017485 C10.0219628,7.0989597 10.0220703,7.0589163 10.0221749,7.01998352 L10.02304,6.69792457 L10.0239889,6.34468678 C10.0240597,6.31830705 10.0241288,6.29260999 10.0241961,6.26753446 L10.0251018,5.93037517 L10.0252637,5.87009611 L10.0260314,5.58429018 L10.0269906,5.22720089 L10.0271683,5.16105287 C10.0281326,4.80206908 10.3199282,4.51183693 10.678912,4.51279883 Z" id="形状结合" fill="#000000"></path>
    </g>
</svg>