<?xml version="1.0" encoding="UTF-8"?>
<svg width="16px" height="16px" viewBox="0 0 16 16" version="1.1" xmlns="http://www.w3.org/2000/svg" xmlns:xlink="http://www.w3.org/1999/xlink">
    <title>ICON / list/可执行目标</title>
    <defs>
        <linearGradient x1="50%" y1="0%" x2="50%" y2="94.9655813%" id="linearGradient-1">
            <stop stop-color="#FAFAFA" offset="0%"></stop>
            <stop stop-color="#D1F2FA" offset="100%"></stop>
        </linearGradient>
        <linearGradient x1="50%" y1="0%" x2="50%" y2="94.9655813%" id="linearGradient-2">
            <stop stop-color="#FAFAFA" offset="0%"></stop>
            <stop stop-color="#D1F2FA" offset="100%"></stop>
        </linearGradient>
        <linearGradient x1="50%" y1="0%" x2="50%" y2="94.9655813%" id="linearGradient-3">
            <stop stop-color="#C4EDF6" offset="0%"></stop>
            <stop stop-color="#99D4E1" offset="100%"></stop>
        </linearGradient>
        <linearGradient x1="50%" y1="0%" x2="50%" y2="100%" id="linearGradient-4">
            <stop stop-color="#2594E6" offset="0%"></stop>
            <stop stop-color="#105BC8" offset="100%"></stop>
        </linearGradient>
        <linearGradient x1="50%" y1="2.37536127%" x2="50%" y2="94.5953062%" id="linearGradient-5">
            <stop stop-color="#FFFFFF" offset="0%"></stop>
            <stop stop-color="#EDF5FF" offset="100%"></stop>
        </linearGradient>
        <path d="M10.8722417,9.17258938 L13.8010003,11.0877699 C14.032115,11.238901 14.0969546,11.5487724 13.9458235,11.7798871 C13.9093316,11.8356919 13.8620466,11.8836341 13.8067509,11.920893 L10.8779923,13.8943223 C10.6489858,14.0486294 10.3382488,13.9880735 10.1839418,13.7590671 C10.1283125,13.6765078 10.0985947,13.5792218 10.0985947,13.4796695 L10.0985947,9.5910596 C10.0985947,9.31491722 10.3224523,9.0910596 10.5985947,9.0910596 C10.6957961,9.0910596 10.7908899,9.11939165 10.8722417,9.17258938 Z" id="path-6"></path>
        <filter x="-11.5%" y="-1.3%" width="113.8%" height="102.4%" filterUnits="objectBoundingBox" id="filter-7">
            <feGaussianBlur stdDeviation="0.5" in="SourceAlpha" result="shadowBlurInner1"></feGaussianBlur>
            <feOffset dx="0" dy="0" in="shadowBlurInner1" result="shadowOffsetInner1"></feOffset>
            <feComposite in="shadowOffsetInner1" in2="SourceAlpha" operator="arithmetic" k2="-1" k3="1" result="shadowInnerInner1"></feComposite>
            <feColorMatrix values="0 0 0 0 0   0 0 0 0 0.253928052   0 0 0 0 0.889209692  0 0 0 0.2 0" type="matrix" in="shadowInnerInner1"></feColorMatrix>
        </filter>
    </defs>
    <g id="ICON-/-list/可执行目标" stroke="none" stroke-width="1" fill="none" fill-rule="evenodd">
        <rect id="矩形" stroke-opacity="0.3" stroke="#0088C0" fill="url(#linearGradient-1)" x="0.5" y="2.5" width="14" height="12" rx="0.666666687"></rect>
        <path d="M14.3333333,1.5 L14.5,4.5 L0.5,4.5 L0.5,1.66666669 L14.3333333,1.5 Z" id="矩形" stroke-opacity="0.3" stroke="#0088C0" fill="url(#linearGradient-2)"></path>
        <path d="M2.6409713,6 L4.3590287,6 C4.58190838,6 4.66272994,6.0232064 4.74421143,6.06678318 C4.82569291,6.11035995 4.88964005,6.17430709 4.93321682,6.25578857 C4.9767936,6.33727006 5,6.41809162 5,6.6409713 L5,8.3590287 C5,8.58190838 4.9767936,8.66272994 4.93321682,8.74421143 C4.88964005,8.82569291 4.82569291,8.88964005 4.74421143,8.93321682 C4.66272994,8.9767936 4.58190838,9 4.3590287,9 L2.6409713,9 C2.41809162,9 2.33727006,8.9767936 2.25578857,8.93321682 C2.17430709,8.88964005 2.11035995,8.82569291 2.06678318,8.74421143 C2.0232064,8.66272994 2,8.58190838 2,8.3590287 L2,6.6409713 C2,6.41809162 2.0232064,6.33727006 2.06678318,6.25578857 C2.11035995,6.17430709 2.17430709,6.11035995 2.25578857,6.06678318 C2.33727006,6.0232064 2.41809162,6 2.6409713,6 Z" id="矩形" fill="url(#linearGradient-3)"></path>
        <path d="M2.6409713,10 L4.3590287,10 C4.58190838,10 4.66272994,10.0232064 4.74421143,10.0667832 C4.82569291,10.1103599 4.88964005,10.1743071 4.93321682,10.2557886 C4.9767936,10.3372701 5,10.4180916 5,10.6409713 L5,12.3590287 C5,12.5819084 4.9767936,12.6627299 4.93321682,12.7442114 C4.88964005,12.8256929 4.82569291,12.8896401 4.74421143,12.9332168 C4.66272994,12.9767936 4.58190838,13 4.3590287,13 L2.6409713,13 C2.41809162,13 2.33727006,12.9767936 2.25578857,12.9332168 C2.17430709,12.8896401 2.11035995,12.8256929 2.06678318,12.7442114 C2.0232064,12.6627299 2,12.5819084 2,12.3590287 L2,10.6409713 C2,10.4180916 2.0232064,10.3372701 2.06678318,10.2557886 C2.11035995,10.1743071 2.17430709,10.1103599 2.25578857,10.0667832 C2.33727006,10.0232064 2.41809162,10 2.6409713,10 Z" id="矩形备份-3" fill="url(#linearGradient-3)"></path>
        <path d="M6.6409713,6 L12.3590287,6 C12.5819084,6 12.6627299,6.0232064 12.7442114,6.06678318 C12.8256929,6.11035995 12.8896401,6.17430709 12.9332168,6.25578857 C12.9767936,6.33727006 13,6.41809162 13,6.6409713 L13,12.3590287 C13,12.5819084 12.9767936,12.6627299 12.9332168,12.7442114 C12.8896401,12.8256929 12.8256929,12.8896401 12.7442114,12.9332168 C12.6627299,12.9767936 12.5819084,13 12.3590287,13 L6.6409713,13 C6.41809162,13 6.33727006,12.9767936 6.25578857,12.9332168 C6.17430709,12.8896401 6.11035995,12.8256929 6.06678318,12.7442114 C6.0232064,12.6627299 6,12.5819084 6,12.3590287 L6,6.6409713 C6,6.41809162 6.0232064,6.33727006 6.06678318,6.25578857 C6.11035995,6.17430709 6.17430709,6.11035995 6.25578857,6.06678318 C6.33727006,6.0232064 6.41809162,6 6.6409713,6 Z" id="矩形备份" fill="url(#linearGradient-3)"></path>
        <circle id="椭圆形" fill="url(#linearGradient-4)" fill-rule="nonzero" cx="11.5" cy="11.5" r="4.5"></circle>
        <g id="矩形备份-2">
            <use fill="url(#linearGradient-5)" fill-rule="evenodd" xlink:href="#path-6"></use>
            <use fill="black" fill-opacity="1" filter="url(#filter-7)" xlink:href="#path-6"></use>
        </g>
    </g>
</svg>