<?xml version="1.0" encoding="UTF-8"?>
<svg width="16px" height="16px" viewBox="0 0 16 16" version="1.1" xmlns="http://www.w3.org/2000/svg" xmlns:xlink="http://www.w3.org/1999/xlink">
    <title>ICON / toolbar / entry</title>
    <g id="ICON-/-toolbar-/-entry" stroke="none" stroke-width="1" fill="none" fill-rule="evenodd">
        <path d="M8.69478846,11.2928932 L12.7303418,7.25733985 C12.9787807,7.00890099 13.0036246,6.62153802 12.8048735,6.34531433 L12.7301817,6.25753897 C12.4539349,5.98146918 12.0062167,5.98153883 11.7300559,6.25769457 L8.99996169,8.98778644 L9,2.11355947 C9,1.56127472 8.55228475,1.11355947 8,1.11355947 C7.44771525,1.11355947 7,1.56127472 7,2.11355947 L6.99996169,9.01378644 L4.24516342,6.25691658 C3.99667279,6.00838842 3.60920171,5.98350823 3.33288459,6.18229489 L3.24504099,6.25703897 C2.96887272,6.53338418 2.96894443,6.98126276 3.24520119,7.25751951 L7.28057489,11.2928932 C7.67109919,11.6834175 8.30426416,11.6834175 8.69478846,11.2928932 Z M6,13 L10,13 C10.5522847,13 11,13.4477153 11,14 C11,14.5522847 10.5522847,15 10,15 L6,15 C5.44771525,15 5,14.5522847 5,14 C5,13.4477153 5.44771525,13 6,13 Z" id="形状结合" fill="#626E88" fill-rule="nonzero"></path>
    </g>
</svg>