<?xml version="1.0" encoding="UTF-8"?>
<svg width="96px" height="96px" viewBox="0 0 96 96" version="1.1" xmlns="http://www.w3.org/2000/svg" xmlns:xlink="http://www.w3.org/1999/xlink">
    <title>plugin/Code_migration</title>
    <defs>
        <linearGradient x1="50%" y1="86.3910993%" x2="50%" y2="0%" id="linearGradient-1">
            <stop stop-color="#2C2F3C" offset="0%"></stop>
            <stop stop-color="#616679" offset="100%"></stop>
            <stop stop-color="#797E94" offset="100%"></stop>
            <stop stop-color="#797E94" offset="100%"></stop>
        </linearGradient>
        <path d="M18,0 L78,0 C87.9411255,-1.82615513e-15 96,8.0588745 96,18 L96,78 C96,87.9411255 87.9411255,96 78,96 L18,96 C8.0588745,96 1.21743675e-15,87.9411255 0,78 L0,18 C-1.21743675e-15,8.0588745 8.0588745,1.82615513e-15 18,0 Z" id="path-2"></path>
        <filter x="-1.0%" y="-1.0%" width="102.1%" height="102.1%" filterUnits="objectBoundingBox" id="filter-3">
            <feGaussianBlur stdDeviation="0.5" in="SourceAlpha" result="shadowBlurInner1"></feGaussianBlur>
            <feOffset dx="0" dy="-1" in="shadowBlurInner1" result="shadowOffsetInner1"></feOffset>
            <feComposite in="shadowOffsetInner1" in2="SourceAlpha" operator="arithmetic" k2="-1" k3="1" result="shadowInnerInner1"></feComposite>
            <feColorMatrix values="0 0 0 0 0.0166812807   0 0 0 0 0.0678268303   0 0 0 0 0.0940233314  0 0 0 1 0" type="matrix" in="shadowInnerInner1"></feColorMatrix>
        </filter>
        <linearGradient x1="50%" y1="0%" x2="50%" y2="96.8471714%" id="linearGradient-4">
            <stop stop-color="#FFFFFF" stop-opacity="0.9" offset="0%"></stop>
            <stop stop-color="#FFFFFF" stop-opacity="0.612106643" offset="100%"></stop>
        </linearGradient>
        <linearGradient x1="50%" y1="0%" x2="50%" y2="100%" id="linearGradient-5">
            <stop stop-color="#FFFFFF" stop-opacity="0.464043037" offset="0%"></stop>
            <stop stop-color="#FFFFFF" offset="100%"></stop>
        </linearGradient>
        <linearGradient x1="50%" y1="0%" x2="50%" y2="96.8471714%" id="linearGradient-6">
            <stop stop-color="#FFFFFF" stop-opacity="0.9" offset="0%"></stop>
            <stop stop-color="#FFFFFF" stop-opacity="0.612106643" offset="100%"></stop>
        </linearGradient>
        <linearGradient x1="50%" y1="0%" x2="50%" y2="100%" id="linearGradient-7">
            <stop stop-color="#FFFFFF" stop-opacity="0.464043037" offset="0%"></stop>
            <stop stop-color="#FFFFFF" offset="100%"></stop>
        </linearGradient>
        <rect id="path-8" x="43" y="12" width="7" height="73" rx="3.5"></rect>
        <filter x="-42.9%" y="-5.5%" width="271.4%" height="116.4%" filterUnits="objectBoundingBox" id="filter-9">
            <feOffset dx="3" dy="2" in="SourceAlpha" result="shadowOffsetOuter1"></feOffset>
            <feGaussianBlur stdDeviation="1.5" in="shadowOffsetOuter1" result="shadowBlurOuter1"></feGaussianBlur>
            <feColorMatrix values="0 0 0 0 0   0 0 0 0 0   0 0 0 0 0  0 0 0 0.5 0" type="matrix" in="shadowBlurOuter1"></feColorMatrix>
        </filter>
        <filter x="-35.7%" y="-4.8%" width="257.1%" height="115.1%" filterUnits="objectBoundingBox" id="filter-10">
            <feGaussianBlur stdDeviation="2" in="SourceAlpha" result="shadowBlurInner1"></feGaussianBlur>
            <feOffset dx="0" dy="-1" in="shadowBlurInner1" result="shadowOffsetInner1"></feOffset>
            <feComposite in="shadowOffsetInner1" in2="SourceAlpha" operator="arithmetic" k2="-1" k3="1" result="shadowInnerInner1"></feComposite>
            <feColorMatrix values="0 0 0 0 0.286385203   0 0 0 0 0.308176557   0 0 0 0 0.384446296  0 0 0 0.754334777 0" type="matrix" in="shadowInnerInner1" result="shadowMatrixInner1"></feColorMatrix>
            <feGaussianBlur stdDeviation="0.5" in="SourceAlpha" result="shadowBlurInner2"></feGaussianBlur>
            <feOffset dx="0" dy="-1" in="shadowBlurInner2" result="shadowOffsetInner2"></feOffset>
            <feComposite in="shadowOffsetInner2" in2="SourceAlpha" operator="arithmetic" k2="-1" k3="1" result="shadowInnerInner2"></feComposite>
            <feColorMatrix values="0 0 0 0 1   0 0 0 0 1   0 0 0 0 1  0 0 0 0.5 0" type="matrix" in="shadowInnerInner2" result="shadowMatrixInner2"></feColorMatrix>
            <feMerge>
                <feMergeNode in="shadowMatrixInner1"></feMergeNode>
                <feMergeNode in="shadowMatrixInner2"></feMergeNode>
            </feMerge>
        </filter>
    </defs>
    <g id="plugin/Code_migration" stroke="none" stroke-width="1" fill="none" fill-rule="evenodd">
        <g id="矩形">
            <use fill="url(#linearGradient-1)" fill-rule="evenodd" xlink:href="#path-2"></use>
            <use fill="black" fill-opacity="1" filter="url(#filter-3)" xlink:href="#path-2"></use>
        </g>
        <g id="编组-2" transform="translate(12, 22)">
            <path d="M13.5,0.5 L13.5,52.5 L10,52.5 C7.37664744,52.5 5.00164744,51.4366763 3.28248558,49.7175144 C1.56332372,47.9983526 0.5,45.6233526 0.5,43 L0.5,10 C0.5,7.37664744 1.56332372,5.00164744 3.28248558,3.28248558 C5.00164744,1.56332372 7.37664744,0.5 10,0.5 L13.5,0.5 Z" id="矩形" stroke="url(#linearGradient-5)" fill="url(#linearGradient-4)"></path>
            <path d="M33.5,0.5 L33.5,13.5 L0.5,13.5 L0.5,10 C0.5,7.37664744 1.56332372,5.00164744 3.28248558,3.28248558 C5.00164744,1.56332372 7.37664744,0.5 10,0.5 L33.5,0.5 Z" id="矩形" stroke="url(#linearGradient-7)" fill="url(#linearGradient-6)"></path>
            <g id="C" transform="translate(5, 5)" fill="#328BE8" fill-rule="nonzero">
                <path d="M4.17191696,5.26024312 C3.75623682,5.64065342 3.22467011,5.83085857 2.57721681,5.83085857 C1.77608783,5.83085857 1.14626945,5.57389267 0.687761672,5.05996087 C0.229253891,4.5435098 0,3.83559394 0,2.93621329 C0,1.96377371 0.26074481,1.21428984 0.782234429,0.687761672 C1.23570366,0.229253891 1.8126173,0 2.51297534,0 C3.45014509,0 4.13538749,0.30735137 4.56870254,0.92205411 C4.80803352,1.26719458 4.93651647,1.61359469 4.95415138,1.96125444 L3.79024702,1.96125444 C3.71466881,1.69421144 3.61767678,1.49266956 3.49927092,1.35662879 C3.28765195,1.11477853 2.97400239,0.993853405 2.55832226,0.993853405 C2.13508431,0.993853405 1.80128057,1.16453419 1.55691104,1.50589575 C1.31254151,1.84725731 1.19035674,2.33032801 1.19035674,2.95510784 C1.19035674,3.57988768 1.31946951,4.04784273 1.57769504,4.35897301 C1.83592058,4.67010329 2.16405596,4.82566843 2.56210117,4.82566843 C2.97022348,4.82566843 3.28135376,4.69214694 3.49549201,4.42510394 C3.61389787,4.28150535 3.71214954,4.06610747 3.79024702,3.77891029 L4.94281465,3.77891029 C4.84204371,4.3860552 4.58507781,4.87983282 4.17191696,5.26024312 Z" id="路径"></path>
            </g>
            <g id="O" transform="translate(5, 17)" fill="#EB5725" fill-rule="nonzero">
                <path d="M2.67168957,5.89510005 C1.87559914,5.89510005 1.26719458,5.67844252 0.846475904,5.24512748 C0.282158635,4.71356076 0,3.94770161 0,2.94755002 C0,1.92724425 0.282158635,1.16138509 0.846475904,0.649972569 C1.26719458,0.216657523 1.87559914,0 2.67168957,0 C3.46778001,0 4.07618456,0.216657523 4.49690324,0.649972569 C5.05870124,1.16138509 5.33960023,1.92724425 5.33960023,2.94755002 C5.33960023,3.94770161 5.05870124,4.71356076 4.49690324,5.24512748 C4.07618456,5.67844252 3.46778001,5.89510005 2.67168957,5.89510005 Z M3.77135247,4.39865157 C4.04091473,4.05854965 4.17569587,3.57484913 4.17569587,2.94755002 C4.17569587,2.32277019 4.04028491,1.83969949 3.76946301,1.49833793 C3.49864111,1.15697637 3.13271663,0.986295585 2.67168957,0.986295585 C2.21066252,0.986295585 1.84284858,1.15634655 1.56824777,1.49644847 C1.29364695,1.8365504 1.15634655,2.32025092 1.15634655,2.94755002 C1.15634655,3.57484913 1.29364695,4.05854965 1.56824777,4.39865157 C1.84284858,4.7387535 2.21066252,4.90880446 2.67168957,4.90880446 C3.13271663,4.90880446 3.49927092,4.7387535 3.77135247,4.39865157 Z" id="形状"></path>
            </g>
            <g id="D" transform="translate(5.5459, 30)" fill="#9986DB" fill-rule="nonzero">
                <path d="M2.39960803,5.57011376 L0,5.57011376 L0,0 L2.39960803,0 C2.7447485,0.00503854705 3.03194569,0.0453469234 3.26119958,0.120925129 C3.65168697,0.249408079 3.9678558,0.484960153 4.20970606,0.827581353 C4.40369012,1.10470144 4.53595198,1.40449499 4.60649164,1.726962 C4.6770313,2.04942901 4.71230113,2.35678038 4.71230113,2.64901611 C4.71230113,3.38968253 4.56366399,4.01698163 4.26638971,4.53091343 C3.86330595,5.22371365 3.24104539,5.57011376 2.39960803,5.57011376 Z M3.26497849,1.42087027 C3.08611007,1.11855744 2.73215214,0.967401033 2.2031047,0.967401033 L1.12989418,0.967401033 L1.12989418,4.60271273 L2.2031047,4.60271273 C2.75230632,4.60271273 3.1352359,4.33189082 3.35189342,3.79024702 C3.47029928,3.49297274 3.52950221,3.13901481 3.52950221,2.72837323 C3.52950221,2.16153668 3.44132763,1.72570236 3.26497849,1.42087027 Z" id="形状"></path>
            </g>
            <g id="E" transform="translate(5.5384, 42)" fill="#F5A92C" fill-rule="nonzero">
                <polygon id="路径" points="3.84315176 3.13649554 1.137452 3.13649554 1.137452 4.56870254 4.22104279 4.56870254 4.22104279 5.57011376 4.79877007e-13 5.57011376 4.79877007e-13 0 4.08500202 0 4.08500202 0.986295585 1.137452 0.986295585 1.137452 2.1690945 3.84315176 2.1690945"></polygon>
            </g>
            <rect id="矩形备份-12" stroke="url(#linearGradient-7)" x="0.5" y="13.5" width="33" height="13"></rect>
            <rect id="矩形备份-14" stroke="url(#linearGradient-7)" x="0.5" y="26.5" width="33" height="13"></rect>
            <path d="M33.5,39.5 L33.5,52.5 L10,52.5 C7.37664744,52.5 5.00164744,51.4366763 3.28248558,49.7175144 C1.56332372,47.9983526 0.5,45.6233526 0.5,43 L0.5,39.5 L33.5,39.5 Z" id="矩形备份-13" stroke="url(#linearGradient-7)"></path>
        </g>
        <g id="编组" transform="translate(49, 26)">
            <rect id="矩形备份-2" fill="#328BE8" x="0" y="0" width="13" height="6" rx="3"></rect>
            <rect id="矩形备份-8" fill="#9986DB" x="0" y="26" width="13" height="6" rx="3"></rect>
            <rect id="矩形备份-6" fill="#EB5725" x="0" y="13" width="13" height="6" rx="3"></rect>
            <rect id="矩形备份-7" fill="#F4A942" x="17" y="13" width="13" height="6" rx="3"></rect>
            <rect id="矩形备份-5" fill="#AB64F5" x="23" y="0" width="13" height="6" rx="3"></rect>
            <rect id="矩形备份-4" fill="#1BF592" x="15" y="0" width="6" height="6" rx="3"></rect>
            <rect id="矩形备份-9" fill="#26F394" x="15" y="26" width="6" height="6" rx="3"></rect>
            <rect id="矩形备份-11" fill="#F5A92C" x="0" y="39" width="6" height="6" rx="3"></rect>
            <rect id="矩形备份-10" fill="#E35F1A" x="24" y="26" width="6" height="6" rx="3"></rect>
        </g>
        <g id="矩形备份">
            <use fill="black" fill-opacity="1" filter="url(#filter-9)" xlink:href="#path-8"></use>
            <use fill="#FFFFFF" fill-rule="evenodd" xlink:href="#path-8"></use>
            <use fill="black" fill-opacity="1" filter="url(#filter-10)" xlink:href="#path-8"></use>
        </g>
    </g>
</svg>