<?xml version="1.0" encoding="UTF-8"?>
<svg width="12px" height="12px" viewBox="0 0 12 12" version="1.1" xmlns="http://www.w3.org/2000/svg" xmlns:xlink="http://www.w3.org/1999/xlink">
    <title>ICON /ai/common</title>
    <defs>
        <linearGradient x1="14.8352364%" y1="17.3227273%" x2="100%" y2="93.2533512%" id="linearGradient-1">
            <stop stop-color="#FF9C73" offset="0%"></stop>
            <stop stop-color="#C038D2" offset="100%"></stop>
        </linearGradient>
    </defs>
    <g id="ICON-/ai/common" stroke="none" stroke-width="1" fill="none" fill-rule="evenodd">
        <rect id="矩形" fill="url(#linearGradient-1)" fill-rule="nonzero" x="0" y="0" width="12" height="12" rx="3"></rect>
        <g id="Open-AI" transform="translate(1.3696, 1.3777)" fill="#FFFFFF" fill-rule="nonzero">
            <path d="M5.83642923,4.22901019 C5.9303897,4.28281114 6.02399898,4.33738469 6.11725709,4.39273084 C6.32740388,4.51688508 6.52523591,4.63382841 6.73688108,4.73571776 C6.98722642,4.85603242 7.07101823,5.00790655 7.05832889,5.27972075 C7.03990358,5.78982306 7.04414116,6.302688 7.04816804,6.81424186 C7.04985372,7.03415149 7.0515628,7.25298416 7.0515628,7.47095059 C7.04561613,8.48375699 6.19046665,9.29994878 5.16813152,9.25588725 C4.4670335,9.23067245 3.95236583,8.89534128 3.59261588,8.26874048 C4.00422357,8.034011 4.38998435,7.81222841 4.77537054,7.5902117 C5.08433971,7.41312275 5.39244263,7.23561239 5.70775647,7.06465741 C5.80447174,7.0142278 5.83642923,6.95068742 5.83642923,6.84285141 C5.83304229,6.30718312 5.83262087,5.77145239 5.83516498,5.23565923 L5.83642923,4.43194607 Z M5.57931782,5.47692067 C5.57973923,5.58794073 5.57763214,5.69491051 5.57592306,5.79871965 C5.56797471,6.02258274 5.571366,6.2467047 5.58608391,6.47022482 C5.61169672,6.74880511 5.50863676,6.90067924 5.25808072,7.03373006 C4.83327641,7.26095206 4.41263945,7.49587664 3.99616983,7.73850378 C3.78680344,7.85882625 3.57737461,7.97836831 3.36788336,8.09712997 C2.28734582,8.70467334 0.994554387,8.18548714 0.660604536,7.00214717 C0.519453129,6.50222912 0.609402328,6.02771317 0.904815903,5.57162251 C1.03730484,5.64724351 1.1680847,5.7199146 1.29715547,5.79216426 C1.43833029,5.87073519 1.57735119,5.94806528 1.71531857,6.02768975 L1.9821694,6.17832305 C2.32014613,6.37025524 2.65852086,6.56089978 2.98865455,6.75514977 C3.09784847,6.81871356 3.18121888,6.81871356 3.29043621,6.75514977 C3.74900855,6.48972707 4.20758087,6.22917407 4.66594249,5.9692298 L5.35392976,5.57777988 C5.43101916,5.54873254 5.50628532,5.5150594 5.57931782,5.47692067 Z M5.98476814,2.76795617 C6.04210432,2.7363967 6.1451877,2.7296072 6.1963899,2.7616115 C6.92576972,3.16451772 7.65021738,3.57589911 8.36973291,3.99575567 C9.01241781,4.3753825 9.35376587,5.12845533 9.21832702,5.81861992 C9.07083093,6.58440551 8.49840567,7.15404472 7.73952664,7.29344023 C7.32178498,7.36906123 7.30232954,7.35655918 7.30232954,6.95131956 L7.30200763,5.74962452 L7.30993847,5.0274088 C7.31544031,4.83105173 7.24475924,4.73000521 7.07715219,4.63488194 C6.55445419,4.34784989 6.03533823,4.04915862 5.51750993,3.75131019 L5.08410558,3.50176087 C5.02194218,3.46979356 4.96186382,3.43392484 4.90486273,3.39392485 C4.93993245,3.36685192 4.97637912,3.3416112 5.01405666,3.31830385 C5.10400909,3.2670745 5.1937406,3.2154582 5.2832487,3.16345638 C5.51519214,3.03000755 5.74861054,2.89508375 5.98476814,2.76795617 Z M1.94112804,2.30552086 L1.94112804,4.32474217 C1.94112804,4.43257819 1.9796409,4.49569714 2.07593477,4.54612676 L2.76393667,4.93587051 L4.13966244,5.72370736 C4.16864659,5.74489529 4.20144691,5.76608321 4.23953836,5.79108731 C4.26894393,5.81035544 4.30303191,5.83175409 4.33880556,5.85654748 C4.31690579,5.87120237 4.29517022,5.88610118 4.27360293,5.90124112 C4.25159557,5.91606097 4.23382581,5.92835231 4.21647747,5.93895798 C4.05882055,6.03066308 3.89903313,6.12070592 3.74053337,6.21114677 C3.58203361,6.30158762 3.42311244,6.39120905 3.26479998,6.48296098 C3.18121887,6.53336717 3.11667178,6.53336717 3.03351209,6.48296098 C2.76447612,6.32944019 2.4951592,6.17627839 2.22556134,6.02347557 C1.78410324,5.77393406 1.34385476,5.52205914 0.904815903,5.26785083 C0.248809536,4.88822402 -0.0980403746,4.16036599 0.0242877308,3.44498659 C0.146170993,2.69170304 0.72494093,2.11042802 1.48445208,1.95110885 C1.91551522,1.86277509 1.94112803,1.88756848 1.94112804,2.30552086 Z M4.07490464,0.00179599116 C4.69789997,0.0270107919 5.19374433,0.311912343 5.54649408,0.824777284 C5.63730953,0.95146003 5.62438606,1.01457899 5.48302395,1.09019999 C5.15818139,1.27091781 4.83507132,1.4556625 4.51212516,1.63909611 C4.18917899,1.82252973 3.86581139,2.00596335 3.54099225,2.18647045 C3.43833029,2.24282332 3.39981743,2.30594228 3.39981743,2.41949085 C3.40384431,2.95057038 3.40258006,3.48207132 3.40089438,4.01504723 C3.40017641,4.28224144 3.39981743,4.55000535 3.39981743,4.81833896 C3.40597085,4.88579756 3.40802708,4.95356728 3.4059748,5.02127484 C3.31265427,4.96810602 3.22228365,4.91428166 3.13467567,4.86218979 C2.91881632,4.73466421 2.71417137,4.61348331 2.4998104,4.51454387 C2.25517761,4.4009953 2.1717838,4.24912116 2.18449656,3.9826215 C2.19823945,3.46299048 2.19528953,2.93912187 2.19294832,2.41736034 L2.19084124,1.79307733 L2.1925269,1.723403 C2.21383391,1.24548046 2.42412872,0.79559824 2.7771459,0.472731669 C3.13016308,0.149865097 3.59698323,-0.0195363915 4.07490464,0.00179599116 Z M5.97821276,1.0902234 C6.68567886,0.710807296 7.55478196,0.862283436 8.11241078,1.42597598 C8.67109217,1.98038167 8.79442088,2.83803552 8.41459044,3.5273971 C8.3881348,3.57166933 8.36338825,3.61573086 8.32466467,3.67292657 C8.1426748,3.57095917 7.96322124,3.46942099 7.78630398,3.36831204 C7.57862325,3.25053369 7.37066939,3.13317676 7.16244239,3.01624125 C6.85644656,2.84444342 6.54789881,2.67156866 6.24803694,2.4893993 C6.13289634,2.41949083 6.04889381,2.41949083 5.92698714,2.4893993 C5.23860186,2.88784942 4.55061461,3.27403161 3.86307217,3.66042451 C3.81983347,3.69212891 3.77293775,3.7185166 3.72339573,3.73901885 L3.66371835,3.76762841 C3.66371835,3.31195918 3.66371835,2.90056219 3.67006302,2.48303121 C3.67006302,2.43854828 3.72128864,2.37542932 3.76001222,2.34958239 L4.2799476,2.05089111 C4.84413181,1.7257208 5.40684104,1.40033976 5.97821276,1.0902234 Z" id="形状结合"></path>
        </g>
    </g>
</svg>