<?xml version="1.0" encoding="UTF-8"?>
<svg width="16px" height="16px" viewBox="0 0 16 16" version="1.1" xmlns="http://www.w3.org/2000/svg" xmlns:xlink="http://www.w3.org/1999/xlink">
    <title>ICON / toolbar / debug_dark</title>
    <g id="ICON-/-toolbar-/-debug_dark" stroke="none" stroke-width="1" fill="none" fill-rule="evenodd">
        <g id="编组" transform="translate(0.0952, 0.3577)" fill="#57965C" fill-rule="nonzero" stroke="#57965C" stroke-width="0.915888028">
            <path d="M0.521,2.94 L0.537782899,2.95697162 L0.581530652,3.04512571 L3.95584769,5.81184867 C4.48979707,5.3049173 5.34322455,5.07867979 6.48372878,5.07867979 L9.30523612,5.07867979 C10.4092231,5.07867979 11.2516885,5.29489399 11.7943015,5.77240022 L14.186,4.692 L11.8772797,5.85162291 C12.2226499,6.19965277 12.4040494,6.66779158 12.4400969,7.24594526 L12.4468377,7.46789013 L12.4455254,8.60076725 L15.056123,8.60177397 C15.0662671,8.60177397 15.0756114,8.60530685 15.0828554,8.611346 C15.0861917,8.64300245 15.0797227,8.66583766 15.06531,8.68311948 L12.4457944,8.68487925 L12.4468374,10.5118989 C12.4468374,11.1073513 12.3134558,11.6826377 12.0751377,12.2095668 L14.5469652,13.0224313 L14.611,13.131 L12.0395396,12.2865239 C11.3450989,13.7444134 9.84798548,14.8210483 8.1300627,14.9082369 L7.90478141,14.9139481 C6.10035275,14.9139481 4.50714332,13.8163592 3.77853126,12.3042814 L1.928,12.911 L3.73076907,12.201458 C3.52846296,11.7516641 3.40256793,11.2669295 3.37072655,10.7643406 L3.36272535,10.5116374 L3.36168258,8.6848787 L0.760906149,8.68588594 C0.749292709,8.68588594 0.738778713,8.68117866 0.731168076,8.67356803 C0.72355744,8.66595739 0.718850163,8.65544339 0.718850163,8.64382995 C0.718850163,8.63221651 0.72355744,8.62170252 0.731168076,8.61409188 C0.738778713,8.60648124 0.749292709,8.60177397 0.761083496,8.60177393 L3.36141427,8.60076691 L3.36272542,7.46842059 C3.36272542,6.76397561 3.54840089,6.20848761 3.95443332,5.81443995 L1.39140818,4.65712156 C1.07937353,4.18404338 0.923152604,3.90906061 0.82495461,3.72136123 L0.76701212,3.60794314 L0.742475711,3.55865216 C0.623723246,3.31935954 0.552359713,3.13846045 0.528092683,2.99911823 L0.521,2.94 Z M9.30523612,5.16279176 L6.48372878,5.16279176 C5.43348403,5.16279176 4.71302757,5.34751175 4.24365033,5.6837967 C3.71179273,6.06484567 3.4468374,6.63904618 3.4468374,7.46842059 L3.4468374,10.5118989 C3.4468374,11.0709583 3.56438114,11.6155971 3.88625821,12.3322737 C4.25623421,13.0694946 4.84044855,13.7054916 5.55624567,14.1507338 C6.24345402,14.5781932 7.05114406,14.8298361 7.90478141,14.8298361 C9.10399076,14.8298361 10.212843,14.3327703 11.0237567,13.5502398 C11.8490806,12.7538037 12.3627254,11.6645581 12.3627254,10.5118989 L12.3627254,7.46842059 C12.3627254,6.64769788 12.091697,6.07152765 11.551985,5.68791531 C11.0763776,5.34986676 10.3503811,5.16279176 9.30523612,5.16279176 Z M1.17,13.209 L0.537786863,14.4875667 C0.533279404,14.4966543 0.525962329,14.5034557 0.517333304,14.5072618 C0.487491233,14.4961842 0.469908631,14.4802423 0.460830814,14.4596515 L1.05526127,13.2549779 L1.17,13.209 Z M15.395,2.96 C15.4019147,2.97244886 15.4014575,2.98395945 15.3962949,2.99436232 L14.6757784,4.44624195 L14.549,4.509 L14.6270194,4.35285995 C14.740975,4.12430907 14.8314848,3.94252456 14.9046194,3.79548652 L15.0020486,3.59948684 C15.0450062,3.51301445 15.0798976,3.44270637 15.1092838,3.3834917 C15.196,3.20875386 15.2728488,3.0814502 15.3503955,3.00033752 L15.395,2.96 Z M7.90851457,0.457944014 C8.54999945,0.457944014 9.13011351,0.696382178 9.54663478,1.09917498 C9.95093034,1.49014503 10.1982346,2.03530986 10.1982346,2.65710154 L6.03274058,3.16113345 C5.72413178,2.14879014 5.90035894,1.57508941 6.25768597,1.17165253 C6.67161399,0.704310804 7.25869197,0.457944014 7.90851457,0.457944014 Z" id="形状结合"></path>
        </g>
    </g>
</svg>