<?xml version="1.0" encoding="UTF-8"?>
<svg width="16px" height="16px" viewBox="0 0 16 16" version="1.1" xmlns="http://www.w3.org/2000/svg" xmlns:xlink="http://www.w3.org/1999/xlink">
    <title>ICON / toolbar / start debug备份</title>
    <g id="ICON-/-toolbar-/-start-debug备份" stroke="none" stroke-width="1" fill="none" fill-rule="evenodd">
        <path d="M15.7147958,9.73539127 C15.8983673,9.94168256 15.8799493,10.2577288 15.673658,10.4413004 C15.6526469,10.4599975 15.6338475,10.4767265 15.6158628,10.4927303 L15.5357179,10.5640486 C15.4703272,10.6222375 15.389251,10.6943844 15.2325987,10.833784 L14.9848302,11.0542646 C14.8941308,11.1349749 14.788015,11.2294037 14.6629242,11.3407177 C14.732994,11.5398741 14.768988,11.7658102 14.768988,12.017469 L14.768988,13.6546397 C14.768988,13.8713999 14.7436566,14.0740468 14.6952246,14.262008 L15.5962238,14.7970072 C15.8337703,14.937813 15.9121941,15.2445281 15.7713883,15.4820746 C15.6305825,15.7196211 15.3238674,15.7980449 15.0863209,15.6572391 L14.2135699,15.1400675 C13.721193,15.6610496 12.9346265,15.9389257 11.9894282,15.9389257 C11.0528463,15.9389257 10.271161,15.666313 9.77701197,15.1549746 L8.92906765,15.6572391 C8.69152115,15.7980449 8.38480601,15.7196211 8.24400022,15.4820746 C8.10319442,15.2445281 8.18161825,14.937813 8.41916475,14.7970072 L9.28574747,14.2836417 C9.23347697,14.0896179 9.20608296,13.8797361 9.20608296,13.6546397 L9.20608296,12.017469 C9.20608296,11.8095834 9.22997377,11.6193757 9.27689968,11.4472251 C9.16632713,11.3485591 9.07067643,11.2634428 8.98787436,11.1897601 L8.74010586,10.9692794 C8.58345354,10.8298799 8.50237731,10.757733 8.43698668,10.6995441 L8.35684169,10.6282258 C8.33885709,10.6122219 8.32005765,10.5954929 8.29904651,10.5767959 C8.09275521,10.3932243 8.07433721,10.077178 8.25790875,9.87088674 C8.4414803,9.66459544 8.75752658,9.64617744 8.96381787,9.82974898 C8.99533458,9.85779462 9.02187497,9.881412 9.04815345,9.90479632 L9.10175805,9.95249721 C9.15780716,10.0023734 9.22538039,10.0625045 9.34219302,10.166452 L9.47681565,10.2862481 C9.57376701,10.3725218 9.69527086,10.4806439 9.85076912,10.6190165 C10.1947002,10.377704 10.671323,10.2545847 11.2670768,10.2545847 L12.6975513,10.2545847 C13.2436318,10.2545847 13.6924476,10.3595079 14.0309983,10.5639917 C14.2313715,10.3861376 14.3808994,10.2530778 14.4958889,10.1507526 L14.6849892,9.98247879 C14.8540677,9.83202157 14.903831,9.78773898 15.0088867,9.69425351 C15.215178,9.51068197 15.5312242,9.52909997 15.7147958,9.73539127 Z M5.44916348,1.41347715 L5.47105723,1.42673306 L12.65842,6.03464175 C13.3031965,6.40281659 13.7190139,6.87498595 13.9066082,7.3766494 C13.4170627,7.17439736 12.8895357,7.04800386 12.3374892,7.01121012 C12.2765061,6.97065964 12.210688,6.92981693 12.1406603,6.88978495 L4.94147975,2.275404 L4.82313619,2.21165889 C3.75180816,1.66811655 3.01947975,2.16163708 3.01947975,3.46737344 L3.01947975,12.5475943 C3.01947975,13.9064835 3.81269011,14.3843915 4.93079781,13.7467365 L7.016214,12.4056077 C7.04554199,12.7709336 7.11413915,13.1251795 7.21778135,13.4641212 L5.44916348,14.6014906 C3.63396452,15.6379902 2.01947975,14.6652656 2.01947975,12.5475943 L2.01947975,3.46737344 C2.01947975,1.35174305 3.63181409,0.375749692 5.44916348,1.41347715 Z M12.6975513,11.2545847 L11.2670768,11.2545847 C10.4568163,11.2545847 10.206083,11.4622058 10.206083,12.017469 L10.206083,13.6546397 C10.206083,13.8689932 10.2502928,14.0588162 10.3356837,14.2223441 C10.340599,14.2256615 10.3436748,14.2306512 10.3466752,14.235713 L10.3639902,14.2730673 C10.6210274,14.7049544 11.1834695,14.9389257 11.9894282,14.9389257 C13.1200948,14.9389257 13.768988,14.4783902 13.768988,13.6546397 L13.768988,12.017469 C13.768988,11.4698977 13.5049141,11.2545847 12.6975513,11.2545847 Z M11.9844559,7.98503017 C12.8156861,7.98503017 13.4844559,8.61078008 13.4844559,9.44643602 L13.4844559,9.69125422 C13.4844559,9.8535022 13.3501413,9.98503017 13.1844559,9.98503017 L10.7844559,9.98503017 C10.6187704,9.98503017 10.4844559,9.8535022 10.4844559,9.69125422 L10.4844559,9.44643602 C10.4844559,8.61078008 11.1532256,7.98503017 11.9844559,7.98503017 Z" id="形状结合" fill="#57965C" fill-rule="nonzero"></path>
        <g id="编组备份-2" transform="translate(8.1314, 7.985)"></g>
    </g>
</svg>