<?xml version="1.0" encoding="UTF-8"?>
<svg width="14px" height="14px" viewBox="0 0 14 14" version="1.1" xmlns="http://www.w3.org/2000/svg" xmlns:xlink="http://www.w3.org/1999/xlink">
    <title>ICON / editor / disabled_breakpoint_dark</title>
    <g id="ICON-/-editor-/-disabled_breakpoint_dark" stroke="none" stroke-width="1" fill="none" fill-rule="evenodd">
        <path d="M7,13 C10.3137085,13 13,10.3137085 13,7 C13,3.6862915 10.3137085,1 7,1 C3.6862915,1 1,3.6862915 1,7 C1,10.3137085 3.6862915,13 7,13 Z" id="椭圆形" fill="#855353"></path>
        <path d="M7,1 C10.3137085,1 13,3.6862915 13,7 C13,10.3137085 10.3137085,13 7,13 C3.6862915,13 1,10.3137085 1,7 C1,3.6862915 3.6862915,1 7,1 Z M7,2.3 C4.40426168,2.3 2.3,4.40426168 2.3,7 C2.3,9.59573832 4.40426168,11.7 7,11.7 C9.59573832,11.7 11.7,9.59573832 11.7,7 C11.7,4.40426168 9.59573832,2.3 7,2.3 Z" id="椭圆形" fill="#DB5C5C" fill-rule="nonzero"></path>
    </g>
</svg>