<?xml version="1.0" encoding="UTF-8"?>
<svg width="96px" height="96px" viewBox="0 0 96 96" version="1.1" xmlns="http://www.w3.org/2000/svg" xmlns:xlink="http://www.w3.org/1999/xlink">
    <title>plugin/find</title>
    <defs>
        <linearGradient x1="50%" y1="-12.372462%" x2="50%" y2="123.071194%" id="linearGradient-1">
            <stop stop-color="#00BFFB" offset="0%"></stop>
            <stop stop-color="#0044E5" offset="100%"></stop>
        </linearGradient>
        <path d="M18,0 L78,0 C87.9411255,-1.82615513e-15 96,8.0588745 96,18 L96,78 C96,87.9411255 87.9411255,96 78,96 L18,96 C8.0588745,96 1.21743675e-15,87.9411255 0,78 L0,18 C-1.21743675e-15,8.0588745 8.0588745,1.82615513e-15 18,0 Z" id="path-2"></path>
        <filter x="-1.0%" y="-1.0%" width="102.1%" height="102.1%" filterUnits="objectBoundingBox" id="filter-3">
            <feGaussianBlur stdDeviation="0.5" in="SourceAlpha" result="shadowBlurInner1"></feGaussianBlur>
            <feOffset dx="0" dy="-1" in="shadowBlurInner1" result="shadowOffsetInner1"></feOffset>
            <feComposite in="shadowOffsetInner1" in2="SourceAlpha" operator="arithmetic" k2="-1" k3="1" result="shadowInnerInner1"></feComposite>
            <feColorMatrix values="0 0 0 0 0.0508760199   0 0 0 0 0.196849812   0 0 0 0 0.523748868  0 0 0 1 0" type="matrix" in="shadowInnerInner1"></feColorMatrix>
        </filter>
        <linearGradient x1="25.6866455%" y1="-17.171568%" x2="25.6866455%" y2="113.16286%" id="linearGradient-4">
            <stop stop-color="#00659D" offset="0.0682910839%"></stop>
            <stop stop-color="#00439F" offset="100%"></stop>
        </linearGradient>
        <path d="M56,16 C70.3594035,16 82,27.5619653 82,41.8243722 C82,56.0867792 70.3594035,67.6487444 56,67.6487444 C52.9556565,67.6487444 50.0335191,67.1290523 47.3186083,66.1741142 L45.3441884,70.0250758 C45.9412982,70.6742222 46.1036938,71.6479161 45.6780904,72.4775817 L40.7046212,82.1726117 C39.3979415,84.719792 36.2597275,85.7325717 33.6952152,84.4347364 C31.1307209,83.1368653 30.1110535,80.0198498 31.4177154,77.4726605 L36.3911949,67.7776357 C36.9342677,66.7189949 38.2310685,66.2918032 39.3014992,66.8123625 L41.2202214,63.0733424 C34.440824,58.4125894 30,50.6335827 30,41.8243722 C30,27.5619653 41.6405965,16 56,16 Z M56,21.4866836 C44.6914162,21.4866836 35.5239977,30.592177 35.5239977,41.8243722 C35.5239977,53.0565675 44.6914162,62.1620608 56,62.1620608 C67.3085838,62.1620608 76.4760023,53.0565675 76.4760023,41.8243722 C76.4760023,30.592177 67.3085838,21.4866836 56,21.4866836 Z" id="path-5"></path>
        <filter x="-13.5%" y="-7.2%" width="126.9%" height="120.3%" filterUnits="objectBoundingBox" id="filter-6">
            <feOffset dx="0" dy="2" in="SourceAlpha" result="shadowOffsetOuter1"></feOffset>
            <feGaussianBlur stdDeviation="2" in="shadowOffsetOuter1" result="shadowBlurOuter1"></feGaussianBlur>
            <feColorMatrix values="0 0 0 0 0.017905346   0 0 0 0 0.283282544   0 0 0 0 0.678525178  0 0 0 1 0" type="matrix" in="shadowBlurOuter1"></feColorMatrix>
        </filter>
        <filter x="-11.5%" y="-5.8%" width="123.1%" height="117.4%" filterUnits="objectBoundingBox" id="filter-7">
            <feGaussianBlur stdDeviation="1.5" in="SourceAlpha" result="shadowBlurInner1"></feGaussianBlur>
            <feOffset dx="0" dy="-1" in="shadowBlurInner1" result="shadowOffsetInner1"></feOffset>
            <feComposite in="shadowOffsetInner1" in2="SourceAlpha" operator="arithmetic" k2="-1" k3="1" result="shadowInnerInner1"></feComposite>
            <feColorMatrix values="0 0 0 0 0   0 0 0 0 0.356862745   0 0 0 0 0.91372549  0 0 0 0.7421875 0" type="matrix" in="shadowInnerInner1"></feColorMatrix>
        </filter>
    </defs>
    <g id="plugin/find" stroke="none" stroke-width="1" fill="none" fill-rule="evenodd">
        <g id="矩形">
            <use fill="url(#linearGradient-1)" fill-rule="evenodd" xlink:href="#path-2"></use>
            <use fill="black" fill-opacity="1" filter="url(#filter-3)" xlink:href="#path-2"></use>
        </g>
        <path d="M16,74 L80,74 C82.209139,74 84,75.790861 84,78 C84,80.209139 82.209139,82 80,82 L16,82 C13.790861,82 12,80.209139 12,78 C12,75.790861 13.790861,74 16,74 Z M16,54 L34,54 C36.209139,54 38,55.790861 38,58 C38,60.209139 36.209139,62 34,62 L16,62 C13.790861,62 12,60.209139 12,58 C12,55.790861 13.790861,54 16,54 Z M16,34 L28,34 C30.209139,34 32,35.790861 32,38 C32,40.209139 30.209139,42 28,42 L16,42 C13.790861,42 12,40.209139 12,38 C12,35.790861 13.790861,34 16,34 Z M16,14 L80,14 C82.209139,14 84,15.790861 84,18 C84,20.209139 82.209139,22 80,22 L16,22 C13.790861,22 12,20.209139 12,18 C12,15.790861 13.790861,14 16,14 Z" id="形状结合" fill-opacity="0.5" fill="url(#linearGradient-4)" fill-rule="nonzero"></path>
        <g id="形状结合" fill-rule="nonzero" transform="translate(56, 50.5) scale(-1, 1) rotate(11) translate(-56, -50.5)">
            <use fill="black" fill-opacity="1" filter="url(#filter-6)" xlink:href="#path-5"></use>
            <use fill="#FFFFFF" xlink:href="#path-5"></use>
            <use fill="black" fill-opacity="1" filter="url(#filter-7)" xlink:href="#path-5"></use>
        </g>
    </g>
</svg>