<?xml version="1.0" encoding="UTF-8"?>
<svg width="22px" height="22px" viewBox="0 0 22 22" version="1.1" xmlns="http://www.w3.org/2000/svg" xmlns:xlink="http://www.w3.org/1999/xlink">
    <title>ICON / sidebar / Git_22px</title>
    <g id="ICON-/-sidebar-/-Git_22px" stroke="none" stroke-width="1" fill="none" fill-rule="evenodd">
        <path d="M5,1 C6.65685425,1 8,2.34314575 8,4 C8,5.30588222 7.16562257,6.41688515 6.00090072,6.82897577 L6,14.007 L10.699522,14.0074051 C13.0703628,14.0074051 15.0223321,12.2140033 15.2728315,9.90979824 C13.9668459,9.58563754 13,8.40572826 13,7 C13,5.34314575 14.3431458,4 16,4 C17.6568542,4 19,5.34314575 19,7 C19,8.4237041 18.0082687,9.61577695 16.6779461,9.92307873 C16.4164727,12.995311 13.8396848,15.4074051 10.699522,15.4074051 L6.50878837,15.4064503 C7.40064169,15.9264037 8,16.893208 8,18 C8,19.6568542 6.65685425,21 5,21 C3.34314575,21 2,19.6568542 2,18 C2,16.4443904 3.18401113,15.1653213 4.70001525,15.0148111 L4.70001525,6.98518894 C3.18401113,6.83467868 2,5.55560965 2,4 C2,2.34314575 3.34314575,1 5,1 Z" id="形状结合" fill="#000000"></path>
    </g>
</svg>