<?xml version="1.0" encoding="UTF-8"?>
<svg width="22px" height="22px" viewBox="0 0 22 22" version="1.1" xmlns="http://www.w3.org/2000/svg" xmlns:xlink="http://www.w3.org/1999/xlink">
    <title>ICON / sidebar /svn_22px</title>
    <g id="ICON-/-sidebar-/svn_22px" stroke="none" stroke-width="1" fill="none" fill-rule="evenodd">
        <path d="M18,2 C19.1045695,2 20,2.8954305 20,4 L20,18 C20,19.1045695 19.1045695,20 18,20 L4,20 C2.8954305,20 2,19.1045695 2,18 L2,4 C2,2.8954305 2.8954305,2 4,2 L18,2 Z M14.7224189,6.30331647 C13.3413331,6.40701912 9.42478215,7.10102914 9.37005988,8.98894911 C9.32592902,10.5114652 10.7291006,10.9341174 12.2169542,11.3028809 L12.5749673,11.390885 L12.9320462,11.480033 C13.0504517,11.5102967 13.1680039,11.5412866 13.284005,11.5735382 C15.0820224,12.06812 16.1894968,13.7552823 14.5491317,15.4464332 C12.9139782,17.1375841 9.84562248,18.1320658 6.03851602,17.9858186 C4.80076401,17.9360759 3.91715756,17.7055033 3.29859167,17.3801268 L3.3,18 C3.3,18.3865993 3.61340068,18.7 4,18.7 L18,18.7 C18.3865993,18.7 18.7,18.3865993 18.7,18 L18.7006412,7.7415013 C18.5842957,7.78817937 18.4584189,7.83355592 18.3223624,7.87746944 C16.7718981,8.37736936 16.6989351,8.47176538 16.554312,8.36939229 C16.2455221,8.15666893 17.0911114,7.74717641 17.0911114,7.74717641 C19.1106237,6.46152951 16.0500854,6.20892045 14.7224189,6.30331647 Z M18,3.3 L4,3.3 C3.61340068,3.3 3.3,3.61340068 3.3,4 L3.2994703,13.8510235 C4.03722078,13.5910239 4.82420283,13.5571837 4.82420286,13.5571837 C4.82420292,13.5571837 4.43984409,14.7564117 6.23525564,15.1020872 C9.62282467,15.7562116 12.8097453,14.5011437 12.9139782,13.4601286 C13.0182111,12.4177841 10.2143463,12.2156969 9.21240759,11.971065 C8.20916598,11.721115 5.8287473,11.6214009 5.67109507,9.73348096 C5.51213989,7.84556099 7.36357666,6.82847734 8.84107791,6.25678321 C10.9093309,5.45598849 14.72864,5.00044342 16.6795804,5.00000032 L16.9451853,5.00304482 C17.6002419,5.01771778 18.2054481,5.06948695 18.7010985,5.18277673 L18.7,4 C18.7,3.61340068 18.3865993,3.3 18,3.3 Z" id="形状结合" fill="#000000"></path>
    </g>
</svg>