<?xml version="1.0" encoding="UTF-8"?>
<svg width="20px" height="20px" viewBox="0 0 20 20" version="1.1" xmlns="http://www.w3.org/2000/svg" xmlns:xlink="http://www.w3.org/1999/xlink">
    <title>ICON / sidebar /svn</title>
    <g id="ICON-/-sidebar-/svn" stroke="none" stroke-width="1" fill="none" fill-rule="evenodd" fill-opacity="1">
        <path d="M1,2.66666663 C1,1.74619207 1.74619207,1 2.66666663,1 L17.3333334,1 C18.2538079,1 19,1.74619207 19,2.66666663 L19,17.3333334 C19,18.2538079 18.2538079,19 17.3333334,19 L2.66666663,19 C1.74619207,19 1,18.2538079 1,17.3333334 L1.00039623,14.4900427 C1.02120661,15.5445807 1.86809889,16.8584061 5.03851602,16.9858186 C8.84562248,17.1320658 11.9139782,16.1375841 13.5491317,14.4464332 C15.1894968,12.7552823 14.0820224,11.06812 12.284005,10.5735382 C12.1680039,10.5412866 12.0504517,10.5102967 11.9320462,10.480033 L11.5749673,10.390885 L11.2169542,10.3028809 C9.7291006,9.93411738 8.32592902,9.51146522 8.37005988,7.98894911 C8.42478215,6.10102914 12.3413331,5.40701912 13.7224189,5.30331647 C15.0500854,5.20892045 18.1106237,5.46152951 16.0911114,6.74717641 C16.0911114,6.74717641 15.2455221,7.15666893 15.554312,7.36939229 C15.6989351,7.47176538 15.7718981,7.37736936 17.3223624,6.87746944 C18.8011666,6.40017133 19.0773837,5.75003551 18.9835741,5.13446725 C18.8519801,4.29686901 17.5477661,4.03894189 15.9451853,4.00304482 L15.6795804,4.00000032 C13.72864,4.00044342 9.90933091,4.45598849 7.84107791,5.25678321 C6.36357666,5.82847734 4.51213989,6.84556099 4.67109507,8.73348096 C4.8287473,10.6214009 7.20916598,10.721115 8.21240759,10.971065 C9.21434625,11.2156969 12.0182111,11.4177841 11.9139782,12.4601286 C11.8097453,13.5011437 8.62282467,14.7562116 5.23525564,14.1020872 C3.43984409,13.7564117 3.82420292,12.5571837 3.82420286,12.5571837 C3.8242028,12.5571837 1.41251425,12.6608863 1.07506028,13.9 C1.03225034,14.0530849 1.0049158,14.2222868 1.00060062,14.4003225 L1,2.66666663 Z" id="形状结合" fill="#000000" fill-rule="nonzero"></path>
    </g>
</svg>