<?xml version="1.0" encoding="UTF-8"?>
<svg width="96px" height="96px" viewBox="0 0 96 96" version="1.1" xmlns="http://www.w3.org/2000/svg" xmlns:xlink="http://www.w3.org/1999/xlink">
    <title>plugin/java</title>
    <defs>
        <linearGradient x1="41.7889913%" y1="0%" x2="41.7889913%" y2="108.274269%" id="linearGradient-1">
            <stop stop-color="#FF8080" offset="0%"></stop>
            <stop stop-color="#EE1F1F" offset="100%"></stop>
        </linearGradient>
        <linearGradient x1="50%" y1="0%" x2="50%" y2="100%" id="linearGradient-2">
            <stop stop-color="#FF0000" stop-opacity="0.0149881856" offset="0%"></stop>
            <stop stop-color="#FF0000" stop-opacity="0" offset="100%"></stop>
        </linearGradient>
        <path d="M18,0 L78,0 C87.9411255,-1.82615513e-15 96,8.0588745 96,18 L96,78 C96,87.9411255 87.9411255,96 78,96 L18,96 C8.0588745,96 1.21743675e-15,87.9411255 0,78 L0,18 C-1.21743675e-15,8.0588745 8.0588745,1.82615513e-15 18,0 Z" id="path-3"></path>
        <filter x="-1.0%" y="-1.0%" width="102.1%" height="102.1%" filterUnits="objectBoundingBox" id="filter-4">
            <feGaussianBlur stdDeviation="0.5" in="SourceAlpha" result="shadowBlurInner1"></feGaussianBlur>
            <feOffset dx="0" dy="-1" in="shadowBlurInner1" result="shadowOffsetInner1"></feOffset>
            <feComposite in="shadowOffsetInner1" in2="SourceAlpha" operator="arithmetic" k2="-1" k3="1" result="shadowInnerInner1"></feComposite>
            <feColorMatrix values="0 0 0 0 0.792324785   0 0 0 0 0.0499317101   0 0 0 0 0.0499317101  0 0 0 1 0" type="matrix" in="shadowInnerInner1"></feColorMatrix>
        </filter>
        <linearGradient x1="58.0886523%" y1="4.56779798%" x2="15.2250926%" y2="110.505199%" id="linearGradient-5">
            <stop stop-color="#FFFEFE" offset="0%"></stop>
            <stop stop-color="#FCEDED" offset="100%"></stop>
        </linearGradient>
        <path d="M38.7465076,66.9069277 C27.9060575,69.9567755 45.3421692,76.2572539 59.1457811,70.3020306 C56.8847181,69.4169946 55.2630563,68.3960179 55.2630563,68.3960179 C49.1079716,69.5677237 46.2526947,69.6598676 40.6652763,69.0171357 C36.0539052,68.4853178 38.7465076,66.9069277 38.7465076,66.9069277 L38.7465076,66.9069277 Z M57.4930531,60.9573923 C49.3344733,62.5380576 44.6219955,62.4874353 38.6533087,61.8674551 C34.0379836,61.3868282 37.0593242,59.1344228 37.0593242,59.1344228 C25.1202504,63.1250481 43.7058215,67.6531792 60.3923877,62.7382714 C58.6187834,62.1091905 57.4930531,60.9573923 57.4930531,60.9573923 L57.4930531,60.9573923 Z M63.8865011,26.5029845 C63.887066,26.5029845 39.7502321,32.5713968 51.2775303,45.948182 C54.6801393,49.8927353 50.3850797,53.4391362 50.3850797,53.4391362 C50.3850797,53.4391362 59.020951,48.9508204 55.0557593,43.32777 C51.3509597,38.0863772 48.5109335,35.4824601 63.8865011,26.5029845 Z M69.5337927,72.656818 C69.5337927,72.656818 71.5271206,74.3119947 67.3376865,75.5912017 C59.3722828,78.0210693 34.1780645,78.7536698 27.1802353,75.6884647 C24.6666822,74.5861511 29.3825548,73.0578145 30.8663951,72.735311 C32.4134977,72.3980189 33.2969108,72.4594482 33.2969108,72.4594482 C30.4998125,70.4760801 15.2146197,76.3556544 25.5348446,78.0421145 C53.67585,82.6356564 76.8321179,75.9734281 69.5337927,72.656818 L69.5337927,72.656818 Z M59.862001,55.4037342 C61.2147979,54.4743326 63.0832956,53.6672207 63.0832956,53.6672207 C63.0832956,53.6672207 57.7602234,54.6256305 52.4569206,55.0744053 C45.9646252,55.6227181 39.0006866,55.730788 35.5048786,55.2598305 C27.2288118,54.1455724 40.0422555,51.0803673 40.0422555,51.0803673 C40.0422555,51.0803673 35.0648666,50.7413689 28.9464967,53.7218245 C21.7097325,57.2454738 46.8469086,58.8517346 59.862001,55.4037342 Z M63.0302005,64.0180472 C62.9691975,64.182996 62.7658543,64.3684213 62.7658543,64.3684213 C80.4301623,59.692405 73.9356075,47.8854781 65.4895231,50.8738968 C64.7484502,51.137815 64.3598388,51.7515385 64.3598388,51.7515385 C64.3598388,51.7515385 64.828093,51.5615629 65.8724861,51.3420103 C70.1421277,50.4461673 76.259368,57.0975886 63.0302005,64.0180472 Z M48.1025527,50.9518209 C45.4963711,45.019918 36.6588511,39.830285 48.1065066,30.7262445 C62.380632,19.3806057 55.0563241,12 55.0563241,12 C58.0104485,23.7216051 44.634422,27.2623181 39.8061515,34.5621591 C36.5182054,39.536221 41.4199054,44.8811334 48.1025527,50.9518209 L48.1025527,50.9518209 Z M63.5080569,80.3855261 C52.670431,82.4399929 39.3023123,82.2005326 31.3758827,80.8826479 C31.3758827,80.8826479 32.9992389,82.2363663 41.3430869,82.7772849 C54.0384786,83.594635 73.5390883,82.3222535 73.9999997,76.2726112 C74.0005643,76.2726112 73.1131973,78.5659694 63.5080569,80.3855261 Z" id="path-6"></path>
        <filter x="-5.8%" y="-4.2%" width="111.5%" height="108.5%" filterUnits="objectBoundingBox" id="filter-7">
            <feGaussianBlur stdDeviation="1" in="SourceGraphic"></feGaussianBlur>
        </filter>
        <filter x="-9.6%" y="-7.0%" width="119.2%" height="114.1%" filterUnits="objectBoundingBox" id="filter-8">
            <feGaussianBlur stdDeviation="1.5" in="SourceAlpha" result="shadowBlurInner1"></feGaussianBlur>
            <feOffset dx="0" dy="1" in="shadowBlurInner1" result="shadowOffsetInner1"></feOffset>
            <feComposite in="shadowOffsetInner1" in2="SourceAlpha" operator="arithmetic" k2="-1" k3="1" result="shadowInnerInner1"></feComposite>
            <feColorMatrix values="0 0 0 0 0.386254352   0 0 0 0 0.0176544109   0 0 0 0 0.0176544109  0 0 0 0.5 0" type="matrix" in="shadowInnerInner1"></feColorMatrix>
        </filter>
        <radialGradient cx="67.4819359%" cy="14.6659744%" fx="67.4819359%" fy="14.6659744%" r="220.788495%" gradientTransform="translate(0.6748, 0.1467), scale(1, 0.7324), rotate(105.3177), translate(-0.6748, -0.1467)" id="radialGradient-9">
            <stop stop-color="#FF774D" offset="0%"></stop>
            <stop stop-color="#C80E2E" offset="100%"></stop>
        </radialGradient>
        <path d="M38.7465076,66.9069277 C27.9060575,69.9567755 45.3421692,76.2572539 59.1457811,70.3020306 C56.8847181,69.4169946 55.2630563,68.3960179 55.2630563,68.3960179 C49.1079716,69.5677237 46.2526947,69.6598676 40.6652763,69.0171357 C36.0539052,68.4853178 38.7465076,66.9069277 38.7465076,66.9069277 L38.7465076,66.9069277 Z M57.4930531,60.9573923 C49.3344733,62.5380576 44.6219955,62.4874353 38.6533087,61.8674551 C34.0379836,61.3868282 37.0593242,59.1344228 37.0593242,59.1344228 C25.1202504,63.1250481 43.7058215,67.6531792 60.3923877,62.7382714 C58.6187834,62.1091905 57.4930531,60.9573923 57.4930531,60.9573923 L57.4930531,60.9573923 Z M63.8865011,26.5029845 C63.887066,26.5029845 39.7502321,32.5713968 51.2775303,45.948182 C54.6801393,49.8927353 50.3850797,53.4391362 50.3850797,53.4391362 C50.3850797,53.4391362 59.020951,48.9508204 55.0557593,43.32777 C51.3509597,38.0863772 48.5109335,35.4824601 63.8865011,26.5029845 Z M69.5337927,72.656818 C69.5337927,72.656818 71.5271206,74.3119947 67.3376865,75.5912017 C59.3722828,78.0210693 34.1780645,78.7536698 27.1802353,75.6884647 C24.6666822,74.5861511 29.3825548,73.0578145 30.8663951,72.735311 C32.4134977,72.3980189 33.2969108,72.4594482 33.2969108,72.4594482 C30.4998125,70.4760801 15.2146197,76.3556544 25.5348446,78.0421145 C53.67585,82.6356564 76.8321179,75.9734281 69.5337927,72.656818 L69.5337927,72.656818 Z M59.862001,55.4037342 C61.2147979,54.4743326 63.0832956,53.6672207 63.0832956,53.6672207 C63.0832956,53.6672207 57.7602234,54.6256305 52.4569206,55.0744053 C45.9646252,55.6227181 39.0006866,55.730788 35.5048786,55.2598305 C27.2288118,54.1455724 40.0422555,51.0803673 40.0422555,51.0803673 C40.0422555,51.0803673 35.0648666,50.7413689 28.9464967,53.7218245 C21.7097325,57.2454738 46.8469086,58.8517346 59.862001,55.4037342 Z M63.0302005,64.0180472 C62.9691975,64.182996 62.7658543,64.3684213 62.7658543,64.3684213 C80.4301623,59.692405 73.9356075,47.8854781 65.4895231,50.8738968 C64.7484502,51.137815 64.3598388,51.7515385 64.3598388,51.7515385 C64.3598388,51.7515385 64.828093,51.5615629 65.8724861,51.3420103 C70.1421277,50.4461673 76.259368,57.0975886 63.0302005,64.0180472 Z M48.1025527,50.9518209 C45.4963711,45.019918 36.6588511,39.830285 48.1065066,30.7262445 C62.380632,19.3806057 55.0563241,12 55.0563241,12 C58.0104485,23.7216051 44.634422,27.2623181 39.8061515,34.5621591 C36.5182054,39.536221 41.4199054,44.8811334 48.1025527,50.9518209 L48.1025527,50.9518209 Z M63.5080569,80.3855261 C52.670431,82.4399929 39.3023123,82.2005326 31.3758827,80.8826479 C31.3758827,80.8826479 32.9992389,82.2363663 41.3430869,82.7772849 C54.0384786,83.594635 73.5390883,82.3222535 73.9999997,76.2726112 C74.0005643,76.2726112 73.1131973,78.5659694 63.5080569,80.3855261 Z" id="path-10"></path>
        <filter x="-3.8%" y="-2.8%" width="107.7%" height="105.6%" filterUnits="objectBoundingBox" id="filter-11">
            <feGaussianBlur stdDeviation="1.5" in="SourceAlpha" result="shadowBlurInner1"></feGaussianBlur>
            <feOffset dx="0" dy="1" in="shadowBlurInner1" result="shadowOffsetInner1"></feOffset>
            <feComposite in="shadowOffsetInner1" in2="SourceAlpha" operator="arithmetic" k2="-1" k3="1" result="shadowInnerInner1"></feComposite>
            <feColorMatrix values="0 0 0 0 0.632928378   0 0 0 0 0.0215081678   0 0 0 0 0.0215081678  0 0 0 0.5 0" type="matrix" in="shadowInnerInner1"></feColorMatrix>
        </filter>
    </defs>
    <g id="plugin/java" stroke="none" stroke-width="1" fill="none" fill-rule="evenodd">
        <g id="矩形">
            <use fill="url(#linearGradient-1)" fill-rule="evenodd" xlink:href="#path-3"></use>
            <use fill="black" fill-opacity="1" filter="url(#filter-4)" xlink:href="#path-3"></use>
            <path stroke="url(#linearGradient-2)" stroke-width="1" d="M78,0.5 C82.8324916,0.5 87.2074916,2.45875422 90.3743687,5.62563133 C93.5412458,8.79250844 95.5,13.1675084 95.5,18 L95.5,78 C95.5,82.8324916 93.5412458,87.2074916 90.3743687,90.3743687 C87.2074916,93.5412458 82.8324916,95.5 78,95.5 L18,95.5 C13.1675084,95.5 8.79250844,93.5412458 5.62563133,90.3743687 C2.45875422,87.2074916 0.5,82.8324916 0.5,78 L0.5,18 C0.5,13.1675084 2.45875422,8.79250844 5.62563133,5.62563133 C8.79250844,2.45875422 13.1675084,0.5 18,0.5 Z" stroke-linejoin="square"></path>
        </g>
        <path d="M20,5 L76,5 C84.2842712,5 91,11.7157288 91,20 L91,76 C91,84.2842712 84.2842712,91 76,91 L20,91 C11.7157288,91 5,84.2842712 5,76 L5,20 C5,11.7157288 11.7157288,5 20,5 Z" id="矩形" fill="url(#linearGradient-5)"></path>
        <g id="形状" opacity="0.365904309" filter="url(#filter-7)">
            <use fill="#FF0214" fill-rule="evenodd" xlink:href="#path-6"></use>
            <use fill="black" fill-opacity="1" filter="url(#filter-8)" xlink:href="#path-6"></use>
        </g>
        <g id="形状">
            <use fill="url(#radialGradient-9)" fill-rule="evenodd" xlink:href="#path-10"></use>
            <use fill="black" fill-opacity="1" filter="url(#filter-11)" xlink:href="#path-10"></use>
        </g>
    </g>
</svg>