<?xml version="1.0" encoding="UTF-8"?>
<svg width="20px" height="20px" viewBox="0 0 20 20" version="1.1" xmlns="http://www.w3.org/2000/svg" xmlns:xlink="http://www.w3.org/1999/xlink">
    <title>ICON / sidebar / edit</title>
    <g id="ICON-/-sidebar-/-edit" stroke="none" stroke-width="1" fill="none" fill-rule="evenodd">
        <path d="M19.0016398,10.2980314 L19,17.3333334 C19,18.2538079 18.2538079,19 17.3333334,19 L12.3512968,19.0022793 C12.4754571,18.9279655 12.5854534,18.8302075 12.6739468,18.7126289 L13.21,17.999 L17.1666667,18 C17.5915011,18 17.942085,17.6820957 17.9935072,17.2711982 L18,17.1666667 L18,11.635 L18.9458422,10.3793431 C18.9658227,10.3527957 18.9844179,10.3256642 19.0016398,10.2980314 Z M17.3333334,2 C18.2538079,2 19,2.74619207 19,3.66666663 L19.001574,9.14601915 C18.9314234,9.03324289 18.8393866,8.93087364 18.7263665,8.84522309 L18,8.295 L18,6 L2,6 L2,17.1666667 C2,17.626904 2.37309603,18 2.83333331,18 L8.333,17.999 L8.33333333,18.0555619 C8.33333333,18.4554756 8.55017082,18.8060427 8.8755381,19.0017328 L2.66666663,19 C1.74619207,19 1,18.2538079 1,17.3333334 L1,3.66666663 C1,2.74619207 1.74619207,2 2.66666663,2 L17.3333334,2 Z M15.7029054,7.88491473 L18.0786263,9.74155857 C18.2599385,9.8832642 18.2920459,10.1451219 18.1503403,10.326434 L12.0256019,18.0474077 C11.9465639,18.1470444 11.8263486,18.2051282 11.6991697,18.2051282 L9.58671468,18.2051282 C9.35659604,18.2051282 9.17004801,18.0185802 9.17004801,17.7884615 L9.17004801,16.0568829 C9.17004801,15.9668715 9.19919633,15.8792803 9.253131,15.807217 L15.1196558,7.96883256 C15.2575425,7.78459938 15.5186722,7.74702809 15.7029054,7.88491473 Z M3.44454312,7.71509455 C3.60422177,7.40907077 3.98174819,7.29043459 4.28777198,7.45011325 L7.94131282,9.35647642 C8.4094529,9.60074494 8.38248567,10.2795179 7.89644241,10.4858773 L4.24290157,12.0370613 C3.92517446,12.1719587 3.55824979,12.023746 3.42335237,11.7060188 C3.28845496,11.3882917 3.43666772,11.0213671 3.75439483,10.8864696 L6.19031487,9.85171833 L3.70952443,8.55832341 C3.42900262,8.41195131 3.30593847,8.08252658 3.41036906,7.79292269 L3.44454312,7.71509455 Z" id="形状结合" fill="#626E88" fill-rule="nonzero"></path>
    </g>
</svg>