<?xml version="1.0" encoding="UTF-8"?>
<svg width="14px" height="14px" viewBox="0 0 14 14" version="1.1" xmlns="http://www.w3.org/2000/svg" xmlns:xlink="http://www.w3.org/1999/xlink">
    <title>ICON / editor / arrow</title>
    <g id="ICON-/-editor-/-arrow" stroke="none" stroke-width="1" fill="none" fill-rule="evenodd">
        <path d="M6.9539658,1.51975652 L13.1880959,6.36854143 C13.5368532,6.63979806 13.5996799,7.14241865 13.3284233,7.49117595 C13.2876525,7.54359539 13.2405134,7.59073435 13.1880938,7.631505 L6.95396416,12.4802554 C6.51801639,12.8193247 5.88974093,12.7407892 5.55067163,12.3048414 C5.38410983,12.0906898 5.3117077,11.8180537 5.35007547,11.5494803 L5.714,8.99928247 L2.80000001,9 C2.35817221,9 2,8.64182779 2,8.19999999 L2,5.80000001 C2,5.35817221 2.35817221,5 2.80000001,5 L5.714,4.99928247 L5.35007428,2.45052856 C5.27196969,1.90379451 5.65186893,1.39726271 6.19860297,1.31915813 C6.46717725,1.28079051 6.73981406,1.35319347 6.9539658,1.51975652 Z" id="形状结合" fill="#F3B517"></path>
    </g>
</svg>