<?xml version="1.0" encoding="UTF-8"?>
<svg width="16px" height="16px" viewBox="0 0 16 16" version="1.1" xmlns="http://www.w3.org/2000/svg" xmlns:xlink="http://www.w3.org/1999/xlink">
    <title>ICON / completions /class</title>
    <g id="ICON-/-completions-/class" stroke="none" stroke-width="1" fill="none" fill-rule="evenodd">
        <circle id="椭圆形" fill="#F3B517" cx="8" cy="8" r="7"></circle>
        <path d="M8,1 C11.8659932,1 15,4.13400675 15,8 C15,11.8659932 11.8659932,15 8,15 C4.13400675,15 1,11.8659932 1,8 C1,4.13400675 4.13400675,1 8,1 Z M8,2 C4.6862915,2 2,4.6862915 2,8 C2,11.3137085 4.6862915,14 8,14 C11.3137085,14 14,11.3137085 14,8 C14,4.6862915 11.3137085,2 8,2 Z" id="椭圆形" fill-opacity="0.1" fill="#000000" fill-rule="nonzero"></path>
        <path d="M8.042,4.68001938 C7.052,4.68001938 6.278,5.01301938 5.738,5.69701938 C5.243,6.30901938 5,7.09201938 5,8.04601938 C5,9.00001938 5.234,9.77401938 5.72,10.3680194 C6.251,11.0250194 7.016,11.3580194 8.015,11.3580194 C8.699,11.3580194 9.293,11.1600194 9.788,10.7730194 C10.319,10.3590194 10.652,9.77401938 10.796,9.02701938 L10.085,9.02701938 C9.959,9.58501938 9.698,10.0080194 9.32,10.2960194 C8.96,10.5660194 8.528,10.7010194 8.015,10.7010194 C7.259,10.7010194 6.692,10.4490194 6.296,9.95401938 C5.918,9.48601938 5.738,8.84701938 5.738,8.04601938 C5.738,7.24501938 5.927,6.60601938 6.305,6.12001938 C6.71,5.59801938 7.286,5.33701938 8.033,5.33701938 C8.537,5.33701938 8.96,5.45401938 9.311,5.69701938 C9.671,5.94901938 9.905,6.30901938 9.995,6.77701938 L10.706,6.77701938 C10.616,6.13801938 10.328,5.62501938 9.842,5.24701938 C9.356,4.86901938 8.753,4.68001938 8.042,4.68001938 Z" id="路径" fill="#FFFFFF" fill-rule="nonzero"></path>
    </g>
</svg>