<?xml version="1.0" encoding="UTF-8"?>
<svg width="16px" height="16px" viewBox="0 0 16 16" version="1.1" xmlns="http://www.w3.org/2000/svg" xmlns:xlink="http://www.w3.org/1999/xlink">
    <title>ICON / completions /func_priv</title>
    <g id="ICON-/-completions-/func_priv" stroke="none" stroke-width="1" fill="none" fill-rule="evenodd">
        <g id="编组" transform="translate(1, 1)">
            <path d="M7,0 C10.8659932,0 14,3.13400675 14,7 C14,7.01711507 13.9999386,7.0342158 13.9998159,7.05130198 C13.364996,6.40234924 12.4794849,6 11.5,6 L11.3079648,6.00517886 C9.59142844,6.09799806 8.20377389,7.42766271 8.02053752,9.11863644 L8.009,9.263 L7.91097906,9.32221236 C7.36261235,9.67887693 7,10.2970921 7,11 L7,14 C3.13400675,14 0,10.8659932 0,7 C0,3.13400675 3.13400675,0 7,0 Z" id="形状结合" fill="#F9625C"></path>
            <path d="M7,0 C10.8659932,0 14,3.13400675 14,7 L14.0002739,7.05078819 C13.7034208,6.74778519 13.351929,6.49851619 12.9617418,6.31892455 C12.6239415,3.3262081 10.0836282,1 7,1 C3.6862915,1 1,3.6862915 1,7 C1,10.3137085 3.6862915,13 7,13 L7,14 C3.13400675,14 0,10.8659932 0,7 C0,3.13400675 3.13400675,0 7,0 Z" id="形状结合" fill-opacity="0.1" fill="#000000" fill-rule="nonzero"></path>
            <path d="M9.302,3.9 L9.402,4 L9.402,4.639 L9.302,4.739 L5.837,4.738 L5.837,6.698 L9.113,6.699 L9.213,6.799 L9.21182886,6.8514775 C8.97986679,7.05205701 8.7745291,7.28259699 8.60183098,7.53708224 L5.837,7.538 L5.838,10.426 L5.738,10.526 L5,10.526 L4.9,10.426 L4.9,4 L5,3.9 L9.302,3.9 Z" id="形状结合" fill="#FFFFFF" fill-rule="nonzero"></path>
            <path d="M11.5,7 C12.8807119,7 14,8.11928813 14,9.5 L14,10 C14.5522847,10 15,10.4477153 15,11 L15,14 C15,14.5522847 14.5522847,15 14,15 L9,15 C8.44771525,15 8,14.5522847 8,14 L8,11 C8,10.4477153 8.44771525,10 9,10 L9,10 L9,9.5 C9,8.11928813 10.1192881,7 11.5,7 Z M11.5,8 C10.6715729,8 10,8.67157288 10,9.5 L10,10 L13,10 L13,9.5 C13,8.72030388 12.4051119,8.07955132 11.64446,8.00686658 L11.5,8 Z" id="形状结合" fill="#4D4D4D" fill-rule="nonzero"></path>
            <rect id="矩形" fill-opacity="0.9" fill="#FFFFFF" x="9" y="11" width="5" height="3" rx="0.5"></rect>
        </g>
    </g>
</svg>