<?xml version="1.0" encoding="UTF-8"?>
<svg width="16px" height="16px" viewBox="0 0 16 16" version="1.1" xmlns="http://www.w3.org/2000/svg" xmlns:xlink="http://www.w3.org/1999/xlink">
    <title>ICON / completions /func</title>
    <g id="ICON-/-completions-/func" stroke="none" stroke-width="1" fill="none" fill-rule="evenodd">
        <circle id="椭圆形" fill="#F9625C" cx="8" cy="8" r="7"></circle>
        <polygon id="路径" fill="#FFFFFF" fill-rule="nonzero" points="10.302 4.9 10.402 5 10.402 5.639 10.302 5.739 6.837 5.738 6.837 7.698 10.113 7.699 10.213 7.799 10.213 8.438 10.113 8.538 6.837 8.538 6.838 11.426 6.738 11.526 6 11.526 5.9 11.426 5.9 5 6 4.9"></polygon>
        <path d="M8,1 C11.8659932,1 15,4.13400675 15,8 C15,11.8659932 11.8659932,15 8,15 C4.13400675,15 1,11.8659932 1,8 C1,4.13400675 4.13400675,1 8,1 Z M8,2 C4.6862915,2 2,4.6862915 2,8 C2,11.3137085 4.6862915,14 8,14 C11.3137085,14 14,11.3137085 14,8 C14,4.6862915 11.3137085,2 8,2 Z" id="椭圆形" fill-opacity="0.1" fill="#000000" fill-rule="nonzero"></path>
    </g>
</svg>