<?xml version="1.0" encoding="UTF-8"?>
<svg width="16px" height="16px" viewBox="0 0 16 16" version="1.1" xmlns="http://www.w3.org/2000/svg" xmlns:xlink="http://www.w3.org/1999/xlink">
    <title>ICON / completions /macro</title>
    <g id="ICON-/-completions-/macro" stroke="none" stroke-width="1" fill="none" fill-rule="evenodd">
        <rect id="矩形" fill="#105BC8" fill-rule="nonzero" x="1" y="4" width="14" height="8" rx="1"></rect>
        <g id="abc" transform="translate(3.2921, 5.632)" fill="#FFFFFF" fill-rule="nonzero">
            <path d="M1.53,1.182 C1.134,1.182 0.822,1.248 0.594,1.392 C0.324,1.548 0.156,1.8 0.09,2.142 L0.768,2.196 C0.804,2.034 0.894,1.914 1.026,1.836 C1.14,1.764 1.29,1.734 1.482,1.734 C1.926,1.734 2.148,1.932 2.148,2.34 L2.148,2.46 L1.47,2.478 C1.014,2.49 0.66,2.586 0.408,2.766 C0.132,2.952 0,3.222 0,3.57 C0,3.828 0.096,4.038 0.288,4.206 C0.474,4.368 0.726,4.452 1.05,4.452 C1.32,4.452 1.554,4.404 1.752,4.314 C1.926,4.23 2.076,4.116 2.196,3.96 L2.196,4.368 L2.832,4.368 L2.832,2.388 C2.832,2.01 2.736,1.722 2.544,1.524 C2.328,1.296 1.986,1.182 1.53,1.182 Z M2.148,2.952 L2.148,3.108 C2.148,3.348 2.052,3.546 1.872,3.702 C1.692,3.852 1.47,3.93 1.206,3.93 C1.056,3.93 0.936,3.888 0.84,3.816 C0.744,3.744 0.702,3.654 0.702,3.546 C0.702,3.174 0.972,2.982 1.518,2.97 L2.148,2.952 Z" id="形状"></path>
            <path d="M3.38057144,0 L3.38057144,4.368 L4.01657144,4.368 L4.01657144,4.038 C4.23257144,4.314 4.54457144,4.452 4.95257144,4.452 C5.40857144,4.452 5.76857144,4.29 6.03257144,3.966 C6.27257144,3.666 6.39257144,3.276 6.39257144,2.802 C6.39257144,2.346 6.27257144,1.968 6.03857144,1.668 C5.78057144,1.344 5.43257144,1.182 4.98857144,1.182 C4.62857144,1.182 4.31657144,1.35 4.06457144,1.692 L4.06457144,0 L3.38057144,0 Z M4.82657144,1.734 C5.13257144,1.734 5.36057144,1.836 5.50457144,2.04 C5.62457144,2.214 5.69057144,2.466 5.69057144,2.802 C5.69057144,3.138 5.63057144,3.396 5.51657144,3.576 C5.37257144,3.792 5.15057144,3.9 4.85057144,3.9 C4.58057144,3.9 4.37657144,3.792 4.23257144,3.582 C4.10057144,3.39 4.04057144,3.138 4.04057144,2.838 L4.04057144,2.79 C4.04057144,2.46 4.11857144,2.196 4.28057144,2.004 C4.42457144,1.824 4.60457144,1.734 4.82657144,1.734 Z" id="形状"></path>
            <path d="M8.21314288,1.182 C7.72714288,1.182 7.34914288,1.344 7.07914288,1.668 C6.82714288,1.962 6.70114288,2.346 6.70114288,2.814 C6.70114288,3.294 6.82714288,3.684 7.08514288,3.984 C7.34914288,4.296 7.72114288,4.452 8.20114288,4.452 C8.60314288,4.452 8.92714288,4.35 9.16714288,4.152 C9.41314288,3.948 9.57514288,3.636 9.64714288,3.216 L8.96914288,3.216 C8.91514288,3.666 8.66314288,3.894 8.20714288,3.894 C7.94314288,3.894 7.74514288,3.798 7.61314288,3.612 C7.46914288,3.42 7.40314288,3.15 7.40314288,2.808 C7.40314288,2.472 7.47514288,2.208 7.61914288,2.022 C7.76314288,1.83 7.96114288,1.74 8.21314288,1.74 C8.41714288,1.74 8.58514288,1.788 8.71114288,1.884 C8.83114288,1.98 8.91514288,2.124 8.95714288,2.322 L9.63514288,2.322 C9.57514288,1.932 9.41914288,1.644 9.17314288,1.452 C8.93314288,1.272 8.61514288,1.182 8.21314288,1.182 Z" id="路径"></path>
        </g>
    </g>
</svg>