<?xml version="1.0" encoding="UTF-8"?>
<svg width="16px" height="16px" viewBox="0 0 16 16" version="1.1" xmlns="http://www.w3.org/2000/svg" xmlns:xlink="http://www.w3.org/1999/xlink">
    <title>ICON / completions /namespace</title>
    <g id="ICON-/-completions-/namespace" stroke="none" stroke-width="1" fill="none" fill-rule="evenodd">
        <path d="M4,2 L6,2 C6.55228475,2 7,2.44771525 7,3 L7,6 C7,6.55228475 6.55228475,7 6,7 L4,7 C3.44771525,7 3,6.55228475 3,6 L3,3 C3,2.44771525 3.44771525,2 4,2 Z M4,9 L6,9 C6.55228475,9 7,9.44771525 7,10 L7,13 C7,13.5522847 6.55228475,14 6,14 L4,14 C3.44771525,14 3,13.5522847 3,13 L3,10 C3,9.44771525 3.44771525,9 4,9 Z M10,2 L12,2 C12.5522847,2 13,2.44771525 13,3 L13,6 C13,6.55228475 12.5522847,7 12,7 L10,7 C9.44771525,7 9,6.55228475 9,6 L9,3 C9,2.44771525 9.44771525,2 10,2 Z M10,9 L12,9 C12.5522847,9 13,9.44771525 13,10 L13,13 C13,13.5522847 12.5522847,14 12,14 L10,14 C9.44771525,14 9,13.5522847 9,13 L9,10 C9,9.44771525 9.44771525,9 10,9 Z" id="形状结合" fill="#105BC8" fill-rule="nonzero"></path>
    </g>
</svg>