<?xml version="1.0" encoding="UTF-8"?>
<svg width="16px" height="16px" viewBox="0 0 16 16" version="1.1" xmlns="http://www.w3.org/2000/svg" xmlns:xlink="http://www.w3.org/1999/xlink">
    <title>ICON / completions /slot</title>
    <g id="ICON-/-completions-/slot" stroke="none" stroke-width="1" fill="none" fill-rule="evenodd">
        <g id="编组" transform="translate(1, 1)">
            <circle id="椭圆形" fill="#E66D17" cx="7" cy="7" r="7"></circle>
            <path d="M6.84903562,3.61433384 C7.5816028,3.61433384 8.16539526,3.79414643 8.58626604,4.1569487 C9.02797863,4.53170989 9.27887289,5.09167704 9.34302473,5.82829927 L9.24340181,5.93697535 L8.53037365,5.93697535 L8.43165276,5.85291856 C8.35620356,5.38573463 8.19123924,5.04762003 7.93653569,4.8274858 C7.67930186,4.60349823 7.31006655,4.49357912 6.81382435,4.49357912 C6.35521948,4.49357912 6.01692487,4.56828633 5.77560369,4.72345562 C5.50513683,4.89396081 5.37333139,5.14531276 5.37333139,5.49735271 C5.37333139,5.80067942 5.53044855,6.0418193 5.86146111,6.23218379 C6.00874322,6.31987377 6.3867917,6.45878366 6.9938832,6.64737202 C7.82945924,6.91411231 8.38111979,7.13343348 8.6555253,7.3098849 C9.20560636,7.66959252 9.48424688,8.1739818 9.48424688,8.81810743 C9.48424688,9.43578088 9.24855363,9.93591307 8.78404528,10.2943266 C8.32194943,10.6409857 7.70911841,10.8143338 6.9458666,10.8143338 C6.1852079,10.8143338 5.58224549,10.6380992 5.13936659,10.2821163 C4.62247977,9.85676446 4.33882625,9.21691254 4.28444865,8.36219247 L4.38424688,8.25584327 L5.09727505,8.25584327 L5.1967247,8.34536627 C5.25569515,8.90512453 5.43819983,9.31653782 5.73397283,9.57189024 C6.00952755,9.80455989 6.41337399,9.92565459 6.9458666,9.92565459 C7.44048767,9.92565459 7.84334363,9.82567271 8.14107836,9.6306783 C8.4302221,9.44131038 8.57121872,9.18946736 8.57121872,8.86527724 C8.57121872,8.47995644 8.38211499,8.18129649 7.99213333,7.95882286 C7.83419513,7.85726562 7.41570029,7.70406508 6.68617066,7.47927644 C5.95662351,7.24290189 5.44545533,7.04778864 5.22042102,6.92183106 C4.70860227,6.60269496 4.45150041,6.13757067 4.45150041,5.53508856 C4.45150041,4.91331612 4.69956824,4.42211952 5.18797935,4.08638251 C5.61939207,3.77159497 6.17654605,3.61433384 6.84903562,3.61433384 Z" id="路径" fill="#FFFFFF" fill-rule="nonzero"></path>
            <path d="M7,0 C10.8659932,0 14,3.13400675 14,7 C14,10.8659932 10.8659932,14 7,14 C3.13400675,14 0,10.8659932 0,7 C0,3.13400675 3.13400675,0 7,0 Z M7,1 C3.6862915,1 1,3.6862915 1,7 C1,10.3137085 3.6862915,13 7,13 C10.3137085,13 13,10.3137085 13,7 C13,3.6862915 10.3137085,1 7,1 Z" id="椭圆形" fill-opacity="0.1" fill="#000000" fill-rule="nonzero"></path>
        </g>
    </g>
</svg>