<?xml version="1.0" encoding="UTF-8"?>
<svg width="16px" height="16px" viewBox="0 0 16 16" version="1.1" xmlns="http://www.w3.org/2000/svg" xmlns:xlink="http://www.w3.org/1999/xlink">
    <title>ICON / completions /slot_priv</title>
    <g id="ICON-/-completions-/slot_priv" stroke="none" stroke-width="1" fill="none" fill-rule="evenodd">
        <g id="编组" transform="translate(1, 1)">
            <path d="M7,0 C10.8659932,0 14,3.13400675 14,7 C14,7.01711507 13.9999386,7.0342158 13.9998159,7.05130198 C13.364996,6.40234924 12.4794849,6 11.5,6 L11.3079648,6.00517886 C9.59142844,6.09799806 8.20377389,7.42766271 8.02053752,9.11863644 L8.009,9.263 L7.91097906,9.32221236 C7.36261235,9.67887693 7,10.2970921 7,11 L7,14 C3.13400675,14 0,10.8659932 0,7 C0,3.13400675 3.13400675,0 7,0 Z" id="形状结合" fill="#E66D17"></path>
            <path d="M7,0 C10.8659932,0 14,3.13400675 14,7 L14.0002739,7.05078819 C13.7034208,6.74778519 13.351929,6.49851619 12.9617418,6.31892455 C12.6239415,3.3262081 10.0836282,1 7,1 C3.6862915,1 1,3.6862915 1,7 C1,10.3137085 3.6862915,13 7,13 L7,14 C3.13400675,14 0,10.8659932 0,7 C0,3.13400675 3.13400675,0 7,0 Z" id="形状结合" fill-opacity="0.1" fill="#000000" fill-rule="nonzero"></path>
            <path d="M11.5,7 C12.8807119,7 14,8.11928813 14,9.5 L14,10 C14.5522847,10 15,10.4477153 15,11 L15,14 C15,14.5522847 14.5522847,15 14,15 L9,15 C8.44771525,15 8,14.5522847 8,14 L8,11 C8,10.4477153 8.44771525,10 9,10 L9,10 L9,9.5 C9,8.11928813 10.1192881,7 11.5,7 Z M11.5,8 C10.6715729,8 10,8.67157288 10,9.5 L10,10 L13,10 L13,9.5 C13,8.72030388 12.4051119,8.07955132 11.64446,8.00686658 L11.5,8 Z" id="形状结合" fill="#4D4D4D" fill-rule="nonzero"></path>
            <rect id="矩形" fill-opacity="0.9" fill="#FFFFFF" x="9" y="11" width="5" height="3" rx="0.5"></rect>
            <path d="M5.09727505,8.25584327 L5.1967247,8.34536627 C5.25569515,8.90512453 5.43819983,9.31653782 5.73397283,9.57189024 C6.00952755,9.80455989 6.41337399,9.92565459 6.9458666,9.92565459 C7.08030207,9.92565459 7.20795863,9.91826869 7.32856811,9.90359665 C7.15304924,10.1680786 7.03986493,10.4780852 7.00872794,10.8119146 L6.9458666,10.8143338 C6.1852079,10.8143338 5.58224549,10.6380992 5.13936659,10.2821163 C4.62247977,9.85676446 4.33882625,9.21691254 4.28444865,8.36219247 L4.38424688,8.25584327 L5.09727505,8.25584327 Z M6.84903562,3.61433384 C7.5816028,3.61433384 8.16539526,3.79414643 8.58626604,4.1569487 C9.02797863,4.53170989 9.27887289,5.09167704 9.34302473,5.82829927 L9.24340181,5.93697535 L8.53037365,5.93697535 L8.43165276,5.85291856 C8.35620356,5.38573463 8.19123924,5.04762003 7.93653569,4.8274858 C7.67930186,4.60349823 7.31006655,4.49357912 6.81382435,4.49357912 C6.35521948,4.49357912 6.01692487,4.56828633 5.77560369,4.72345562 C5.50513683,4.89396081 5.37333139,5.14531276 5.37333139,5.49735271 C5.37333139,5.80067942 5.53044855,6.0418193 5.86146111,6.23218379 C6.00874322,6.31987377 6.3867917,6.45878366 6.9938832,6.64737202 C7.82945924,6.91411231 8.38111979,7.13343348 8.6555253,7.3098849 L8.72849638,7.36225412 C8.54102354,7.60494764 8.38471878,7.87294493 8.26557928,8.16024877 C8.19129187,8.08684316 8.09929675,8.01995659 7.99213333,7.95882286 C7.83419513,7.85726562 7.41570029,7.70406508 6.68617066,7.47927644 C5.95662351,7.24290189 5.44545533,7.04778864 5.22042102,6.92183106 C4.70860227,6.60269496 4.45150041,6.13757067 4.45150041,5.53508856 C4.45150041,4.91331612 4.69956824,4.42211952 5.18797935,4.08638251 C5.61939207,3.77159497 6.17654605,3.61433384 6.84903562,3.61433384 Z" id="形状结合" fill="#FFFFFF" fill-rule="nonzero"></path>
        </g>
    </g>
</svg>