<?xml version="1.0" encoding="UTF-8"?>
<svg width="16px" height="16px" viewBox="0 0 16 16" version="1.1" xmlns="http://www.w3.org/2000/svg" xmlns:xlink="http://www.w3.org/1999/xlink">
    <title>ICON / completions /slot_prot</title>
    <g id="ICON-/-completions-/slot_prot" stroke="none" stroke-width="1" fill="none" fill-rule="evenodd">
        <g id="编组" transform="translate(1, 1)">
            <path d="M7,0 C10.5212616,0 13.4352593,2.6000059 13.9269445,5.98496904 C13.2976906,5.37505716 12.4396084,5 11.493927,5 C9.56093038,5 7.993927,6.56700338 7.993927,8.5 L7.99912794,8.69185725 C8.0681922,9.96305242 8.81944968,11.0706828 9.91492922,11.624624 L9.993927,11.662 L9.99371252,13.3293518 C9.08605656,13.7594216 8.07112333,14 7,14 C3.13400675,14 0,10.8659932 0,7 C0,3.13400675 3.13400675,0 7,0 Z" id="形状结合" fill="#E66D17"></path>
            <path d="M7,0 C10.5212616,0 13.4352593,2.6000059 13.9269445,5.98496904 C13.5883031,5.65627163 13.182858,5.39600908 12.7331777,5.22572351 C11.9769548,2.77833607 9.69615373,1 7,1 C3.6862915,1 1,3.6862915 1,7 C1,10.3137085 3.6862915,13 7,13 C8.09036237,13 9.11279353,12.7091519 9.99394357,12.2008056 L9.99371252,13.3293518 C9.08605656,13.7594216 8.07112333,14 7,14 C3.13400675,14 0,10.8659932 0,7 C0,3.13400675 3.13400675,0 7,0 Z" id="形状结合" fill-opacity="0.1" fill="#000000" fill-rule="nonzero"></path>
            <path d="M11.493927,6 C12.8746389,6 13.993927,7.11928813 13.993927,8.5 C13.993927,9.70932545 13.1352652,10.7180997 11.9943615,10.9499027 L11.993927,12 L13.793927,12 C13.904384,12 13.993927,12.0895431 13.993927,12.2 L13.993927,12.8 C13.993927,12.9104569 13.904384,13 13.793927,13 L12.993927,13 L12.993927,13.8 C12.993927,13.9104569 12.904384,14 12.793927,14 L11.992927,14 L11.993927,14.8 C11.993927,14.9104569 11.904384,15 11.793927,15 L11.193927,15 C11.0834701,15 10.993927,14.9104569 10.993927,14.8 L10.994501,10.9501074 C9.8530949,10.7186941 8.993927,9.70968176 8.993927,8.5 C8.993927,7.11928813 10.1132151,6 11.493927,6 Z" id="形状结合" fill="#4D4D4D" fill-rule="nonzero" transform="translate(11.4939, 10.5) scale(-1, -1) rotate(180) translate(-11.4939, -10.5)"></path>
            <path d="M11.493927,7 C12.3223541,7 12.993927,7.67157288 12.993927,8.5 C12.993927,9.32842712 12.3223541,10 11.493927,10 C10.6654999,10 9.993927,9.32842712 9.993927,8.5 C9.993927,7.67157288 10.6654999,7 11.493927,7 Z" id="路径" fill-opacity="0.9" fill="#FFFFFF" transform="translate(11.4939, 8.5) scale(-1, -1) rotate(180) translate(-11.4939, -8.5)"></path>
            <path d="M5.09727505,8.25584327 L5.1967247,8.34536627 C5.25569515,8.90512453 5.43819983,9.31653782 5.73397283,9.57189024 C6.00952755,9.80455989 6.41337399,9.92565459 6.9458666,9.92565459 C7.44048767,9.92565459 7.84334363,9.82567271 8.14107836,9.6306783 L8.17322249,9.60748859 C8.271162,9.90107872 8.40705494,10.1780993 8.57549471,10.4323093 C8.14342967,10.6870592 7.59986864,10.8143338 6.9458666,10.8143338 C6.1852079,10.8143338 5.58224549,10.6380992 5.13936659,10.2821163 C4.62247977,9.85676446 4.33882625,9.21691254 4.28444865,8.36219247 L4.38424688,8.25584327 L5.09727505,8.25584327 Z M6.84903562,3.61433384 C7.5816028,3.61433384 8.16539526,3.79414643 8.58626604,4.1569487 C9.01133737,4.51759098 9.25969746,5.04974704 9.3349787,5.7457965 C9.25663558,5.80656165 9.18258757,5.86989747 9.11130715,5.93616991 L8.53037365,5.93697535 L8.43165276,5.85291856 C8.35620356,5.38573463 8.19123924,5.04762003 7.93653569,4.8274858 C7.67930186,4.60349823 7.31006655,4.49357912 6.81382435,4.49357912 C6.35521948,4.49357912 6.01692487,4.56828633 5.77560369,4.72345562 C5.50513683,4.89396081 5.37333139,5.14531276 5.37333139,5.49735271 C5.37333139,5.80067942 5.53044855,6.0418193 5.86146111,6.23218379 C6.00874322,6.31987377 6.3867917,6.45878366 6.9938832,6.64737202 C7.54678564,6.82387464 7.97537577,6.97961481 8.2815833,7.1159106 C8.16059409,7.38871746 8.07649246,7.68036983 8.03158244,7.98478142 C8.02074531,7.97540689 8.0065771,7.96706262 7.99213333,7.95882286 C7.83419513,7.85726562 7.41570029,7.70406508 6.68617066,7.47927644 C5.95662351,7.24290189 5.44545533,7.04778864 5.22042102,6.92183106 C4.70860227,6.60269496 4.45150041,6.13757067 4.45150041,5.53508856 C4.45150041,4.91331612 4.69956824,4.42211952 5.18797935,4.08638251 C5.61939207,3.77159497 6.17654605,3.61433384 6.84903562,3.61433384 Z" id="形状结合" fill="#FFFFFF" fill-rule="nonzero"></path>
        </g>
    </g>
</svg>