<?xml version="1.0" encoding="UTF-8"?>
<svg width="16px" height="16px" viewBox="0 0 16 16" version="1.1" xmlns="http://www.w3.org/2000/svg" xmlns:xlink="http://www.w3.org/1999/xlink">
    <title>ICON / completions /snippet</title>
    <g id="ICON-/-completions-/snippet" stroke="none" stroke-width="1" fill="none" fill-rule="evenodd">
        <path d="M2,3 L4,3 C4.55228475,3 5,3.44771525 5,4 L5,6 C5,6.55228475 4.55228475,7 4,7 L2,7 C1.44771525,7 1,6.55228475 1,6 L1,4 C1,3.44771525 1.44771525,3 2,3 Z M8.5,3 L13.5,3 C13.7761424,3 14,3.22385763 14,3.5 C14,3.77614237 13.7761424,4 13.5,4 L8.5,4 C8.22385763,4 8,3.77614237 8,3.5 C8,3.22385763 8.22385763,3 8.5,3 Z M8.5,9 L13.5,9 C13.7761424,9 14,9.22385763 14,9.5 C14,9.77614237 13.7761424,10 13.5,10 L8.5,10 C8.22385763,10 8,9.77614237 8,9.5 C8,9.22385763 8.22385763,9 8.5,9 Z M8.5,6 L11.5,6 C11.7761424,6 12,6.22385763 12,6.5 C12,6.77614237 11.7761424,7 11.5,7 L8.5,7 C8.22385763,7 8,6.77614237 8,6.5 C8,6.22385763 8.22385763,6 8.5,6 Z M8.5,12 L11.5,12 C11.7761424,12 12,12.2238576 12,12.5 C12,12.7761424 11.7761424,13 11.5,13 L8.5,13 C8.22385763,13 8,12.7761424 8,12.5 C8,12.2238576 8.22385763,12 8.5,12 Z M2,9 L4,9 C4.55228475,9 5,9.44771525 5,10 L5,12 C5,12.5522847 4.55228475,13 4,13 L2,13 C1.44771525,13 1,12.5522847 1,12 L1,10 C1,9.44771525 1.44771525,9 2,9 Z M6.5,2 C6.77614237,2 7,2.22385763 7,2.5 L7,13.5 C7,13.7761424 6.77614237,14 6.5,14 C6.22385763,14 6,13.7761424 6,13.5 L6,2.5 C6,2.22385763 6.22385763,2 6.5,2 Z" id="形状结合" fill="#834DF0"></path>
    </g>
</svg>