<?xml version="1.0" encoding="UTF-8"?>
<svg width="16px" height="16px" viewBox="0 0 16 16" version="1.1" xmlns="http://www.w3.org/2000/svg" xmlns:xlink="http://www.w3.org/1999/xlink">
    <title>ICON / completions /var_priv</title>
    <g id="ICON-/-completions-/var_priv" stroke="none" stroke-width="1" fill="none" fill-rule="evenodd">
        <g id="编组" transform="translate(1, 1)">
            <path d="M7,0 C10.8659932,0 14,3.13400675 14,7 C14,7.01711507 13.9999386,7.0342158 13.9998159,7.05130198 C13.364996,6.40234924 12.4794849,6 11.5,6 L11.3079648,6.00517886 C9.59142844,6.09799806 8.20377389,7.42766271 8.02053752,9.11863644 L8.009,9.263 L7.91097906,9.32221236 C7.36261235,9.67887693 7,10.2970921 7,11 L7,14 C3.13400675,14 0,10.8659932 0,7 C0,3.13400675 3.13400675,0 7,0 Z" id="形状结合" fill="#29A249"></path>
            <path d="M4.93164062,3.9 L5.02583432,3.96642103 L6.983,9.458 L8.94193912,3.96642103 L9.03613281,3.9 L9.92382812,3.9 L10.0177964,4.03420471 L8.86607718,7.19505234 C8.40554347,7.72088873 8.0999449,8.38583544 8.02053752,9.11863644 L8.009,9.263 L7.91097906,9.32221236 C7.45760719,9.61709109 7.13120674,10.0907514 7.03172596,10.6432451 L6.38183594,10.643457 L6.28786766,10.5776617 L3.90603172,4.03420471 L4,3.9 L4.93164062,3.9 Z" id="形状结合" fill="#FFFFFF" fill-rule="nonzero"></path>
            <path d="M7,0 C10.8659932,0 14,3.13400675 14,7 L14.0002739,7.05078819 C13.7034208,6.74778519 13.351929,6.49851619 12.9617418,6.31892455 C12.6239415,3.3262081 10.0836282,1 7,1 C3.6862915,1 1,3.6862915 1,7 C1,10.3137085 3.6862915,13 7,13 L7,14 C3.13400675,14 0,10.8659932 0,7 C0,3.13400675 3.13400675,0 7,0 Z" id="形状结合" fill-opacity="0.1" fill="#000000" fill-rule="nonzero"></path>
            <path d="M11.5,7 C12.8807119,7 14,8.11928813 14,9.5 L14,10 C14.5522847,10 15,10.4477153 15,11 L15,14 C15,14.5522847 14.5522847,15 14,15 L9,15 C8.44771525,15 8,14.5522847 8,14 L8,11 C8,10.4477153 8.44771525,10 9,10 L9,10 L9,9.5 C9,8.11928813 10.1192881,7 11.5,7 Z M11.5,8 C10.6715729,8 10,8.67157288 10,9.5 L10,10 L13,10 L13,9.5 C13,8.72030388 12.4051119,8.07955132 11.64446,8.00686658 L11.5,8 Z" id="形状结合" fill="#4D4D4D" fill-rule="nonzero"></path>
            <rect id="矩形" fill-opacity="0.9" fill="#FFFFFF" x="9" y="11" width="5" height="3" rx="0.5"></rect>
        </g>
    </g>
</svg>