<?xml version="1.0" encoding="UTF-8"?>
<svg width="96px" height="96px" viewBox="0 0 96 96" version="1.1" xmlns="http://www.w3.org/2000/svg" xmlns:xlink="http://www.w3.org/1999/xlink">
    <title>plugin/performance</title>
    <defs>
        <linearGradient x1="50%" y1="0%" x2="50%" y2="100%" id="linearGradient-1">
            <stop stop-color="#81EF5A" offset="4.24787615%"></stop>
            <stop stop-color="#00BF88" offset="100%"></stop>
        </linearGradient>
        <path d="M18,0 L78,0 C87.9411255,-1.82615513e-15 96,8.0588745 96,18 L96,78 C96,87.9411255 87.9411255,96 78,96 L18,96 C8.0588745,96 1.21743675e-15,87.9411255 0,78 L0,18 C-1.21743675e-15,8.0588745 8.0588745,1.82615513e-15 18,0 Z" id="path-2"></path>
        <filter x="-1.0%" y="-1.0%" width="102.1%" height="102.1%" filterUnits="objectBoundingBox" id="filter-3">
            <feGaussianBlur stdDeviation="0.5" in="SourceAlpha" result="shadowBlurInner1"></feGaussianBlur>
            <feOffset dx="0" dy="-1" in="shadowBlurInner1" result="shadowOffsetInner1"></feOffset>
            <feComposite in="shadowOffsetInner1" in2="SourceAlpha" operator="arithmetic" k2="-1" k3="1" result="shadowInnerInner1"></feComposite>
            <feColorMatrix values="0 0 0 0 0   0 0 0 0 0   0 0 0 0 0  0 0 0 0.160868185 0" type="matrix" in="shadowInnerInner1"></feColorMatrix>
        </filter>
        <filter x="-9.2%" y="-9.3%" width="118.4%" height="125.9%" filterUnits="objectBoundingBox" id="filter-4">
            <feOffset dx="0" dy="2" in="SourceAlpha" result="shadowOffsetOuter1"></feOffset>
            <feGaussianBlur stdDeviation="2" in="shadowOffsetOuter1" result="shadowBlurOuter1"></feGaussianBlur>
            <feColorMatrix values="0 0 0 0 0   0 0 0 0 0   0 0 0 0 0  0 0 0 0.30174074 0" type="matrix" in="shadowBlurOuter1" result="shadowMatrixOuter1"></feColorMatrix>
            <feMerge>
                <feMergeNode in="shadowMatrixOuter1"></feMergeNode>
                <feMergeNode in="SourceGraphic"></feMergeNode>
            </feMerge>
        </filter>
        <path d="M70.962406,0 C73.7030672,0 75.924812,2.23857625 75.924812,5 C75.924812,7.76142375 73.7030672,10 70.962406,10 L71.0089668,10.000817 C68.555441,15.1836991 67.1906878,18.0666338 66.0020124,20.5776181 L65.8186152,20.9650304 C65.7578705,21.0933487 65.6974714,21.2209372 65.637291,21.3480637 L65.4572791,21.7283248 C65.4273442,21.7915599 65.3974323,21.8547465 65.3675275,21.917918 L64.9808913,22.7346568 C64.0526875,24.6954151 63.0666001,26.7784479 61.5595609,29.9619508 C60.7988674,31.5688565 60.3760312,32.4620652 60.045504,33.160278 C60.6003846,33.9658998 60.924812,34.9447758 60.924812,36 C60.924812,38.7614237 58.7030672,41 55.962406,41 C53.3116466,41 51.1463179,38.9058787 51.0071119,36.2700001 C51.0001388,36.2645823 50.9919793,36.2595659 50.9837993,36.2545368 L50.4767728,35.9428163 C50.3881195,35.8883121 50.2973509,35.8325074 50.2044059,35.7753647 C48.1957295,34.540428 46.9131226,33.7518797 45.6817141,32.9948082 L45.293763,32.7562953 C43.9505015,31.9304565 42.5835041,31.0900248 40.309705,29.6920903 C39.4266269,30.5043904 38.2519592,31 36.962406,31 C36.4870521,31 36.0273088,30.9326566 35.5920612,30.8069219 L24.4893149,46.9487154 C24.7691165,47.5746175 24.924812,48.2689887 24.924812,49 C24.924812,51.7614237 22.7030672,54 19.962406,54 C17.2217449,54 15,51.7614237 15,49 C15,48.2167455 15.178745,47.4755555 15.4973769,46.8155822 L5.79078284,31.9306465 C5.52140088,31.9762575 5.24465528,32 4.96240602,32 C2.22174485,32 0,29.7614237 0,27 C0,24.2385763 2.22174485,22 4.96240602,22 C7.70306718,22 9.92481203,24.2385763 9.92481203,27 C9.92481203,28.0038468 9.63120735,28.9385991 9.12580192,29.7218332 L18.5680724,44.2000743 C19.010404,44.0698432 19.47831,44 19.962406,44 C20.4968534,44 21.0115677,44.0851278 21.4939212,44.24266 L32.5152585,28.2210724 C32.18544,27.5519366 32,26.7977883 32,26 C32,23.2385763 34.2217449,21 36.962406,21 C39.7030672,21 41.924812,23.2385763 41.924812,26 L41.9253554,25.9898975 C44.138408,27.350485 45.5304011,28.2062841 46.7920559,28.981951 L47.1414439,29.1967552 L47.6217291,29.4920352 C48.9016148,30.2789104 50.2063149,31.0810417 52.2993535,32.3678445 L52.4544331,32.4634809 C53.3523746,31.5592379 54.5925728,31 55.962406,31 C56.1860556,31 56.4062496,31.0149072 56.6220627,31.0437894 C56.8995468,30.4572189 57.2544499,29.7075136 57.7885633,28.5792408 L57.9441985,28.2504735 C59.5265896,24.9077954 60.5346314,22.7783857 61.5043832,20.7298605 L61.7808764,20.1457904 C61.8730021,19.9511818 61.9652437,19.7563287 62.0580641,19.5602529 L62.2580196,19.1378624 C63.4684843,16.58085 64.8301571,13.7044224 67.3355433,8.4119891 C66.5068892,7.51869871 66,6.31899296 66,5 C66,2.23857625 68.2217449,0 70.962406,0 Z" id="path-5"></path>
        <filter x="-2.6%" y="-3.7%" width="105.3%" height="107.4%" filterUnits="objectBoundingBox" id="filter-6">
            <feGaussianBlur stdDeviation="1.5" in="SourceAlpha" result="shadowBlurInner1"></feGaussianBlur>
            <feOffset dx="0" dy="-1" in="shadowBlurInner1" result="shadowOffsetInner1"></feOffset>
            <feComposite in="shadowOffsetInner1" in2="SourceAlpha" operator="arithmetic" k2="-1" k3="1" result="shadowInnerInner1"></feComposite>
            <feColorMatrix values="0 0 0 0 0.482352941   0 0 0 0 0.925490196   0 0 0 0 0.360784314  0 0 0 1 0" type="matrix" in="shadowInnerInner1"></feColorMatrix>
        </filter>
    </defs>
    <g id="plugin/performance" stroke="none" stroke-width="1" fill="none" fill-rule="evenodd">
        <g id="矩形" fill-rule="nonzero">
            <use fill="url(#linearGradient-1)" xlink:href="#path-2"></use>
            <use fill="black" fill-opacity="1" filter="url(#filter-3)" xlink:href="#path-2"></use>
        </g>
        <g id="编组" transform="translate(15, 18)" fill="#24B059" fill-opacity="0.5">
            <rect id="矩形备份-2" style="mix-blend-mode: multiply;" x="0" y="0" width="24" height="4" rx="2"></rect>
            <rect id="矩形备份-8" style="mix-blend-mode: multiply;" x="0" y="22" width="24" height="4" rx="2"></rect>
            <rect id="矩形备份-14" style="mix-blend-mode: multiply;" x="0" y="55" width="24" height="4" rx="2"></rect>
            <rect id="矩形备份-12" style="mix-blend-mode: multiply;" x="15" y="33" width="24" height="4" rx="2"></rect>
            <rect id="矩形备份-13" style="mix-blend-mode: multiply;" x="43" y="33" width="23" height="4" rx="2"></rect>
            <rect id="矩形备份-6" style="mix-blend-mode: multiply;" x="0" y="11" width="24" height="4" rx="2"></rect>
            <rect id="矩形备份-15" style="mix-blend-mode: multiply;" x="0" y="44" width="24" height="4" rx="2"></rect>
            <rect id="矩形备份-7" style="mix-blend-mode: multiply;" x="32" y="11" width="34" height="4" rx="2"></rect>
            <rect id="矩形备份-16" style="mix-blend-mode: multiply;" x="32" y="44" width="34" height="4" rx="2"></rect>
            <rect id="矩形备份-5" style="mix-blend-mode: multiply;" x="43" y="0" width="23" height="4" rx="2"></rect>
            <rect id="矩形备份-4" style="mix-blend-mode: multiply;" x="28" y="0" width="12" height="4" rx="2"></rect>
            <rect id="矩形备份-9" style="mix-blend-mode: multiply;" x="28" y="22" width="12" height="4" rx="2"></rect>
            <rect id="矩形备份-17" style="mix-blend-mode: multiply;" x="28" y="55" width="12" height="4" rx="2"></rect>
            <rect id="矩形备份-11" style="mix-blend-mode: multiply;" x="0" y="33" width="12" height="4" rx="2"></rect>
            <rect id="矩形备份-10" style="mix-blend-mode: multiply;" x="45" y="22" width="21" height="4" rx="2"></rect>
            <rect id="矩形备份-18" style="mix-blend-mode: multiply;" x="45" y="55" width="21" height="4" rx="2"></rect>
        </g>
        <g id="编组-2" filter="url(#filter-4)" transform="translate(8.985, 22)" fill-rule="nonzero">
            <g id="形状结合">
                <use fill="#FFFFFF" xlink:href="#path-5"></use>
                <use fill="black" fill-opacity="1" filter="url(#filter-6)" xlink:href="#path-5"></use>
            </g>
        </g>
    </g>
</svg>