<?xml version="1.0" encoding="UTF-8"?>
<svg width="40px" height="26px" viewBox="0 0 40 26" version="1.1" xmlns="http://www.w3.org/2000/svg" xmlns:xlink="http://www.w3.org/1999/xlink">
    <title>logo_new.a2d17dc1</title>
    <g id="ai" stroke="none" stroke-width="1" fill="none" fill-rule="evenodd">
        <g id="codegee登录" transform="translate(-231, -331)" fill-rule="nonzero">
            <g id="编组-4" transform="translate(101, 75)">
                <g id="编组-3" transform="translate(50, 256)">
                    <g id="Group" transform="translate(80, 0)">
                        <path d="M22.5281982,13.716802 C23.9001113,13.716802 24.5707038,15.3956587 23.6266301,16.3904096 L14.6642293,25.5341102 C14.0554006,26.1552966 13.0783452,26.1552966 12.4695165,25.5341102 L0.456651478,13.2193746 C-0.152217159,12.5981882 -0.152217159,11.6013573 0.456651478,10.980171 L10.5482851,0.686459259 C11.3710847,-0.152987805 12.7431002,-0.152987805 13.5657974,0.686459259 C14.388597,1.5259084 14.388597,2.92568364 13.5657974,3.76513278 L6.49392031,11.0116827 C5.88505064,11.632869 5.88505064,12.6296999 6.49392031,13.2508863 L12.4982987,19.3767424 C13.1071274,19.9979287 14.0841827,19.9979287 14.6931138,19.3767424 L15.4849803,18.5687738 C15.7894971,18.2581286 15.9417043,17.884668 15.9417043,17.44808 L15.9417043,15.8615745 C15.9417043,15.6432805 15.9417043,15.4271704 15.9725349,15.2088764 C16.0341962,14.3693961 16.7047887,13.7461298 17.5275883,13.7461298 L22.5260473,13.7461298 L22.5260473,13.714722 L22.5281982,13.716802 Z" id="Vector" fill="#00E7E7"></path>
                        <path d="M39.5682317,15.0239661 L29.4477862,25.3491999 C28.6249866,26.1886803 27.2530735,26.1886803 26.4302739,25.3491999 C25.6074743,24.5097196 25.6074743,23.1099964 26.4302739,22.270516 L33.5330022,15.0239661 C34.1419333,14.4027798 34.1419333,13.4059489 33.5330022,12.7847625 L27.4977727,6.65890639 C26.888944,6.03772006 25.9118886,6.03772006 25.3029575,6.65890639 L24.511091,7.46687502 C24.2375073,7.74599808 24.0543671,8.15102238 24.0543671,8.5875376 L24.0543671,10.1740951 C24.0543671,10.3923475 24.0543671,10.6084784 24.0235364,10.8267724 C23.9618751,11.6662527 23.2912826,12.289519 22.468483,12.289519 L17.4700241,12.289519 C16.0980085,12.289519 15.4274161,10.6105584 16.3715922,9.61585942 L23.1678576,2.67573232 L24.0523185,1.74185203 L25.3029575,0.465892871 C25.9118886,-0.155297624 26.888944,-0.155297624 27.4977727,0.465892871 L39.5394496,12.7511708 C40.1482782,13.4038689 40.1482782,14.3986198 39.5702802,15.0218861 L39.5682317,15.0239661 Z" id="Vector_2" fill="#00BFFF"></path>
                    </g>
                </g>
            </g>
        </g>
    </g>
</svg>