<?xml version="1.0" encoding="UTF-8"?>
<svg width="30px" height="30px" viewBox="0 0 30 30" version="1.1" xmlns="http://www.w3.org/2000/svg" xmlns:xlink="http://www.w3.org/1999/xlink">
    <title>photo</title>
    <defs>
        <linearGradient x1="50%" y1="-17.2639974%" x2="50%" y2="113.405762%" id="linearGradient-1">
            <stop stop-color="#D7D7D7" offset="0%"></stop>
            <stop stop-color="#9B9A9A" offset="100%"></stop>
        </linearGradient>
    </defs>
    <g id="photo" stroke="none" stroke-width="1" fill="none" fill-rule="evenodd">
        <path d="M15,0 C23.2842712,-1.52179594e-15 30,6.71572875 30,15 C30,23.2842712 23.2842712,30 15,30 C6.71572875,30 1.01453063e-15,23.2842712 0,15 C-1.01453063e-15,6.71572875 6.71572875,1.52179594e-15 15,0 Z M15,19 C11.0966725,19 7.66819485,21.0330735 5.71516444,24.0990074 C8.0746338,26.5063603 11.3628878,28 15,28 C18.6366094,28 21.9244571,26.5067733 24.2848949,24.0990439 C22.3325481,21.0335141 18.9037504,19 15,19 Z M15,9 C12.790861,9 11,10.790861 11,13 C11,15.209139 12.790861,17 15,17 C17.209139,17 19,15.209139 19,13 C19,10.790861 17.209139,9 15,9 Z" id="形状结合" fill="url(#linearGradient-1)"></path>
    </g>
</svg>