<?xml version="1.0" encoding="UTF-8"?>
<svg width="16px" height="16px" viewBox="0 0 16 16" version="1.1" xmlns="http://www.w3.org/2000/svg" xmlns:xlink="http://www.w3.org/1999/xlink">
    <title>ICON / completions /element_dark</title>
    <g id="ICON-/-completions-/element_dark" stroke="none" stroke-width="1" fill="none" fill-rule="evenodd">
        <g id="编组" transform="translate(1, 3)">
            <path d="M2.37759294,0 C2.80988256,0 3.17612794,0.100558659 3.47632907,0.301675978 C3.77653019,0.502793296 4.02119411,0.782122905 4.21032082,1.1396648 C4.39944754,1.4972067 4.53754005,1.9255121 4.62459838,2.42458101 C4.71165671,2.92364991 4.75518587,3.47113594 4.75518587,4.06703911 C4.75518587,5.34078212 4.55705313,6.33891993 4.16078764,7.06145251 C3.87259456,7.59031657 3.47332705,7.92178771 2.96298514,8.05586592 C2.98700123,8.2122905 3.02590043,8.55737545 3.10995674,8.67655608 C3.17600099,8.78083914 3.26305932,8.85718923 3.37113172,8.90560636 C3.47920413,8.95402349 3.60228659,8.97823206 3.74037911,8.97823206 C3.86646358,8.97823206 3.98204102,8.95588569 4.08711141,8.91119295 C4.19218181,8.86650022 4.27773913,8.81435869 4.34378338,8.75476837 L4.61108933,9.63128492 C4.45498474,9.77281192 4.28837312,9.86964618 4.11125445,9.92178771 C3.93413579,9.97392924 3.76152014,10 3.59340751,10 C3.30521442,10 3.05454648,9.94413408 2.84140368,9.83240223 C2.62826088,9.72067039 2.4466392,9.5679702 2.29653863,9.37430168 C2.128426,9.15083799 2.00234153,8.87523277 1.91828521,8.54748603 C1.87625705,8.39106145 1.84623694,8.23091248 1.82822487,8.06703911 C1.6240881,8.01489758 1.4379634,7.93668529 1.26985077,7.83240223 C0.969649644,7.63128492 0.724985725,7.35195531 0.535859014,6.99441341 C0.346732303,6.63687151 0.21014079,6.20856611 0.126084474,5.70949721 C0.042028158,5.21042831 0,4.66294227 0,4.06703911 C0,3.43389199 0.0480321805,2.86405959 0.144096542,2.3575419 C0.240160903,1.85102421 0.387259456,1.42458101 0.5853922,1.07821229 C0.783524945,0.731843575 1.03119088,0.465549348 1.32838999,0.279329609 C1.62558911,0.0931098696 1.97532342,0 2.37759294,0 Z M7.06610517,2.27373675e-13 L7.88998216,3.34542433 L7.92656051,3.34542433 L8.70780196,2.27373675e-13 L10.064312,2.27373675e-13 L10.0645803,6.01388243 C9.70904428,6.05428327 9.35323094,6.18115989 9.03960122,6.37206937 L9.06963404,2.5952381 L9.01476651,2.5952381 L8.30065574,6.08106772 L7.51008384,6.08106772 L6.70118569,2.5952381 L6.65546275,2.5952381 L6.71033028,8.33333333 L5.69337845,8.33333333 L5.69337845,2.27373675e-13 L7.06610517,2.27373675e-13 Z M2.37759294,1.06703911 C1.91128879,1.06703911 1.59486811,1.31910522 1.42833092,1.82323745 C1.26179372,2.32736968 1.17852512,3.07530357 1.17852512,4.06703911 C1.17852512,4.48852671 1.19351347,4.88108869 1.22349017,5.24472506 C1.25346686,5.60836142 1.31008951,5.92447712 1.39335811,6.19307216 C1.4766267,6.46166721 1.59653349,6.67447712 1.75307845,6.83150192 C1.90962341,6.98852671 2.11779491,7.06703911 2.37759294,7.06703911 C2.61074501,7.06703911 2.80392816,7.00712175 2.95714238,6.88728704 C3.1103566,6.76745233 3.23359412,6.58356803 3.32685495,6.33563415 C3.42011578,6.08770026 3.48506529,5.77571679 3.52170347,5.39968373 C3.55834166,5.02365068 3.57666075,4.5794358 3.57666075,4.06703911 C3.57666075,3.66208043 3.56500315,3.27778291 3.54168794,2.91414654 C3.51837273,2.55051018 3.46508083,2.23232836 3.38181223,1.95960109 C3.29854363,1.68687382 3.17697148,1.46993167 3.01709577,1.30877464 C2.85722006,1.14761762 2.64405245,1.06703911 2.37759294,1.06703911 Z M12.3060703,0 L12.306,6 L11.295,6 L11.2952461,0 L12.3060703,0 Z" id="形状结合" fill="#4CA7FF" fill-rule="nonzero"></path>
            <rect id="矩形" fill="#57965C" x="9" y="7" width="5" height="5" rx="1"></rect>
        </g>
    </g>
</svg>