<?xml version="1.0" encoding="UTF-8"?>
<svg width="16px" height="16px" viewBox="0 0 16 16" version="1.1" xmlns="http://www.w3.org/2000/svg" xmlns:xlink="http://www.w3.org/1999/xlink">
    <title>ICON / completions /enum_dark</title>
    <g id="ICON-/-completions-/enum_dark" stroke="none" stroke-width="1" fill="none" fill-rule="evenodd">
        <path d="M12,5 C12.5522847,5 13,5.44771525 13,6 L13,13 C13,13.5522847 12.5522847,14 12,14 L2,14 C1.44771525,14 1,13.5522847 1,13 L1,6 C1,5.44771525 1.44771525,5 2,5 L12,5 Z M13,3 C14.1045695,3 15,3.8954305 15,5 L15,10 C15,10.7401452 14.5979503,11.3863868 14.0003321,11.7322434 L14,6 C14,4.8954305 13.0356902,4 11.8461538,4 L3.26760632,3.99992752 C3.61342606,3.40216612 4.25974756,3 5,3 L13,3 Z M9.5,10 L4.5,10 C4.22385763,10 4,10.2238576 4,10.5 C4,10.7761424 4.22385763,11 4.5,11 L9.5,11 C9.77614237,11 10,10.7761424 10,10.5 C10,10.2238576 9.77614237,10 9.5,10 Z M9.5,8 L4.5,8 C4.22385763,8 4,8.22385763 4,8.5 C4,8.77614237 4.22385763,9 4.5,9 L9.5,9 C9.77614237,9 10,8.77614237 10,8.5 C10,8.22385763 9.77614237,8 9.5,8 Z" id="形状结合" fill="#F2C55C"></path>
    </g>
</svg>