<?xml version="1.0" encoding="UTF-8"?>
<svg width="16px" height="16px" viewBox="0 0 16 16" version="1.1" xmlns="http://www.w3.org/2000/svg" xmlns:xlink="http://www.w3.org/1999/xlink">
    <title>ICON / completions /enumerator_dark</title>
    <g id="ICON-/-completions-/enumerator_dark" stroke="none" stroke-width="1" fill="none" fill-rule="evenodd">
        <path d="M12,5 C12.5522847,5 13,5.44771525 13,6 L13,13 C13,13.5522847 12.5522847,14 12,14 L2,14 C1.44771525,14 1,13.5522847 1,13 L1,6 C1,5.44771525 1.44771525,5 2,5 L12,5 Z M13,3 C14.1045695,3 15,3.8954305 15,5 L15,10 C15,10.7401452 14.5979503,11.3863868 14.0003321,11.7322434 L14,6 C14,4.8954305 13.0356902,4 11.8461538,4 L3.26760632,3.99992752 C3.61342606,3.40216612 4.25974756,3 5,3 L13,3 Z" id="形状结合" fill="#F2C55C"></path>
        <path d="M4.88096198,7.5765523 C4.30162569,7.5765523 3.84267097,7.76737798 3.51162166,8.15636881 C3.16552465,8.53802019 3,9.00774496 3,9.57288257 C3,10.2040752 3.18057235,10.6958184 3.54171705,11.0554514 C3.88029021,11.4004055 4.33924493,11.5765523 4.91858122,11.5765523 C5.43772672,11.5765523 5.86658605,11.4297633 6.21268306,11.1435248 C6.48354158,10.9086624 6.66411393,10.607745 6.75440011,10.2554514 L5.89668145,10.2554514 C5.79134757,10.4682954 5.67848986,10.6224239 5.55058444,10.7178367 C5.38505979,10.8352679 5.17439205,10.8939835 4.91105737,10.8939835 C4.6025796,10.8939835 4.36181647,10.7985706 4.19629182,10.6150844 C4.03076716,10.4315982 3.93295714,10.1600385 3.90286175,9.80774496 L6.81459089,9.80774496 C6.81459089,9.12517615 6.65659008,8.58939633 6.34811232,8.20774496 C6.00953916,7.78205688 5.52048905,7.5765523 4.88096198,7.5765523 Z M4.90353352,8.2591211 C5.50544135,8.2591211 5.84401451,8.56003854 5.91925299,9.1765523 L3.91790945,9.1765523 C3.97057638,8.87563487 4.07591025,8.64811193 4.23391106,8.49398349 C4.39943571,8.3325156 4.6176273,8.2591211 4.90353352,8.2591211 Z M9.367325,7.5765523 C8.87075104,7.5765523 8.47951095,7.65728624 8.19360473,7.83343303 C7.85503157,8.02425872 7.64436383,8.3325156 7.5616015,8.75086422 L8.41179632,8.81691927 C8.45693941,8.61875413 8.56979712,8.47196514 8.73532178,8.3765523 C8.87827489,8.2884789 9.06637109,8.25178165 9.30713422,8.25178165 C9.86389897,8.25178165 10.1422813,8.49398349 10.1422813,8.99306606 L10.1422813,9.13985505 L9.29208652,9.1618734 C8.72027408,9.1765523 8.27636706,9.29398349 7.96036544,9.51416698 C7.61426844,9.74168991 7.44874379,10.0719651 7.44874379,10.4976532 C7.44874379,10.8132495 7.56912535,11.0701303 7.80988849,11.2756349 C8.04312777,11.4738 8.35912938,11.5765523 8.76541717,11.5765523 C9.10399033,11.5765523 9.3974204,11.5178367 9.64570738,11.407745 C9.86389897,11.3049927 10.0519952,11.1655431 10.2024721,10.9747174 L10.2024721,11.4738 L11,11.4738 L11,9.05178165 C11,8.58939633 10.8796184,8.23710276 10.6388553,7.99490092 C10.3679968,7.71600184 9.93913744,7.5765523 9.367325,7.5765523 Z M10.1422813,9.74168991 L10.1422813,9.9325156 C10.1422813,10.2260936 10.0218998,10.4682954 9.79618433,10.6591211 C9.5704689,10.8426073 9.29208652,10.9380202 8.96103722,10.9380202 C8.77294102,10.9380202 8.62246406,10.886644 8.50208249,10.7985706 C8.38170093,10.7104973 8.32903399,10.6004055 8.32903399,10.4682954 C8.32903399,10.0132495 8.66760715,9.77838716 9.35227731,9.76370826 L10.1422813,9.74168991 Z" id="形状结合" fill="#121212" fill-rule="nonzero"></path>
    </g>
</svg>