<?xml version="1.0" encoding="UTF-8"?>
<svg width="16px" height="16px" viewBox="0 0 16 16" version="1.1" xmlns="http://www.w3.org/2000/svg" xmlns:xlink="http://www.w3.org/1999/xlink">
    <title>ICON / completions /func_prot_dark</title>
    <g id="ICON-/-completions-/func_prot_dark" stroke="none" stroke-width="1" fill="none" fill-rule="evenodd">
        <g id="编组" transform="translate(1, 1)">
            <path d="M7,0 C10.5212616,0 13.4352593,2.6000059 13.9269445,5.98496904 C13.2976906,5.37505716 12.4396084,5 11.493927,5 C9.56093038,5 7.993927,6.56700338 7.993927,8.5 L7.99912794,8.69185725 C8.0681922,9.96305242 8.81944968,11.0706828 9.91492922,11.624624 L9.993927,11.662 L9.99371252,13.3293518 C9.08605656,13.7594216 8.07112333,14 7,14 C3.13400675,14 0,10.8659932 0,7 C0,3.13400675 3.13400675,0 7,0 Z" id="形状结合" fill="#DB5C5C"></path>
            <g>
                <path d="M7,0 C10.5212616,0 13.4352593,2.6000059 13.9269445,5.98496904 C13.2976906,5.37505716 12.4396084,5 11.493927,5 C9.56093038,5 7.993927,6.56700338 7.993927,8.5 L7.99912794,8.69185725 C8.0681922,9.96305242 8.81944968,11.0706828 9.91492922,11.624624 L9.993927,11.662 L9.99371252,13.3293518 C9.08605656,13.7594216 8.07112333,14 7,14 C3.13400675,14 0,10.8659932 0,7 C0,3.13400675 3.13400675,0 7,0 Z" id="形状结合" fill="#DB5C5C"></path>
                <path d="M7,0 C10.5212616,0 13.4352593,2.6000059 13.9269445,5.98496904 C13.5883031,5.65627163 13.182858,5.39600908 12.7331777,5.22572351 C11.9769548,2.77833607 9.69615373,1 7,1 C3.6862915,1 1,3.6862915 1,7 C1,10.3137085 3.6862915,13 7,13 C8.09036237,13 9.11279353,12.7091519 9.99394357,12.2008056 L9.99371252,13.3293518 C9.08605656,13.7594216 8.07112333,14 7,14 C3.13400675,14 0,10.8659932 0,7 C0,3.13400675 3.13400675,0 7,0 Z" id="形状结合" fill-opacity="0.15" fill="#FFFFFF" fill-rule="nonzero"></path>
                <path d="M9.302,4 L9.302,4.639 L5.738,4.639 L5.738,6.799 L8.43495383,6.79790658 C8.32248259,6.99960586 8.2293818,7.21358194 8.15816741,7.43731886 L5.738,7.438 L5.738,10.426 L5,10.426 L5,4 L9.302,4 Z" id="形状结合" fill="#FFFFFF"></path>
                <path d="M11.493927,6 C12.8746389,6 13.993927,7.11928813 13.993927,8.5 C13.993927,9.70932545 13.1352652,10.7180997 11.9943615,10.9499027 L11.993927,12 L13.793927,12 C13.904384,12 13.993927,12.0895431 13.993927,12.2 L13.993927,12.8 C13.993927,12.9104569 13.904384,13 13.793927,13 L12.993927,13 L12.993927,13.8 C12.993927,13.9104569 12.904384,14 12.793927,14 L11.992927,14 L11.993927,14.8 C11.993927,14.9104569 11.904384,15 11.793927,15 L11.193927,15 C11.0834701,15 10.993927,14.9104569 10.993927,14.8 L10.994501,10.9501074 C9.8530949,10.7186941 8.993927,9.70968176 8.993927,8.5 C8.993927,7.11928813 10.1132151,6 11.493927,6 Z" id="形状结合" fill="#4D4D4D" fill-rule="nonzero" transform="translate(11.4939, 10.5) scale(-1, -1) rotate(180) translate(-11.4939, -10.5)"></path>
                <path d="M11.493927,7 C12.3223541,7 12.993927,7.67157288 12.993927,8.5 C12.993927,9.32842712 12.3223541,10 11.493927,10 C10.6654999,10 9.993927,9.32842712 9.993927,8.5 C9.993927,7.67157288 10.6654999,7 11.493927,7 Z" id="路径" fill-opacity="0.9" fill="#FFFFFF" transform="translate(11.4939, 8.5) scale(-1, -1) rotate(180) translate(-11.4939, -8.5)"></path>
            </g>
            <path d="M9.302,3.9 L9.402,4 L9.402,4.639 L9.302,4.739 L5.837,4.738 L5.837,6.698 L8.49282756,6.69803258 C8.33654976,6.95774791 8.21303153,7.23941093 8.12799115,7.53730333 L5.837,7.538 L5.838,10.426 L5.738,10.526 L5,10.526 L4.9,10.426 L4.9,4 L5,3.9 L9.302,3.9 Z" id="形状结合" fill="#121212" fill-rule="nonzero"></path>
            <path d="M11.493927,6 C12.8746389,6 13.993927,7.11928813 13.993927,8.5 C13.993927,9.70932545 13.1352652,10.7180997 11.9943615,10.9499027 L11.993927,12 L13.793927,12 C13.904384,12 13.993927,12.0895431 13.993927,12.2 L13.993927,12.8 C13.993927,12.9104569 13.904384,13 13.793927,13 L12.993927,13 L12.993927,13.8 C12.993927,13.9104569 12.904384,14 12.793927,14 L11.992927,14 L11.993927,14.8 C11.993927,14.9104569 11.904384,15 11.793927,15 L11.193927,15 C11.0834701,15 10.993927,14.9104569 10.993927,14.8 L10.994501,10.9501074 C9.8530949,10.7186941 8.993927,9.70968176 8.993927,8.5 C8.993927,7.11928813 10.1132151,6 11.493927,6 Z" id="形状结合" fill="#D9D9D9" fill-rule="nonzero" transform="translate(11.4939, 10.5) scale(-1, -1) rotate(180) translate(-11.4939, -10.5)"></path>
            <path d="M11.493927,7 C12.3223541,7 12.993927,7.67157288 12.993927,8.5 C12.993927,9.32842712 12.3223541,10 11.493927,10 C10.6654999,10 9.993927,9.32842712 9.993927,8.5 C9.993927,7.67157288 10.6654999,7 11.493927,7 Z" id="路径" fill-opacity="0.8" fill="#000000" transform="translate(11.4939, 8.5) scale(-1, -1) rotate(180) translate(-11.4939, -8.5)"></path>
        </g>
    </g>
</svg>