<?xml version="1.0" encoding="UTF-8"?>
<svg width="16px" height="16px" viewBox="0 0 16 16" version="1.1" xmlns="http://www.w3.org/2000/svg" xmlns:xlink="http://www.w3.org/1999/xlink">
    <title>ICON / completions /keyword_dark</title>
    <g id="ICON-/-completions-/keyword_dark" stroke="none" stroke-width="1" fill="none" fill-rule="evenodd">
        <path d="M8,1 C11.8659932,1 15,4.13400675 15,8 C15,11.8659932 11.8659932,15 8,15 C4.13400675,15 1,11.8659932 1,8 C1,4.13400675 4.13400675,1 8,1 Z M8,2 C4.6862915,2 2,4.6862915 2,8 C2,11.3137085 4.6862915,14 8,14 C11.3137085,14 14,11.3137085 14,8 C14,4.6862915 11.3137085,2 8,2 Z M7.997715,3.0161171 C8.27385737,3.0161171 8.497715,3.23997472 8.497715,3.5161171 L8.49828518,4.03073342 C10.3138468,4.25633501 11.7519068,5.6986296 11.9710386,7.51619084 L12.517395,7.5161171 C12.7935374,7.5161171 13.017395,7.73997472 13.017395,8.0161171 C13.017395,8.29225947 12.7935374,8.5161171 12.517395,8.5161171 L11.9668576,8.5173001 C11.7342045,10.3190645 10.3026812,11.7450524 8.49828518,11.9692666 L8.497715,12.5161171 C8.497715,12.7922595 8.27385737,13.0161171 7.997715,13.0161171 C7.72157262,13.0161171 7.497715,12.7922595 7.497715,12.5161171 L7.49770938,11.9687668 C5.69520061,11.7429416 4.26562332,10.317731 4.03314245,8.5173001 L3.51739502,8.5161171 C3.24125264,8.5161171 3.01739502,8.29225947 3.01739502,8.0161171 C3.01739502,7.73997472 3.24125264,7.5161171 3.51739502,7.5161171 L4.02896139,7.51619084 C4.24793207,5.69996642 5.68403843,4.25845684 7.49770938,4.03123318 L7.497715,3.5161171 C7.497715,3.23997472 7.72157262,3.0161171 7.997715,3.0161171 Z M8.49772324,5.04109816 L8.497715,5.5161171 C8.497715,5.79225947 8.27385737,6.0161171 7.997715,6.0161171 C7.72157262,6.0161171 7.497715,5.79225947 7.497715,5.5161171 L7.4974273,5.04191199 C6.23701263,5.25450011 5.24360686,6.25311826 5.03881299,7.51616347 L5.51739502,7.5161171 C5.79353739,7.5161171 6.01739502,7.73997472 6.01739502,8.0161171 C6.01739502,8.29225947 5.79353739,8.5161171 5.51739502,8.5161171 L5.04430099,8.51653509 C5.26080338,9.76408968 6.24790928,10.7473378 7.4974273,10.958088 L7.497715,10.5161171 C7.497715,10.2399747 7.72157262,10.0161171 7.997715,10.0161171 C8.27385737,10.0161171 8.497715,10.2399747 8.497715,10.5161171 L8.49772324,10.9589018 C9.74953611,10.7498807 10.7389166,9.76570319 10.955699,8.51653509 L10.517395,8.5161171 C10.2412526,8.5161171 10.017395,8.29225947 10.017395,8.0161171 C10.017395,7.73997472 10.2412526,7.5161171 10.517395,7.5161171 L10.961187,7.51616347 C10.7561306,6.25149885 9.76043868,5.25193978 8.49772324,5.04109816 Z" id="形状结合" fill="#DB5C5C" fill-rule="nonzero"></path>
    </g>
</svg>