<?xml version="1.0" encoding="UTF-8"?>
<svg width="16px" height="16px" viewBox="0 0 16 16" version="1.1" xmlns="http://www.w3.org/2000/svg" xmlns:xlink="http://www.w3.org/1999/xlink">
    <title>ICON / completions /macro_dark</title>
    <g id="ICON-/-completions-/macro_dark" stroke="none" stroke-width="1" fill="none" fill-rule="evenodd">
        <rect id="矩形" fill="#4CA7FF" fill-rule="nonzero" x="1" y="4" width="14" height="8" rx="1"></rect>
        <path d="M4.82214284,6.814 C4.42614284,6.814 4.11414284,6.88 3.88614284,7.024 C3.61614284,7.18 3.44814284,7.432 3.38214284,7.774 L4.06014284,7.828 C4.09614284,7.666 4.18614284,7.546 4.31814284,7.468 C4.43214284,7.396 4.58214284,7.366 4.77414284,7.366 C5.21814284,7.366 5.44014284,7.564 5.44014284,7.972 L5.44014284,8.092 L4.76214284,8.11 C4.30614284,8.122 3.95214284,8.218 3.70014284,8.398 C3.42414284,8.584 3.29214284,8.854 3.29214284,9.202 C3.29214284,9.46 3.38814284,9.67 3.58014284,9.838 C3.76614284,10 4.01814284,10.084 4.34214284,10.084 C4.61214284,10.084 4.84614284,10.036 5.04414284,9.946 C5.21814284,9.862 5.36814284,9.748 5.48814284,9.592 L5.48814284,10 L6.12414284,10 L6.12414284,8.02 C6.12414284,7.642 6.02814284,7.354 5.83614284,7.156 C5.62014284,6.928 5.27814284,6.814 4.82214284,6.814 Z M5.44014284,8.584 L5.44014284,8.74 C5.44014284,8.98 5.34414284,9.178 5.16414284,9.334 C4.98414284,9.484 4.76214284,9.562 4.49814284,9.562 C4.34814284,9.562 4.22814284,9.52 4.13214284,9.448 C4.03614284,9.376 3.99414284,9.286 3.99414284,9.178 C3.99414284,8.806 4.26414284,8.614 4.81014284,8.602 L5.44014284,8.584 Z M6.67271428,5.632 L6.67271428,10 L7.30871428,10 L7.30871428,9.67 C7.52471428,9.946 7.83671428,10.084 8.24471428,10.084 C8.70071428,10.084 9.06071428,9.922 9.32471428,9.598 C9.56471428,9.298 9.68471428,8.908 9.68471428,8.434 C9.68471428,7.978 9.56471428,7.6 9.33071428,7.3 C9.07271428,6.976 8.72471428,6.814 8.28071428,6.814 C7.92071428,6.814 7.60871428,6.982 7.35671428,7.324 L7.35671428,5.632 L6.67271428,5.632 Z M8.11871428,7.366 C8.42471428,7.366 8.65271428,7.468 8.79671428,7.672 C8.91671428,7.846 8.98271428,8.098 8.98271428,8.434 C8.98271428,8.77 8.92271428,9.028 8.80871428,9.208 C8.66471428,9.424 8.44271428,9.532 8.14271428,9.532 C7.87271428,9.532 7.66871428,9.424 7.52471428,9.214 C7.39271428,9.022 7.33271428,8.77 7.33271428,8.47 L7.33271428,8.422 C7.33271428,8.092 7.41071428,7.828 7.57271428,7.636 C7.71671428,7.456 7.89671428,7.366 8.11871428,7.366 Z M11.5052857,6.814 C11.0192857,6.814 10.6412857,6.976 10.3712857,7.3 C10.1192857,7.594 9.99328572,7.978 9.99328572,8.446 C9.99328572,8.926 10.1192857,9.316 10.3772857,9.616 C10.6412857,9.928 11.0132857,10.084 11.4932857,10.084 C11.8952857,10.084 12.2192857,9.982 12.4592857,9.784 C12.7052857,9.58 12.8672857,9.268 12.9392857,8.848 L12.2612857,8.848 C12.2072857,9.298 11.9552857,9.526 11.4992857,9.526 C11.2352857,9.526 11.0372857,9.43 10.9052857,9.244 C10.7612857,9.052 10.6952857,8.782 10.6952857,8.44 C10.6952857,8.104 10.7672857,7.84 10.9112857,7.654 C11.0552857,7.462 11.2532857,7.372 11.5052857,7.372 C11.7092857,7.372 11.8772857,7.42 12.0032857,7.516 C12.1232857,7.612 12.2072857,7.756 12.2492857,7.954 L12.9272857,7.954 C12.8672857,7.564 12.7112857,7.276 12.4652857,7.084 C12.2252857,6.904 11.9072857,6.814 11.5052857,6.814 Z" id="形状结合" fill="#121212" fill-rule="nonzero"></path>
    </g>
</svg>