<?xml version="1.0" encoding="UTF-8"?>
<svg width="16px" height="16px" viewBox="0 0 16 16" version="1.1" xmlns="http://www.w3.org/2000/svg" xmlns:xlink="http://www.w3.org/1999/xlink">
    <title>ICON / completions /signal_dark</title>
    <g id="ICON-/-completions-/signal_dark" stroke="none" stroke-width="1" fill="none" fill-rule="evenodd">
        <path d="M3.20000005,7 L12.8,7 C13.4627417,7 14,7.53725832 14,8.20000005 L14,12.8 C14,13.4627417 13.4627417,14 12.8,14 L3.20000005,14 C2.53725832,14 2,13.4627417 2,12.8 L2,8.20000005 C2,7.53725832 2.53725832,7 3.20000005,7 Z M8,3.93376794 C9.05165201,3.93376794 9.90389383,4.3636461 10.496307,5.19896844 C10.6880016,5.46926424 10.6242827,5.84378146 10.3539869,6.03547607 C10.0836912,6.22717067 9.70917393,6.16345182 9.51747932,5.89315602 C9.15266287,5.37875264 8.66697592,5.13376794 8,5.13376794 C7.33732959,5.13376794 6.86908054,5.37450762 6.52910797,5.88062506 C6.34433402,6.1556982 5.9715543,6.22890014 5.69648117,6.04412619 C5.42140804,5.85935224 5.34820609,5.48657253 5.53298004,5.2114994 C6.0996542,4.36789112 6.94404248,3.93376794 8,3.93376794 Z M8,1.40303221 C9.89662503,1.40303221 11.4227167,2.16846091 12.5212557,3.67395258 C12.7165813,3.94163628 12.6579234,4.31697945 12.3902397,4.51230501 C12.122556,4.70763057 11.7472128,4.64897271 11.5518873,4.38128901 C10.6806693,3.18732923 9.51571323,2.60303221 8,2.60303221 C6.48654839,2.60303221 5.33778921,3.18511928 4.49379937,4.37478912 C4.3020636,4.64505571 3.92753668,4.70871753 3.65727008,4.51698176 C3.38700348,4.32524599 3.32334166,3.95071907 3.51507743,3.68045247 C4.5861648,2.17067086 6.10111335,1.40303221 8,1.40303221 Z" id="形状结合" fill="#955AE0"></path>
        <path d="M5,11.5067368 C5.55228475,11.5067368 6,11.0590215 6,10.5067368 C6,9.95445201 5.55228475,9.50673676 5,9.50673676 C4.44771525,9.50673676 4,9.95445201 4,10.5067368 C4,11.0590215 4.44771525,11.5067368 5,11.5067368 Z M8,11.5067368 C8.55228475,11.5067368 9,11.0590215 9,10.5067368 C9,9.95445201 8.55228475,9.50673676 8,9.50673676 C7.44771525,9.50673676 7,9.95445201 7,10.5067368 C7,11.0590215 7.44771525,11.5067368 8,11.5067368 Z M11,11.5067368 C11.5522847,11.5067368 12,11.0590215 12,10.5067368 C12,9.95445201 11.5522847,9.50673676 11,9.50673676 C10.4477153,9.50673676 10,9.95445201 10,10.5067368 C10,11.0590215 10.4477153,11.5067368 11,11.5067368 Z" id="形状结合" fill="#121212"></path>
    </g>
</svg>