<?xml version="1.0" encoding="UTF-8"?>
<svg width="16px" height="16px" viewBox="0 0 16 16" version="1.1" xmlns="http://www.w3.org/2000/svg" xmlns:xlink="http://www.w3.org/1999/xlink">
    <title>ICON / completions /slot_dark</title>
    <g id="ICON-/-completions-/slot_dark" stroke="none" stroke-width="1" fill="none" fill-rule="evenodd">
        <g id="编组" transform="translate(1, 1)">
            <circle id="椭圆形" fill="#CF7544" cx="7" cy="7" r="7"></circle>
            <path d="M7,0 C10.8659932,0 14,3.13400675 14,7 C14,10.8659932 10.8659932,14 7,14 C3.13400675,14 0,10.8659932 0,7 C0,3.13400675 3.13400675,0 7,0 Z M7,1 C3.6862915,1 1,3.6862915 1,7 C1,10.3137085 3.6862915,13 7,13 C10.3137085,13 13,10.3137085 13,7 C13,3.6862915 10.3137085,1 7,1 Z" id="椭圆形" fill-opacity="0.15" fill="#FFFFFF" fill-rule="nonzero"></path>
        </g>
        <path d="M7.84903562,4.61433384 C8.5816028,4.61433384 9.16539526,4.79414643 9.58626604,5.1569487 C10.0279786,5.53170989 10.2788729,6.09167704 10.3430247,6.82829927 L10.2434018,6.93697535 L9.53037365,6.93697535 L9.43165276,6.85291856 C9.35620356,6.38573463 9.19123924,6.04762003 8.93653569,5.8274858 C8.67930186,5.60349823 8.31006655,5.49357912 7.81382435,5.49357912 C7.35521948,5.49357912 7.01692487,5.56828633 6.77560369,5.72345562 C6.50513683,5.89396081 6.37333139,6.14531276 6.37333139,6.49735271 C6.37333139,6.80067942 6.53044855,7.0418193 6.86146111,7.23218379 C7.00874322,7.31987377 7.3867917,7.45878366 7.9938832,7.64737202 C8.82945924,7.91411231 9.38111979,8.13343348 9.6555253,8.3098849 C10.2056064,8.66959252 10.4842469,9.1739818 10.4842469,9.81810743 C10.4842469,10.4357809 10.2485536,10.9359131 9.78404528,11.2943266 C9.32194943,11.6409857 8.70911841,11.8143338 7.9458666,11.8143338 C7.1852079,11.8143338 6.58224549,11.6380992 6.13936659,11.2821163 C5.62247977,10.8567645 5.33882625,10.2169125 5.28444865,9.36219247 L5.38424688,9.25584327 L6.09727505,9.25584327 L6.1967247,9.34536627 C6.25569515,9.90512453 6.43819983,10.3165378 6.73397283,10.5718902 C7.00952755,10.8045599 7.41337399,10.9256546 7.9458666,10.9256546 C8.44048767,10.9256546 8.84334363,10.8256727 9.14107836,10.6306783 C9.4302221,10.4413104 9.57121872,10.1894674 9.57121872,9.86527724 C9.57121872,9.47995644 9.38211499,9.18129649 8.99213333,8.95882286 C8.83419513,8.85726562 8.41570029,8.70406508 7.68617066,8.47927644 C6.95662351,8.24290189 6.44545533,8.04778864 6.22042102,7.92183106 C5.70860227,7.60269496 5.45150041,7.13757067 5.45150041,6.53508856 C5.45150041,5.91331612 5.69956824,5.42211952 6.18797935,5.08638251 C6.61939207,4.77159497 7.17654605,4.61433384 7.84903562,4.61433384 Z" id="路径" fill="#121212" fill-rule="nonzero"></path>
    </g>
</svg>