<?xml version="1.0" encoding="UTF-8"?>
<svg width="16px" height="16px" viewBox="0 0 16 16" version="1.1" xmlns="http://www.w3.org/2000/svg" xmlns:xlink="http://www.w3.org/1999/xlink">
    <title>ICON / completions /var_prot_dark</title>
    <defs>
        <linearGradient x1="46.1137746%" y1="4.38414074%" x2="53.393823%" y2="103.95635%" id="linearGradient-1">
            <stop stop-color="#6DC0C5" offset="0%"></stop>
            <stop stop-color="#55A6AB" offset="100%"></stop>
        </linearGradient>
        <path d="M8,1 C11.5212616,1 14.4352593,3.6000059 14.9269445,6.98496904 C14.2976906,6.37505716 13.4396084,6 12.493927,6 C10.5609304,6 8.993927,7.56700338 8.993927,9.5 L8.99912794,9.69185725 C9.0681922,10.9630524 9.81944968,12.0706828 10.9149292,12.624624 L10.993927,12.662 L10.9937125,14.3293518 C10.0860566,14.7594216 9.07112333,15 8,15 C4.13400675,15 1,11.8659932 1,8 C1,4.13400675 4.13400675,1 8,1 Z" id="path-2"></path>
    </defs>
    <g id="ICON-/-completions-/var_prot_dark" stroke="none" stroke-width="1" fill="none" fill-rule="evenodd">
        <g id="形状结合">
            <use fill="url(#linearGradient-1)" xlink:href="#path-2"></use>
            <use fill="#57965C" xlink:href="#path-2"></use>
        </g>
        <path d="M8,1 C11.5212616,1 14.4352593,3.6000059 14.9269445,6.98496904 C14.5883031,6.65627163 14.182858,6.39600908 13.7331777,6.22572351 C12.9769548,3.77833607 10.6961537,2 8,2 C4.6862915,2 2,4.6862915 2,8 C2,11.3137085 4.6862915,14 8,14 C9.09036237,14 10.1127935,13.7091519 10.9939436,13.2008056 L10.9937125,14.3293518 C10.0860566,14.7594216 9.07112333,15 8,15 C4.13400675,15 1,11.8659932 1,8 C1,4.13400675 4.13400675,1 8,1 Z" id="形状结合" fill-opacity="0.15" fill="#FFFFFF" fill-rule="nonzero"></path>
        <path d="M12.493927,7 C13.8746389,7 14.993927,8.11928813 14.993927,9.5 C14.993927,10.7093254 14.1352652,11.7180997 12.9943615,11.9499027 L12.993927,13 L14.793927,13 C14.904384,13 14.993927,13.0895431 14.993927,13.2 L14.993927,13.8 C14.993927,13.9104569 14.904384,14 14.793927,14 L13.993927,14 L13.993927,14.8 C13.993927,14.9104569 13.904384,15 13.793927,15 L12.992927,15 L12.993927,15.8 C12.993927,15.9104569 12.904384,16 12.793927,16 L12.193927,16 C12.0834701,16 11.993927,15.9104569 11.993927,15.8 L11.994501,11.9501074 C10.8530949,11.7186941 9.993927,10.7096818 9.993927,9.5 C9.993927,8.11928813 11.1132151,7 12.493927,7 Z" id="形状结合" fill="#D9D9D9" fill-rule="nonzero" transform="translate(12.4939, 11.5) scale(-1, -1) rotate(180) translate(-12.4939, -11.5)"></path>
        <path d="M12.493927,8 C13.3223541,8 13.993927,8.67157288 13.993927,9.5 C13.993927,10.3284271 13.3223541,11 12.493927,11 C11.6654999,11 10.993927,10.3284271 10.993927,9.5 C10.993927,8.67157288 11.6654999,8 12.493927,8 Z" id="路径" fill-opacity="0.8" fill="#000000" transform="translate(12.4939, 9.5) scale(-1, -1) rotate(180) translate(-12.4939, -9.5)"></path>
        <path d="M5.93164062,4.9 L6.02583432,4.96642103 L7.983,10.458 L9.94193912,4.96642103 L10.0361328,4.9 L10.9238281,4.9 L11.0177964,5.03420471 L10.4177061,6.68203895 C9.55408253,7.31940298 8.993927,8.34428582 8.993927,9.5 L8.99912794,9.69185725 C9.01087119,9.90800323 9.04233764,10.1194203 9.09186583,10.3241907 L8.63596047,11.5776617 L8.54199219,11.643457 L7.38183594,11.643457 L7.28786766,11.5776617 L4.90603172,5.03420471 L5,4.9 L5.93164062,4.9 Z" id="形状结合" fill="#121212" fill-rule="nonzero"></path>
    </g>
</svg>