<?xml version="1.0" encoding="UTF-8"?>
<svg width="16px" height="16px" viewBox="0 0 16 16" version="1.1" xmlns="http://www.w3.org/2000/svg" xmlns:xlink="http://www.w3.org/1999/xlink">
    <title>ICON / search /match_Complete</title>
    <g id="ICON-/-search-/match_Complete" stroke="none" stroke-width="1" fill="none" fill-rule="evenodd">
        <path d="M1.5,12 C1.77614237,12 2,12.2238576 2,12.5 L2,13 L14,13 L14,12.5 C14,12.2238576 14.2238576,12 14.5,12 L15.5,12 C15.7761424,12 16,12.2238576 16,12.5 L16,14.5 C16,14.7761424 15.7761424,15 15.5,15 L14.5,15 C14.2238576,15 14,14.7761424 14,14.5 L14,14 L2,14 L2,14.5 C2,14.7761424 1.77614237,15 1.5,15 L0.5,15 C0.223857625,15 3.38176876e-17,14.7761424 0,14.5 L0,12.5 C-3.38176876e-17,12.2238576 0.223857625,12 0.5,12 L1.5,12 Z M13.3408735,8.09316216 C13.3408735,7.19305701 13.1928866,6.51377205 12.8969127,6.05530727 C12.6009388,5.5968425 12.1635068,5.36761011 11.5846167,5.36761011 C11.0013741,5.36761011 10.5595895,5.59789402 10.2592631,6.05846185 C9.95893664,6.51902967 9.80877342,7.19726311 9.80877342,8.09316216 C9.80877342,8.98485512 9.95893664,9.66203703 10.2592631,10.1247079 C10.5595895,10.5873788 11.0013741,10.8187142 11.5846167,10.8187142 C12.1635068,10.8187142 12.6009388,10.5894818 12.8969127,10.1310171 C13.1928866,9.67255228 13.3408735,8.99326731 13.3408735,8.09316216 Z M9.80877342,5.45593819 C10.0002859,5.11103808 10.2647038,4.84605385 10.602027,4.6609855 C10.9393501,4.47591716 11.3299921,4.38338298 11.773953,4.38338298 C12.6531695,4.38338298 13.3452261,4.71040717 13.8501227,5.36445554 C14.3550193,6.01850391 14.6074677,6.91966058 14.6074677,8.06792557 C14.6074677,9.23301495 14.3539312,10.1467899 13.8468583,10.8092505 C13.3397854,11.4717111 12.6444644,11.8029413 11.7608953,11.8029413 C11.3256396,11.8029413 10.9415264,11.7114587 10.6085558,11.5284934 C10.2755852,11.3455281 10.008991,11.0794923 9.80877342,10.7303861 L9.80877342,11.0193232 C9.80877342,11.3510546 9.53985196,11.619976 9.20812053,11.619976 C8.87638911,11.619976 8.60746765,11.3510546 8.60746765,11.0193232 L8.60746765,2.40359422 C8.60746765,2.0718628 8.87638911,1.80294134 9.20812053,1.80294134 C9.53985196,1.80294134 9.80877342,2.0718628 9.80877342,2.40359422 L9.80877342,5.45593819 L9.80877342,5.45593819 Z M5.55300915,3.92368762 C6.13150964,4.08840664 6.6646682,4.43964575 7.04382055,5.04523041 C7.41515533,5.63951082 7.60746765,6.42919321 7.60746765,7.42558184 L7.607358,8.56393545 C7.60743635,8.56801145 7.60747571,8.57209733 7.60747571,8.57619269 L7.60647395,8.60494134 L7.60746765,11.0623196 C7.60746765,11.3967748 7.34496411,11.6679042 7.02114959,11.6679042 C6.7036131,11.6679042 6.44503328,11.407186 6.43512607,11.0816997 L6.46438221,11.0628645 C5.53679733,11.7406902 4.48729534,11.9501219 3.5767264,11.7026244 C2.43692408,11.3925651 1.60747571,10.3848722 1.60747571,8.95972965 C1.60739635,8.92618919 1.6100112,8.89269957 1.61529704,8.85960632 C1.72865186,8.158743 2.02337441,7.62098382 2.46506735,7.24552134 C2.89503393,6.8797482 3.41646613,6.70695471 3.92226318,6.63347711 C4.7627229,6.51175675 5.69745837,6.64860299 6.39641689,6.76785254 C6.33585149,6.28526118 6.20937206,5.94350884 6.0588062,5.70249162 C5.87167957,5.39814361 5.5787728,5.17940765 5.24030619,5.09125484 C4.52577991,4.88697095 3.56734531,5.11547823 2.81060413,5.47559924 C2.6197943,5.57030923 2.39437129,5.55142418 2.22083366,5.42619061 C2.04729604,5.30095704 1.95259696,5.08882571 1.97307404,4.87119494 C1.99355111,4.65356418 2.12602393,4.46423551 2.31966047,4.3758575 C3.17177606,3.96971205 4.44213186,3.60636125 5.55300915,3.92368762 Z M4.08565048,7.83334218 C3.71040692,7.88744107 3.4188114,8.00290588 3.21008217,8.18054405 C3.02089688,8.34203329 2.85750957,8.59072673 2.78011559,9.00979131 C2.79809601,9.8551875 3.26245992,10.3646861 3.87457598,10.53102 C4.52343463,10.7078507 5.43027324,10.5132562 6.23548338,9.68158656 C6.27017991,9.63411878 6.29614745,9.5804771 6.31209561,9.5233271 C6.34727469,9.42078143 6.3746362,9.29401238 6.39496189,9.15755397 C6.42846578,8.92293317 6.43382641,8.70492269 6.43467426,8.61182862 L6.43447395,8.00194134 L6.46610182,8.00694311 C5.71248767,7.87775172 4.8306653,7.72514439 4.08565048,7.83334218 Z" id="形状结合" fill="#000000"></path>
    </g>
</svg>