<?xml version="1.0" encoding="UTF-8"?>
<svg width="12px" height="12px" viewBox="0 0 12 12" version="1.1" xmlns="http://www.w3.org/2000/svg" xmlns:xlink="http://www.w3.org/1999/xlink">
    <title>ICON /ai/lite</title>
    <defs>
        <linearGradient x1="50%" y1="0%" x2="50%" y2="100%" id="linearGradient-1">
            <stop stop-color="#00E7E7" offset="0%"></stop>
            <stop stop-color="#00BFFF" offset="100%"></stop>
        </linearGradient>
    </defs>
    <g id="ICON-/ai/lite" stroke="none" stroke-width="1" fill="none" fill-rule="evenodd">
        <circle id="椭圆形" fill="url(#linearGradient-1)" cx="6" cy="6" r="6"></circle>
        <path d="M4.39144935,3.15841368 C4.59714926,3.35213271 4.59714926,3.67515776 4.39144935,3.8688768 L2.62348008,5.54115754 C2.47126266,5.68450824 2.47126266,5.91454614 2.62348008,6.05789683 L4.12457467,7.47155594 C4.27678184,7.61490663 4.52104567,7.61490663 4.67327845,7.47155594 L4.87124508,7.28510164 C4.94737427,7.21341429 4.98542607,7.12723108 4.98542607,7.02648 L4.98542607,6.66036334 C4.98542607,6.6099878 4.98542607,6.56011625 4.99313373,6.50974071 C5.00854906,6.31601448 5.17619717,6.17218379 5.38189707,6.17218379 L6.63151182,6.17218379 C6.97502784,6.16541585 7.14267594,6.55284432 6.90665752,6.78240222 L4.66605732,8.89248698 C4.51385014,9.03583767 4.26958631,9.03583767 4.11737914,8.89248698 L1.11416287,6.0506249 C0.96194571,5.90727421 0.96194571,5.6772363 1.11416287,5.53388561 L3.63707127,3.15841368 C3.84277118,2.96469512 4.18577506,2.96469512 4.39144935,3.15841368 Z M7.87444317,3.10751374 L10.8848624,5.94257788 C11.0370696,6.09320051 11.0370696,6.32275842 10.8925701,6.4665891 L8.36194656,8.84981537 C8.15624666,9.0435416 7.81326838,9.0435416 7.60756848,8.84981537 C7.40186858,8.65608914 7.40186858,8.33307608 7.60756848,8.13934985 L9.38325054,6.4670691 C9.53548332,6.32371841 9.53548332,6.09368051 9.38325054,5.95032981 L7.87444317,4.53667071 C7.72223599,4.39332001 7.47797216,4.39332001 7.32573938,4.53667071 L7.12777275,4.72312501 C7.05937683,4.78753802 7.01359177,4.88100517 7.01359177,4.98173945 L7.01359177,5.34786811 C7.01359177,5.39823405 7.01359177,5.44811039 7.0058841,5.49848593 C6.99046877,5.69221217 6.82282066,5.83604286 6.61712076,5.83604286 L5.36750602,5.83604286 C5.02450213,5.83604286 4.85685403,5.44859039 5.09289806,5.21904448 L6.7919644,3.61747669 L7.01307963,3.40196585 L7.32573938,3.10751374 C7.47797216,2.96416209 7.72223599,2.96416209 7.87444317,3.10751374 Z" id="形状结合" fill="#FFFFFF" fill-rule="nonzero"></path>
    </g>
</svg>