<?xml version="1.0" encoding="UTF-8"?>
<svg width="16px" height="16px" viewBox="0 0 16 16" version="1.1" xmlns="http://www.w3.org/2000/svg" xmlns:xlink="http://www.w3.org/1999/xlink">
    <title>ICON / button / Generating unit tests</title>
    <g id="ICON-/-button-/-Generating-unit-tests" stroke="none" stroke-width="1" fill="none" fill-rule="evenodd">
        <path d="M15,11 L15,13 C15,14.1045695 14.1045695,15 13,15 L11,15 L11,14 L13,14 C13.5522847,14 14,13.5522847 14,13 L14,11 L15,11 Z M2,11 L2,13 C2,13.5522847 2.44771525,14 3,14 L5,14 L5,15 L3,15 C1.8954305,15 1,14.1045695 1,13 L1,11 L2,11 Z M8.5,4 C8.77614237,4 9,4.22385763 9,4.5 L9,7 L11.5,7 C11.7761424,7 12,7.22385763 12,7.5 L12,8.5 C12,8.77614237 11.7761424,9 11.5,9 L9,9 L9,11.5 C9,11.7761424 8.77614237,12 8.5,12 L7.5,12 C7.22385763,12 7,11.7761424 7,11.5 L7,9 L4.5,9 C4.22385763,9 4,8.77614237 4,8.5 L4,7.5 C4,7.22385763 4.22385763,7 4.5,7 L7,7 L7,4.5 C7,4.22385763 7.22385763,4 7.5,4 L8.5,4 Z M13,1 C14.1045695,1 15,1.8954305 15,3 L15,5 L14,5 L14,3 C14,2.44771525 13.5522847,2 13,2 L11,2 L11,1 L13,1 Z M5,1 L5,2 L3,2 C2.44771525,2 2,2.44771525 2,3 L2,5 L1,5 L1,3 C1,1.8954305 1.8954305,1 3,1 L5,1 Z" id="形状结合" fill="#000000"></path>
    </g>
</svg>