<?xml version="1.0" encoding="UTF-8"?>
<svg width="16px" height="16px" viewBox="0 0 16 16" version="1.1" xmlns="http://www.w3.org/2000/svg" xmlns:xlink="http://www.w3.org/1999/xlink">
    <title>ICON / button / report</title>
    <g id="ICON-/-button-/-report" stroke="none" stroke-width="1" fill="none" fill-rule="evenodd">
        <path d="M12.4672252,9.0796194 L14.5885456,11.2009397 C14.7621119,11.3745061 14.7813971,11.6439305 14.646401,11.8387986 L14.5885456,11.9080465 L12.4672252,14.0293669 C12.2719631,14.224629 11.9553806,14.224629 11.7601185,14.0293669 C11.5648563,13.8341047 11.5648563,13.5175222 11.7601185,13.3222601 L13.083,11.9991728 L7.5,12 C7.22385763,12 7,11.7761424 7,11.5 C7,11.2238576 7.22385763,11 7.5,11 L12.972,10.9991728 L11.7601185,9.78672618 C11.5648563,9.59146403 11.5648563,9.27488154 11.7601185,9.0796194 C11.9553806,8.88435725 12.2719631,8.88435725 12.4672252,9.0796194 Z M12,1 C13.1045695,1 14,1.8954305 14,3 L14,8 L13,8 L13,3 C13,2.44771525 12.5522847,2 12,2 L4,2 C3.44771525,2 3,2.44771525 3,3 L3,12 C3,12.5522847 3.44771525,13 4,13 L8,13 L8,14 L4,14 C2.8954305,14 2,13.1045695 2,12 L2,3 C2,1.8954305 2.8954305,1 4,1 L12,1 Z M9.5,7 C9.77614237,7 10,7.22385763 10,7.5 C10,7.77614237 9.77614237,8 9.5,8 L4.5,8 C4.22385763,8 4,7.77614237 4,7.5 C4,7.22385763 4.22385763,7 4.5,7 L9.5,7 Z M7.5,4 C7.77614237,4 8,4.22385763 8,4.5 C8,4.77614237 7.77614237,5 7.5,5 L4.5,5 C4.22385763,5 4,4.77614237 4,4.5 C4,4.22385763 4.22385763,4 4.5,4 L7.5,4 Z" id="形状结合" fill="#000000"></path>
    </g>
</svg>