<?xml version="1.0" encoding="UTF-8"?>
<svg width="16px" height="16px" viewBox="0 0 16 16" version="1.1" xmlns="http://www.w3.org/2000/svg" xmlns:xlink="http://www.w3.org/1999/xlink">
    <title>ICON / button / operation</title>
    <g id="ICON-/-button-/-operation" stroke="none" stroke-width="1" fill="none" fill-rule="evenodd">
        <path d="M8,1 C11.8659932,1 15,4.13400675 15,8 C15,11.8659932 11.8659932,15 8,15 C4.13400675,15 1,11.8659932 1,8 C1,4.13400675 4.13400675,1 8,1 Z M8,2 C4.6862915,2 2,4.6862915 2,8 C2,11.3137085 4.6862915,14 8,14 C11.3137085,14 14,11.3137085 14,8 C14,4.6862915 11.3137085,2 8,2 Z M6.5,4.92501163 C6.58852732,4.92501163 6.67546748,4.94851583 6.75193551,4.99312218 L11.2596181,7.62260368 C11.498144,7.76174382 11.5787122,8.06790269 11.439572,8.30642864 C11.3961126,8.38093046 11.3341199,8.44292319 11.2596181,8.48638258 L6.75193551,11.1158641 C6.51340956,11.2550042 6.20725069,11.1744361 6.06811055,10.9359101 C6.0235042,10.8594421 6,10.772502 6,10.6839746 L6,5.42501163 C6,5.14886926 6.22385763,4.92501163 6.5,4.92501163 Z" id="形状结合" fill="#000000"></path>
    </g>
</svg>