<?xml version="1.0" encoding="UTF-8"?>
<svg width="16px" height="16px" viewBox="0 0 16 16" version="1.1" xmlns="http://www.w3.org/2000/svg" xmlns:xlink="http://www.w3.org/1999/xlink">
    <title>ICON / list /settings</title>
    <g id="ICON-/-list-/settings" stroke="none" stroke-width="1" fill="none" fill-rule="evenodd">
        <path d="M8.0210401,0.5 C8.89153613,0.5 9.65139831,1.07074379 9.89198766,1.90639457 C9.89867922,1.92955538 9.91383265,1.94502049 9.94875884,1.95614567 C10.1981277,2.03942868 10.4496107,2.14296092 10.7177167,2.27191118 C10.747202,2.28626018 10.7784672,2.28600428 10.7819134,2.28409903 L10.8518356,2.24416969 C11.6097603,1.82408484 12.5512707,1.96204968 13.1659374,2.57790003 L13.3174262,2.72968047 C13.9286808,3.34211205 14.0581993,4.27612984 13.6210957,5.09268219 L13.6117518,5.10447617 C13.5986702,5.12862042 13.5981665,5.15774083 13.6093854,5.18096941 C13.7110088,5.38460759 13.8006537,5.60302189 13.8905633,5.86202452 C13.9000104,5.88896412 13.9223999,5.91007611 13.9634691,5.92237061 L14.0847266,5.96044413 C14.9270779,6.21051031 15.5,6.96458057 15.5,7.83135506 L15.5,8.04216123 C15.5,8.91422023 14.9292846,9.67388684 14.0819149,9.91867007 L13.9972045,9.94178112 C13.9763505,9.94767433 13.9585965,9.96538424 13.9420219,10.017166 C13.8617005,10.2485347 13.7752448,10.4667833 13.6822721,10.6717117 C13.669162,10.7004452 13.6698044,10.7208071 13.6777117,10.7345739 L13.7512766,10.8637404 C14.1697106,11.6215969 14.0322794,12.5625221 13.4184187,13.1775648 L13.2669299,13.3293453 C12.6581068,13.9393407 11.7246744,14.0745932 10.9513544,13.662257 C10.9273644,13.6489036 10.8913462,13.6485528 10.8722407,13.6586187 C10.6353786,13.787166 10.373317,13.9012194 10.1052514,13.9940979 C10.0845343,14.0015935 10.0656499,14.0222313 10.0481293,14.0819285 L10.0423638,14.0974257 C9.79881008,14.9271029 9.03716611,15.5 8.17252885,15.5 L7.96212781,15.5 C7.09163178,15.5 6.33176961,14.9292562 6.09118025,14.0936054 C6.0844887,14.0704446 6.06933526,14.0549795 6.03440908,14.0438543 C5.78504022,13.9605713 5.53355717,13.8570391 5.26545121,13.7280888 C5.23596592,13.7137398 5.20470077,13.7139957 5.2012545,13.715901 L5.13133232,13.7558303 C4.3734076,14.1759152 3.43189726,14.0379503 2.81723048,13.4221 L2.66574174,13.2703195 C2.05448716,12.6578879 1.92496866,11.7238702 2.36207225,10.9073178 L2.37141608,10.8955238 C2.38449777,10.8713796 2.38500144,10.8422592 2.37378252,10.8190306 C2.27215911,10.6153924 2.18251422,10.3969781 2.09260458,10.1379755 C2.08315751,10.1110359 2.06076803,10.0899239 2.01964877,10.0776137 L1.90023389,10.0400861 C1.07159114,9.79589831 0.5,9.03350573 0.5,8.16864494 L0.5,7.95783877 C0.5,7.08577977 1.07071535,6.32611316 1.91808509,6.08132993 L2.00279555,6.05821888 C2.02364951,6.05232567 2.04140347,6.03461576 2.0579781,5.98283399 C2.13781432,5.7528629 2.2242441,5.53429185 2.30361051,5.36085945 C2.31852351,5.32457242 2.31662235,5.28549611 2.30545624,5.26542612 L2.23189136,5.13625964 C1.81345727,4.37840309 1.95088851,3.43747793 2.56474924,2.82243519 L2.71623798,2.67065474 C3.3250611,2.06065932 4.2584935,1.92540682 5.03181352,2.33774295 C5.0558035,2.35109638 5.09182172,2.35144724 5.11092725,2.34138135 C5.34778928,2.21283404 5.60985091,2.09878056 5.87791652,2.00590211 C5.8986336,1.99840653 5.91751805,1.97776874 5.93503865,1.91807152 L5.94080411,1.90257427 C6.18435784,1.07289706 6.94600181,0.5 7.81063907,0.5 L8.0210401,0.5 Z M8.0210401,1.5 L7.81063907,1.5 C7.39072836,1.5 7.01912483,1.77951455 6.89384137,2.20466827 L6.88976701,2.21427121 C6.79400308,2.55594552 6.54511057,2.82794665 6.21179481,2.94849427 C5.98744995,3.02626464 5.77529911,3.11859612 5.58309663,3.22287222 C5.26035588,3.39348229 4.8654791,3.38963581 4.55342733,3.2158456 C4.17515515,3.01419562 3.72045393,3.08008092 3.42402457,3.37708107 L3.27253582,3.52886152 C2.97169706,3.83027956 2.90505155,4.28656909 3.10400435,4.64700203 L3.17655279,4.77433662 C3.34036834,5.0681191 3.35780299,5.42646927 3.22111405,5.75814702 C3.14781891,5.91909194 3.07272887,6.10898607 3.007069,6.29752618 C2.89498453,6.65207728 2.62477858,6.9216129 2.2704773,7.02171611 L2.1885875,7.04402111 C1.77634796,7.16313388 1.5,7.53097455 1.5,7.95783877 L1.5,8.16864494 C1.5,8.58959324 1.77911479,8.96187866 2.19118461,9.0833872 L2.31210605,9.12136139 C2.65169486,9.22259374 2.92003942,9.4756272 3.0367819,9.80854154 C3.11395906,10.0308593 3.18761286,10.2103122 3.27111945,10.3777227 C3.42445642,10.6941445 3.41807832,11.0628997 3.231193,11.4047638 L3.22348664,11.4135105 C3.01243481,11.8095565 3.07565174,12.265443 3.37352832,12.5638932 L3.52501706,12.7156736 C3.82582382,13.0170596 4.28106399,13.0837685 4.64075945,12.8844555 L4.70884971,12.8455466 C5.00891325,12.6775855 5.38574322,12.6745013 5.70095505,12.8279049 C5.93056249,12.9383336 6.14343794,13.0259716 6.34375831,13.0929379 C6.68911323,13.2023127 6.95212094,13.47073 7.05201641,13.8164887 C7.16930033,14.2238563 7.53694538,14.5 7.96212781,14.5 L8.17252885,14.5 C8.59243956,14.5 8.96404309,14.2204855 9.08932654,13.7953317 L9.09340091,13.7857288 C9.18916484,13.4440545 9.43805735,13.1720533 9.77137311,13.0515057 C9.99571797,12.9737354 10.2078688,12.8814039 10.4000713,12.7771278 C10.722812,12.6065177 11.1176888,12.6103642 11.4297406,12.7841544 C11.8080128,12.9858044 12.262714,12.9199191 12.5591434,12.6229189 L12.7106321,12.4711385 C13.0114709,12.1697204 13.0781164,11.7134309 12.8791636,11.352998 L12.809791,11.2312735 C12.6391155,10.9342576 12.6277457,10.5738635 12.7720519,10.2575885 C12.8515241,10.0824152 12.9267499,9.89251533 12.992931,9.70247382 C13.1050155,9.34792272 13.3752214,9.0783871 13.7295227,8.97828389 L13.8114125,8.95597889 C14.223652,8.83686612 14.5,8.46902545 14.5,8.04216123 L14.5,7.83135506 C14.5,7.41080116 14.2214393,7.04416425 13.7928635,6.91687401 L13.6710619,6.87863861 C13.3314731,6.77740626 13.0631285,6.5243728 12.946386,6.19145846 C12.8692089,5.96914072 12.7955551,5.78968776 12.7120485,5.62227727 C12.5587115,5.30585548 12.5650896,4.93710034 12.7519749,4.5952362 L12.7596813,4.58648954 C12.9707331,4.19044349 12.9075162,3.73455695 12.6096396,3.4361068 L12.4581509,3.28432635 C12.1573441,2.98294038 11.7021039,2.91623146 11.3424085,3.11554445 L11.2743182,3.15445342 C10.9742547,3.32241448 10.5974247,3.32549872 10.2822129,3.17209508 C10.0526054,3.06166644 9.83972998,2.97402844 9.63940961,2.90706211 C9.29405469,2.79768731 9.03104698,2.52926998 8.93115151,2.18351128 C8.81386759,1.77614367 8.44622253,1.5 8.0210401,1.5 Z M8,5.5 C9.38032676,5.5 10.5,6.61967324 10.5,8 C10.5,9.38032676 9.38032676,10.5 8,10.5 C6.61967324,10.5 5.5,9.38032676 5.5,8 C5.5,6.61967324 6.61967324,5.5 8,5.5 Z M8,6.5 C7.17195799,6.5 6.5,7.17195799 6.5,8 C6.5,8.82804201 7.17195799,9.5 8,9.5 C8.82804201,9.5 9.5,8.82804201 9.5,8 C9.5,7.17195799 8.82804201,6.5 8,6.5 Z" id="形状结合" fill="#000000"></path>
    </g>
</svg>