<?xml version="1.0" encoding="UTF-8"?>
<svg width="16px" height="16px" viewBox="0 0 16 16" version="1.1" xmlns="http://www.w3.org/2000/svg" xmlns:xlink="http://www.w3.org/1999/xlink">
    <title>ICON / status / error_dark</title>
    <defs>
        <linearGradient x1="50%" y1="0%" x2="50%" y2="100%" id="linearGradient-1">
            <stop stop-color="#DB5C5C" offset="0%"></stop>
            <stop stop-color="#DC5D83" offset="100%"></stop>
        </linearGradient>
    </defs>
    <g id="ICON-/-status-/-error_dark" stroke="none" stroke-width="1" fill="none" fill-rule="evenodd">
        <g id="错误2" transform="translate(1.636, 1.636)">
            <circle id="椭圆形" fill="url(#linearGradient-1)" cx="6.36396103" cy="6.36396103" r="6"></circle>
            <path d="M6.36396103,1.86396103 C6.91624578,1.86396103 7.36396103,2.31167628 7.36396103,2.86396103 L7.36296103,5.36296103 L9.86396103,5.36396103 C10.4162458,5.36396103 10.863961,5.81167628 10.863961,6.36396103 C10.863961,6.91624578 10.4162458,7.36396103 9.86396103,7.36396103 L7.36296103,7.36296103 L7.36396103,9.86396103 C7.36396103,10.4162458 6.91624578,10.863961 6.36396103,10.863961 C5.81167628,10.863961 5.36396103,10.4162458 5.36396103,9.86396103 L5.36296103,7.36296103 L2.86396103,7.36396103 C2.31167628,7.36396103 1.86396103,6.91624578 1.86396103,6.36396103 C1.86396103,5.81167628 2.31167628,5.36396103 2.86396103,5.36396103 L5.36296103,5.36296103 L5.36396103,2.86396103 C5.36396103,2.31167628 5.81167628,1.86396103 6.36396103,1.86396103 Z" id="形状结合" fill="#FFFFFF" transform="translate(6.364, 6.364) rotate(-225) translate(-6.364, -6.364)"></path>
        </g>
    </g>
</svg>