<?xml version="1.0" encoding="UTF-8"?>
<svg width="96px" height="96px" viewBox="0 0 96 96" version="1.1" xmlns="http://www.w3.org/2000/svg" xmlns:xlink="http://www.w3.org/1999/xlink">
    <title>plugin/default</title>
    <defs>
        <linearGradient x1="50%" y1="0%" x2="50%" y2="100%" id="linearGradient-1">
            <stop stop-color="#C6C6C6" offset="0%"></stop>
            <stop stop-color="#908F8F" offset="100%"></stop>
        </linearGradient>
        <path d="M18,0 L78,0 C87.9411255,-1.82615513e-15 96,8.0588745 96,18 L96,78 C96,87.9411255 87.9411255,96 78,96 L18,96 C8.0588745,96 1.21743675e-15,87.9411255 0,78 L0,18 C-1.21743675e-15,8.0588745 8.0588745,1.82615513e-15 18,0 Z" id="path-2"></path>
        <filter x="-1.0%" y="-1.0%" width="102.1%" height="102.1%" filterUnits="objectBoundingBox" id="filter-3">
            <feGaussianBlur stdDeviation="0.5" in="SourceAlpha" result="shadowBlurInner1"></feGaussianBlur>
            <feOffset dx="0" dy="-1" in="shadowBlurInner1" result="shadowOffsetInner1"></feOffset>
            <feComposite in="shadowOffsetInner1" in2="SourceAlpha" operator="arithmetic" k2="-1" k3="1" result="shadowInnerInner1"></feComposite>
            <feColorMatrix values="0 0 0 0 0   0 0 0 0 0   0 0 0 0 0  0 0 0 0.180368704 0" type="matrix" in="shadowInnerInner1"></feColorMatrix>
        </filter>
        <path d="M20,5 L76,5 C84.2842712,5 91,11.7157288 91,20 L91,76 C91,84.2842712 84.2842712,91 76,91 L20,91 C11.7157288,91 5,84.2842712 5,76 L5,20 C5,11.7157288 11.7157288,5 20,5 Z" id="path-4"></path>
        <linearGradient x1="47.492113%" y1="-14.0918039%" x2="50%" y2="100%" id="linearGradient-6">
            <stop stop-color="#FFFFFF" offset="0%"></stop>
            <stop stop-color="#FFFFFF" stop-opacity="0.439316543" offset="100%"></stop>
        </linearGradient>
    </defs>
    <g id="plugin/default" stroke="none" stroke-width="1" fill="none" fill-rule="evenodd">
        <g id="矩形">
            <use fill="url(#linearGradient-1)" fill-rule="evenodd" xlink:href="#path-2"></use>
            <use fill="black" fill-opacity="1" filter="url(#filter-3)" xlink:href="#path-2"></use>
        </g>
        <mask id="mask-5" fill="white">
            <use xlink:href="#path-4"></use>
        </mask>
        <path stroke="#FFFFFF" stroke-width="0.979166667" d="M76,5.48958333 C80.0069409,5.48958333 83.6345451,7.11371704 86.260414,9.73958598 C88.886283,12.3654549 90.5104167,15.9930591 90.5104167,20 L90.5104167,76 C90.5104167,80.0069409 88.886283,83.6345451 86.260414,86.260414 C83.6345451,88.886283 80.0069409,90.5104167 76,90.5104167 L20,90.5104167 C15.9930591,90.5104167 12.3654549,88.886283 9.73958598,86.260414 C7.11371704,83.6345451 5.48958333,80.0069409 5.48958333,76 L5.48958333,20 C5.48958333,15.9930591 7.11371704,12.3654549 9.73958598,9.73958598 C12.3654549,7.11371704 15.9930591,5.48958333 20,5.48958333 Z"></path>
        <path d="M47.2266048,20.3748753 C48.5927081,20.3653496 49.9066134,20.8991771 50.8741536,21.854185 L58.4560861,29.5405821 C58.2328078,30.2542945 57.9129394,30.7974639 57.4756542,31.1977753 C56.9692084,31.6613998 56.3116883,31.9288542 55.5020272,32.0765687 C54.9938906,32.073942 54.5775987,32.1244833 54.1681287,32.2207168 C52.8967435,32.5268488 51.7938919,33.2553326 51.0134984,34.2498652 C50.2482288,35.2251239 49.7927059,36.4560261 49.7927166,37.791552 C49.7828334,39.3020476 50.3734136,40.7545999 51.4345297,41.8296474 C52.4956457,42.904695 53.9403715,43.5141705 55.4579113,43.5239857 C57.0294253,43.5120619 58.4475627,42.8647153 59.4702479,41.8274683 C60.4823842,40.8009204 61.1071844,39.3924742 61.1100193,37.8399913 C61.3090796,36.7760544 61.6037017,35.9693485 62.0177606,35.4309015 C62.3285464,35.026752 62.7088706,34.792172 63.1642317,34.737979 L73.0276876,44.3013676 C74.0170081,45.3036215 74.5116683,46.610399 74.5116683,47.9171765 C74.5116683,49.223954 74.0170081,50.5307315 73.027717,51.5329555 L65.8319327,58.8215885 C66.0443338,59.851417 66.4717228,60.5666974 67.1068136,61.0711345 C67.6932361,61.5369155 68.4691525,61.8227055 69.4603985,61.978195 C70.0637632,61.9686838 70.4062805,62.0080762 70.7201076,62.0777443 C71.7925,62.3349126 72.7126716,62.9369256 73.362177,63.7560643 C74.003173,64.5644713 74.3799999,65.5842186 74.3800107,66.6940988 C74.3884976,67.9896903 73.8713964,69.1662541 73.0282779,70.0213775 C72.1851594,70.876501 71.0160236,71.4101842 69.7267072,71.4200061 C68.5364192,71.4141216 67.4429992,70.9622919 66.6147392,70.2161281 C65.7895135,69.472698 65.2275085,68.4370863 65.0951734,67.2592442 L65.0600008,66.6261376 L64.8983332,65.8417502 C64.6494107,64.8116727 64.3248067,64.0645175 63.9451621,63.5876341 C63.4274374,62.9373041 62.8042346,62.7265302 62.0959401,62.8838425 L50.9249405,73.9293815 C49.9270977,74.9411835 48.6136392,75.452845 47.296628,75.4621591 C45.9796168,75.4714732 44.6590529,74.9784398 43.6519391,73.9857896 L34.3214936,64.528136 C34.5842488,63.6313657 34.9277202,63.1231343 35.4207527,62.7394859 C35.9312469,62.3422498 36.5952159,62.0784107 37.4049353,61.9342859 C37.90098,61.9423846 38.3226527,61.8916933 38.7200708,61.7953484 C39.9937492,61.4894159 41.0959134,60.7616403 41.8754722,59.7681714 C42.6409771,58.7926129 43.0957647,57.5609482 43.095754,56.2244518 C43.1060486,54.6529262 42.4788155,53.2257788 41.4561302,52.1885317 C40.433445,51.1512847 39.0153076,50.5039381 37.4367498,50.4920105 C35.9262538,50.5018295 34.481528,51.111305 33.420412,52.1863526 C32.3706946,53.2498518 31.7814583,54.6827888 31.7784665,56.175901 C31.5796541,57.2373132 31.2772061,58.0436599 30.8439873,58.5822103 C30.5077139,59.0002443 30.090077,59.2374891 29.5879636,59.2902711 L21.4984301,51.5329853 C20.5091096,50.5307315 20.0144494,49.223954 20.0144494,47.9171765 C20.0144494,46.610399 20.5091096,45.3036215 21.498576,44.3012198 L30.5446418,35.1292757 L30.6368763,34.4221447 C30.6774527,33.5859001 30.4260787,32.9206552 29.9112016,32.4127992 C29.4389146,31.9469524 28.7222786,31.6101003 27.7413737,31.4352856 C27.1869058,31.4330639 26.8294896,31.3929201 26.4864984,31.3123549 C25.4188074,31.0475054 24.5160736,30.4421627 23.8807397,29.6313471 C23.2437939,28.8184744 22.8757653,27.7993173 22.8792834,26.7063757 C22.8711355,25.4610983 23.3580196,24.2635903 24.2328211,23.3773034 C25.1076226,22.4910165 26.2986784,21.9885549 27.5369123,21.9804562 C28.8324943,21.9902864 30.00163,22.5239695 30.8447486,23.379093 C31.6878671,24.2342165 32.2049683,25.4107804 32.1964813,26.7063718 C32.4356636,28.0597911 32.7333036,28.9859857 33.0809002,29.586289 C33.290634,29.9485018 33.524247,30.20429 33.7682499,30.3674731 C34.1178886,30.6013026 34.4976599,30.6642738 34.9052746,30.5665762 L43.5957765,21.9103685 C44.5543664,20.9370022 45.8605957,20.3846578 47.2266048,20.3748753 Z" id="路径" stroke="#FFFFFF" fill="url(#linearGradient-6)" fill-rule="nonzero" mask="url(#mask-5)"></path>
        <g id="编组-2" mask="url(#mask-5)" stroke="#FFFFFF" stroke-dasharray="2" stroke-linecap="round" stroke-linejoin="round" stroke-opacity="0.5">
            <g transform="translate(18.7513, 0.5)">
                <line x1="0.5" y1="0" x2="0.5" y2="95.5" id="路径-11"></line>
                <line x1="56.5" y1="0" x2="56.5" y2="95.5" id="路径-11备份"></line>
            </g>
        </g>
        <g id="编组-2" mask="url(#mask-5)" stroke="#FFFFFF" stroke-dasharray="2" stroke-linecap="round" stroke-linejoin="round" stroke-opacity="0.5">
            <g transform="translate(47.2513, 48.25) rotate(90) translate(-47.2513, -48.25)translate(18.7513, 0.5)">
                <line x1="0.5" y1="0" x2="0.5" y2="95.5" id="路径-11"></line>
                <line x1="56.5" y1="0" x2="56.5" y2="95.5" id="路径-11备份"></line>
            </g>
        </g>
    </g>
</svg>