<?xml version="1.0" encoding="UTF-8"?>
<svg width="20px" height="20px" viewBox="0 0 20 20" version="1.1" xmlns="http://www.w3.org/2000/svg" xmlns:xlink="http://www.w3.org/1999/xlink">
    <title>ICON / sidebar / Git</title>
    <g id="ICON-/-sidebar-/-Git" stroke="none" stroke-width="1" fill="none" fill-rule="evenodd">
        <path d="M4.58333333,0.833333333 C6.19416385,0.833333333 7.5,2.13916948 7.5,3.75 C7.5,5.21908575 6.41386632,6.43449139 5.00080091,6.63701497 L4.99966667,12.9573333 L9.72415237,12.9575256 C11.9485369,12.9575256 13.7792772,11.2721342 14.0090331,9.10869128 C12.6727161,8.84280155 11.6666667,7.66388849 11.6666667,6.25 C11.6666667,4.63916948 12.9725028,3.33333333 14.5833333,3.33333333 C16.1941639,3.33333333 17.5,4.63916948 17.5,6.25 C17.5,7.68012385 16.4707135,8.86984496 15.1125254,9.11877833 C14.8749518,11.8857373 12.5531762,14.0575256 9.72415237,14.0575256 L6.50702572,14.0576099 C7.11575891,14.592163 7.5,15.3762093 7.5,16.25 C7.5,17.8608305 6.19416385,19.1666667 4.58333333,19.1666667 C2.97250281,19.1666667 1.66666667,17.8608305 1.66666667,16.25 C1.66666667,14.8389351 2.6687019,13.661908 4.00001745,13.3916737 L4.00001745,6.60832631 C2.6687019,6.33809203 1.66666667,5.16106495 1.66666667,3.75 C1.66666667,2.13916948 2.97250281,0.833333333 4.58333333,0.833333333 Z" id="形状结合" fill="#626E88" fill-rule="nonzero"></path>
    </g>
</svg>