<?xml version="1.0" encoding="UTF-8"?>
<svg width="16px" height="16px" viewBox="0 0 16 16" version="1.1" xmlns="http://www.w3.org/2000/svg" xmlns:xlink="http://www.w3.org/1999/xlink">
    <title>ICON / tab / file</title>
    <g id="ICON-/-tab-/-file" stroke="none" stroke-width="1" fill="none" fill-rule="evenodd">
        <path d="M1,7 L15,7 L15,13 C15,14.1045695 14.1045695,15 13,15 L3,15 C1.8954305,15 1,14.1045695 1,13 L1,7 L1,7 Z M1,3.01325433 L1,6 L1,6 L15,6 L15,5.00248718 C15,3.89791768 14.1045695,3.00248718 13,3.00248718 L8.20256386,3.00248718 C8.07261141,3.00248718 7.94776432,2.95189216 7.85447534,2.86142225 L6.23963907,1.2953842 C6.05306111,1.11444438 5.80336692,1.01325433 5.54346203,1.01325433 L3,1.01325433 C1.8954305,1.01325433 1,1.90868483 1,3.01325433 Z" id="形状结合" fill="#000000"></path>
    </g>
</svg>