<svg class="icon"
  style="width: 1em;height: 1em;vertical-align: middle;fill: currentColor;overflow: hidden;"
  viewBox="0 0 1024 1024" version="1.1" xmlns="http://www.w3.org/2000/svg" p-id="3354">
  <path
    d="M689.21344 868.54656 192.90112 868.54656c-58.63424 0-106.35264-47.7184-106.35264-106.35264L86.54848 124.07808c0-58.63424 47.7184-106.35264 106.35264-106.35264l496.3072 0c58.63424 0 106.35264 47.7184 106.35264 106.35264l0 638.11072C795.56096 820.82816 747.84768 868.54656 689.21344 868.54656L689.21344 868.54656zM192.90112 88.63232c-19.5328 0-35.45088 15.91808-35.45088 35.45088l0 638.11072c0 19.56864 15.91808 35.45088 35.45088 35.45088l496.3072 0c19.56864 0 35.45088-15.88224 35.45088-35.45088L724.6592 124.07808c0-19.5328-15.88224-35.45088-35.45088-35.45088L192.90112 88.6272 192.90112 88.63232zM831.01696 1010.34496 299.25376 1010.34496c-19.56864 0-35.45088-15.8464-35.45088-35.45088s15.88224-35.45088 35.45088-35.45088l531.75808 0c19.56864 0 35.45088-15.88224 35.45088-35.45088L866.46272 230.43072c0-19.56864 15.8464-35.45088 35.45088-35.45088 19.60448 0 35.45088 15.88224 35.45088 35.45088l0 673.5616C937.36448 962.63168 889.6512 1010.34496 831.01696 1010.34496L831.01696 1010.34496zM547.40992 301.33248 263.80288 301.33248c-19.56864 0-35.45088-15.88224-35.45088-35.45088 0-19.56864 15.88224-35.45088 35.45088-35.45088l283.60704 0c19.60448 0 35.45088 15.88224 35.45088 35.45088C582.8608 285.45024 567.0144 301.33248 547.40992 301.33248L547.40992 301.33248zM618.31168 478.58688 263.83872 478.58688c-19.56864 0-35.45088-15.88224-35.45088-35.45088 0-19.56864 15.88224-35.45088 35.45088-35.45088l354.47296 0c19.60448 0 35.45088 15.88224 35.45088 35.45088C653.76256 462.70464 637.91616 478.58688 618.31168 478.58688L618.31168 478.58688zM618.31168 655.84128l-354.5088 0c-19.56864 0-35.45088-15.8464-35.45088-35.45088 0-19.60448 15.88224-35.45088 35.45088-35.45088l354.5088 0c19.60448 0 35.45088 15.8464 35.45088 35.45088C653.76256 639.99488 637.91616 655.84128 618.31168 655.84128L618.31168 655.84128z"
    fill="#d9d9d9" p-id="3355"></path>
</svg>