<?xml version="1.0" encoding="UTF-8"?>
<svg width="16px" height="16px" viewBox="0 0 16 16" version="1.1" xmlns="http://www.w3.org/2000/svg" xmlns:xlink="http://www.w3.org/1999/xlink">
    <title>ICON / status bar /new_notification</title>
    <g id="ICON-/-status-bar-/new_notification" stroke="none" stroke-width="1" fill="none" fill-rule="evenodd">
        <path d="M10.6055283,11.9937841 C10.6189461,12.1030372 10.6258582,12.214343 10.6258582,12.3272889 C10.6258582,13.8000482 9.45060568,14.9939556 8.00085821,14.9939556 C6.55111074,14.9939556 5.37585821,13.8000482 5.37585821,12.3272889 C5.37585821,12.214343 5.38277029,12.1030372 5.39618816,11.9937841 L10.6055283,11.9937841 Z M8.26029906,1 C8.58927206,1 8.9103058,1.04448476 9.21763003,1.12786008 C8.94729967,1.38818787 8.71443485,1.68689527 8.52664823,2.01473256 C8.43928635,2.00461016 8.35015485,2 8.26029906,2 L7.74141736,2 C6.27795491,2 5.00661268,3.22288973 4.91705172,4.72654725 L4.90128645,4.99123358 C4.8010609,6.67394125 4.32198125,8.3228593 3.48791917,9.84109351 L3.39685821,10 L12.6038582,10 L12.5202118,9.85275454 C12.1880513,9.24970705 11.9119338,8.62598047 11.6933598,7.98765382 C11.794307,7.99608395 11.8966962,8 12,8 C12.2513014,8 12.4971901,7.97682576 12.7356458,7.93249775 C12.9181376,8.42227457 13.1386725,8.902873 13.3961304,9.37029574 C13.5002744,9.55937233 13.6103487,9.74609504 13.7253768,9.92895794 L13.9131384,10.217113 C14.1407954,10.5489008 13.9032397,11 13.5008582,11 L2.50085821,11 C2.12721828,11 1.89569853,10.611042 2.04680552,10.2898287 L2.09718668,10.2046178 C2.28210604,9.92880606 2.45362918,9.64691507 2.61146771,9.35960329 C3.37445912,7.97073823 3.81168065,6.46588938 3.90305557,4.93177688 L3.91882083,4.66709055 C4.03958002,2.63963942 5.74418412,1 7.74141736,1 L8.26029906,1 Z" id="形状结合" fill="#000000"></path>
        <circle id="椭圆形" fill="#F9625C" cx="12" cy="4" r="3"></circle>
    </g>
</svg>