<?xml version="1.0" encoding="UTF-8"?>
<svg width="16px" height="16px" viewBox="0 0 16 16" version="1.1" xmlns="http://www.w3.org/2000/svg" xmlns:xlink="http://www.w3.org/1999/xlink">
    <title>ICON / toolbar /stepback</title>
    <g id="ICON-/-toolbar-/stepback" stroke="none" stroke-width="1" fill="none" fill-rule="evenodd">
        <path d="M3.48952609,14 L10.4895261,14 C10.7656685,14 10.9895261,14.2238576 10.9895261,14.5 C10.9895261,14.7761424 10.7656685,15 10.4895261,15 L3.48952609,15 C3.21338372,15 2.98952609,14.7761424 2.98952609,14.5 C2.98952609,14.2238576 3.21338372,14 3.48952609,14 Z M7.87207224,1.73583696 L14.4952664,9.35291887 L14.5006801,2.75793653 C14.5008675,2.51247672 14.6778984,2.30846331 14.9111799,2.26630542 L15.0010616,2.25831836 C15.2772039,2.25852915 15.5008906,2.4825576 15.5006798,2.75869989 L15.494763,10.5096321 C15.4945527,10.7852084 15.271407,11.0086606 14.9958312,11.0092493 L7.23423621,11.0258288 C6.95809446,11.0264187 6.73375917,10.8030398 6.7331693,10.526898 C6.73257943,10.2507563 6.95595836,10.026421 7.23210011,10.0258311 L13.7432664,10.0119189 L7.49027211,2.82091891 L0.852652525,10.3213415 C0.689951826,10.5051322 0.4221968,10.5407506 0.219486951,10.4178432 L0.146851976,10.3643018 C-0.0599126175,10.1812635 -0.0791465904,9.8652658 0.103891695,9.65850121 L7.12038263,1.73249878 C7.32054432,1.50639116 7.67392666,1.5079605 7.87207224,1.73583696 Z" id="形状结合" fill="#000000" transform="translate(7.7395, 8.282) scale(-1, 1) translate(-7.7395, -8.282)"></path>
    </g>
</svg>