<?xml version="1.0" encoding="UTF-8"?>
<svg width="16px" height="16px" viewBox="0 0 16 16" version="1.1" xmlns="http://www.w3.org/2000/svg" xmlns:xlink="http://www.w3.org/1999/xlink">
    <title>ICON / toolbar / interrupt</title>
    <g id="ICON-/-toolbar-/-interrupt" stroke="none" stroke-width="1" fill="none" fill-rule="evenodd">
        <path d="M5,0.5 C6.1045695,0.5 7,1.3954305 7,2.5 L7,13.5 C7,14.6045695 6.1045695,15.5 5,15.5 C3.8954305,15.5 3,14.6045695 3,13.5 L3,2.5 C3,1.3954305 3.8954305,0.5 5,0.5 Z M5,1.5 C4.44771525,1.5 4,1.94771525 4,2.5 L4,13.5 C4,14.0522847 4.44771525,14.5 5,14.5 C5.55228475,14.5 6,14.0522847 6,13.5 L6,2.5 C6,1.94771525 5.55228475,1.5 5,1.5 Z M11,0.5 C12.1045695,0.5 13,1.3954305 13,2.5 L13,13.5 C13,14.6045695 12.1045695,15.5 11,15.5 C9.8954305,15.5 9,14.6045695 9,13.5 L9,2.5 C9,1.3954305 9.8954305,0.5 11,0.5 Z M11,1.5 C10.4477153,1.5 10,1.94771525 10,2.5 L10,13.5 C10,14.0522847 10.4477153,14.5 11,14.5 C11.5522847,14.5 12,14.0522847 12,13.5 L12,2.5 C12,1.94771525 11.5522847,1.5 11,1.5 Z" id="形状结合" fill="#000000"></path>
    </g>
</svg>