<?xml version="1.0" encoding="UTF-8"?>
<svg width="16px" height="16px" viewBox="0 0 16 16" version="1.1" xmlns="http://www.w3.org/2000/svg" xmlns:xlink="http://www.w3.org/1999/xlink">
    <title>ICON / toolbar / jump</title>
    <g id="ICON-/-toolbar-/-jump" stroke="none" stroke-width="1" fill="none" fill-rule="evenodd">
        <path d="M8.69478846,1.40645269 L12.7303418,5.44200605 C12.9787807,5.69044492 13.0036246,6.07780789 12.8048735,6.35403157 L12.7301817,6.44180694 C12.4539349,6.71787673 12.0062167,6.71780707 11.7300559,6.44165133 L8.99996169,3.71155947 L9,10.5857864 C9,11.1380712 8.55228475,11.5857864 8,11.5857864 C7.44771525,11.5857864 7,11.1380712 7,10.5857864 L6.99996169,3.68555947 L4.24516342,6.44242932 C3.99667279,6.69095749 3.60920171,6.71583768 3.33288459,6.51705102 L3.24504099,6.44230694 C2.96887272,6.16596173 2.96894443,5.71808315 3.24520119,5.4418264 L7.28057489,1.40645269 C7.67109919,1.0159284 8.30426416,1.0159284 8.69478846,1.40645269 Z M6,13 L10,13 C10.5522847,13 11,13.4477153 11,14 C11,14.5522847 10.5522847,15 10,15 L6,15 C5.44771525,15 5,14.5522847 5,14 C5,13.4477153 5.44771525,13 6,13 Z" id="形状结合" fill="#626E88" fill-rule="nonzero"></path>
    </g>
</svg>