<?xml version="1.0" encoding="UTF-8"?>
<svg width="16px" height="16px" viewBox="0 0 16 16" version="1.1" xmlns="http://www.w3.org/2000/svg" xmlns:xlink="http://www.w3.org/1999/xlink">
    <title>ICON / toolbar / entry</title>
    <g id="ICON-/-toolbar-/-entry" stroke="none" stroke-width="1" fill="none" fill-rule="evenodd">
        <path d="M8.35279736,12.3614078 L13.8527974,6.88485484 C14.0484762,6.69001024 14.0491524,6.37342848 13.8543078,6.17774968 C13.6594632,5.98207088 13.3428814,5.98139463 13.1472026,6.17623923 L8.4990795,10.8051 L8.5,1.53428841 C8.5,1.25808841 8.2761,1.03428841 8,1.03428841 C7.7239,1.03428841 7.5,1.25808841 7.5,1.53428841 L7.4990795,10.8021 L2.8683629,6.17672386 C2.6946641,6.00329005 2.42522506,5.98421058 2.23046003,6.11935534 L2.16125632,6.17726364 C1.96614329,6.37267478 1.96638495,6.68925718 2.1617961,6.88437021 L7.6467166,12.3609232 C7.84172723,12.5556363 8.15751963,12.5558531 8.35279736,12.3614078 Z M4.5,15 L11.5,15 C11.7761424,15 12,15.2238576 12,15.5 C12,15.7761424 11.7761424,16 11.5,16 L4.5,16 C4.22385763,16 4,15.7761424 4,15.5 C4,15.2238576 4.22385763,15 4.5,15 Z" id="形状结合" fill="#000000"></path>
    </g>
</svg>