<?xml version="1.0" encoding="UTF-8"?>
<svg width="16px" height="16px" viewBox="0 0 16 16" version="1.1" xmlns="http://www.w3.org/2000/svg" xmlns:xlink="http://www.w3.org/1999/xlink">
    <title>ICON / toolbar /reverse_continue</title>
    <g id="ICON-/-toolbar-/reverse_continue" stroke="none" stroke-width="1" fill="none" fill-rule="evenodd">
        <path d="M2,1.00389481 C3.1045695,1.00389481 4,1.89932531 4,3.00389481 L4,13.0374546 C4,14.1420241 3.1045695,15.0374546 2,15.0374546 C0.8954305,15.0374546 -1.46549439e-13,14.1420241 -1.46549439e-13,13.0374546 L-1.46549439e-13,3.00389481 C-1.46549439e-13,1.89932531 0.8954305,1.00389481 2,1.00389481 Z M2,2.00389481 C1.44771525,2.00389481 1,2.45161006 1,3.00389481 L1,13.0374546 C1,13.5897394 1.44771525,14.0374546 2,14.0374546 C2.55228475,14.0374546 3,13.5897394 3,13.0374546 L3,3.00389481 C3,2.45161006 2.55228475,2.00389481 2,2.00389481 Z M14.4275362,6.82869679 C15.0744291,7.34621111 15.1793112,8.29014967 14.6617969,8.93704257 C14.5925992,9.02353963 14.5140333,9.10210557 14.4275362,9.17130321 L7.50190005,14.7005844 C6.85500715,15.2180987 5.91106859,15.1132167 5.39355427,14.4663238 C5.18077861,14.2003542 5.06485748,13.8698884 5.06485748,13.5292812 L5.06485748,2.50389481 C5.06485748,1.67546768 5.73643036,1.00389481 6.56485748,1.00389481 C6.90546473,1.00389481 7.23593048,1.11981593 7.50190005,1.33259159 L14.4275362,6.82869679 Z M13.8809281,8.31234752 C14.0534328,8.09671656 14.0184722,7.78207037 13.8028412,7.6095656 L6.87720501,2.1134604 C6.78854848,2.04253518 6.67839323,2.00389481 6.56485748,2.00389481 C6.28871511,2.00389481 6.06485748,2.22775243 6.06485748,2.50389481 L6.06485748,13.5292812 C6.06485748,13.6428169 6.10349786,13.7529722 6.17442308,13.8416287 C6.34692785,14.0572597 6.66157404,14.0922204 6.87720501,13.9197156 L13.8028412,8.3904344 C13.8316735,8.36736852 13.8578622,8.34117988 13.8809281,8.31234752 Z" id="形状结合" fill="#000000" transform="translate(7.4953, 8.0207) scale(-1, 1) translate(-7.4953, -8.0207)"></path>
    </g>
</svg>