<?xml version="1.0" encoding="UTF-8"?>
<svg width="20px" height="20px" viewBox="0 0 20 20" version="1.1" xmlns="http://www.w3.org/2000/svg" xmlns:xlink="http://www.w3.org/1999/xlink">
    <title>ICON / sidebar / debug</title>
    <g id="ICON-/-sidebar-/-debug" stroke="none" stroke-width="1" fill="none" fill-rule="evenodd" fill-opacity="0.7">
        <path d="M2.1086084,5.89724811 L4.21566667,8.00518985 L15.7826667,8.00518985 L17.8913916,5.89724811 C18.1354693,5.65317043 18.5311974,5.65317043 18.7752751,5.89724811 C19.0193528,6.14132579 19.0193528,6.5370539 18.7752751,6.78113159 L16.6656667,8.88918985 L16.6656667,11.9641898 L18.3333333,11.9641898 C18.6785113,11.9641898 18.9583333,12.2440119 18.9583333,12.5891898 C18.9583333,12.9343678 18.6785113,13.2141898 18.3333333,13.2141898 L16.6656667,13.2141898 L16.6666667,13.4225232 C16.6666667,14.5295687 16.3259091,15.6082123 15.6362801,16.5077576 L17.5252751,18.3972481 C17.7693528,18.6413258 17.7693528,19.0370539 17.5252751,19.2811316 C17.2811974,19.5252093 16.8854693,19.5252093 16.6413916,19.2811316 L14.7593202,17.399522 C13.6586217,18.2788837 12.0765114,18.8391898 10,18.8391898 C7.92671127,18.8391898 6.34512066,18.2758943 5.24392102,17.3949498 L3.3586084,19.2811316 C3.11453072,19.5252093 2.71880261,19.5252093 2.47472493,19.2811316 C2.23064725,19.0370539 2.23064725,18.6413258 2.47472493,18.3972481 L4.36836098,16.5049877 C3.67597571,15.6039487 3.33333333,14.5250414 3.33333333,13.4225232 L3.33266667,13.2141898 L1.66666667,13.2141898 C1.3214887,13.2141898 1.04166667,12.9343678 1.04166667,12.5891898 C1.04166667,12.2440119 1.3214887,11.9641898 1.66666667,11.9641898 L3.33266667,11.9641898 L3.33266667,8.88818985 L1.22472493,6.78113159 C0.980647246,6.5370539 0.980647246,6.14132579 1.22472493,5.89724811 C1.46880261,5.65317043 1.86453072,5.65317043 2.1086084,5.89724811 Z M10,10.1666667 C9.53976271,10.1666667 9.16666667,10.5397627 9.16666667,11 L9.16666667,16 C9.16666667,16.4602373 9.53976271,16.8333333 10,16.8333333 C10.4602373,16.8333333 10.8333333,16.4602373 10.8333333,16 L10.8333333,11 C10.8333333,10.5397627 10.4602373,10.1666667 10,10.1666667 Z M10,1.33918985 C12.3089729,1.33918985 14.1666667,3.11421001 14.1666667,5.48465569 L14.1666667,6.17911402 C14.1666667,6.63935132 13.7935706,7.01244736 13.3333333,7.01244736 L6.66666667,7.01244736 C6.20642938,7.01244736 5.83333333,6.63935132 5.83333333,6.17911402 L5.83333333,5.48465569 C5.83333333,3.11421001 7.69102715,1.33918985 10,1.33918985 Z" id="形状结合" fill="#000000" fill-rule="nonzero"></path>
    </g>
</svg>