<?xml version="1.0" encoding="UTF-8"?>
<svg width="22px" height="22px" viewBox="0 0 22 22" version="1.1" xmlns="http://www.w3.org/2000/svg" xmlns:xlink="http://www.w3.org/1999/xlink">
    <title>ICON / sidebar / debug_22px</title>
    <g id="ICON-/-sidebar-/-debug_22px" stroke="none" stroke-width="1" fill="none" fill-rule="evenodd">
        <path d="M19.6111071,4.84611013 C19.7697361,4.52407421 20.159392,4.39160672 20.4814279,4.55023571 C20.8034638,4.70886471 20.9359313,5.09852061 20.7773023,5.42055653 L20.7405833,5.49510053 C20.613985,5.75211043 20.5537,5.8744961 19.8302808,7.34312411 C19.747523,7.51113241 19.5963189,7.6352798 19.4154155,7.6837527 L16.8171556,8.38001562 C17.0358739,8.91272031 17.15,9.51665692 17.15,10.175 L17.1496826,11.4493333 L20.1942047,11.45 C20.5205548,11.45 20.7907312,11.6905082 20.837157,12.0039478 L20.8442047,12.1 C20.8442047,12.4589851 20.5531898,12.75 20.1942047,12.75 L17.1496826,12.7493333 L17.15,14.025 C17.15,14.6925136 17.033715,15.3334989 16.8195757,15.930728 L19.5795605,16.7815751 C19.7505327,16.8342775 19.8922224,16.9551211 19.9712458,17.1156337 L20.777363,18.7530202 C20.935924,19.0750896 20.8033742,19.4647175 20.4813048,19.6232786 L20.3829559,19.6622151 C20.0836205,19.7534344 19.7537514,19.6170829 19.6110465,19.3272204 L18.9294081,17.9416683 L16.2346703,17.111111 C15.1498233,18.7866289 13.208367,19.9 11,19.9 C8.79033786,19.9 6.84787256,18.7852894 5.76339372,17.1080968 L3.06162468,17.9416683 L2.37998632,19.3272204 C2.23728141,19.6170829 1.9074123,19.7534344 1.60807693,19.6622151 L1.50972798,19.6232786 C1.18765857,19.4647175 1.05510883,19.0750896 1.21366984,18.7530202 L2.01978695,17.1156337 C2.09881043,16.9551211 2.24050013,16.8342775 2.41147229,16.7815751 L5.17970634,15.9287066 C4.96602531,15.3320519 4.85,14.6917595 4.85,14.025 L4.84968263,12.7493333 L1.79682808,12.75 C1.43784299,12.75 1.14682808,12.4589851 1.14682808,12.1 C1.14682808,11.7410149 1.43784299,11.45 1.79682808,11.45 L4.84968263,11.4493333 L4.85,10.175 C4.85,9.51514455 4.96054333,8.911373 5.17389267,8.37950349 L2.57561725,7.6837527 C2.39471391,7.6352798 2.24350982,7.51113241 2.16075201,7.34312411 C1.60174623,6.20827519 1.43870288,5.87727759 1.33505389,5.66685769 L1.30039006,5.59648593 C1.27264528,5.54016071 1.24661315,5.48731235 1.21373046,5.42055653 C1.05510147,5.09852061 1.18756896,4.70886471 1.50960488,4.55023571 C1.8316408,4.39160672 2.22129671,4.52407421 2.3799257,4.84611013 C2.40623185,4.89951479 2.42815365,4.94401867 2.45007544,4.98852255 L2.48350618,5.05639096 C2.57557772,5.24330726 2.70272413,5.50142976 3.14554439,6.40040812 L3.19597244,6.50313334 L5.89870089,7.22823833 C6.6530591,6.41858747 7.79533729,5.95 9.26315789,5.95 L12.7116669,5.95 C14.1699618,5.95 15.3184925,6.42159374 16.0815476,7.23116376 L18.7950604,6.50313334 L18.8454884,6.40040812 C19.1407019,5.80108921 19.2956159,5.48659513 19.3933709,5.28814079 L19.4458299,5.18164268 C19.469295,5.13400573 19.4891123,5.09377422 19.5075266,5.05639096 L19.5409573,4.98852255 C19.5628791,4.94401867 19.5848009,4.89951479 19.6111071,4.84611013 Z M12.7116669,7.25 L9.26315789,7.25 C7.19888067,7.25 6.15,8.35584077 6.15,10.175 L6.15,14.025 C6.15,16.5440667 8.3141561,18.6 11,18.6 C13.6858808,18.6 15.85,16.5440868 15.85,14.025 L15.85,10.175 C15.85,8.3753403 14.7659934,7.25 12.7116669,7.25 Z M11,8.88547298 C11.3589851,8.88547298 11.65,9.17648789 11.65,9.53547298 L11.65,15.7824662 C11.65,16.1414513 11.3589851,16.4324662 11,16.4324662 C10.6410149,16.4324662 10.35,16.1414513 10.35,15.7824662 L10.35,9.53547298 C10.35,9.17648789 10.6410149,8.88547298 11,8.88547298 Z M11,0.733333333 C12.8287065,0.733333333 14.5643578,1.99742081 14.5643578,3.83586389 L14.5643578,4.37446392 C14.5643578,4.73140948 14.2688657,5.02077103 13.9043578,5.02077103 L8.09940163,5.02077103 C7.73489369,5.02077103 7.43940163,4.73140948 7.43940163,4.37446392 L7.43940163,3.83586389 C7.43940163,1.99742081 9.1712935,0.733333333 11,0.733333333 Z" id="形状结合" fill="#000000"></path>
    </g>
</svg>