<?xml version="1.0" encoding="UTF-8"?>
<svg width="16px" height="16px" viewBox="0 0 16 16" version="1.1" xmlns="http://www.w3.org/2000/svg" xmlns:xlink="http://www.w3.org/1999/xlink">
    <title>ICON / toolbar / interrupt</title>
    <g id="ICON-/-toolbar-/-interrupt" stroke="none" stroke-width="1" fill="none" fill-rule="evenodd">
        <path d="M5,1.00389481 C6.1045695,1.00389481 7,1.89932531 7,3.00389481 L7,13.0374546 C7,14.1420241 6.1045695,15.0374546 5,15.0374546 C3.8954305,15.0374546 3,14.1420241 3,13.0374546 L3,3.00389481 C3,1.89932531 3.8954305,1.00389481 5,1.00389481 Z M5,2.00389481 C4.44771525,2.00389481 4,2.45161006 4,3.00389481 L4,13.0374546 C4,13.5897394 4.44771525,14.0374546 5,14.0374546 C5.55228475,14.0374546 6,13.5897394 6,13.0374546 L6,3.00389481 C6,2.45161006 5.55228475,2.00389481 5,2.00389481 Z M11,1.00389481 C12.1045695,1.00389481 13,1.89932531 13,3.00389481 L13,13.0374546 C13,14.1420241 12.1045695,15.0374546 11,15.0374546 C9.8954305,15.0374546 9,14.1420241 9,13.0374546 L9,3.00389481 C9,1.89932531 9.8954305,1.00389481 11,1.00389481 Z M11,2.00389481 C10.4477153,2.00389481 10,2.45161006 10,3.00389481 L10,13.0374546 C10,13.5897394 10.4477153,14.0374546 11,14.0374546 C11.5522847,14.0374546 12,13.5897394 12,13.0374546 L12,3.00389481 C12,2.45161006 11.5522847,2.00389481 11,2.00389481 Z" id="形状结合" fill="#000000"></path>
    </g>
</svg>