<?xml version="1.0" encoding="UTF-8"?>
<svg width="16px" height="16px" viewBox="0 0 16 16" version="1.1" xmlns="http://www.w3.org/2000/svg" xmlns:xlink="http://www.w3.org/1999/xlink">
    <title>ICON / toolbar / skip</title>
    <g id="ICON-/-toolbar-/-skip" stroke="none" stroke-width="1" fill="none" fill-rule="evenodd">
        <path d="M4.5,15 L11.5,15 C11.7761424,15 12,15.2238576 12,15.5 C12,15.7761424 11.7761424,16 11.5,16 L4.5,16 C4.22385763,16 4,15.7761424 4,15.5 C4,15.2238576 4.22385763,15 4.5,15 Z M8.3773092,1.73583696 L15.0005033,9.35291887 L15.005917,2.75793653 C15.0061044,2.51247672 15.1831354,2.30846331 15.4164168,2.26630542 L15.5062986,2.25831836 C15.7824409,2.25852915 16.0061275,2.4825576 16.0059167,2.75869989 L16,10.5096321 C15.9997896,10.7852084 15.776644,11.0086606 15.5010682,11.0092493 L7.73947316,11.0258288 C7.46333141,11.0264187 7.23899612,10.8030398 7.23840625,10.526898 C7.23781639,10.2507563 7.46119532,10.026421 7.73733706,10.0258311 L14.2485033,10.0119189 L7.99550906,2.82091891 L1.35788948,10.3213415 C1.19518878,10.5051322 0.927433754,10.5407506 0.724723905,10.4178432 L0.65208893,10.3643018 C0.445324336,10.1812635 0.426090363,9.8652658 0.609128649,9.65850121 L7.62561959,1.73249878 C7.82578127,1.50639116 8.17916361,1.5079605 8.3773092,1.73583696 Z" id="形状结合" fill="#000000"></path>
    </g>
</svg>