<?xml version="1.0" encoding="UTF-8"?>
<svg width="16px" height="16px" viewBox="0 0 16 16" version="1.1" xmlns="http://www.w3.org/2000/svg" xmlns:xlink="http://www.w3.org/1999/xlink">
    <title>ICON / toolbar / jump</title>
    <g id="ICON-/-toolbar-/-jump" stroke="none" stroke-width="1" fill="none" fill-rule="evenodd">
        <path d="M8.35279736,1.1799806 L13.8527974,6.65653356 C14.0484762,6.85137816 14.0491524,7.16795993 13.8543078,7.36363873 C13.6594632,7.55931753 13.3428814,7.55999378 13.1472026,7.36514918 L8.4990795,2.73628841 L8.5,12.0071 C8.5,12.2833 8.2761,12.5071 8,12.5071 C7.7239,12.5071 7.5,12.2833 7.5,12.0071 L7.4990795,2.73928841 L2.8683629,7.36466455 C2.6946641,7.53809835 2.42522506,7.55717783 2.23046003,7.42203306 L2.16125632,7.36412477 C1.96614329,7.16871363 1.96638495,6.85213123 2.1617961,6.65701819 L7.6467166,1.18046523 C7.84172723,0.985752103 8.15751963,0.985535352 8.35279736,1.1799806 Z M4.5,15 L11.5,15 C11.7761424,15 12,15.2238576 12,15.5 C12,15.7761424 11.7761424,16 11.5,16 L4.5,16 C4.22385763,16 4,15.7761424 4,15.5 C4,15.2238576 4.22385763,15 4.5,15 Z" id="形状结合" fill="#000000"></path>
    </g>
</svg>