<?xml version="1.0" encoding="UTF-8"?>
<svg width="16px" height="16px" viewBox="0 0 16 16" version="1.1" xmlns="http://www.w3.org/2000/svg" xmlns:xlink="http://www.w3.org/1999/xlink">
    <title>ICON / toolbar /continue</title>
    <g id="ICON-/-toolbar-/continue" stroke="none" stroke-width="1" fill="none" fill-rule="evenodd">
        <path d="M2,0.5 C3.1045695,0.5 4,1.3954305 4,2.5 L4,13.5 C4,14.6045695 3.1045695,15.5 2,15.5 C0.8954305,15.5 4.4408921e-15,14.6045695 4.4408921e-15,13.5 L4.4408921e-15,2.5 C4.4408921e-15,1.3954305 0.8954305,0.5 2,0.5 Z M2,1.5 C1.44771525,1.5 1,1.94771525 1,2.5 L1,13.5 C1,14.0522847 1.44771525,14.5 2,14.5 C2.55228475,14.5 3,14.0522847 3,13.5 L3,2.5 C3,1.94771525 2.55228475,1.5 2,1.5 Z M14.8403018,6.82869679 C15.4871947,7.34621111 15.5920767,8.29014967 15.0745624,8.93704257 C15.0053648,9.02353963 14.9267988,9.10210557 14.8403018,9.17130321 L7.44108281,15.0906784 C6.79418991,15.6081927 5.85025135,15.5033106 5.33273703,14.8564177 C5.11996137,14.5904482 5.00404024,14.2599824 5.00404024,13.9193752 L5.00404024,2.08062485 C5.00404024,1.25219772 5.67561312,0.580624847 6.50404024,0.580624847 C6.84464748,0.580624847 7.17511324,0.696545976 7.44108281,0.909321633 L14.8403018,6.82869679 Z M14.2936936,8.31234752 C14.4661984,8.09671656 14.4312377,7.78207037 14.2156067,7.6095656 L6.81638777,1.69019044 C6.72773124,1.61926522 6.61757599,1.58062485 6.50404024,1.58062485 C6.22789787,1.58062485 6.00404024,1.80448247 6.00404024,2.08062485 L6.00404024,13.9193752 C6.00404024,14.0329109 6.04268062,14.1430662 6.11360584,14.2317227 C6.28611061,14.4473536 6.6007568,14.4823143 6.81638777,14.3098096 L14.2156067,8.3904344 C14.2444391,8.36736852 14.2706277,8.34117988 14.2936936,8.31234752 Z" id="形状结合" fill="#000000"></path>
    </g>
</svg>