<?xml version="1.0" encoding="UTF-8"?>
<svg width="16px" height="16px" viewBox="0 0 16 16" version="1.1" xmlns="http://www.w3.org/2000/svg" xmlns:xlink="http://www.w3.org/1999/xlink">
    <title>ICON / toolbar /continue</title>
    <g id="ICON-/-toolbar-/continue" stroke="none" stroke-width="1" fill="none" fill-rule="evenodd">
        <path d="M3,1.00389481 C4.1045695,1.00389481 5,1.89932531 5,3.00389481 L5,13.0374546 C5,14.1420241 4.1045695,15.0374546 3,15.0374546 C1.8954305,15.0374546 1,14.1420241 1,13.0374546 L1,3.00389481 C1,1.89932531 1.8954305,1.00389481 3,1.00389481 Z M3,2.00389481 C2.44771525,2.00389481 2,2.45161006 2,3.00389481 L2,13.0374546 C2,13.5897394 2.44771525,14.0374546 3,14.0374546 C3.55228475,14.0374546 4,13.5897394 4,13.0374546 L4,3.00389481 C4,2.45161006 3.55228475,2.00389481 3,2.00389481 Z M15.4275362,6.82869679 C16.0744291,7.34621111 16.1793112,8.29014967 15.6617969,8.93704257 C15.5925992,9.02353963 15.5140333,9.10210557 15.4275362,9.17130321 L8.50190005,14.7005844 C7.85500715,15.2180987 6.91106859,15.1132167 6.39355427,14.4663238 C6.18077861,14.2003542 6.06485748,13.8698884 6.06485748,13.5292812 L6.06485748,2.50389481 C6.06485748,1.67546768 6.73643036,1.00389481 7.56485748,1.00389481 C7.90546473,1.00389481 8.23593048,1.11981593 8.50190005,1.33259159 L15.4275362,6.82869679 Z M14.8809281,8.31234752 C15.0534328,8.09671656 15.0184722,7.78207037 14.8028412,7.6095656 L7.87720501,2.1134604 C7.78854848,2.04253518 7.67839323,2.00389481 7.56485748,2.00389481 C7.28871511,2.00389481 7.06485748,2.22775243 7.06485748,2.50389481 L7.06485748,13.5292812 C7.06485748,13.6428169 7.10349786,13.7529722 7.17442308,13.8416287 C7.34692785,14.0572597 7.66157404,14.0922204 7.87720501,13.9197156 L14.8028412,8.3904344 C14.8316735,8.36736852 14.8578622,8.34117988 14.8809281,8.31234752 Z" id="形状结合" fill="#000000"></path>
    </g>
</svg>