<?xml version="1.0" encoding="UTF-8"?>
<svg width="16px" height="16px" viewBox="0 0 16 16" version="1.1" xmlns="http://www.w3.org/2000/svg" xmlns:xlink="http://www.w3.org/1999/xlink">
    <title>ICON / toolbar / interrupt</title>
    <g id="ICON-/-toolbar-/-interrupt" stroke="none" stroke-width="1" fill="none" fill-rule="evenodd">
        <path d="M4.50291634,2 C5.33295411,2 6.00583267,2.67287856 6.00583267,3.50291634 L6.00583267,12.4970837 C6.00583267,13.3271214 5.33295411,14 4.50291634,14 C3.67287856,14 3,13.3271214 3,12.4970837 L3,3.50291634 C3,2.67287856 3.67287856,2 4.50291634,2 Z M11.5029163,2 C12.3329541,2 13.0058327,2.67287856 13.0058327,3.50291634 L13.0058327,12.4970837 C13.0058327,13.3271214 12.3329541,14 11.5029163,14 C10.6728786,14 10,13.3271214 10,12.4970837 L10,3.50291634 C10,2.67287856 10.6728786,2 11.5029163,2 Z" id="形状结合" fill="#626E88" fill-rule="nonzero"></path>
    </g>
</svg>