<?xml version="1.0" encoding="UTF-8"?>
<svg width="16px" height="16px" viewBox="0 0 16 16" version="1.1" xmlns="http://www.w3.org/2000/svg" xmlns:xlink="http://www.w3.org/1999/xlink">
    <title>ICON / toolbar / restart</title>
    <g id="ICON-/-toolbar-/-restart" stroke="none" stroke-width="1" fill="none" fill-rule="evenodd">
        <path d="M2.54087765,0.33370595 C2.81699609,0.337385572 3.03788725,0.56417086 3.03425187,0.840289304 L3.00255089,3.09859359 C4.27292621,1.80337314 6.04264418,1 8,1 C11.8659932,1 15,4.13400675 15,8 C15,11.8659932 11.8659932,15 8,15 C4.42932568,15 1.48307792,12.3265121 1.05379256,8.87207209 L1.05073287,8.84708425 C1.0477975,8.82274955 1.044987,8.79837642 1.04230201,8.7739655 C1.04844147,8.47176178 1.29383547,8.22772684 1.59622688,8.22772684 C1.86960783,8.22772684 2.09640307,8.42718398 2.13902831,8.68851398 L2.14530201,8.77366278 L2.17993149,9.00004581 C2.65988993,11.7826511 5.0826783,13.9 8,13.9 C11.25848,13.9 13.9,11.25848 13.9,8 C13.9,4.74151998 11.25848,2.1 8,2.1 C6.28465243,2.1 4.7402793,2.83202858 3.66223391,4.00073242 L5.95692589,4.00157738 C6.20238578,4.00157738 6.40653426,4.17845254 6.44887022,4.41170174 L6.45692589,4.50157738 C6.45692589,4.77771975 6.23306827,5.00157738 5.95692589,5.00157738 L1.97937752,5.00157738 L1.98604721,4.49499493 L2.03433853,0.827124407 C2.03797392,0.551005963 2.2647592,0.3301148 2.54087765,0.33370595 Z M7.99277878,6.55677974 C8.82827878,6.55677974 9.49277878,7.22227973 9.49277878,8.05677974 C9.49277878,8.89127974 8.82827878,9.55677974 7.99277878,9.55677974 C7.15727878,9.55677974 6.49277878,8.89127974 6.49277878,8.05677974 C6.49277878,7.22227973 7.15727878,6.55677974 7.99277878,6.55677974 Z" id="形状结合" fill="#000000"></path>
    </g>
</svg>