<?xml version="1.0" encoding="UTF-8"?>
<svg width="16px" height="17px" viewBox="0 0 16 17" version="1.1" xmlns="http://www.w3.org/2000/svg" xmlns:xlink="http://www.w3.org/1999/xlink">
    <title>ICON / toolbar / restart</title>
    <g id="ICON-/-toolbar-/-restart" stroke="none" stroke-width="1" fill="none" fill-rule="evenodd" transform="translate(0, 1)">
        <path d="M8,1 C11.8659932,1 15,4.13400675 15,8 C15,11.8659932 11.8659932,15 8,15 C4.21626193,15 1.13369335,11.9979365 1.0042331,8.24574829 L1,8 C1.10938924,7.52562459 1.36349792,7.28843689 1.76232605,7.28843689 C2.16115417,7.28843689 2.42556401,7.52562459 2.55555556,8 C2.55555556,11.0068836 4.99311636,13.4444444 8,13.4444444 C11.0068836,13.4444444 13.4444444,11.0068836 13.4444444,8 C13.4444444,4.99311636 11.0068836,2.55555556 8,2.55555556 C6.26864548,2.55555556 4.67580484,3.3689337 3.65576539,4.71762721 L3.50710977,4.92391134 L2.22446487,4.04381183 C3.5213207,2.153792 5.66384431,1 8,1 Z M7.98322678,6.5 C8.81872678,6.5 9.48322678,7.1655 9.48322678,8 C9.48322678,8.8345 8.81872678,9.5 7.98322678,9.5 C7.14772678,9.5 6.48322678,8.8345 6.48322678,8 C6.48322678,7.1655 7.14772678,6.5 7.98322678,6.5 Z" id="形状结合" fill="#626E88" fill-rule="nonzero"></path>
        <path d="M3.17284008,1.08265237 L5.16384125,4.28470615 C5.22216656,4.37850859 5.19340666,4.50183249 5.09960422,4.56015779 C5.07771207,4.57377009 5.05339475,4.58302168 5.02799077,4.58740333 L1.40354378,5.21254408 L1.40354378,5.21254408" id="路径-4" stroke="#626E88" stroke-width="1.3" stroke-linecap="round" stroke-linejoin="round" transform="translate(3.3621, 2.9692) scale(-1, 1) rotate(16) translate(-3.3621, -2.9692)"></path>
    </g>
</svg>