<?xml version="1.0" encoding="UTF-8"?>
<svg width="16px" height="16px" viewBox="0 0 16 16" version="1.1" xmlns="http://www.w3.org/2000/svg" xmlns:xlink="http://www.w3.org/1999/xlink">
    <title>ICON / toolbar / restart</title>
    <g id="ICON-/-toolbar-/-restart" stroke="none" stroke-width="1" fill="none" fill-rule="evenodd">
        <path d="M8,1 C11.8659932,1 15,4.13400675 15,8 C15,11.8659932 11.8659932,15 8,15 C4.42932568,15 1.48307792,12.3265121 1.05379256,8.87207209 L1.05073287,8.84708425 C1.0477975,8.82274955 1.044987,8.79837642 1.04230201,8.7739655 C1.04844147,8.47176178 1.29383547,8.22772684 1.59622688,8.22772684 C1.86960783,8.22772684 2.09640307,8.42718398 2.13902831,8.68851398 L2.14530201,8.77395869 L2.17993149,9.00004581 C2.65988993,11.7826511 5.0826783,13.9 8,13.9 C11.25848,13.9 13.9,11.25848 13.9,8 C13.9,4.74151998 11.25848,2.1 8,2.1 C6.28564025,2.1 4.74205808,2.83118571 3.66409682,3.99871379 L5.51374435,3.99499493 C5.75920424,3.99499493 5.96335272,4.17187009 6.00568868,4.4051193 L6.01374435,4.49499493 C6.01374435,4.7711373 5.78988673,4.99499493 5.51374435,4.99499493 L1.97937752,5.00157738 L1.98604721,4.49499493 L1.98586582,1.49337422 C1.97937752,1.19035983 2.24239975,0.996708422 2.49240494,1 C2.74241013,1.00329158 2.98577916,1.19035983 2.98577916,1.50653912 L2.98893457,3.11251465 C4.26026516,1.80913207 6.03564112,1 8,1 Z M7.99277878,6.55677974 C8.82827878,6.55677974 9.49277878,7.22227973 9.49277878,8.05677974 C9.49277878,8.89127974 8.82827878,9.55677974 7.99277878,9.55677974 C7.15727878,9.55677974 6.49277878,8.89127974 6.49277878,8.05677974 C6.49277878,7.22227973 7.15727878,6.55677974 7.99277878,6.55677974 Z" id="形状结合" fill="#000000"></path>
    </g>
</svg>