<?xml version="1.0" encoding="UTF-8"?>
<svg width="16px" height="16px" viewBox="0 0 16 16" version="1.1" xmlns="http://www.w3.org/2000/svg" xmlns:xlink="http://www.w3.org/1999/xlink">
    <title>ICON / toolbar / run</title>
    <g id="ICON-/-toolbar-/-run" stroke="none" stroke-width="1" fill="none" fill-rule="evenodd">
        <path d="M9,9.31464629 C9,8.15799617 9.76405682,7.67103547 10.7065687,8.23484847 L15.2942774,10.9792275 C16.2336913,11.5411873 16.2367892,12.457162 15.2942774,13.020975 L10.7065687,15.7653541 C9.76715475,16.3273139 9,15.8457251 9,14.6855563 Z M13,1 C14.1045695,1 15,1.8954305 15,3 L15,9.13900757 L14,8.526 L14,4 L2,4 L2,13 C2,13.5522847 2.44771525,14 3,14 L7,14 L7,15 L3,15 C1.8954305,15 1,14.1045695 1,13 L1,3 C1,1.8954305 1.8954305,1 3,1 L13,1 Z" id="形状结合" fill="#626E88" fill-rule="nonzero"></path>
    </g>
</svg>