<?xml version="1.0" encoding="UTF-8"?>
<svg width="16px" height="16px" viewBox="0 0 16 16" version="1.1" xmlns="http://www.w3.org/2000/svg" xmlns:xlink="http://www.w3.org/1999/xlink">
    <title>ICON / toolbar / run</title>
    <g id="ICON-/-toolbar-/-run" stroke="none" stroke-width="1" fill="none" fill-rule="evenodd">
        <path d="M10,10.1503155 C10,9.13824665 10.6549058,8.71215603 11.4627732,9.20549241 L15.3950949,11.6068241 C16.2003068,12.0985389 16.2029622,12.9000168 15.3950949,13.3933532 L11.4627732,15.7946848 C10.6575612,16.2863997 10,15.8650095 10,14.8498617 Z M13,2 C14.1045695,2 15,2.8954305 15,4 L15,11.24 L14,10.634 L14,6 L2,6 L2,13 C2,13.5522847 2.44771525,14 3,14 L9,14 L9,15 L3,15 C1.8954305,15 1,14.1045695 1,13 L1,4 C1,2.8954305 1.8954305,2 3,2 L13,2 Z M13,3 L3,3 C2.44771525,3 2,3.44771525 2,4 L2,5 L14,5 L14,4 C14,3.44771525 13.5522847,3 13,3 Z" id="形状结合" fill="#000000"></path>
    </g>
</svg>