<?xml version="1.0" encoding="UTF-8"?>
<svg width="22px" height="22px" viewBox="0 0 22 22" version="1.1" xmlns="http://www.w3.org/2000/svg" xmlns:xlink="http://www.w3.org/1999/xlink">
    <title>ICON / sidebar /variable_table</title>
    <g id="ICON-/-sidebar-/variable_table" stroke="none" stroke-width="1" fill="none" fill-rule="evenodd">
        <path d="M15.5,11.6118352 C18.5271715,11.6118352 21.375,13.8390557 21.375,15.951996 C21.375,18.0903348 18.5293621,20.3881648 15.5,20.3881648 C12.4674458,20.3881648 9.625,18.096948 9.625,15.951996 C9.625,13.8324305 12.469509,11.6118352 15.5,11.6118352 Z M19,1.93333333 C20.1045695,1.93333333 21,2.82876383 21,3.93333333 L21.0007517,12.6347489 C20.6184428,12.2609174 20.179926,11.9210714 19.7005239,11.6257945 L19.7,3.93333333 C19.7,3.54673401 19.3865993,3.23333333 19,3.23333333 L3,3.23333333 C2.61340068,3.23333333 2.3,3.54673401 2.3,3.93333333 L2.3,18 C2.3,18.3865993 2.61340068,18.7 3,18.7 L9.45152296,18.7000212 C9.82072419,19.1771312 10.275434,19.6162982 10.7921047,20.0005609 L3,20 C1.8954305,20 1,19.1045695 1,18 L1,3.93333333 C1,2.82876383 1.8954305,1.93333333 3,1.93333333 L19,1.93333333 Z M15.5,12.8118352 C12.75,12.8118352 10.825,14.8240325 10.825,15.951996 C10.825,17.1042566 12.75,19.1881648 15.5,19.1881648 C18.25,19.1881648 20.175,17.0948859 20.175,15.951996 C20.175,14.8333809 18.25,12.8118352 15.5,12.8118352 Z M15.5,13.4766598 C16.9031016,13.4766598 18.0405402,14.5959479 18.0405402,15.9766598 C18.0405402,17.3573716 16.9031016,18.4766598 15.5,18.4766598 C14.0968984,18.4766598 12.9594598,17.3573716 12.9594598,15.9766598 C12.9594598,14.5959479 14.0968984,13.4766598 15.5,13.4766598 Z M15.926604,5.75150917 C16.1902935,5.99510336 16.206584,6.40633806 15.9629898,6.67002759 L11.9629898,11.000008 C11.7375589,11.2440358 11.3643947,11.278798 11.097769,11.0806077 L8.54566263,9.18296129 L5.66024622,12.0445895 C5.43078205,12.2720343 5.07447753,12.2933055 4.82128098,12.1094193 L4.74101638,12.0405268 C4.48829994,11.7855667 4.49011886,11.3740134 4.74507905,11.121297 L8.02795411,7.86731255 C8.25616787,7.64110716 8.61542207,7.61560024 8.87330644,7.80729282 L11.4036626,9.68796129 L15.0080856,5.78789499 C15.2516798,5.52420547 15.6629145,5.50791498 15.926604,5.75150917 Z" id="形状结合" fill="#000000"></path>
    </g>
</svg>