<?xml version="1.0" encoding="UTF-8"?>
<svg width="16px" height="16px" viewBox="0 0 16 16" version="1.1" xmlns="http://www.w3.org/2000/svg" xmlns:xlink="http://www.w3.org/1999/xlink">
    <title>ICON / toolbar / build</title>
    <g id="ICON-/-toolbar-/-build" stroke="none" stroke-width="1" fill="none" fill-rule="evenodd">
        <path d="M5.69228969,7.4261262 C5.99024907,6.91474345 6.64299009,6.73996225 7.15776842,7.03720293 L8.23262558,7.65784148 C8.74827466,7.95832964 8.92179124,8.61843838 8.6205844,9.13069069 L5.70677185,14.7702 C5.55727476,15.0434332 5.33729667,15.2485226 5.05088431,15.3356557 L5.0119165,15.3460971 C4.73589444,15.420057 4.43998178,15.3808922 4.18876995,15.2358387 L2.57917853,14.2954579 C2.31973025,14.1456486 2.1368078,13.8918129 2.07230013,13.5993086 C2.01103993,13.3059348 2.08102034,13.0087451 2.24136616,12.7500103 Z M5.76783594,0.868481493 C6.3588751,0.710222001 6.97389586,0.667363452 7.58042357,0.74860153 C9.17990662,0.950312229 10.3367497,1.50026881 10.8868506,1.81241586 C11.2566202,2.02318166 11.6097529,2.26276676 11.9421304,2.52879323 C12.2242184,2.76303711 12.2900679,3.08650786 12.3304299,3.30194208 C12.3330422,3.31168453 12.3341485,3.32879151 12.3376316,3.34178145 C12.4351481,3.22517322 12.5682228,3.13733084 12.7176063,3.09733117 C12.902712,3.04776635 13.1013502,3.07463277 13.2693267,3.16888023 L14.6783954,3.97151873 L14.6907501,3.9786525 C15.019573,4.17949855 15.1360191,4.60080186 14.9623553,4.93967691 L14.9480951,4.96437917 L13.6229263,7.22660501 C13.527858,7.39128668 13.3683954,7.51052522 13.1832983,7.56012185 C12.9982011,7.60971848 12.7995544,7.58282024 12.6315779,7.48857278 L11.2183909,6.68355636 C10.8757074,6.48294106 10.7572842,6.04128328 10.9569277,5.69545177 L10.9640579,5.68310064 L11.0077094,5.61224137 C11.0124628,5.60400729 11.0122272,5.5901478 11.0096149,5.58040535 C10.8817859,5.54502065 10.7449211,5.55382311 10.6217529,5.60072581 C10.5747824,5.62026415 10.4040085,5.69731721 10.1948791,5.91690492 C10.0538751,6.06604143 9.68731925,6.6201564 9.4480709,6.98703462 C9.29311368,7.22692336 8.97549703,7.30152805 8.72840343,7.15885252 L7.31173347,6.34084617 C7.07699455,6.20530442 6.98001221,5.92149572 7.08016209,5.67191797 C7.33679618,5.032375 7.46882762,4.49928974 7.42924385,4.37762447 C7.23132499,3.76929816 6.93888042,3.405563 6.47707536,3.20203784 C6.20510834,3.08342576 5.64190404,3.0079904 5.20365995,3.08704976 C5.00121062,3.1238554 4.80335065,3.19075794 4.61657498,3.28601828 C4.52849373,3.33396785 4.44215399,3.38841239 4.35993248,3.44523486 C4.21085604,3.55128452 4.02290253,3.57724739 3.85214967,3.51158847 C3.57392329,3.408575 3.43488792,3.09773956 3.5410616,2.81870371 C3.63019871,2.59295866 3.73580871,2.37672531 3.8611391,2.1691341 C4.08589163,1.81309863 4.74163614,1.14326199 5.76783594,0.868481493 Z" id="形状结合" fill="#626E88" fill-rule="nonzero"></path>
    </g>
</svg>