<?xml version="1.0" encoding="UTF-8"?>
<svg width="16px" height="16px" viewBox="0 0 16 16" version="1.1" xmlns="http://www.w3.org/2000/svg" xmlns:xlink="http://www.w3.org/1999/xlink">
    <title>ICON / toolbar / build</title>
    <g id="ICON-/-toolbar-/-build" stroke="none" stroke-width="1" fill="none" fill-rule="evenodd">
        <path d="M6.2315702,0.757995716 L6.70187328,0.758716178 L7.14284567,0.759493976 L7.24673848,0.759690369 L7.71631842,0.760637217 L7.79860804,0.760813016 L8.13896368,0.761572707 L8.19116677,0.761694237 L8.3598814,0.762098393 C8.68059735,0.762886849 8.78712853,0.987782239 8.80882497,1.11612118 C8.84123823,1.25517694 9.18709345,1.49064322 9.71173735,1.54243454 C10.1886532,1.58951428 10.6410391,1.46612067 10.7194012,1.44328026 L10.7293858,1.43967569 C10.7798796,1.05563624 11.0992949,0.768966721 11.4912811,0.76993039 L11.8547592,0.770823973 C12.2823804,0.771875248 12.6253184,1.11481328 12.6263697,1.54243454 L12.6342543,4.74959399 C12.6353055,5.17721525 12.2940496,5.51847124 11.8664283,5.51741996 L11.5029502,5.51652638 C11.1109641,5.51556271 10.7901354,5.2273192 10.7385763,4.84990805 L10.7313397,4.75257035 L10.6869943,4.73677023 C10.5445174,4.68738529 10.085906,4.53915382 9.71173735,4.53823395 C9.26273502,4.53713011 9.01476713,4.53823395 8.80882497,4.69687577 C8.60537004,4.85360162 8.33483564,5.05799292 8.33967751,5.48555435 L8.34965837,5.98445061 L8.35038579,6.78367569 L8.79691085,6.78529414 L8.84478495,7.28121906 L9.49200504,13.3257151 C9.64455275,14.8809285 8.41581057,16.2392285 6.86419482,16.2219013 C5.29590605,16.2180458 4.07042618,14.873206 4.22753876,13.3181103 L4.84180138,7.2767155 L4.88772679,6.77568371 L5.32238579,6.77667569 L5.32195703,5.98002695 L5.32382302,5.50133546 C5.32382302,5.50133546 3.04009049,2.79103295 0.159954631,5.34966441 C-0.0106733636,5.5202924 -0.544989684,5.60450256 -0.653261657,5.0483321 C-0.74020513,4.47083315 -0.349727864,2.40853299 1.28353181,1.43971575 C1.81732249,1.14169496 2.53266824,0.769287246 3.29166969,0.760462728 C3.35672696,0.75970634 3.44551111,0.759085844 3.55367868,0.758583996 L6.2315702,0.757995716 Z M5.84138579,8.35567569 L5.32245786,13.4235909 C5.23046525,14.3342688 5.94613251,15.119641 6.87168118,15.1219372 C7.76979439,15.1319546 8.48621494,14.3399951 8.39717687,13.4322541 L7.85027055,8.36347403 L5.84138579,8.35567569 Z M6.32183458,6.48050337 L6.32238579,6.77867569 L7.34938579,6.78167569 L7.34996784,6.4833318 L6.32183458,6.48050337 Z" id="形状结合" fill="#000000" transform="translate(5.9848, 8.4899) rotate(30) translate(-5.9848, -8.4899)"></path>
    </g>
</svg>