<?xml version="1.0" encoding="UTF-8"?>
<svg width="16px" height="16px" viewBox="0 0 16 16" version="1.1" xmlns="http://www.w3.org/2000/svg" xmlns:xlink="http://www.w3.org/1999/xlink">
    <title>ICON / toolbar /cancel</title>
    <g id="ICON-/-toolbar-/cancel" stroke="none" stroke-width="1" fill="none" fill-rule="evenodd">
        <path d="M12,8 C14.209139,8 16,9.790861 16,12 C16,14.209139 14.209139,16 12,16 C9.790861,16 8,14.209139 8,12 C8,9.790861 9.790861,8 12,8 Z M6.15719234,6.79444102 L7.08841983,7.56667033 C7.53473752,7.93983276 7.59798426,8.6143183 7.23030688,9.07171925 L3.56707685,14.1682745 C3.38163537,14.413941 3.13939984,14.5820186 2.85198694,14.6242054 L2.81310444,14.628572 C2.53766828,14.6593264 2.26081983,14.5761089 2.04317662,14.3956262 L0.650377188,13.2284371 C0.42559814,13.042037 0.290170501,12.7650753 0.273982562,12.4680753 C0.261035021,12.1707133 0.374170331,11.8894798 0.567730219,11.6596931 L4.69544508,6.95441479 C5.05988206,6.49737591 5.71120217,6.42459939 6.15719234,6.79444102 Z M13.1786804,9.85094142 L12,11.03 L10.8213321,9.85096735 C10.5533622,9.58301213 10.1189235,9.58301213 9.85096793,9.85096677 L9.77861514,9.93602324 C9.58569131,10.2041588 9.60980736,10.5801706 9.85096793,10.8213304 L11.03,12 L9.8509691,13.178655 C9.58300858,13.4466695 9.58300858,13.881137 9.85100596,14.1490511 L9.93603966,14.2213981 C10.2041344,14.4143229 10.5801786,14.3902021 10.8213505,14.1489941 L11.999,12.97 L13.1786551,14.1490131 C13.4466491,14.4170062 13.8811551,14.4170062 14.1490753,14.1489497 L14.2214167,14.0639436 C14.4143267,13.7959203 14.3902071,13.4198506 14.1490119,13.1786562 L12.97,11.999 L14.1490142,10.8213281 C14.4170045,10.5533936 14.4170045,10.1189036 14.1489866,9.85094142 C13.8811355,9.58300896 13.4466687,9.58300896 13.1786804,9.85094142 Z M7.53938516,0.683226212 C9.03740375,1.12353189 10.0580175,1.83876983 10.5354639,2.22859844 C10.8562493,2.49156361 11.1566446,2.78030891 11.4330818,3.09187563 C11.6663764,3.36461675 11.6790313,3.69222809 11.6841183,3.90989079 L11.6848081,3.95010253 C11.7961873,3.85036492 11.9370924,3.78425959 12.0861507,3.76760427 C12.2708534,3.74696615 12.4566084,3.8034307 12.6025656,3.92141795 L13.8250526,4.92298014 L13.8357563,4.93185634 C14.1189322,5.17887947 14.1647506,5.61022208 13.9459922,5.91668721 L13.928515,5.93878447 L12.9981909,7.09965124 C12.6756418,7.03430187 12.3418267,7 12,7 C11.424209,7 10.8711501,7.09732748 10.3563773,7.27642836 L10.0948724,7.06212613 C9.79840735,6.81323049 9.75386425,6.36160097 9.99854581,6.05223927 L10.0072844,6.04119063 L10.0600437,5.97821964 C10.0658695,5.97085389 10.0677998,5.9572086 10.0668172,5.94724618 C9.9500932,5.89314053 9.81785708,5.88105698 9.69279162,5.90846102 C9.64484069,5.92053371 9.46956648,5.97033493 9.23544936,6.15429234 C9.14766048,6.22378874 8.97386743,6.40548226 8.7877161,6.6088208 L8.56311586,6.85742134 C8.48941402,6.93988783 8.41844819,7.0200222 8.35493171,7.0920291 C8.1694554,7.30412555 7.85415417,7.32928414 7.64007889,7.15176016 L6.41271393,6.13395601 C6.20934241,5.96530823 6.16075049,5.671929 6.29532815,5.442018 C6.64018343,4.85287105 6.84933915,4.3493922 6.83041248,4.22392574 C6.73577916,3.59659347 6.51272144,3.19512725 6.10280766,2.92533401 C5.8612064,2.76767271 5.33441525,2.60830363 4.90307989,2.61956831 C4.70377796,2.62505069 4.50418334,2.66078239 4.31077683,2.72603927 C4.21909793,2.759785 4.12807408,2.80017234 4.04061815,2.84351841 C3.88158076,2.9250794 3.69782578,2.92210981 3.54476751,2.83177522 C3.29475515,2.68848335 3.21015649,2.36219598 3.35507557,2.10427025 C3.47541638,1.89609444 3.61002888,1.69975356 3.76215346,1.51488554 C4.03243068,1.19930645 4.76361809,0.640854774 5.78758403,0.526439948 C6.37733657,0.460542801 6.9720716,0.511597981 7.53938516,0.683226212 Z" id="形状结合" fill="#000000"></path>
    </g>
</svg>