<?xml version="1.0" encoding="UTF-8"?>
<svg width="16px" height="16px" viewBox="0 0 16 16" version="1.1" xmlns="http://www.w3.org/2000/svg" xmlns:xlink="http://www.w3.org/1999/xlink">
    <title>ICON / toolbar /cancel</title>
    <g id="ICON-/-toolbar-/cancel" stroke="none" stroke-width="1" fill="none" fill-rule="evenodd">
        <path d="M12,8 C14.209139,8 16,9.790861 16,12 C16,14.209139 14.209139,16 12,16 C9.790861,16 8,14.209139 8,12 C8,9.790861 9.790861,8 12,8 Z M5.43846253,0.0336126671 C6.04974921,0.0424144347 6.85546066,0.0775727635 7.51718746,0.449431234 C7.5739069,0.481304817 7.65110648,0.525159528 7.74503327,0.5788087 L10.0644495,1.91724499 L10.4713837,2.15302047 L10.8528881,2.37418026 L10.9427637,2.42629675 L11.3489584,2.66190671 L11.4201354,2.70320377 L11.7145122,2.8740395 L11.7596606,2.90024629 L11.9055697,2.98495362 C12.1829236,3.14599441 12.1627347,3.39402512 12.1173549,3.51601813 C12.0758977,3.65265058 12.257684,4.02949797 12.6861432,4.33667251 C13.0756246,4.61590271 13.5290991,4.73523362 13.6083829,4.75463432 L13.6188321,4.75650497 C13.8545807,4.44916394 14.2745373,4.36060852 14.6135254,4.55743616 L14.9278598,4.73994907 C15.2976651,4.95467013 15.4231891,5.42313218 15.2102889,5.7939887 L14.220084,7.51867117 C13.551194,7.18666088 12.7973955,7 12,7 C11.7809498,7 11.5651895,7.01408618 11.3535757,7.04140213 C11.2992871,7.000596 11.2437731,6.96335319 11.1882435,6.93111091 C10.799948,6.7056538 10.5846496,6.5826258 10.3269776,6.61704257 C10.0724175,6.65104367 9.73593219,6.69278453 9.52634466,7.06548452 L9.2855402,7.50253178 L8.99530265,8.00316643 C7.78352806,8.91558716 7,10.3662922 7,12 C7,12.381244 7.04266894,12.7525222 7.12349181,13.1093194 L6.74926465,13.9268395 C6.10376811,15.3499677 4.36049616,15.9119189 3.02542114,15.1211052 C1.66917099,14.3336218 1.28029419,12.5562165 2.19390553,11.2880204 L5.6015145,6.86773752 L5.89180297,6.45679396 L6.26773271,6.67498255 L6.66568576,5.98485012 L6.9066475,5.57122412 C6.9066475,5.57122412 6.28402837,2.08216703 2.51044182,2.85793894 C2.27735965,2.92039312 1.77252306,2.7261631 1.95684201,2.19036937 C2.17029623,1.64676886 3.53960954,0.0560031743 5.43846253,0.0336126671 Z M9.52366505,9.52444496 C9.32852944,9.71983356 9.32873441,10.036416 9.52412286,10.2315517 L10.5579837,11.2640746 L11.2914473,11.9965417 L9.52787357,13.7611344 C9.33261142,13.9563965 9.33261142,14.272979 9.52787357,14.4682412 C9.72313571,14.6635033 10.0397182,14.6635033 10.2349803,14.4682412 L11.9984473,12.7035417 L12.7086758,13.4119835 L12.7759421,13.4791629 L13.7701933,14.4721276 C13.9655819,14.6672632 14.2821643,14.6670582 14.4773001,14.4716698 C14.6724357,14.2762812 14.6722307,13.9596987 14.4768423,13.764563 L13.482591,12.7715984 L12.7064473,11.9955417 L14.4721264,10.2310951 C14.6673886,10.0358329 14.6673886,9.71925044 14.4721264,9.5239883 C14.2768643,9.32872615 13.9602818,9.32872615 13.7650197,9.5239883 L11.9984473,11.2895417 L11.2646325,10.5565101 L11.0763564,10.3684777 L10.2307718,9.52398723 C10.0353832,9.32885155 9.71880081,9.32905651 9.52366505,9.52444496 Z M5.91297746,8.29343666 L3.08939294,11.9268289 C2.55438608,12.6695027 2.78148601,13.7074886 3.58188658,14.1722515 C4.35466674,14.6299834 5.37108488,14.3023367 5.74784613,13.4716909 L7.65711673,9.30849884 L5.91297746,8.29343666 Z M7.28136691,6.91821419 L7.13275811,7.1767146 L8.0206662,7.69281268 L8.17034222,7.4347303 L7.28136691,6.91821419 Z" id="形状结合" fill="#000000"></path>
    </g>
</svg>