<?xml version="1.0" encoding="UTF-8"?>
<svg width="16px" height="16px" viewBox="0 0 16 16" version="1.1" xmlns="http://www.w3.org/2000/svg" xmlns:xlink="http://www.w3.org/1999/xlink">
    <title>ICON / toolbar /cancel</title>
    <g id="ICON-/-toolbar-/cancel" stroke="none" stroke-width="1" fill="none" fill-rule="evenodd">
        <path d="M10.4337201,1.02023602 C10.6968795,1.02023602 10.9494322,1.12396933 11.1366157,1.30894295 L14.6916846,4.8220408 C14.8817952,5.00990702 14.988789,5.26605913 14.988789,5.53333386 L14.988789,10.4501033 C14.988789,10.7101932 14.8874552,10.9600502 14.7062868,11.1466641 L11.2599782,14.6965608 C11.0716626,14.8905368 10.8128311,15 10.5424804,15 L5.62596587,15 C5.36882865,15 5.12157328,14.9009482 4.93555558,14.723418 L1.31920085,11.2720685 C1.12148018,11.0833693 1.00961113,10.821965 1.00961113,10.5486504 L1.00961113,5.64224653 C1.00961113,5.38209264 1.11099466,5.13217939 1.29224218,4.94555307 L4.80986177,1.32354255 C4.99816857,1.12964744 5.25694426,1.02023602 5.52723072,1.02023602 L10.4337201,1.02023602 Z M10.8259069,5.17157288 C10.5720661,4.91773209 10.1605088,4.91773209 9.90666805,5.17157288 L7.99667203,7.08019228 L6.08829143,5.17157288 C5.83445064,4.91773209 5.42289341,4.91773209 5.16905262,5.17157288 L5.10051561,5.25214117 C4.91775024,5.50614795 4.94059591,5.86235498 5.16905262,6.09081169 L7.07767203,7.99919228 L5.16905262,9.90918831 C4.91521183,10.1630291 4.91521183,10.5745863 5.16905262,10.8284271 C5.42289341,11.0822679 5.83445064,11.0822679 6.08829143,10.8284271 L7.99667203,8.91919228 L9.90666805,10.8284271 C10.1605088,11.0822679 10.5720661,11.0822679 10.8259069,10.8284271 L10.8944439,10.7478588 C11.0772092,10.4938521 11.0543636,10.137645 10.8259069,9.90918831 L8.91667203,7.99919228 L10.8259069,6.09081169 C11.0797477,5.8369709 11.0797477,5.42541366 10.8259069,5.17157288 Z" id="形状结合" fill="#000000"></path>
    </g>
</svg>