<?xml version="1.0" encoding="UTF-8"?>
<svg width="16px" height="16px" viewBox="0 0 16 16" version="1.1" xmlns="http://www.w3.org/2000/svg" xmlns:xlink="http://www.w3.org/1999/xlink">
    <title>ICON / toolbar /clearall</title>
    <g id="ICON-/-toolbar-/clearall" stroke="none" stroke-width="1" fill="none" fill-rule="evenodd">
        <g id="编组" transform="translate(8.4352, 7.7527) rotate(15) translate(-8.4352, -7.7527)translate(1.9352, -0.0085)" fill="#000000">
            <path d="M10.0836377,14.8588745 C10.0582694,15.0601334 9.91381761,15.2261204 9.71798917,15.2790346 C9.51472543,15.333958 9.28284088,15.3649569 9.01003398,15.3720926 C8.41213116,15.3877316 8.07120495,15.3116801 7.6021536,15.1154815 C7.57256628,15.1030844 7.57256628,15.1030844 7.54424073,15.0912184 C7.24946667,14.9679591 7.09569021,14.9308781 6.78245616,14.9348538 C6.48430329,14.9386381 6.26849871,15.0060969 5.92653763,15.1759196 C5.76580418,15.2571462 5.67577669,15.3018939 5.58606189,15.3420868 C5.22508955,15.5038052 4.90886077,15.5627149 4.53901069,15.4943072 C4.28106214,15.4465969 4.0503559,15.3739331 3.74587589,15.2551098 C3.68043005,15.2295696 3.60867584,15.2008456 3.47603713,15.147617 C2.98984922,14.9536696 2.69618166,14.869144 2.29276561,14.8337449 C2.05784231,14.8131308 1.82991711,14.7961905 1.61273122,14.7831292 L1.28338499,14.7657974 C0.592719768,14.7347594 0.057986263,14.1497033 0.0890242826,13.4590381 C0.0924695201,13.4018468 0.0924695201,13.4018468 0.0994394948,13.3446519 L0.774921178,8.44802646 C0.809049175,8.20062965 1.02049091,8.01635361 1.27023058,8.01635361 L11.6746521,8.01635361 C11.9207554,8.01635361 12.1302635,8.19544067 12.168561,8.43854591 L12.9564809,13.4401161 C13.0638114,14.1230963 12.597155,14.7637697 11.9141748,14.8711002 C11.7689189,14.8939272 11.6207772,14.8909846 11.4748643,14.862072 C11.3795292,14.842844 11.2849455,14.8277928 11.1910998,14.8168835 C11.0575316,14.8013565 10.9358473,14.7326845 10.8535152,14.6263691 L10.215748,13.8033536 L10.0836377,14.8588745 Z M11.245748,9.01535361 L1.70574803,9.01535361 L1.09010235,13.480986 C1.08940572,13.4867066 1.08905741,13.4895669 1.08879662,13.4924352 L1.08801604,13.5039321 C1.08177229,13.6428694 1.18934168,13.7605619 1.33208609,13.7669913 L1.66896844,13.7847188 C1.89918635,13.798549 2.13625219,13.8161686 2.38017815,13.8375727 C2.90020809,13.8832045 3.27760877,13.9918307 3.84655854,14.2187931 L4.00596152,14.2826361 C4.04717814,14.2990748 4.07907123,14.3116892 4.1094233,14.3235341 C4.36019285,14.4213969 4.53614947,14.4768166 4.72088639,14.5109857 C4.86501963,14.5376446 4.98616118,14.5150774 5.17720965,14.4294862 C5.24558246,14.3988546 5.3146172,14.3645413 5.48175166,14.2802827 C5.94611302,14.0496743 6.29384868,13.9409748 6.76976477,13.9349343 C7.23774243,13.9289946 7.5193157,13.996892 7.93002054,14.1686275 L7.98804321,14.1929365 C8.33550318,14.3382749 8.54061113,14.384029 8.98388646,14.3724345 C9.03316157,14.3711456 9.07972909,14.3688941 9.12377516,14.3657252 L9.13774803,14.3643536 L9.37564849,12.4794362 C9.4276723,12.0667062 9.9213621,11.9052168 10.2088342,12.1720299 L10.2670428,12.2358244 L11.520748,13.8543536 L11.6708938,13.8814755 C11.6854013,13.8843499 11.7001052,13.885935 11.7148348,13.8862276 L11.7589299,13.8832242 C11.8963213,13.8616331 11.990196,13.7327524 11.968634,13.5955462 L11.245748,9.01535361 Z M6.5,0 C7.32842712,-1.52179594e-16 8,0.671572875 8,1.5 L8,5 L12,5 C12.5522847,5 13,5.44771525 13,6 C13,6.55228475 12.5522847,7 12,7 L1,7 C0.44771525,7 6.76353751e-17,6.55228475 0,6 C-6.76353751e-17,5.44771525 0.44771525,5 1,5 L5,5 L5,1.5 C5,0.671572875 5.67157288,1.52179594e-16 6.5,0 Z M6.5,1 C6.22385763,1 6,1.22385763 6,1.5 C6,1.77614237 6.22385763,2 6.5,2 C6.77614237,2 7,1.77614237 7,1.5 C7,1.22385763 6.77614237,1 6.5,1 Z" id="形状结合"></path>
        </g>
    </g>
</svg>