<?xml version="1.0" encoding="UTF-8"?>
<svg width="16px" height="16px" viewBox="0 0 16 16" version="1.1" xmlns="http://www.w3.org/2000/svg" xmlns:xlink="http://www.w3.org/1999/xlink">
    <title>ICON / toolbar /clearall</title>
    <g id="ICON-/-toolbar-/clearall" stroke="none" stroke-width="1" fill="none" fill-rule="evenodd">
        <path d="M13.5187571,6.63812146 C14.0522232,6.78106327 14.3688057,7.32940023 14.2258639,7.86286633 L13.6366628,10.0602437 L14.6528093,10.3325491 L15.0859319,10.4486039 C15.619398,10.5915457 15.9359805,11.1398827 15.7930387,11.6733488 L14.8289452,15.2713947 C14.6860033,15.8048608 14.1376664,16.1214433 13.6042003,15.9785015 L8.77457116,14.6844063 C8.24110505,14.5414645 7.92452256,13.9931275 8.06746438,13.4596614 L9.03155788,9.86161546 C9.17449969,9.32814936 9.72283665,9.01156687 10.2563028,9.15450868 L10.789106,9.29727289 L11.7048112,9.54260559 L12.2940123,7.34522824 C12.4369541,6.81176214 12.985291,6.49517965 13.5187571,6.63812146 Z M9.7386721,11.0863326 L9.0333902,13.7184805 L9.99860892,13.9760748 L10.2233775,13.1410909 C10.2948484,12.8743578 10.5690168,12.7160666 10.8357499,12.7875375 C11.1024829,12.8590084 11.2607742,13.1331768 11.1893033,13.3999099 L10.9645347,14.2348938 L11.9314265,14.4939717 L12.1552291,13.6587289 C12.2267,13.3919959 12.5008685,13.2337046 12.7676015,13.3051756 C13.0343346,13.3766465 13.1926258,13.6508149 13.1211549,13.917548 L12.8973523,14.7527907 L13.8630193,15.0125757 L14.5683012,12.3804278 L9.7386721,11.0863326 Z M11,1 C12.6568542,1 14,2.34314575 14,4 L14,6.003 L13,6.003 L13,4 C13,2.8954305 12.1045695,2 11,2 L4,2 C2.8954305,2 2,2.8954305 2,4 L2,12 C2,13.1045695 2.8954305,14 4,14 L7,14 L7,15 L4,15 C2.34314575,15 1,13.6568542 1,12 L1,4 C1,2.34314575 2.34314575,1 4,1 L11,1 Z M8.5,7 C8.77614237,7 9,7.22385763 9,7.5 C9,7.77614237 8.77614237,8 8.5,8 L4.5,8 C4.22385763,8 4,7.77614237 4,7.5 C4,7.22385763 4.22385763,7 4.5,7 L8.5,7 Z M10.5,4 C10.7761424,4 11,4.22385763 11,4.5 C11,4.77614237 10.7761424,5 10.5,5 L4.5,5 C4.22385763,5 4,4.77614237 4,4.5 C4,4.22385763 4.22385763,4 4.5,4 L10.5,4 Z" id="形状结合" fill="#000000"></path>
    </g>
</svg>