<?xml version="1.0" encoding="UTF-8"?>
<svg width="16px" height="16px" viewBox="0 0 16 16" version="1.1" xmlns="http://www.w3.org/2000/svg" xmlns:xlink="http://www.w3.org/1999/xlink">
    <title>ICON / toolbar /clearall</title>
    <g id="ICON-/-toolbar-/clearall" stroke="none" stroke-width="1" fill="none" fill-rule="evenodd">
        <path d="M4.01401191,5.23401664 L13.0682626,10.3604375 L11.2499036,15.0857093 C11.1006353,15.473171 10.6655297,15.666265 10.278068,15.5169967 C10.1956629,15.4852504 10.1194951,15.4392343 10.0530572,15.3810583 C9.90564756,15.2510858 9.75280918,15.1351856 9.59475186,15.0331182 L9.96470716,12.7313385 L8.96701206,14.787108 C8.60762265,14.7645053 8.33467387,14.9404466 7.57135843,14.525971 C6.49967874,13.9440556 6.75363451,13.533927 5.86673087,13.036773 C4.97982723,12.5396191 4.31379121,12.9585451 3.72422393,12.4553801 C3.13465665,11.9522151 2.90214391,11.3129497 2.07150869,10.7310135 C1.77624382,10.5241534 1.49028538,10.332355 1.21363336,10.1556185 C0.86348089,9.93245463 0.761800086,9.4674136 0.985913862,9.11787019 C0.997988536,9.09903769 1.01089775,9.08075351 1.02460298,9.06307223 L4.01401191,5.23401664 Z M12.4944482,1.23211878 C13.3706704,1.73800593 13.6708863,2.85842696 13.1649992,3.73464919 L11.7919319,6.11237418 L14.4198892,7.54559574 C14.9592931,7.83975312 15.1581047,8.51548803 14.8639473,9.05489192 L14.8364622,9.10245877 C14.4947012,9.66158443 13.7796253,9.84744756 13.2152777,9.5291289 L10.5584461,8.02977145 L9.55593186,7.46437418 L4.6674566,4.70775504 C4.16864756,4.42640324 3.99236364,3.79395792 4.27371544,3.29514888 C4.2810829,3.28208711 4.28873283,3.26918671 4.29665985,3.25645676 C4.61801053,2.74040208 5.28611834,2.56460438 5.81984343,2.85566489 L8.57393186,4.35737418 L9.99191778,1.90266978 C10.4978049,1.02644755 11.618226,0.726231637 12.4944482,1.23211878 Z M11.1019423,2.42269011 C10.9429471,2.69807792 11.0508288,3.0580247 11.3429029,3.22665375 C11.634977,3.3952828 12.0006409,3.30873772 12.1596361,3.03334991 C12.3186313,2.7579621 12.2107496,2.39801532 11.9186755,2.22938627 C11.6266015,2.06075722 11.2609375,2.1473023 11.1019423,2.42269011 Z" id="形状结合" fill="#000000"></path>
    </g>
</svg>