<?xml version="1.0" encoding="UTF-8"?>
<svg width="16px" height="16px" viewBox="0 0 16 16" version="1.1" xmlns="http://www.w3.org/2000/svg" xmlns:xlink="http://www.w3.org/1999/xlink">
    <title>ICON / list / filter</title>
    <g id="ICON-/-list-/-filter" stroke="none" stroke-width="1" fill="none" fill-rule="evenodd">
        <path d="M13.4972241,2.01459694 C14.3256512,2.01459694 14.9972241,2.68616981 14.9972241,3.51459694 C14.9972241,3.98641796 14.7752278,4.43074199 14.3979399,4.71405976 L10.0309467,7.99259694 L10.030983,9.53902245 C10.030983,9.78448233 9.85410781,9.98863082 9.6208586,10.0309668 L9.53098297,10.0390224 C9.2548406,10.0390224 9.03098297,9.81516482 9.03098297,9.53902245 L9.03098297,7.74353676 C9.03098297,7.58626309 9.10498175,7.43815508 9.23074437,7.34371582 L13.7974627,3.91441788 C13.9232253,3.81997862 13.9972241,3.67187061 13.9972241,3.51459694 C13.9972241,3.23845456 13.7733665,3.01459694 13.4972241,3.01459694 L2.54634702,3.01459694 C2.37608596,3.01459694 2.21752687,3.10123737 2.12556115,3.24452426 C1.97640413,3.47691788 2.04388073,3.78622579 2.27627435,3.93538281 L6.77440999,6.82241778 C6.91769688,6.9143835 7.00433731,7.07294259 7.00433731,7.24320365 L7.00433731,14.5 C7.00433731,14.7761424 6.78047969,15 6.50433731,15 C6.22819494,15 6.00433731,14.7761424 6.00433731,14.5 L6.00394668,7.51559694 L1.736129,4.77695456 C1.07995878,4.35580532 0.862045559,3.5090648 1.21173872,2.82966133 L1.28398941,2.70437891 C1.55988657,2.27451822 2.03556384,2.01459694 2.54634702,2.01459694 L13.4972241,2.01459694 Z M11.5,14 C11.7761424,14 12,14.2238576 12,14.5 C12,14.7761424 11.7761424,15 11.5,15 L9.5,15 C9.22385763,15 9,14.7761424 9,14.5 C9,14.2238576 9.22385763,14 9.5,14 L11.5,14 Z M13.5,11 C13.7761424,11 14,11.2238576 14,11.5 C14,11.7761424 13.7761424,12 13.5,12 L9.5,12 C9.22385763,12 9,11.7761424 9,11.5 C9,11.2238576 9.22385763,11 9.5,11 L13.5,11 Z" id="形状结合" fill="#000000"></path>
    </g>
</svg>