<?xml version="1.0" encoding="UTF-8"?>
<svg width="16px" height="16px" viewBox="0 0 16 16" version="1.1" xmlns="http://www.w3.org/2000/svg" xmlns:xlink="http://www.w3.org/1999/xlink">
    <title>ICON / toolbar /rebuild</title>
    <g id="ICON-/-toolbar-/rebuild" stroke="none" stroke-width="1" fill="none" fill-rule="evenodd">
        <path d="M13.6011691,0.925786243 L14.6324366,4.55259219 C14.7608309,5.0041348 14.4988675,5.47426656 14.0473249,5.60266087 C13.9419413,5.63262627 13.8317583,5.64193564 13.722841,5.63007656 L10.0664868,5.23196743 C9.70961084,5.19311027 9.45180571,4.87230523 9.49066288,4.51542932 C9.52952004,4.15855341 9.85032508,3.90074828 10.207201,3.93960544 L11.8137788,4.11385606 C10.8121825,3.13000086 9.4550037,2.55555556 8,2.55555556 C4.99311636,2.55555556 2.55555556,4.99311636 2.55555556,8 C2.55555556,11.0068836 4.99311636,13.4444444 8,13.4444444 C11.0068836,13.4444444 13.4444444,11.0068836 13.4444444,8 C13.574436,7.52562459 13.8388458,7.28843689 14.237674,7.28843689 C14.6365021,7.28843689 14.8906108,7.52562459 15,8 L14.9957669,8.24574829 C14.8663066,11.9979365 11.7837381,15 8,15 C4.13400675,15 1,11.8659932 1,8 C1,4.13400675 4.13400675,1 8,1 C9.82860512,1 11.538575,1.7069095 12.8172112,2.92047613 L12.350737,1.28134153 C12.2623715,0.970573969 12.4157982,0.648292069 12.6990889,0.515367316 L12.7981754,0.478347836 C13.1434727,0.380163955 13.5029852,0.580488953 13.6011691,0.925786243 Z" id="形状结合" fill="#000000"></path>
    </g>
</svg>