<?xml version="1.0" encoding="UTF-8"?>
<svg width="16px" height="16px" viewBox="0 0 16 16" version="1.1" xmlns="http://www.w3.org/2000/svg" xmlns:xlink="http://www.w3.org/1999/xlink">
    <title>ICON / toolbar /rebuild</title>
    <g id="ICON-/-toolbar-/rebuild" stroke="none" stroke-width="1" fill="none" fill-rule="evenodd">
        <path d="M8,1 C11.8659932,1 15,4.13400675 15,8 C15,11.8659932 11.8659932,15 8,15 C4.42932568,15 1.48307792,12.3265121 1.05379256,8.87207209 L1.04820784,8.82546098 L1.05073287,8.84708425 C1.0477975,8.82274955 1.044987,8.79837642 1.04230201,8.7739655 C1.04844147,8.47176178 1.29383547,8.22772684 1.59622688,8.22772684 C1.86960783,8.22772684 2.09640307,8.42718398 2.13902831,8.68851398 L2.14530201,8.77320296 L2.17993149,9.00004581 C2.65988993,11.7826511 5.0826783,13.9 8,13.9 C11.25848,13.9 13.9,11.25848 13.9,8 C13.9,4.74151998 11.25848,2.1 8,2.1 C6.28514634,2.1 4.74116868,2.83160708 3.66316525,3.999723 L5.53382766,4.00157738 C5.77928755,4.00157738 5.98343603,4.17845254 6.02577199,4.41170174 L6.03382766,4.50157738 C6.03382766,4.77771975 5.80997004,5.00157761 5.53382766,5.00157761 L1.97937752,5.00157761 L1.98604721,4.49499493 L2.03433853,1.49262142 C2.03797392,1.21650298 2.2647592,0.995611815 2.54087765,0.999247201 C2.81699609,1.00288259 3.03788725,1.22966787 3.03425187,1.50578632 L3.00668543,3.09438173 C4.27676458,1.80163174 6.04476673,1 8,1 Z" id="形状结合" fill="#000000" transform="translate(8.0212, 7.9996) scale(-1, 1) translate(-8.0212, -7.9996)"></path>
    </g>
</svg>