<?xml version="1.0" encoding="UTF-8"?>
<svg width="16px" height="16px" viewBox="0 0 16 16" version="1.1" xmlns="http://www.w3.org/2000/svg" xmlns:xlink="http://www.w3.org/1999/xlink">
    <title>ICON / ICON / AIrepair</title>
    <g id="ICON-/-ICON-/-AIrepair" stroke="none" stroke-width="1" fill="none" fill-rule="evenodd">
        <path d="M5.30093988,9.13045742 L6.86904093,10.6985585 L4.48011981,13.0868508 L4.55436725,13.1703542 C4.90807597,13.6100359 4.88086761,14.2548328 4.47274216,14.6629583 L4.46387071,14.6718297 C4.02659345,15.109107 3.31762692,15.109107 2.88034965,14.6718297 L1.32766862,13.1191487 C0.890391351,12.6818714 0.890391351,11.9729049 1.32766862,11.5356276 L1.33654007,11.5267562 C1.77118889,11.0921074 2.47427058,11.0894947 2.91214647,11.5189183 L5.30093988,9.13045742 Z M2.64513266,1.65192369 L4.14015778,2.23182617 C4.35971901,2.31699136 4.502512,2.53045153 4.49742113,2.76589648 L4.48580033,3.30334095 C4.48253489,3.45436308 4.54043506,3.60029633 4.64635185,3.70799953 L8.28242545,7.40540001 C8.76776939,6.91187015 9.40154416,6.95100152 9.82365382,7.38023059 L14.6642025,12.3024211 C15.0863122,12.7316502 15.0427187,13.5285165 14.5573747,14.0220464 L13.986083,14.6028132 C13.5008186,15.0964226 12.7373417,15.1202389 12.3152081,14.6910338 L7.47468335,9.76881935 C7.05257368,9.33959029 7.01409136,8.69512612 7.4994353,8.20159626 L3.86741403,4.50831647 C3.7591169,4.39819277 3.61013668,4.3377007 3.45572302,4.34115306 L2.94960313,4.35246881 C2.71111669,4.35780085 2.49544424,4.21143366 2.41232007,3.98783897 L1.83994621,2.44821744 C1.76422042,2.24452356 1.81321004,2.01540947 1.9656142,1.86049477 L2.04356664,1.78125823 C2.20030064,1.62194237 2.43677001,1.5711023 2.64513266,1.65192369 Z M12.5373555,1.10654515 L11.2675842,2.37983606 C10.8767157,2.77070454 10.8289893,3.37314718 11.1273321,3.80632097 L11.2554384,3.96008284 L12.0394889,4.74413336 C12.4243949,5.12903927 13.026175,5.16751003 13.4639863,4.86247281 L13.6197357,4.73198763 L14.8933186,3.46066293 C15.1829205,4.57645207 14.8839222,5.82089017 14.000084,6.70472839 C13.3875004,7.31731194 12.5488559,7.70178594 11.7527171,7.75122647 L8.24928275,4.24779212 C8.29872328,3.45165336 8.68319728,2.6130088 9.29578083,2.00042524 C10.1789614,1.11724464 11.4222055,0.818033959 12.5373555,1.10654515 Z" id="形状结合" fill="#000000"></path>
    </g>
</svg>