<?xml version="1.0" encoding="UTF-8"?>
<svg width="20px" height="20px" viewBox="0 0 20 20" version="1.1" xmlns="http://www.w3.org/2000/svg" xmlns:xlink="http://www.w3.org/1999/xlink">
    <title>ICON / sidebar /codegee</title>
    <g id="ICON-/-sidebar-/codegee" stroke="none" stroke-width="1" fill="none" fill-rule="evenodd" fill-opacity="1">
        <path d="M6.78289871,3.34322963 C7.19429851,3.7629542 7.19429851,4.46284182 6.78289871,4.88256639 L3.24696015,8.50584135 C2.94252532,8.81643451 2.94252532,9.31484997 3.24696015,9.62544314 L6.24914933,12.6883712 C6.55356368,12.9989644 7.04209134,12.9989644 7.3465569,12.6883712 L7.74249016,12.2843869 C7.89474855,12.1290643 7.97085213,11.942334 7.97085213,11.72404 L7.97085213,10.9307872 C7.97085213,10.8216402 7.97085213,10.7135852 7.98626746,10.6044382 C8.01709812,10.184698 8.35239434,9.87306488 8.76379414,9.87306488 L11.2630236,9.87306488 L11.2630236,9.85736102 C11.9500557,9.85840101 12.2853519,10.6978294 11.813315,11.1952048 L7.33211463,15.7670551 C7.02770029,16.0776483 6.53917262,16.0776483 6.23475827,15.7670551 L0.228325739,9.60968728 C-0.0761085797,9.29909411 -0.0761085797,8.80067866 0.228325739,8.49008549 L5.27414255,3.34322963 C5.68554235,2.9235061 6.37155012,2.9235061 6.78289871,3.34322963 Z M13.7488863,3.23294644 L19.7697248,9.37558541 C20.0741391,9.70193444 20.0741391,10.1993099 19.7851401,10.5109431 L14.7238931,15.6746 C14.3124933,16.0943401 13.6265368,16.0943401 13.215137,15.6746 C12.8037372,15.2548598 12.8037372,14.5549982 13.215137,14.135258 L16.7665011,10.5119831 C17.0709666,10.2013899 17.0709666,9.70297443 16.7665011,9.39238126 L13.7488863,6.3294532 C13.444472,6.01886003 12.9559443,6.01886003 12.6514788,6.3294532 L12.2555455,6.73343751 C12.1187537,6.87299904 12.0271835,7.07551119 12.0271835,7.2937688 L12.0271835,8.08704757 C12.0271835,8.19617377 12.0271835,8.30423919 12.0117682,8.41338619 C11.9809375,8.83312636 11.6456413,9.14475952 11.2342415,9.14475952 L8.73501203,9.14475952 C8.04900427,9.14475952 7.71370805,8.30527918 8.18579611,7.80792971 L11.5839288,4.33786616 L12.0261593,3.87092602 L12.6514788,3.23294644 C12.9559443,2.92235119 13.444472,2.92235119 13.7488863,3.23294644 Z" id="形状结合" fill="#000000"></path>
    </g>
</svg>