<?xml version="1.0" encoding="UTF-8"?>
<svg width="24px" height="24px" viewBox="0 0 24 24" version="1.1" xmlns="http://www.w3.org/2000/svg" xmlns:xlink="http://www.w3.org/1999/xlink">
    <title>photo备份</title>
    <defs>
        <linearGradient x1="50%" y1="-17.2639974%" x2="50%" y2="113.405762%" id="linearGradient-1">
            <stop stop-color="#FFFFFF" offset="0%"></stop>
            <stop stop-color="#FFFFFF" offset="98.4407438%"></stop>
        </linearGradient>
    </defs>
    <g id="photo备份" stroke="none" stroke-width="1" fill="none" fill-rule="evenodd">
        <g id="logo_new.a2d17dc1">
            <rect id="矩形" fill="url(#linearGradient-1)" x="0" y="0" width="24" height="24" rx="12"></rect>
            <g id="Group" transform="translate(2, 5.5325)" fill-rule="nonzero">
                <path d="M11.813315,8.19520482 L7.33211463,12.7670551 C7.02770029,13.0776483 6.53917262,13.0776483 6.23475827,12.7670551 L0.228325739,6.60968728 C-0.0761085797,6.29909411 -0.0761085797,5.80067866 0.228325739,5.49008549 L5.27414255,0.34322963 C5.68554235,-0.0764939024 6.37155012,-0.0764939024 6.78289871,0.34322963 C7.19429851,0.762954202 7.19429851,1.46284182 6.78289871,1.88256639 L3.24696015,5.50584135 C2.94252532,5.81643451 2.94252532,6.31484997 3.24696015,6.62544314 L6.24914933,9.6883712 C6.55356368,9.99896437 7.04209134,9.99896437 7.3465569,9.6883712 L7.74249016,9.28438689 C7.89474855,9.1290643 7.97085213,8.94233401 7.97085213,8.72404 L7.97085213,7.93078723 C7.97085213,7.82164023 7.97085213,7.71358521 7.98626746,7.60443821 C8.01709812,7.18469804 8.35239434,6.87306488 8.76379414,6.87306488 L11.2630236,6.87306488 L11.2630236,6.85736102 C11.9500557,6.85840101 12.2853519,7.69782936 11.813315,8.19520482 Z" id="Vector" fill="#00E7E7"></path>
                <path d="M14.7238931,12.6746 C14.3124933,13.0943401 13.6265368,13.0943401 13.215137,12.6746 C12.8037372,12.2548598 12.8037372,11.5549982 13.215137,11.135258 L16.7665011,7.51198305 C17.0709666,7.20138988 17.0709666,6.70297443 16.7665011,6.39238126 L13.7488863,3.3294532 C13.444472,3.01886003 12.9559443,3.01886003 12.6514788,3.3294532 L12.2555455,3.73343751 C12.1187537,3.87299904 12.0271835,4.07551119 12.0271835,4.2937688 L12.0271835,5.08704757 C12.0271835,5.19617377 12.0271835,5.30423919 12.0117682,5.41338619 C11.9809375,5.83312636 11.6456413,6.14475952 11.2342415,6.14475952 L8.73501203,6.14475952 C8.04900427,6.14475952 7.71370805,5.30527918 8.18579611,4.80792971 L11.5839288,1.33786616 L12.0261593,0.870926017 L12.6514788,0.232946436 C12.9559443,-0.0776488118 13.444472,-0.0776488118 13.7488863,0.232946436 L19.7697248,6.37558541 C20.0741391,6.70193444 20.0741391,7.1993099 19.7851401,7.51094306 L14.7238931,12.6746 Z" id="Vector_2" fill="#00BFFF"></path>
            </g>
        </g>
    </g>
</svg>