<?xml version="1.0" encoding="UTF-8"?>
<svg width="20px" height="20px" viewBox="0 0 20 20" version="1.1" xmlns="http://www.w3.org/2000/svg" xmlns:xlink="http://www.w3.org/1999/xlink">
    <title>notification/erro_dark</title>
    <defs>
        <linearGradient x1="50%" y1="0%" x2="50%" y2="100%" id="linearGradient-1">
            <stop stop-color="#DB5C5C" offset="0%"></stop>
            <stop stop-color="#DC5D83" offset="100%"></stop>
        </linearGradient>
    </defs>
    <g id="notification/erro_dark" stroke="none" stroke-width="1" fill="none" fill-rule="evenodd">
        <path d="M9.99071429,0 C15.5186566,0 20,4.4782507 20,10 C20,15.5217493 15.5186566,20 9.99071429,20 C4.47205964,20 0,15.521755 0,10 C0,4.47824507 4.47205964,0 9.99071429,0 Z" id="Shape" fill="url(#linearGradient-1)"></path>
        <path d="M11,5 L11,9 L15,9 L15,11 L11,11 L11,15 L9,15 L9,11 L5,11 L5,9 L9,9 L9,5 L11,5 Z" id="形状结合" fill="#FFFFFF" transform="translate(10, 10) rotate(45) translate(-10, -10)"></path>
    </g>
</svg>