<?xml version="1.0" encoding="UTF-8"?>
<svg width="96px" height="96px" viewBox="0 0 96 96" version="1.1" xmlns="http://www.w3.org/2000/svg" xmlns:xlink="http://www.w3.org/1999/xlink">
    <title>plugin/binary</title>
    <defs>
        <linearGradient x1="50%" y1="-15.3398832%" x2="50%" y2="110.591284%" id="linearGradient-1">
            <stop stop-color="#D7E5ED" offset="0%"></stop>
            <stop stop-color="#A3B9C4" offset="100%"></stop>
        </linearGradient>
        <path d="M17.625,0 L76.375,0 C86.1090187,-1.78811023e-15 94,7.89098128 94,17.625 L94,76.375 C94,86.1090187 86.1090187,94 76.375,94 L17.625,94 C7.89098128,94 1.19207349e-15,86.1090187 0,76.375 L0,17.625 C-1.19207349e-15,7.89098128 7.89098128,1.78811023e-15 17.625,0 Z" id="path-2"></path>
        <filter x="-1.1%" y="-1.1%" width="102.1%" height="102.1%" filterUnits="objectBoundingBox" id="filter-3">
            <feGaussianBlur stdDeviation="0.5" in="SourceAlpha" result="shadowBlurInner1"></feGaussianBlur>
            <feOffset dx="0" dy="-1" in="shadowBlurInner1" result="shadowOffsetInner1"></feOffset>
            <feComposite in="shadowOffsetInner1" in2="SourceAlpha" operator="arithmetic" k2="-1" k3="1" result="shadowInnerInner1"></feComposite>
            <feColorMatrix values="0 0 0 0 0.423088208   0 0 0 0 0.534039904   0 0 0 0 0.592435533  0 0 0 1 0" type="matrix" in="shadowInnerInner1"></feColorMatrix>
        </filter>
        <linearGradient x1="43.3551607%" y1="109.5862%" x2="43.3551607%" y2="3.25956906%" id="linearGradient-4">
            <stop stop-color="#214A5F" offset="0%"></stop>
            <stop stop-color="#0B2F43" offset="95.8624746%"></stop>
            <stop stop-color="#062A3D" offset="100%"></stop>
        </linearGradient>
        <path d="M0,23 L94,23 L94,76 C94,85.9411255 85.9411255,94 76,94 L18,94 C8.0588745,94 1.21743675e-15,85.9411255 0,76 L0,23 L0,23 Z" id="path-5"></path>
        <filter x="-1.1%" y="-1.4%" width="102.1%" height="102.8%" filterUnits="objectBoundingBox" id="filter-6">
            <feGaussianBlur stdDeviation="0.5" in="SourceAlpha" result="shadowBlurInner1"></feGaussianBlur>
            <feOffset dx="0" dy="-1" in="shadowBlurInner1" result="shadowOffsetInner1"></feOffset>
            <feComposite in="shadowOffsetInner1" in2="SourceAlpha" operator="arithmetic" k2="-1" k3="1" result="shadowInnerInner1"></feComposite>
            <feColorMatrix values="0 0 0 0 0.0302611339   0 0 0 0 0.106979219   0 0 0 0 0.146273848  0 0 0 1 0" type="matrix" in="shadowInnerInner1"></feColorMatrix>
        </filter>
        <circle id="path-7" cx="22" cy="22" r="22"></circle>
        <filter x="-30.7%" y="-30.7%" width="152.3%" height="152.3%" filterUnits="objectBoundingBox" id="filter-8">
            <feOffset dx="-2" dy="-2" in="SourceAlpha" result="shadowOffsetOuter1"></feOffset>
            <feGaussianBlur stdDeviation="3.5" in="shadowOffsetOuter1" result="shadowBlurOuter1"></feGaussianBlur>
            <feColorMatrix values="0 0 0 0 0   0 0 0 0 0   0 0 0 0 0  0 0 0 0.5 0" type="matrix" in="shadowBlurOuter1"></feColorMatrix>
        </filter>
        <linearGradient x1="50%" y1="0.869886972%" x2="50%" y2="96.0085089%" id="linearGradient-9">
            <stop stop-color="#EAF3F7" offset="0%"></stop>
            <stop stop-color="#DBEAF2" offset="100%"></stop>
        </linearGradient>
        <circle id="path-10" cx="22" cy="22" r="22"></circle>
        <filter x="-2.3%" y="-2.3%" width="104.5%" height="104.5%" filterUnits="objectBoundingBox" id="filter-11">
            <feGaussianBlur stdDeviation="0.5" in="SourceAlpha" result="shadowBlurInner1"></feGaussianBlur>
            <feOffset dx="0" dy="-1" in="shadowBlurInner1" result="shadowOffsetInner1"></feOffset>
            <feComposite in="shadowOffsetInner1" in2="SourceAlpha" operator="arithmetic" k2="-1" k3="1" result="shadowInnerInner1"></feComposite>
            <feColorMatrix values="0 0 0 0 0.423088208   0 0 0 0 0.534039904   0 0 0 0 0.592435533  0 0 0 0.576206021 0" type="matrix" in="shadowInnerInner1"></feColorMatrix>
        </filter>
        <linearGradient x1="38.8061878%" y1="-5.884552%" x2="38.8061878%" y2="97.4177837%" id="linearGradient-12">
            <stop stop-color="#2F5B73" offset="0%"></stop>
            <stop stop-color="#0A2E42" offset="100%"></stop>
        </linearGradient>
    </defs>
    <g id="plugin/binary" stroke="none" stroke-width="1" fill="none" fill-rule="evenodd">
        <g id="矩形">
            <use fill="url(#linearGradient-1)" fill-rule="evenodd" xlink:href="#path-2"></use>
            <use fill="black" fill-opacity="1" filter="url(#filter-3)" xlink:href="#path-2"></use>
        </g>
        <g id="矩形">
            <use fill="url(#linearGradient-4)" fill-rule="evenodd" xlink:href="#path-5"></use>
            <use fill="black" fill-opacity="1" filter="url(#filter-6)" xlink:href="#path-5"></use>
        </g>
        <path d="M30.6205714,77.4824522 L30.6205714,80.9314218 L28.9862857,80.9314218 C26.1349486,81.2234346 23.2662857,80.5777875 20.8102857,79.0919714 C19.4091429,77.9423148 18.7074286,75.4130704 18.7074286,71.980196 L18.7074286,66.2409265 C18.8394971,65.3460799 18.7829943,64.4332526 18.5415771,63.5618129 C18.3002057,62.6903272 17.8793143,61.8796814 17.3062857,61.1824377 C16.6303543,60.6196578 15.8444343,60.2060574 14.9994057,59.9684004 C14.1544229,59.7307434 13.2692114,59.6743183 12.4011429,59.8028499 L11,59.8028499 L11,56.3883699 L12.6342857,56.3883699 C13.50208,56.5016341 14.38368,56.4378051 15.2264229,56.200792 C16.0692114,55.9637788 16.8558629,55.5583639 17.5394286,55.0087821 C18.4925714,53.4986852 18.9800686,51.738607 18.9405714,49.9502933 L18.9405714,44.2181057 C18.9405714,40.5392048 19.6422857,38.2536875 21.0434286,37.1063303 C23.3898057,35.5498333 26.1838171,34.8219168 28.9862857,35.0369485 L30.6205714,35.0369485 L30.6205714,38.4859182 L28.9862857,38.4859182 C27.3420343,38.289097 25.68256,38.697455 24.3142857,39.6355747 C23.4664229,41.0121275 23.0587429,42.617232 23.1462857,44.2342009 L23.1462857,50.1802246 C23.3492114,52.0986334 22.9376,54.0320339 21.9714286,55.698576 C21.03104,56.8806988 19.7088,57.6941958 18.2342857,57.9978891 C19.7965714,58.239133 21.2127086,59.059252 22.2045714,60.2972022 C23.0584229,62.0003494 23.4607086,63.896363 23.3725714,65.8017577 L23.3725714,71.7663598 C23.1701486,73.3924341 23.5874743,75.0355232 24.5405714,76.364986 C25.8338286,77.2741344 27.4103771,77.6824924 28.9794286,77.5146426 L30.6205714,77.4824522 Z M63.1462857,77.6181117 L64.7805714,77.6181117 C65.5590857,77.730778 66.3522286,77.6870911 67.1142857,77.48981 C67.8758857,77.2925289 68.5913143,76.9453327 69.2194286,76.4684551 C70.1049143,75.1127801 70.4395429,73.4664719 70.1542857,71.8698289 L70.1542857,65.9192526 C69.9508571,64.0053504 70.36,62.0760428 71.3222857,60.4123518 C71.7794286,59.7632557 72.3714286,59.2215835 73.0566857,58.8246301 C73.7419429,58.4276767 74.5049143,58.1849152 75.2925714,58.1130387 C73.7300571,57.8717948 72.3142857,57.0516758 71.3222857,55.8137716 C70.4683429,54.1105324 70.0660571,52.2145648 70.1542857,50.309216 L70.1542857,44.3539951 C70.3220571,42.7607551 69.9956571,41.154271 69.2194286,39.7553689 C67.8813714,38.9487699 66.3394286,38.5494712 64.7805714,38.6057124 L63.1462857,38.6057124 L63.1462857,35.1567427 L64.7805714,35.1567427 C67.6317714,34.864684 70.5003429,35.5101012 72.9565714,36.9961932 C74.3577143,38.1458497 75.0594286,40.6750942 75.0594286,44.1079686 L75.0594286,49.8424555 C74.9273143,50.7373021 74.984,51.6500834 75.2253714,52.5215691 C75.4667429,53.3930547 75.8873143,54.2037006 76.4605714,54.9009443 C77.1366857,55.4634482 77.9225143,55.8769107 78.7673143,56.1145677 C79.6125714,56.3521787 80.4976,56.4087418 81.3657143,56.2805321 L83,56.2805321 L83,59.7295018 L81.3657143,59.7295018 C80.4980571,59.6162376 79.6162286,59.6800206 78.7732571,59.9170338 C77.9307429,60.1540929 77.144,60.5595078 76.4605714,61.1090896 C75.8873143,61.8062874 75.4667429,62.6169792 75.2253714,63.4884188 C74.984,64.3599045 74.9273143,65.2726858 75.0594286,66.1675784 L75.0594286,71.9020193 C75.0594286,75.5809203 74.3577143,77.8664375 72.9565714,79.0137947 C70.4875429,80.4674205 67.6294857,81.1103084 64.7805714,80.8532452 L63.1462857,80.8532452 L63.1462857,77.6181117 Z M38.5632,39.8147372 C35.0934857,39.8147372 32.9860571,43.0337755 32.9860571,47.862333 C32.9860571,52.5920201 34.7277714,55.4362704 38.2112,55.4362704 C41.6397714,55.4362704 43.7700571,52.217232 43.7700571,47.377178 C43.7700571,42.670484 42.0352,39.8147372 38.5632,39.8147372 Z M35.5140571,47.3886745 C35.5140571,43.9535008 36.4443429,41.9921867 38.3780571,41.9921867 C39.7860571,41.9921867 40.6432,43.2039247 41.0272,45.2365175 L35.5414857,48.1152575 C35.5197257,47.8736916 35.5105829,47.6312061 35.5140571,47.3886745 Z M41.2397714,47.8669316 C41.2397714,51.3159013 40.3254857,53.2634195 38.4009143,53.2634195 C37.0180571,53.2634195 36.1357714,52.1022664 35.7540571,50.1179592 L41.2397714,47.2369199 L41.2397714,47.8669316 Z M60.6777143,55.1282084 L60.8948571,52.8771809 L57.3154286,52.8771809 L57.3154286,39.644634 L54.7624686,39.8653681 L54.7624686,41.6243426 L51.0893257,42.0129265 L51.1373257,43.9719412 L54.7624686,43.8753701 L54.7624686,52.8794802 L50.7533257,52.8794802 L50.7533257,55.1351063 L60.6777143,55.1282084 Z M43.6512,76.0292863 L43.8683429,73.7782588 L40.2889143,73.7782588 L40.2889143,60.5478733 L37.7357714,60.766308 L37.7357714,62.5275819 L34.0603429,62.9138665 L34.1083429,64.8751805 L37.7357714,64.7786094 L37.7357714,73.7805581 L33.7243429,73.7805581 L33.7243429,76.0361843 L43.6512,76.0292863 Z M55.8088686,60.7089632 C52.3368686,60.7089632 50.2248686,63.9280015 50.2248686,68.7680556 C50.2248686,73.4954433 51.9711543,76.3557888 55.4545829,76.3557888 C58.8829714,76.3557888 61.0132571,73.1367505 61.0132571,68.3081929 C61.0132571,63.56471 59.2784,60.7089632 55.8088686,60.7089632 Z M52.7597257,68.2966964 C52.7597257,64.8477267 53.6900114,62.8979092 55.62144,62.8979092 C57.0292571,62.8979092 57.8886857,64.1096472 58.2704,66.14224 L52.7848686,69.02098 C52.7637943,68.7786324 52.7553829,68.5353651 52.7597257,68.2920978 L52.7597257,68.2966964 Z M58.4738286,68.7726542 C58.4738286,72.2216238 57.5595429,74.1714413 55.6351543,74.1714413 C54.2500114,74.1714413 53.3677257,73.0079889 52.9860114,71.0236817 L58.4715429,68.1449417 L58.4738286,68.7726542 Z" id="形状结合" fill="#40ED32" fill-rule="nonzero" opacity="0.790798369"></path>
        <g id="编组" transform="translate(52, 52)">
            <g id="Oval" fill="black" fill-opacity="1">
                <use filter="url(#filter-8)" xlink:href="#path-7"></use>
            </g>
            <g id="Oval">
                <use fill="url(#linearGradient-9)" fill-rule="evenodd" xlink:href="#path-10"></use>
                <use fill="black" fill-opacity="1" filter="url(#filter-11)" xlink:href="#path-10"></use>
            </g>
            <path d="M36.782657,22.0000176 C36.782657,20.7681016 37.6860386,19.6184075 39,19.1256057 C38.8357681,18.0579922 38.5072689,16.9903435 38.1787697,16.0048459 C36.7826217,16.1691132 35.4686251,15.6763467 34.8116267,14.6086979 C34.1545931,13.5410844 34.4009762,12.1449364 35.3043578,10.9951717 C34.6473595,10.1739414 33.9082451,9.43479179 33.0869796,8.69567751 C31.8550636,9.59905903 30.4589508,9.84544227 29.3913373,9.18840864 C28.3236885,8.53141027 27.8309222,7.21741355 27.9951894,5.82126559 C27.0096918,5.49276641 25.942043,5.16426723 24.8744295,5 C24.3816279,6.3139967 23.2318984,7.21737826 22.0000176,7.21737826 C20.7681369,7.21737826 19.6184075,6.3139967 19.1256057,5 C18.0579922,5.16423194 16.9903435,5.49273112 16.0048459,5.8212303 C16.0601428,6.29121244 16.0409859,6.75188535 15.9505087,7.18132087 C15.7722108,8.02758386 15.3169466,8.75253884 14.6086979,9.1883733 C13.5410844,9.84540693 12.1449364,9.59902378 10.9951717,8.69564217 C10.1739414,9.35264054 9.43479179,10.0917549 8.69567751,10.9130204 C8.88315709,11.1754903 9.04067641,11.4507999 9.16530519,11.7321095 C9.58662004,12.6830936 9.63205603,13.7026495 9.18840864,14.5265467 C8.53141027,15.5941955 7.21741352,16.0869266 5.82126559,15.9226947 C5.49276641,16.9081922 5.16423194,17.975841 5,19.0434545 C6.31396141,19.6184075 7.21737827,20.7681369 7.21737827,22.0000176 C7.21737827,22.1937002 7.19504689,22.3853522 7.15229932,22.5727393 C6.92315936,23.577192 6.10740335,24.4591087 5,24.8744295 C5.16423194,25.942043 5.49273112,27.0096918 5.8212303,27.9951894 C7.21737827,27.8309222 8.61352626,28.2415725 9.1883733,29.3913373 C9.84540693,30.4589508 9.59902378,31.8550988 8.69564217,33.0048636 C9.35264054,33.8260938 10.0917549,34.5652435 10.9130204,35.3043578 C12.0627852,34.4009762 13.4589332,34.2367443 14.5265467,34.8116267 C15.5941955,35.4686251 16.0869266,36.7826217 15.9226947,38.1787697 C16.9081922,38.5072689 17.975841,38.8357681 19.0434545,39 C19.6183369,37.6860033 20.6859856,36.7826217 21.9178664,36.7826217 C23.1497471,36.7826217 24.2994765,37.6860033 24.792243,39 C25.8598918,38.8357681 26.8453893,38.5072689 27.9130382,38.1787697 C27.7487709,36.7826217 28.2415373,35.4686251 29.3091508,34.8116267 C30.3767996,34.1545931 31.7729122,34.4009762 32.922677,35.3043578 C33.7439426,34.6473595 34.483057,34.0037523 35.2222065,33.1824866 C34.318825,32.0327219 34.1545577,30.5410668 34.7294401,29.4734533 C35.3864385,28.4058045 36.7004705,27.9130734 38.0965831,28.0773053 C38.4251176,27.0918078 38.7536168,26.024159 38.9178488,24.9565455 C37.6860386,24.2995471 36.782657,23.2318984 36.782657,22.0000176 Z M10.3253012,22.3727815 C10.3253012,16.575685 14.871578,11.7447942 20.2105263,10.7786345 C20.2105263,15.3331023 20.2105263,18.7489531 20.2105263,21.0261869 C20.2105263,21.0630107 20.2105263,21.1182465 20.2105263,21.1918941 L10.9534286,26.3793152 C10.9365199,26.3272978 10.9199526,26.2752246 10.9037267,26.2230928 C10.8988806,26.2075227 10.8940648,26.1919474 10.8892796,26.1763668 C10.8837319,26.1583036 10.8613465,26.0842534 10.8557076,26.0652902 C10.5020801,24.8760651 10.3253012,23.6552137 10.3253012,22.3727815 Z M22,34.0843374 C18.5400011,34.0843374 15.3945558,32.4598684 13.1927711,29.8608114 L22,24.6626506 L30.8072289,29.8608579 C28.6054892,32.4598684 25.4599989,34.0843374 22,34.0843374 Z M24.6626506,21.2066666 C24.6626506,21.1381381 24.6626506,21.0888881 24.6626506,21.0589167 C24.6626506,20.9823969 24.6626506,20.9183135 24.6626506,20.8666666 C24.6626506,18.6345996 24.6626506,15.2719222 24.6626506,10.7786345 C30.0015344,11.7447942 34.0843374,16.575685 34.0843374,22.3727815 C34.0843374,23.6381918 33.9121937,24.8153178 33.56794,25.9842418 C33.5496408,26.0463772 33.5308553,26.1084896 33.5115835,26.1705909 C33.4935504,26.2287003 33.4750915,26.2867999 33.4562069,26.3448996 L24.6626506,21.2066666 Z" id="path-13" fill="url(#linearGradient-12)"></path>
        </g>
        <rect id="矩形" fill="#A1BDCD" x="55" y="8" width="9" height="9" rx="2"></rect>
        <rect id="矩形备份" fill="#A1BDCD" x="66" y="8" width="9" height="9" rx="2"></rect>
        <rect id="矩形备份-2" fill="#A1BDCD" x="77" y="8" width="9" height="9" rx="2"></rect>
    </g>
</svg>