<?xml version="1.0" encoding="UTF-8"?>
<svg width="16px" height="16px" viewBox="0 0 16 16" version="1.1" xmlns="http://www.w3.org/2000/svg" xmlns:xlink="http://www.w3.org/1999/xlink">
    <title>ICON / status /wait-light</title>
    <defs>
        <linearGradient x1="50%" y1="0%" x2="50%" y2="100%" id="linearGradient-1">
            <stop stop-color="#B6B6B6" offset="0%"></stop>
            <stop stop-color="#7B7B7B" offset="100%"></stop>
        </linearGradient>
        <path d="M6,0 C2.7,0 0,2.7 0,6 C0,9.3 2.7,12 6,12 C9.3,12 12,9.3 12,6 C12,2.7 9.3,0 6,0 L6,0 Z" id="path-2"></path>
        <filter x="-4.2%" y="-4.2%" width="108.3%" height="108.3%" filterUnits="objectBoundingBox" id="filter-3">
            <feOffset dx="0" dy="-1" in="SourceAlpha" result="shadowOffsetInner1"></feOffset>
            <feComposite in="shadowOffsetInner1" in2="SourceAlpha" operator="arithmetic" k2="-1" k3="1" result="shadowInnerInner1"></feComposite>
            <feColorMatrix values="0 0 0 0 0   0 0 0 0 0   0 0 0 0 0  0 0 0 0.05 0" type="matrix" in="shadowInnerInner1"></feColorMatrix>
        </filter>
    </defs>
    <g id="ICON-/-status-/wait-light" stroke="none" stroke-width="1" fill="none" fill-rule="evenodd">
        <g id="图标/状态图标/Selected-Light" transform="translate(2, 2)">
            <g id="select_active-copy-24">
                <use fill="url(#linearGradient-1)" fill-rule="evenodd" xlink:href="#path-2"></use>
                <use fill="black" fill-opacity="1" filter="url(#filter-3)" xlink:href="#path-2"></use>
            </g>
            <path d="M5.75,2 C6.16421356,2 6.5,2.33578644 6.5,2.75 L6.49934379,5.511 L8.24734379,5.51171335 C8.66155736,5.51171335 8.99734379,5.84749978 8.99734379,6.26171335 C8.99734379,6.67592691 8.66155736,7.01171335 8.24734379,7.01171335 L5.99734379,7.01171335 C5.44505904,7.01171335 4.99734379,6.5639981 4.99734379,6.01171335 L4.99734379,5.51171335 L4.99934379,5.511 L5,2.75 C5,2.33578644 5.33578644,2 5.75,2 Z" id="形状结合" fill="#FFFFFF"></path>
        </g>
    </g>
</svg>