<?xml version="1.0" encoding="UTF-8"?>
<svg width="96px" height="96px" viewBox="0 0 96 96" version="1.1" xmlns="http://www.w3.org/2000/svg" xmlns:xlink="http://www.w3.org/1999/xlink">
    <title>plugin/valgrind</title>
    <defs>
        <linearGradient x1="41.7889913%" y1="0%" x2="41.7889913%" y2="108.274269%" id="linearGradient-1">
            <stop stop-color="#FF8080" offset="0%"></stop>
            <stop stop-color="#EE1F1F" offset="100%"></stop>
        </linearGradient>
        <linearGradient x1="50%" y1="0%" x2="50%" y2="100%" id="linearGradient-2">
            <stop stop-color="#FF0000" stop-opacity="0.0149881856" offset="0%"></stop>
            <stop stop-color="#FF0000" stop-opacity="0" offset="100%"></stop>
        </linearGradient>
        <path d="M18,0 L78,0 C87.9411255,-1.82615513e-15 96,8.0588745 96,18 L96,78 C96,87.9411255 87.9411255,96 78,96 L18,96 C8.0588745,96 1.21743675e-15,87.9411255 0,78 L0,18 C-1.21743675e-15,8.0588745 8.0588745,1.82615513e-15 18,0 Z" id="path-3"></path>
        <filter x="-1.0%" y="-1.0%" width="102.1%" height="102.1%" filterUnits="objectBoundingBox" id="filter-4">
            <feGaussianBlur stdDeviation="0.5" in="SourceAlpha" result="shadowBlurInner1"></feGaussianBlur>
            <feOffset dx="0" dy="-1" in="shadowBlurInner1" result="shadowOffsetInner1"></feOffset>
            <feComposite in="shadowOffsetInner1" in2="SourceAlpha" operator="arithmetic" k2="-1" k3="1" result="shadowInnerInner1"></feComposite>
            <feColorMatrix values="0 0 0 0 0.792324785   0 0 0 0 0.0499317101   0 0 0 0 0.0499317101  0 0 0 1 0" type="matrix" in="shadowInnerInner1"></feColorMatrix>
        </filter>
    </defs>
    <g id="plugin/valgrind" stroke="none" stroke-width="1" fill="none" fill-rule="evenodd">
        <g id="矩形">
            <use fill="url(#linearGradient-1)" fill-rule="evenodd" xlink:href="#path-3"></use>
            <use fill="black" fill-opacity="1" filter="url(#filter-4)" xlink:href="#path-3"></use>
            <path stroke="url(#linearGradient-2)" stroke-width="1" d="M78,0.5 C82.8324916,0.5 87.2074916,2.45875422 90.3743687,5.62563133 C93.5412458,8.79250844 95.5,13.1675084 95.5,18 L95.5,78 C95.5,82.8324916 93.5412458,87.2074916 90.3743687,90.3743687 C87.2074916,93.5412458 82.8324916,95.5 78,95.5 L18,95.5 C13.1675084,95.5 8.79250844,93.5412458 5.62563133,90.3743687 C2.45875422,87.2074916 0.5,82.8324916 0.5,78 L0.5,18 C0.5,13.1675084 2.45875422,8.79250844 5.62563133,5.62563133 C8.79250844,2.45875422 13.1675084,0.5 18,0.5 Z" stroke-linejoin="square"></path>
        </g>
        <g id="valgrind" transform="translate(10.4, 66)" fill="#FFFFFF" fill-rule="nonzero">
            <polygon id="路径" points="5.02 11.48 2.42 3.98 0 3.98 3.76 14 6.18 14 10.04 3.98 7.64 3.98"></polygon>
            <path d="M20.58,14 C20.36,13.44 20.22,12.4 20.2,11.44 L20.2,7.8 C20.2,5.48 18.88,3.74 15.98,3.74 C13.26,3.74 11.66,5.34 11.46,7.02 L13.76,7.02 C13.84,6.34 14.46,5.56 15.94,5.56 C17.22,5.56 18.04,6.22 18.04,7.72 L18.04,8 L15.2,8.04 C12.8,8.08 11.38,9.08 11.38,11.14 C11.38,13.06 12.78,14.24 14.74,14.24 C16.4,14.24 17.54,13.46 18.16,12.42 C18.2,13.16 18.32,13.72 18.38,14 L20.58,14 Z M18.04,10.72 C17.66,11.78 16.58,12.42 15.34,12.42 C14.32,12.42 13.6,11.94 13.6,11.04 C13.6,10.16 14.3,9.8 15.34,9.76 L18.04,9.72 L18.04,10.72 Z" id="形状"></path>
            <polygon id="路径" points="25.54 14 25.54 0 23.26 0 23.26 14"></polygon>
            <path d="M35.28,5.98 C34.42,4.54 33.18,3.76 31.84,3.76 C29.64,3.76 28.1,5.88 28.1,8.84 C28.1,11.74 29.64,13.82 31.88,13.82 C33.26,13.82 34.42,13 35.26,11.66 L35.26,13.44 C35.26,15.16 34.2,15.82 32.76,15.82 C31.44,15.82 30.74,15.26 30.52,14.5 L28.22,14.5 C28.5,16.42 30.16,17.64 32.8,17.64 C35.8,17.64 37.54,16.1 37.54,13.24 L37.54,3.98 L35.28,3.98 L35.28,5.98 Z M32.56,11.92 C31.32,11.92 30.38,10.82 30.38,8.82 C30.38,6.8 31.28,5.72 32.5,5.72 C33.62,5.72 35.32,6.92 35.32,8.84 C35.32,10.68 33.68,11.92 32.56,11.92 Z" id="形状"></path>
            <path d="M45.84,3.76 C44.48,3.76 43.5,4.94 42.94,6.34 L42.94,3.98 L40.68,3.98 L40.68,14 L42.96,14 L42.96,9.14 C42.96,7.24 43.92,5.9 44.96,5.9 C45.6,5.9 45.92,6.38 45.92,7.24 L45.92,7.6 L47.9,7.6 L47.9,6.92 C47.9,5.2 47.4,3.76 45.84,3.76 Z" id="路径"></path>
            <path d="M52.54,2.54 L52.54,0 L49.86,0 L49.86,2.54 L52.54,2.54 Z M52.32,14 L52.32,3.98 L50.04,3.98 L50.04,14 L52.32,14 Z" id="形状"></path>
            <path d="M61.16,3.76 C59.72,3.76 58.5,4.74 57.76,5.9 L57.76,3.98 L55.5,3.98 L55.5,14 L57.78,14 L57.78,9.06 C57.78,7 59.1,5.8 60.4,5.8 C61.62,5.8 62.18,6.56 62.18,8.4 L62.18,14 L64.46,14 L64.46,7.7 C64.46,5.2 63.26,3.76 61.16,3.76 Z" id="路径"></path>
            <path d="M73.98,5.96 C73.12,4.54 71.86,3.76 70.56,3.76 C68.22,3.76 66.88,5.92 66.88,8.96 C66.88,12.04 68.22,14.2 70.58,14.2 C71.96,14.2 73.18,13.36 74.02,11.92 L74.02,14 L76.26,14 L76.26,0 L73.98,0 L73.98,5.96 Z M71.26,12.24 C70.02,12.24 69.2,11.14 69.2,8.96 C69.2,6.82 69.98,5.72 71.2,5.72 C72.32,5.72 74.04,6.94 74.04,8.98 C74.04,11.02 72.4,12.24 71.26,12.24 Z" id="形状"></path>
        </g>
        <path d="M48.0880821,11.4612129 C48.5980236,11.4647783 49.1095015,11.7151847 49.4090628,12.2666633 L62.3500393,36.0904107 C62.6831633,36.7036767 62.5610844,37.4644276 62.0528039,37.9426721 L49.1118274,50.1189248 C48.8075287,50.4052414 48.442733,50.5357451 48.0842983,50.5393289 L48,50.536 L47.9157017,50.5393289 C47.5970931,50.5361433 47.2734584,50.4326753 46.9917544,50.2086325 L46.8881726,50.1189248 L33.9471961,37.9426721 C33.4389156,37.4644276 33.3168367,36.7036767 33.6499607,36.0904107 L46.5909372,12.2666633 C46.8904985,11.7151847 47.4019764,11.4647783 47.9119179,11.4612129 L48,11.464 L48.0880821,11.4612129 Z M48,17.4612129 L37.4635926,35.9907941 L48,45.4612129 L48,17.4612129 Z M44,56 L52,56 L52,62 L44,62 Z M41,52 L55,52 L55,55 L41,55 Z" id="形状结合" fill="#FFFFFF"></path>
    </g>
</svg>