<?xml version="1.0" encoding="UTF-8"?>
<svg width="16px" height="16px" viewBox="0 0 16 16" version="1.1" xmlns="http://www.w3.org/2000/svg" xmlns:xlink="http://www.w3.org/1999/xlink">
    <title>ICON / action /delete</title>
    <g id="ICON-/-action-/delete" stroke="none" stroke-width="1" fill="none" fill-rule="evenodd">
        <g id="图标/单色图标/动作/Delete" transform="translate(2, 1)" fill="#000000" fill-rule="nonzero">
            <g id="图标与LOGO/单色图标/文件夹小图标/-Trash">
                <path d="M6,-9.99200722e-16 C9.3137085,-9.99200722e-16 12,1.11928813 12,2.5 C12,2.64504448 11.9703551,2.78720399 11.9134523,2.92548401 L9.762722,11.9552686 C9.53347853,12.9118627 8.76492247,13.6454067 7.79814914,13.8297452 C7.19924198,13.9432101 6.59972763,14 6,14 C5.40027237,14 4.80075802,13.9432101 4.20127192,13.8296352 C3.23507753,13.6454067 2.46652147,12.9118627 2.23710763,11.9545554 L0.0865477394,2.92548401 C0.0296448616,2.78720399 0,2.64504448 0,2.5 C0,1.11928813 2.6862915,-9.99200722e-16 6,-9.99200722e-16 Z M6,5 C4.14990326,5 2.49538297,4.65109904 1.39475849,4.10259685 L3.20974348,11.7222216 C3.34735398,12.2964469 3.80868654,12.7367632 4.38799289,12.8472224 C4.92580448,12.9491125 5.46300888,13 6,13 C6.53699112,13 7.07419552,12.9491125 7.61142817,12.8473324 C8.19131346,12.7367632 8.65264602,12.2964469 8.79008615,11.7229349 L10.6052415,4.10259685 C9.50461703,4.65109904 7.85009674,5 6,5 Z M6,1 C3.24888791,1 1.09758712,1.87087373 1.003229,2.46022225 L1.05187571,2.66577385 C1.39816387,3.24547174 3.43924256,4 6,4 C8.56075744,4 10.6018361,3.24547174 10.9481243,2.66577385 L10.995,2.459 L10.9932273,2.44203209 C10.8582961,1.85313144 8.72294371,1 6,1 Z" id="形状结合"></path>
            </g>
        </g>
    </g>
</svg>