<?xml version="1.0" encoding="UTF-8"?>
<svg width="16px" height="16px" viewBox="0 0 16 16" version="1.1" xmlns="http://www.w3.org/2000/svg" xmlns:xlink="http://www.w3.org/1999/xlink">
    <title>ICON / search /match_case</title>
    <g id="ICON-/-search-/match_case" stroke="none" stroke-width="1" fill="none" fill-rule="evenodd">
        <path d="M13.6866108,5.10970108 C14.3380218,5.29273002 14.9383762,5.68301233 15.3653145,6.35591287 C15.7834499,7.01625259 16,7.89371489 16,9.00086057 L16,13.0418526 C16,13.4134853 15.7044122,13.7147531 15.3397862,13.7147531 C14.9825263,13.7147531 14.6915435,13.4255348 14.6799324,13.0642877 L14.7117302,13.0432635 C13.667513,13.7957958 12.4862157,14.0282436 11.4612501,13.7533327 C10.1777944,13.4088077 9.24380979,12.2891012 9.24380979,10.7055419 C9.24371837,10.6682732 9.24666277,10.6310609 9.2526148,10.594289 C9.38025614,9.81551881 9.71212362,9.21798314 10.2094847,8.80078481 C10.6936415,8.39435289 11.2807916,8.20235193 11.8503361,8.12070667 C12.7968314,7.98544043 13.8495088,8.13754909 14.6365892,8.27006503 C14.5681521,7.73387568 14.425718,7.35407505 14.2561552,7.08623425 C14.0454444,6.74805537 13.7156215,6.50500505 13.3344968,6.40705331 C12.5299162,6.18006153 11.4506867,6.43396933 10.5985707,6.83412085 C10.3837124,6.93935866 10.1298786,6.91837438 9.93446936,6.77922003 C9.73906017,6.64006568 9.63242583,6.40435416 9.65548371,6.16253189 C9.67854159,5.92070961 9.82771043,5.71033546 10.0457517,5.61213348 C11.0052624,5.16084152 12.4357257,4.7571012 13.6866108,5.10970108 Z M12.0343157,9.45394693 C11.6117788,9.51405938 11.2834325,9.64235908 11.0483964,9.83974323 C10.8353674,10.0191834 10.6513878,10.2955212 10.5642396,10.7611684 C10.5844861,11.7005375 11.1073755,12.2666712 11.7966387,12.4514945 C12.5272753,12.6479815 13.548406,12.4317561 14.4550997,11.5076394 C14.4941691,11.4548951 14.5234094,11.3952907 14.5413676,11.331788 C14.5809804,11.2178435 14.6117904,11.076983 14.6346778,10.9253561 C14.6731903,10.6592239 14.6786783,10.4123255 14.6794486,10.3126854 L14.6788077,9.64053283 L14.7147838,9.64684508 C13.8661889,9.50329297 12.8732274,9.33372203 12.0343157,9.45394693 Z M4.49379362,2.00000341 C4.77076328,1.99910621 5.01823677,2.17546539 5.11351432,2.44052896 L7.02989496,7.76720959 L7.66370022,9.52841459 L7.67426364,9.55802221 L8.94627559,13.0947874 C9.06156811,13.4407559 8.8849138,13.8172783 8.54831456,13.9430047 C8.21171532,14.0687311 7.83818343,13.897714 7.70683419,13.557743 L6.58887213,10.4471481 L2.39871511,10.4471481 L1.28163334,13.557743 C1.15620198,13.9070777 0.776667257,14.0866334 0.433918796,13.9587917 C0.0911703357,13.8309501 -0.0849999893,13.4441222 0.0404313623,13.0947874 L1.3133236,9.55802221 L1.32388702,9.52841459 L1.95769228,7.76720959 L3.87407292,2.44142616 C3.96935047,2.17636259 4.21682396,2.00008894 4.49379362,2.00000341 Z M4.49379362,4.62610989 L3.19713369,8.23016516 L2.8837522,9.10134705 L6.10383505,9.10134705 L5.79045355,8.23106236 L4.49379362,4.62610989 Z" id="形状结合" fill="#000000"></path>
    </g>
</svg>