<?xml version="1.0" encoding="UTF-8"?>
<svg width="16px" height="16px" viewBox="0 0 16 16" version="1.1" xmlns="http://www.w3.org/2000/svg" xmlns:xlink="http://www.w3.org/1999/xlink">
    <title>ICON / search /option</title>
    <g id="ICON-/-search-/option" stroke="none" stroke-width="1" fill="none" fill-rule="evenodd">
        <g id="图标/单色图标/动作/Option" transform="translate(1, 1)" fill="#000000" fill-rule="nonzero">
            <path d="M11,0 C12.6568542,0 14,1.34314575 14,3 L14,11 C14,12.6568542 12.6568542,14 11,14 L3,14 C1.34314575,14 0,12.6568542 0,11 L0,3 C0,1.34314575 1.34314575,0 3,0 L11,0 Z M11,1 L3,1 C1.8954305,1 1,1.8954305 1,3 L1,11 C1,12.1045695 1.8954305,13 3,13 L11,13 C12.1045695,13 13,12.1045695 13,11 L13,3 C13,1.8954305 12.1045695,1 11,1 Z M4,6 C4.55228475,6 5,6.44771525 5,7 C5,7.55228475 4.55228475,8 4,8 C3.44771525,8 3,7.55228475 3,7 C3,6.44771525 3.44771525,6 4,6 Z M7,6 C7.55228475,6 8,6.44771525 8,7 C8,7.55228475 7.55228475,8 7,8 C6.44771525,8 6,7.55228475 6,7 C6,6.44771525 6.44771525,6 7,6 Z M10,6 C10.5522847,6 11,6.44771525 11,7 C11,7.55228475 10.5522847,8 10,8 C9.44771525,8 9,7.55228475 9,7 C9,6.44771525 9.44771525,6 10,6 Z" id="形状结合"></path>
        </g>
    </g>
</svg>