<?xml version="1.0" encoding="UTF-8"?>
<svg width="16px" height="16px" viewBox="0 0 16 16" version="1.1" xmlns="http://www.w3.org/2000/svg" xmlns:xlink="http://www.w3.org/1999/xlink">
    <title>ICON / action/Refresh</title>
    <g id="ICON-/-action/Refresh" stroke="none" stroke-width="1" fill="none" fill-rule="evenodd">
        <path d="M13.8786797,7.85720698 L16,9.97852732 L14.3978319,9.97844011 C13.7932934,11.8695554 12.3508437,13.4084473 10.428833,14.108002 C7.05547663,15.3358033 3.32550135,13.5964873 2.09770004,10.2231309 C1.95062716,9.8190515 1.8461282,9.40985509 1.78191195,9.00045526 L2.79653249,9.00018022 C2.85146052,9.29525266 2.93134736,9.58975372 3.03739266,9.88111079 C4.07630146,12.7354893 7.23243439,14.2072182 10.0868129,13.1683094 C11.6086333,12.6144121 12.7746819,11.4394686 13.337663,9.9795239 L11.7573593,9.97852732 L13.8786797,7.85720698 Z M14.3137041,5.77686907 C14.460777,6.1809485 14.565276,6.59014491 14.6294922,6.99954474 L13.6148717,6.99981978 C13.5599436,6.70474734 13.4800568,6.41024628 13.3740115,6.11888921 C12.3351027,3.26451074 9.17896976,1.79278178 6.32459129,2.83169059 C4.80277082,3.38558794 3.63672225,4.56053136 3.07374116,6.0204761 L4.62007675,6.02147268 L2.49875641,8.14279302 L0.377436065,6.02147268 L2.01357222,6.02155989 C2.61811077,4.13044465 4.06056042,2.59155266 5.98257114,1.89199796 C9.35592752,0.664196655 13.0859028,2.40351269 14.3137041,5.77686907 Z" id="形状结合" fill="#000000"></path>
    </g>
</svg>