<?xml version="1.0" encoding="UTF-8"?>
<svg width="16px" height="16px" viewBox="0 0 16 16" version="1.1" xmlns="http://www.w3.org/2000/svg" xmlns:xlink="http://www.w3.org/1999/xlink">
    <title>ICON / search /regex</title>
    <g id="ICON-/-search-/regex" stroke="none" stroke-width="1" fill="none" fill-rule="evenodd">
        <path d="M11.5,1 C11.7761424,1 12,1.22385763 12,1.5 L11.9998149,4.633 L14.7141016,3.0669873 C14.9532479,2.92891611 15.2590431,3.01085369 15.3971143,3.25 C15.5351855,3.48914631 15.4532479,3.79494151 15.2141016,3.9330127 L12.5008149,5.5 L15.2141016,7.0669873 C15.4532479,7.20505849 15.5351855,7.51085369 15.3971143,7.75 C15.2590431,7.98914631 14.9532479,8.07108389 14.7141016,7.9330127 L11.9998149,6.366 L12,9.5 C12,9.77614237 11.7761424,10 11.5,10 C11.2238576,10 11,9.77614237 11,9.5 L10.9998149,6.366 L8.28589838,7.9330127 C8.04675207,8.07108389 7.74095687,7.98914631 7.60288568,7.75 C7.4648145,7.51085369 7.54675207,7.20505849 7.78589838,7.0669873 L10.4988149,5.499 L7.78589838,3.9330127 C7.54675207,3.79494151 7.4648145,3.48914631 7.60288568,3.25 C7.74095687,3.01085369 8.04675207,2.92891611 8.28589838,3.0669873 L10.9998149,4.633 L11,1.5 C11,1.22385763 11.2238576,1 11.5,1 Z M2.2819426,11 L3.7180574,11 C4.16381677,11 4.32545989,11.0464128 4.48842285,11.1335664 C4.65138581,11.2207199 4.7792801,11.3486142 4.86643365,11.5115771 C4.95358719,11.6745401 5,11.8361832 5,12.2819426 L5,13.7180574 C5,14.1638168 4.95358719,14.3254599 4.86643365,14.4884229 C4.7792801,14.6513858 4.65138581,14.7792801 4.48842285,14.8664336 C4.32545989,14.9535872 4.16381677,15 3.7180574,15 L2.2819426,15 C1.83618323,15 1.67454011,14.9535872 1.51157715,14.8664336 C1.34861419,14.7792801 1.2207199,14.6513858 1.13356635,14.4884229 C1.04641281,14.3254599 1,14.1638168 1,13.7180574 L1,12.2819426 C1,11.8361832 1.04641281,11.6745401 1.13356635,11.5115771 C1.2207199,11.3486142 1.34861419,11.2207199 1.51157715,11.1335664 C1.67454011,11.0464128 1.83618323,11 2.2819426,11 Z" id="形状结合" fill="#000000"></path>
    </g>
</svg>