<?xml version="1.0" encoding="UTF-8"?>
<svg width="16px" height="16px" viewBox="0 0 16 16" version="1.1" xmlns="http://www.w3.org/2000/svg" xmlns:xlink="http://www.w3.org/1999/xlink">
    <title>ICON / search /replace</title>
    <g id="ICON-/-search-/replace" stroke="none" stroke-width="1" fill="none" fill-rule="evenodd">
        <path d="M6.5,3 C6.77614237,3 7,3.22385763 7,3.5 C7,3.77614237 6.77614237,4 6.5,4 L3,4 L3,12 L5.708,12 L5.14644661,11.4393398 C4.95118446,11.2440777 4.95118446,10.9274952 5.14644661,10.732233 C5.34170876,10.5369709 5.65829124,10.5369709 5.85355339,10.732233 L7.26776695,12.1464466 C7.4630291,12.3417088 7.4630291,12.6582912 7.26776695,12.8535534 L5.85355339,14.267767 C5.65829124,14.4630291 5.34170876,14.4630291 5.14644661,14.267767 C4.95118446,14.0725048 4.95118446,13.7559223 5.14644661,13.5606602 L5.706,13 L2.5,13 C2.22385763,13 2,12.7761424 2,12.5 L2,3.5 C2,3.22385763 2.22385763,3 2.5,3 L6.5,3 Z M12.8251953,6.20201302 L12.5175781,5.39341927 L9.8984375,5.39341927 L9.59082031,6.21959114 C9.47070312,6.54185677 9.36816406,6.75938606 9.28320312,6.87217903 C9.19824219,6.984972 9.05908203,7.04136848 8.86572266,7.04136848 C8.70166016,7.04136848 8.55664062,6.98130989 8.43066406,6.8611927 C8.3046875,6.74107552 8.24169922,6.60484505 8.24169922,6.4525013 C8.24169922,6.36461067 8.25634766,6.27379036 8.28564453,6.18004036 C8.31494141,6.08629036 8.36328125,5.95591927 8.43066406,5.78892708 C9.59814453,3.2279822 10.2038574,1.89135742 10.2478027,1.77905273 C10.3137207,1.6105957 10.3840332,1.47070312 10.4587402,1.359375 C10.5334473,1.24804687 10.6315918,1.15795898 10.7531738,1.08911133 C10.8747559,1.02026367 11.0249023,0.985839844 11.2036133,0.985839844 C11.3852539,0.985839844 11.5368652,1.02026367 11.6584473,1.08911133 C11.7800293,1.15795898 11.8781738,1.24658203 11.9528809,1.35498047 C12.0275879,1.46337891 12.0905762,1.57983398 12.1418457,1.7043457 C12.1760254,1.78735352 12.8022461,3.13716189 14.0205078,5.75377083 C14.1523437,6.07017708 14.2182617,6.30015755 14.2182617,6.44371223 C14.2182617,6.5931263 14.1560059,6.73008919 14.0314941,6.85460091 C13.9069824,6.97911263 13.7568359,7.04136848 13.5810547,7.04136848 C13.4785156,7.04136848 13.390625,7.02305794 13.3173828,6.98643684 C13.2441406,6.94981575 13.1826172,6.90001106 13.1328125,6.83702278 C13.0830078,6.7740345 13.029541,6.67735481 12.9724121,6.54698372 C12.9152832,6.41661263 12.8662109,6.30162239 12.8251953,6.20201302 Z M10.2412109,4.4134388 L12.1660156,4.4134388 L11.1948242,2.36132812 L10.2412109,4.4134388 Z M11.4541016,14.5576172 L9.48535156,14.5576172 C9.20117188,14.5576172 8.99829102,14.498272 8.87670898,14.3795817 C8.75512695,14.2608914 8.69433594,14.0719419 8.69433594,13.8127331 L8.69433594,9.30250123 C8.69433594,9.03783547 8.7565918,8.84752169 8.88110352,8.73155989 C9.00561523,8.61559809 9.20703125,8.55761719 9.48535156,8.55761719 L11.5727539,8.55761719 C11.8803711,8.55761719 12.1469727,8.57535252 12.3725586,8.61082319 C12.5981445,8.64629386 12.800293,8.71450668 12.9790039,8.81546166 C13.1313477,8.90004556 13.2661133,9.0071397 13.3833008,9.13674406 C13.5004883,9.26634843 13.5898438,9.40959536 13.6513672,9.56648485 C13.7128906,9.72337435 13.7436523,9.88913151 13.7436523,10.0637563 C13.7436523,10.6640292 13.4213867,11.1033198 12.7768555,11.3816281 C13.6235352,11.6326513 14.046875,12.1210551 14.046875,12.8468396 C14.046875,13.1824467 13.9545898,13.4846295 13.7700195,13.753388 C13.5854492,14.0221465 13.3364258,14.2206458 13.0229492,14.3488859 C12.8266602,14.4252843 12.6010742,14.4791724 12.3461914,14.5105503 C12.0913086,14.5419282 11.7939453,14.5576172 11.4541016,14.5576172 Z M11.3574219,11.8932243 L9.99951172,11.8932243 L9.99951172,13.6449296 L11.4013672,13.6449296 C12.2832031,13.6449296 12.7241211,13.3488859 12.7241211,12.7567986 C12.7241211,12.4539337 12.6098633,12.2342884 12.3813477,12.0978628 C12.152832,11.9614371 11.8115234,11.8932243 11.3574219,11.8932243 Z M9.99951172,9.47030477 L9.99951172,11.0214644 L11.1948242,11.0214644 C11.5200195,11.0214644 11.7712402,10.992815 11.9484863,10.9355162 C12.1257324,10.8782175 12.2612305,10.7690769 12.3549805,10.6080947 C12.4282227,10.4934971 12.4648438,10.365257 12.4648438,10.2233743 C12.4648438,9.92050941 12.3491211,9.71928158 12.1176758,9.61969086 C11.8862305,9.52010013 11.5332031,9.47030477 11.0585938,9.47030477 L9.99951172,9.47030477 Z" id="形状结合" fill="#000000"></path>
    </g>
</svg>