<?xml version="1.0" encoding="UTF-8"?>
<svg width="16px" height="16px" viewBox="0 0 16 16" version="1.1" xmlns="http://www.w3.org/2000/svg" xmlns:xlink="http://www.w3.org/1999/xlink">
    <title>ICON / search /replace_all</title>
    <g id="ICON-/-search-/replace_all" stroke="none" stroke-width="1" fill="none" fill-rule="evenodd">
        <path d="M2.5,8 C2.77614237,8 3,8.22385763 3,8.5 L3,12 L6.086,12 L5.52512627,11.4393398 C5.32986412,11.2440777 5.32986412,10.9274952 5.52512627,10.732233 C5.72038841,10.5369709 6.0369709,10.5369709 6.23223305,10.732233 L7.64644661,12.1464466 C7.84170876,12.3417088 7.84170876,12.6582912 7.64644661,12.8535534 L6.23223305,14.267767 C6.0369709,14.4630291 5.72038841,14.4630291 5.52512627,14.267767 C5.32986412,14.0725048 5.32986412,13.7559223 5.52512627,13.5606602 L6.086,13 L2.5,13 C2.22385763,13 2,12.7761424 2,12.5 L2,8.5 C2,8.22385763 2.22385763,8 2.5,8 Z M8.5,1 C8.77614237,1 9,1.22385763 9,1.5 L9,6 L10.5,6 C10.7761424,6 11,6.22385763 11,6.5 C11,6.77614237 10.7761424,7 10.5,7 L8.5,7 C8.22385763,7 8,6.77614237 8,6.5 L8,1.5 C8,1.22385763 8.22385763,1 8.5,1 Z M11.5,1 C11.7761424,1 12,1.22385763 12,1.5 L12,6 L13.5,6 C13.7761424,6 14,6.22385763 14,6.5 C14,6.77614237 13.7761424,7 13.5,7 L11.5,7 C11.2238576,7 11,6.77614237 11,6.5 L11,1.5 C11,1.22385763 11.2238576,1 11.5,1 Z M5.82519531,6.20201302 L5.51757812,5.39341927 L2.8984375,5.39341927 L2.59082031,6.21959114 C2.47070312,6.54185677 2.36816406,6.75938606 2.28320312,6.87217903 C2.19824219,6.984972 2.05908203,7.04136848 1.86572266,7.04136848 C1.70166016,7.04136848 1.55664062,6.98130989 1.43066406,6.8611927 C1.3046875,6.74107552 1.24169922,6.60484505 1.24169922,6.4525013 C1.24169922,6.36461067 1.25634766,6.27379036 1.28564453,6.18004036 C1.31494141,6.08629036 1.36328125,5.95591927 1.43066406,5.78892708 C2.59814453,3.2279822 3.20385742,1.89135742 3.24780273,1.77905273 C3.3137207,1.6105957 3.3840332,1.47070312 3.45874023,1.359375 C3.53344727,1.24804687 3.6315918,1.15795898 3.75317383,1.08911133 C3.87475586,1.02026367 4.02490234,0.985839844 4.20361328,0.985839844 C4.38525391,0.985839844 4.53686523,1.02026367 4.65844727,1.08911133 C4.7800293,1.15795898 4.87817383,1.24658203 4.95288086,1.35498047 C5.02758789,1.46337891 5.09057617,1.57983398 5.1418457,1.7043457 C5.17602539,1.78735352 5.80224609,3.13716189 7.02050781,5.75377083 C7.15234375,6.07017708 7.21826172,6.30015755 7.21826172,6.44371223 C7.21826172,6.5931263 7.15600586,6.73008919 7.03149414,6.85460091 C6.90698242,6.97911263 6.75683594,7.04136848 6.58105469,7.04136848 C6.47851563,7.04136848 6.390625,7.02305794 6.31738281,6.98643684 C6.24414062,6.94981575 6.18261719,6.90001106 6.1328125,6.83702278 C6.08300781,6.7740345 6.02954102,6.67735481 5.97241211,6.54698372 C5.9152832,6.41661263 5.86621094,6.30162239 5.82519531,6.20201302 Z M3.24121094,4.4134388 L5.16601562,4.4134388 L4.19482422,2.36132812 L3.24121094,4.4134388 Z M11.4541016,14.5576172 L9.48535156,14.5576172 C9.20117188,14.5576172 8.99829102,14.498272 8.87670898,14.3795817 C8.75512695,14.2608914 8.69433594,14.0719419 8.69433594,13.8127331 L8.69433594,9.30250123 C8.69433594,9.03783547 8.7565918,8.84752169 8.88110352,8.73155989 C9.00561523,8.61559809 9.20703125,8.55761719 9.48535156,8.55761719 L11.5727539,8.55761719 C11.8803711,8.55761719 12.1469727,8.57535252 12.3725586,8.61082319 C12.5981445,8.64629386 12.800293,8.71450668 12.9790039,8.81546166 C13.1313477,8.90004556 13.2661133,9.0071397 13.3833008,9.13674406 C13.5004883,9.26634843 13.5898438,9.40959536 13.6513672,9.56648485 C13.7128906,9.72337435 13.7436523,9.88913151 13.7436523,10.0637563 C13.7436523,10.6640292 13.4213867,11.1033198 12.7768555,11.3816281 C13.6235352,11.6326513 14.046875,12.1210551 14.046875,12.8468396 C14.046875,13.1824467 13.9545898,13.4846295 13.7700195,13.753388 C13.5854492,14.0221465 13.3364258,14.2206458 13.0229492,14.3488859 C12.8266602,14.4252843 12.6010742,14.4791724 12.3461914,14.5105503 C12.0913086,14.5419282 11.7939453,14.5576172 11.4541016,14.5576172 Z M11.3574219,11.8932243 L9.99951172,11.8932243 L9.99951172,13.6449296 L11.4013672,13.6449296 C12.2832031,13.6449296 12.7241211,13.3488859 12.7241211,12.7567986 C12.7241211,12.4539337 12.6098633,12.2342884 12.3813477,12.0978628 C12.152832,11.9614371 11.8115234,11.8932243 11.3574219,11.8932243 Z M9.99951172,9.47030477 L9.99951172,11.0214644 L11.1948242,11.0214644 C11.5200195,11.0214644 11.7712402,10.992815 11.9484863,10.9355162 C12.1257324,10.8782175 12.2612305,10.7690769 12.3549805,10.6080947 C12.4282227,10.4934971 12.4648438,10.365257 12.4648438,10.2233743 C12.4648438,9.92050941 12.3491211,9.71928158 12.1176758,9.61969086 C11.8862305,9.52010013 11.5332031,9.47030477 11.0585938,9.47030477 L9.99951172,9.47030477 Z" id="形状结合" fill="#000000"></path>
    </g>
</svg>