<?xml version="1.0" encoding="UTF-8"?>
<svg width="22px" height="22px" viewBox="0 0 22 22" version="1.1" xmlns="http://www.w3.org/2000/svg" xmlns:xlink="http://www.w3.org/1999/xlink">
    <title>ICON / sidebar /search</title>
    <g id="ICON-/-sidebar-/search" stroke="none" stroke-width="1" fill="none" fill-rule="evenodd">
        <path d="M10,2 C14.418278,2 18,5.581722 18,10 C18,11.7909757 17.4114746,13.444494 16.4172669,14.7777117 L16.4453118,14.7398728 L19.8872757,18.2113997 C20.2900039,18.6141279 20.2900039,19.2670793 19.8872757,19.6698074 C19.5211592,20.035924 18.9482466,20.0692073 18.5445308,19.7696574 L18.428868,19.6698074 L15.0172911,16.2314707 L15.0363331,16.2160716 C13.6612102,17.3315878 11.9086631,18 10,18 C5.581722,18 2,14.418278 2,10 C2,5.581722 5.581722,2 10,2 Z M10,3.3 C6.29969218,3.3 3.3,6.29969218 3.3,10 C3.3,13.7003078 6.29969218,16.7 10,16.7 C13.7003078,16.7 16.7,13.7003078 16.7,10 C16.7,6.29969218 13.7003078,3.3 10,3.3 Z" id="形状结合" fill="#000000" fill-rule="nonzero"></path>
    </g>
</svg>