<?xml version="1.0" encoding="UTF-8"?>
<svg width="16px" height="16px" viewBox="0 0 16 16" version="1.1" xmlns="http://www.w3.org/2000/svg" xmlns:xlink="http://www.w3.org/1999/xlink">
    <title>ICON / search /stop_search</title>
    <g id="ICON-/-search-/stop_search" stroke="none" stroke-width="1" fill="none" fill-rule="evenodd">
        <path d="M7.5,1 C11.0898509,1 14,3.91014913 14,7.5 C14,9.02453897 13.4751448,10.4264914 12.59627,11.5350218 L15.0303301,13.9696699 C15.3232233,14.2625631 15.3232233,14.7374369 15.0303301,15.0303301 C14.7640635,15.2965966 14.3473998,15.3208027 14.0537883,15.1029482 L13.9696699,15.0303301 L11.5350218,12.59627 C10.4264914,13.4751448 9.02453897,14 7.5,14 C3.91014913,14 1,11.0898509 1,7.5 C1,3.91014913 3.91014913,1 7.5,1 Z M7.5,2 C5.98121694,2 4.60621694,2.61560847 3.6109127,3.6109127 C2.61560847,4.60621694 2,5.98121694 2,7.5 C2,9.01878306 2.61560847,10.3937831 3.6109127,11.3890873 C4.60621694,12.3843915 5.98121694,13 7.5,13 C8.7149417,13 9.83787507,12.6060655 10.7480381,11.9389587 L10.883,11.835 L11.0188096,11.7272337 C11.1473273,11.6201369 11.2708849,11.5072897 11.3890873,11.3890873 C11.5413633,11.2368113 11.6847517,11.0756476 11.8184076,10.906441 C12.5582993,9.96982172 13,8.78649322 13,7.5 C13,5.98121694 12.3843915,4.60621694 11.3890873,3.6109127 C10.3937831,2.61560847 9.01878306,2 7.5,2 Z M5.73223305,5.00361824 L7.5,6.76997098 L9.26776695,5.00361824 C9.4630291,4.80835609 9.77961159,4.80835609 9.97487373,5.00361824 C10.1701359,5.19888038 10.1701359,5.51546287 9.97487373,5.71072502 L8.20710678,7.47707776 L9.97487373,9.24625893 C10.1701359,9.44152107 10.1701359,9.75810356 9.97487373,9.95336571 C9.77961159,10.1486279 9.4630291,10.1486279 9.26776695,9.95336571 L7.5,8.18418454 L5.73223305,9.95336571 C5.5369709,10.1486279 5.22038841,10.1486279 5.02512627,9.95336571 C4.82986412,9.75810356 4.82986412,9.44152107 5.02512627,9.24625893 L6.79289322,7.47707776 L5.02512627,5.71072502 C4.82986412,5.51546287 4.82986412,5.19888038 5.02512627,5.00361824 C5.22038841,4.80835609 5.5369709,4.80835609 5.73223305,5.00361824 Z" id="形状结合" fill="#000000"></path>
    </g>
</svg>